<?xml version="1.0" encoding="UTF-8" standalone="no"?>
<!DOCTYPE svg PUBLIC "-//W3C//DTD SVG 1.1//EN"
 "http://www.w3.org/Graphics/SVG/1.1/DTD/svg11.dtd">
<!-- Generated by graphviz version 2.40.1 (20161225.0304)
 -->
<!-- Title: %3 Pages: 1 -->
<svg width="841pt" height="626pt"
 viewBox="0.00 0.00 840.94 626.00" xmlns="http://www.w3.org/2000/svg" xmlns:xlink="http://www.w3.org/1999/xlink">
<g id="graph0" class="graph" transform="scale(1 1) rotate(0) translate(4 622)">
<title>%3</title>
<polygon fill="#ffffff" stroke="transparent" points="-4,4 -4,-622 836.9427,-622 836.9427,4 -4,4"/>
<g id="clust1" class="cluster">
<title>cluster_0</title>
<polygon fill="#d3d3d3" stroke="#d3d3d3" points="8,-64 8,-610 266.9809,-610 266.9809,-64 8,-64"/>
</g>
<g id="clust2" class="cluster">
<title>cluster_1</title>
<polygon fill="#d3d3d3" stroke="#d3d3d3" points="286.9809,-8 286.9809,-610 545.9618,-610 545.9618,-8 286.9809,-8"/>
</g>
<g id="clust3" class="cluster">
<title>cluster_2</title>
<polygon fill="#d3d3d3" stroke="#d3d3d3" points="565.9618,-88 565.9618,-610 824.9427,-610 824.9427,-88 565.9618,-88"/>
</g>
<!-- _0 -->
<g id="node1" class="node">
<title>_0</title>
<g id="a_node1"><a xlink:href="/graphviz/svg/block/0" xlink:title=" &#160;Block #\n0 &#160;">
<polygon fill="none" stroke="#000000" points="170.9905,-602 167.9905,-606 146.9905,-606 143.9905,-602 103.9905,-602 103.9905,-564 170.9905,-564 170.9905,-602"/>
<text text-anchor="middle" x="137.4905" y="-586.8" font-family="Times,serif" font-size="14.00" fill="#000000"> &#160;Block #</text>
<text text-anchor="middle" x="137.4905" y="-571.8" font-family="Times,serif" font-size="14.00" fill="#000000">0 &#160;</text>
</a>
</g>
</g>
<!-- _1 -->
<g id="node8" class="node">
<title>_1</title>
<g id="a_node8"><a xlink:href="/graphviz/svg/block/1" xlink:title=" &#160;Block #\n1 &#160;">
<polygon fill="none" stroke="#000000" points="449.9714,-602 446.9714,-606 425.9714,-606 422.9714,-602 382.9714,-602 382.9714,-564 449.9714,-564 449.9714,-602"/>
<text text-anchor="middle" x="416.4714" y="-586.8" font-family="Times,serif" font-size="14.00" fill="#000000"> &#160;Block #</text>
<text text-anchor="middle" x="416.4714" y="-571.8" font-family="Times,serif" font-size="14.00" fill="#000000">1 &#160;</text>
</a>
</g>
</g>
<!-- _0&#45;&gt;_1 -->
<g id="edge5" class="edge">
<title>_0&#45;&gt;_1</title>
<path fill="none" stroke="#000000" d="M171.1421,-583C221.5169,-583 316.5667,-583 372.4135,-583"/>
<polygon fill="#000000" stroke="#000000" points="372.7004,-586.5001 382.7004,-583 372.7004,-579.5001 372.7004,-586.5001"/>
</g>
<!-- _0hash -->
<g id="node2" class="node">
<title>_0hash</title>
<polygon fill="none" stroke="transparent" points="220.4905,-546 54.4905,-546 54.4905,-510 220.4905,-510 220.4905,-546"/>
<polyline fill="none" stroke="#000000" points="54.4905,-510 220.4905,-510 "/>
<text text-anchor="middle" x="137.4905" y="-524.3" font-family="Times,serif" font-size="14.00" fill="#000000">Hash: 000003D...7E20F3D</text>
</g>
<!-- _1phash -->
<g id="node10" class="node">
<title>_1phash</title>
<polygon fill="none" stroke="transparent" points="502.9714,-492 329.9714,-492 329.9714,-456 502.9714,-456 502.9714,-492"/>
<polyline fill="none" stroke="#000000" points="329.9714,-456 502.9714,-456 "/>
<text text-anchor="middle" x="416.4714" y="-470.3" font-family="Times,serif" font-size="14.00" fill="#000000">PHash: 000003D...7E20F3D</text>
</g>
<!-- _0hash&#45;&gt;_1phash -->
<g id="edge1" class="edge">
<title>_0hash&#45;&gt;_1phash</title>
<path fill="none" stroke="#000000" stroke-dasharray="1,5" d="M220.816,-511.8714C251.9545,-505.8442 287.5755,-498.9493 319.8157,-492.7088"/>
<polygon fill="#000000" stroke="#000000" points="320.5514,-496.1315 329.704,-490.7948 319.2211,-489.259 320.5514,-496.1315"/>
</g>
<!-- _0issuer -->
<g id="node3" class="node">
<title>_0issuer</title>
<g id="a_node3"><a xlink:href="/graphviz/svg/certs/2ny7YAdmzReQxAayyJZsyVYwYhVyax2thKcGknmQy5nQ" xlink:title="issuer:\n2ny7YAd...nmQy5nQ">
<polygon fill="none" stroke="#000000" points="258.9714,-469.3298 137.4905,-492.4278 16.0095,-469.3298 16.1229,-431.9563 258.858,-431.9563 258.9714,-469.3298"/>
<text text-anchor="middle" x="137.4905" y="-462.8" font-family="Times,serif" font-size="14.00" fill="#000000">issuer:</text>
<text text-anchor="middle" x="137.4905" y="-447.8" font-family="Times,serif" font-size="14.00" fill="#000000">2ny7YAd...nmQy5nQ</text>
</a>
</g>
</g>
<!-- _1pissuer -->
<g id="node12" class="node">
<title>_1pissuer</title>
<polygon fill="none" stroke="#000000" points="537.9523,-331.3298 416.4714,-354.4278 294.9905,-331.3298 295.1038,-293.9563 537.8389,-293.9563 537.9523,-331.3298"/>
<text text-anchor="middle" x="416.4714" y="-324.8" font-family="Times,serif" font-size="14.00" fill="#000000">pissuer:</text>
<text text-anchor="middle" x="416.4714" y="-309.8" font-family="Times,serif" font-size="14.00" fill="#000000">2ny7YAd...nmQy5nQ</text>
</g>
<!-- _0issuer&#45;&gt;_1pissuer -->
<g id="edge3" class="edge">
<title>_0issuer&#45;&gt;_1pissuer</title>
<path fill="none" stroke="#000000" stroke-dasharray="1,5" d="M247.0385,-431.9465C254.2564,-427.6744 261.013,-422.7278 266.9809,-417 285.4458,-399.2782 268.5161,-380.7218 286.9809,-363 296.13,-354.2191 307.1324,-347.274 318.8093,-341.7809"/>
<polygon fill="#000000" stroke="#000000" points="320.506,-344.8605 328.296,-337.6795 317.7282,-338.4353 320.506,-344.8605"/>
</g>
<!-- _0info -->
<g id="node4" class="node">
<title>_0info</title>
<text text-anchor="start" x="62.4905" y="-392.3" font-family="Times,serif" font-size="14.00" fill="#000000">Mbr: 59</text>
<text text-anchor="start" x="62.4905" y="-377.3" font-family="Times,serif" font-size="14.00" fill="#000000">Cur: g1</text>
<text text-anchor="start" x="62.4905" y="-362.3" font-family="Times,serif" font-size="14.00" fill="#000000">Ver: 10</text>
<text text-anchor="start" x="62.4905" y="-347.3" font-family="Times,serif" font-size="14.00" fill="#000000">Pow: 70</text>
<text text-anchor="start" x="62.4905" y="-332.3" font-family="Times,serif" font-size="14.00" fill="#000000">issCnt: 0</text>
<text text-anchor="start" x="62.4905" y="-317.3" font-family="Times,serif" font-size="14.00" fill="#000000">issFrm: 1</text>
<text text-anchor="start" x="62.4905" y="-302.3" font-family="Times,serif" font-size="14.00" fill="#000000">issFVar: 0</text>
<text text-anchor="start" x="62.4905" y="-287.3" font-family="Times,serif" font-size="14.00" fill="#000000">M.M: 0</text>
<text text-anchor="start" x="62.4905" y="-272.3" font-family="Times,serif" font-size="14.00" fill="#000000">Tim: 2017&#45;03&#45;08 16:32:07</text>
<text text-anchor="start" x="62.4905" y="-257.3" font-family="Times,serif" font-size="14.00" fill="#000000">DeltaTime: N/A</text>
<text text-anchor="start" x="62.4905" y="-242.3" font-family="Times,serif" font-size="14.00" fill="#000000">Sign: 49OD/8p...BrkCw==</text>
</g>
<!-- _0Ce -->
<g id="node5" class="node">
<title>_0Ce</title>
<g id="a_node5"><a xlink:href="/graphviz/svg/certs/2ny7YAdmzReQxAayyJZsyVYwYhVyax2thKcGknmQy5nQ" xlink:title="Certs: 551">
<polygon fill="none" stroke="#000000" points="188.7008,-190.5442 188.7008,-205.4558 158.7025,-216 116.2784,-216 86.2801,-205.4558 86.2801,-190.5442 116.2784,-180 158.7025,-180 188.7008,-190.5442"/>
<text text-anchor="middle" x="137.4905" y="-194.3" font-family="Times,serif" font-size="14.00" fill="#000000">Certs: 551</text>
</a>
</g>
</g>
<!-- _0idty -->
<g id="node6" class="node">
<title>_0idty</title>
<polygon fill="none" stroke="#000000" points="179.0026,-136.5442 179.0026,-151.4558 154.6853,-162 120.2956,-162 95.9783,-151.4558 95.9783,-136.5442 120.2956,-126 154.6853,-126 179.0026,-136.5442"/>
<text text-anchor="middle" x="137.4905" y="-140.3" font-family="Times,serif" font-size="14.00" fill="#000000">Idty: 59</text>
</g>
<!-- _0joi -->
<g id="node7" class="node">
<title>_0joi</title>
<polygon fill="none" stroke="#000000" points="190.9213,-82.5442 190.9213,-97.4558 159.6223,-108 115.3587,-108 84.0596,-97.4558 84.0596,-82.5442 115.3587,-72 159.6223,-72 190.9213,-82.5442"/>
<text text-anchor="middle" x="137.4905" y="-86.3" font-family="Times,serif" font-size="14.00" fill="#000000">Joiners: 59</text>
</g>
<!-- _2 -->
<g id="node15" class="node">
<title>_2</title>
<g id="a_node15"><a xlink:href="/graphviz/svg/block/2" xlink:title=" &#160;Block #\n2 &#160;">
<polygon fill="none" stroke="#000000" points="728.9523,-602 725.9523,-606 704.9523,-606 701.9523,-602 661.9523,-602 661.9523,-564 728.9523,-564 728.9523,-602"/>
<text text-anchor="middle" x="695.4523" y="-586.8" font-family="Times,serif" font-size="14.00" fill="#000000"> &#160;Block #</text>
<text text-anchor="middle" x="695.4523" y="-571.8" font-family="Times,serif" font-size="14.00" fill="#000000">2 &#160;</text>
</a>
</g>
</g>
<!-- _1&#45;&gt;_2 -->
<g id="edge6" class="edge">
<title>_1&#45;&gt;_2</title>
<path fill="none" stroke="#000000" d="M450.123,-583C500.4978,-583 595.5476,-583 651.3944,-583"/>
<polygon fill="#000000" stroke="#000000" points="651.6813,-586.5001 661.6813,-583 651.6813,-579.5001 651.6813,-586.5001"/>
</g>
<!-- _1hash -->
<g id="node9" class="node">
<title>_1hash</title>
<polygon fill="none" stroke="transparent" points="496.4714,-546 336.4714,-546 336.4714,-510 496.4714,-510 496.4714,-546"/>
<polyline fill="none" stroke="#000000" points="336.4714,-510 496.4714,-510 "/>
<text text-anchor="middle" x="416.4714" y="-524.3" font-family="Times,serif" font-size="14.00" fill="#000000">Hash: 0000238...9087C02</text>
</g>
<!-- _2phash -->
<g id="node17" class="node">
<title>_2phash</title>
<polygon fill="none" stroke="transparent" points="778.9523,-492 611.9523,-492 611.9523,-456 778.9523,-456 778.9523,-492"/>
<polyline fill="none" stroke="#000000" points="611.9523,-456 778.9523,-456 "/>
<text text-anchor="middle" x="695.4523" y="-470.3" font-family="Times,serif" font-size="14.00" fill="#000000">PHash: 0000238...9087C02</text>
</g>
<!-- _1hash&#45;&gt;_2phash -->
<g id="edge2" class="edge">
<title>_1hash&#45;&gt;_2phash</title>
<path fill="none" stroke="#000000" stroke-dasharray="1,5" d="M496.7899,-512.4534C529.6076,-506.1012 567.7892,-498.7107 601.8595,-492.116"/>
<polygon fill="#000000" stroke="#000000" points="602.6671,-495.5247 611.8197,-490.1881 601.3368,-488.6523 602.6671,-495.5247"/>
</g>
<!-- _1issuer -->
<g id="node11" class="node">
<title>_1issuer</title>
<g id="a_node11"><a xlink:href="/graphviz/svg/certs/2ny7YAdmzReQxAayyJZsyVYwYhVyax2thKcGknmQy5nQ" xlink:title="issuer:\n2ny7YAd...nmQy5nQ">
<polygon fill="none" stroke="#000000" points="537.9523,-415.3298 416.4714,-438.4278 294.9905,-415.3298 295.1038,-377.9563 537.8389,-377.9563 537.9523,-415.3298"/>
<text text-anchor="middle" x="416.4714" y="-408.8" font-family="Times,serif" font-size="14.00" fill="#000000">issuer:</text>
<text text-anchor="middle" x="416.4714" y="-393.8" font-family="Times,serif" font-size="14.00" fill="#000000">2ny7YAd...nmQy5nQ</text>
</a>
</g>
</g>
<!-- _2pissuer -->
<g id="node19" class="node">
<title>_2pissuer</title>
<polygon fill="none" stroke="#000000" points="816.9332,-331.3298 695.4523,-354.4278 573.9714,-331.3298 574.0848,-293.9563 816.8198,-293.9563 816.9332,-331.3298"/>
<text text-anchor="middle" x="695.4523" y="-324.8" font-family="Times,serif" font-size="14.00" fill="#000000">pissuer:</text>
<text text-anchor="middle" x="695.4523" y="-309.8" font-family="Times,serif" font-size="14.00" fill="#000000">2ny7YAd...nmQy5nQ</text>
</g>
<!-- _1issuer&#45;&gt;_2pissuer -->
<g id="edge4" class="edge">
<title>_1issuer&#45;&gt;_2pissuer</title>
<path fill="none" stroke="#000000" stroke-dasharray="1,5" d="M506.6632,-377.8436C542.3069,-367.1114 582.8792,-354.8953 617.2532,-344.5454"/>
<polygon fill="#000000" stroke="#000000" points="618.6745,-347.7728 627.2407,-341.5382 616.6562,-341.07 618.6745,-347.7728"/>
</g>
<!-- _1info -->
<g id="node13" class="node">
<title>_1info</title>
<text text-anchor="start" x="338.4714" y="-254.3" font-family="Times,serif" font-size="14.00" fill="#000000">Mbr: 59</text>
<text text-anchor="start" x="338.4714" y="-239.3" font-family="Times,serif" font-size="14.00" fill="#000000">Cur: g1</text>
<text text-anchor="start" x="338.4714" y="-224.3" font-family="Times,serif" font-size="14.00" fill="#000000">Ver: 10</text>
<text text-anchor="start" x="338.4714" y="-209.3" font-family="Times,serif" font-size="14.00" fill="#000000">Pow: 70</text>
<text text-anchor="start" x="338.4714" y="-194.3" font-family="Times,serif" font-size="14.00" fill="#000000">issCnt: 1</text>
<text text-anchor="start" x="338.4714" y="-179.3" font-family="Times,serif" font-size="14.00" fill="#000000">issFrm: 1</text>
<text text-anchor="start" x="338.4714" y="-164.3" font-family="Times,serif" font-size="14.00" fill="#000000">issFVar: 5</text>
<text text-anchor="start" x="338.4714" y="-149.3" font-family="Times,serif" font-size="14.00" fill="#000000">M.M: 59000</text>
<text text-anchor="start" x="338.4714" y="-134.3" font-family="Times,serif" font-size="14.00" fill="#000000">Tim: 2017&#45;03&#45;08 16:32:07</text>
<text text-anchor="start" x="338.4714" y="-119.3" font-family="Times,serif" font-size="14.00" fill="#000000">DeltaTime: 0m 0s</text>
<text text-anchor="start" x="338.4714" y="-104.3" font-family="Times,serif" font-size="14.00" fill="#000000">Sign: zcF6EZF...kXKCQ==</text>
</g>
<!-- _1Ud -->
<g id="node14" class="node">
<title>_1Ud</title>
<ellipse fill="#ffff00" stroke="#ffff00" cx="416.4714" cy="-47" rx="31.2258" ry="31.2258"/>
<text text-anchor="middle" x="416.4714" y="-50.8" font-family="Times,serif" font-size="14.00" fill="#000000">UD</text>
<text text-anchor="middle" x="416.4714" y="-35.8" font-family="Times,serif" font-size="14.00" fill="#000000">1000</text>
</g>
<!-- _2hash -->
<g id="node16" class="node">
<title>_2hash</title>
<polygon fill="none" stroke="transparent" points="776.9523,-546 613.9523,-546 613.9523,-510 776.9523,-510 776.9523,-546"/>
<polyline fill="none" stroke="#000000" points="613.9523,-510 776.9523,-510 "/>
<text text-anchor="middle" x="695.4523" y="-524.3" font-family="Times,serif" font-size="14.00" fill="#000000">Hash: 000027A...260322C</text>
</g>
<!-- _2issuer -->
<g id="node18" class="node">
<title>_2issuer</title>
<g id="a_node18"><a xlink:href="/graphviz/svg/certs/2ny7YAdmzReQxAayyJZsyVYwYhVyax2thKcGknmQy5nQ" xlink:title="issuer:\n2ny7YAd...nmQy5nQ">
<polygon fill="none" stroke="#000000" points="816.9332,-415.3298 695.4523,-438.4278 573.9714,-415.3298 574.0848,-377.9563 816.8198,-377.9563 816.9332,-415.3298"/>
<text text-anchor="middle" x="695.4523" y="-408.8" font-family="Times,serif" font-size="14.00" fill="#000000">issuer:</text>
<text text-anchor="middle" x="695.4523" y="-393.8" font-family="Times,serif" font-size="14.00" fill="#000000">2ny7YAd...nmQy5nQ</text>
</a>
</g>
</g>
<!-- _2info -->
<g id="node20" class="node">
<title>_2info</title>
<text text-anchor="start" x="622.4523" y="-254.3" font-family="Times,serif" font-size="14.00" fill="#000000">Mbr: 59</text>
<text text-anchor="start" x="622.4523" y="-239.3" font-family="Times,serif" font-size="14.00" fill="#000000">Cur: g1</text>
<text text-anchor="start" x="622.4523" y="-224.3" font-family="Times,serif" font-size="14.00" fill="#000000">Ver: 10</text>
<text text-anchor="start" x="622.4523" y="-209.3" font-family="Times,serif" font-size="14.00" fill="#000000">Pow: 70</text>
<text text-anchor="start" x="622.4523" y="-194.3" font-family="Times,serif" font-size="14.00" fill="#000000">issCnt: 1</text>
<text text-anchor="start" x="622.4523" y="-179.3" font-family="Times,serif" font-size="14.00" fill="#000000">issFrm: 2</text>
<text text-anchor="start" x="622.4523" y="-164.3" font-family="Times,serif" font-size="14.00" fill="#000000">issFVar: 4</text>
<text text-anchor="start" x="622.4523" y="-149.3" font-family="Times,serif" font-size="14.00" fill="#000000">M.M: 59000</text>
<text text-anchor="start" x="622.4523" y="-134.3" font-family="Times,serif" font-size="14.00" fill="#000000">Tim: 2017&#45;03&#45;08 16:33:00</text>
<text text-anchor="start" x="622.4523" y="-119.3" font-family="Times,serif" font-size="14.00" fill="#000000">DeltaTime: 0m 53s</text>
<text text-anchor="start" x="622.4523" y="-104.3" font-family="Times,serif" font-size="14.00" fill="#000000">Sign: jrBs6ia...CaRAg==</text>
</g>
</g>
</svg>
