<?xml version="1.0" encoding="UTF-8" standalone="no"?>
<!DOCTYPE svg PUBLIC "-//W3C//DTD SVG 1.1//EN"
 "http://www.w3.org/Graphics/SVG/1.1/DTD/svg11.dtd">
<!-- Generated by graphviz version 2.40.1 (20161225.0304)
 -->
<!-- Title: %3 Pages: 1 -->
<svg width="1388pt" height="711pt"
 viewBox="0.00 0.00 1388.42 711.00" xmlns="http://www.w3.org/2000/svg" xmlns:xlink="http://www.w3.org/1999/xlink">
<g id="graph0" class="graph" transform="scale(1 1) rotate(0) translate(4 707)">
<title>%3</title>
<polygon fill="#ffffff" stroke="transparent" points="-4,4 -4,-707 1384.4162,-707 1384.4162,4 -4,4"/>
<g id="clust1" class="cluster">
<title>cluster_114356</title>
<polygon fill="#d3d3d3" stroke="#d3d3d3" points="8,-88 8,-610 270.477,-610 270.477,-88 8,-88"/>
</g>
<g id="clust2" class="cluster">
<title>cluster_114357</title>
<polygon fill="#d3d3d3" stroke="#d3d3d3" points="290.477,-88 290.477,-610 545.9618,-610 545.9618,-88 290.477,-88"/>
</g>
<g id="clust3" class="cluster">
<title>cluster_114358</title>
<polygon fill="#d3d3d3" stroke="#d3d3d3" points="565.9618,-8 565.9618,-610 823.1947,-610 823.1947,-8 565.9618,-8"/>
</g>
<g id="clust4" class="cluster">
<title>cluster_114359</title>
<polygon fill="#d3d3d3" stroke="#d3d3d3" points="843.1947,-88 843.1947,-695 1100.4275,-695 1100.4275,-88 843.1947,-88"/>
</g>
<g id="clust5" class="cluster">
<title>cluster_114359Tx</title>
<polygon fill="none" stroke="#000000" stroke-dasharray="1,5" points="889.8111,-612 889.8111,-687 1053.8111,-687 1053.8111,-612 889.8111,-612"/>
<text text-anchor="middle" x="971.8111" y="-671.8" font-family="Times,serif" font-size="14.00" fill="#000000">Transactions</text>
</g>
<g id="clust6" class="cluster">
<title>cluster_114360</title>
<polygon fill="#d3d3d3" stroke="#d3d3d3" points="1120.4275,-88 1120.4275,-695 1372.4162,-695 1372.4162,-88 1120.4275,-88"/>
</g>
<g id="clust7" class="cluster">
<title>cluster_114360Tx</title>
<polygon fill="none" stroke="#000000" stroke-dasharray="1,5" points="1159.4218,-612 1159.4218,-687 1333.4218,-687 1333.4218,-612 1159.4218,-612"/>
<text text-anchor="middle" x="1246.4218" y="-671.8" font-family="Times,serif" font-size="14.00" fill="#000000">Transactions</text>
</g>
<!-- _114356 -->
<g id="node1" class="node">
<title>_114356</title>
<g id="a_node1"><a xlink:href="/graphviz/svg/block/114356" xlink:title=" &#160;Block #\n114356 &#160;">
<polygon fill="none" stroke="#000000" points="172.7385,-602 169.7385,-606 148.7385,-606 145.7385,-602 105.7385,-602 105.7385,-564 172.7385,-564 172.7385,-602"/>
<text text-anchor="middle" x="139.2385" y="-586.8" font-family="Times,serif" font-size="14.00" fill="#000000"> &#160;Block #</text>
<text text-anchor="middle" x="139.2385" y="-571.8" font-family="Times,serif" font-size="14.00" fill="#000000">114356 &#160;</text>
</a>
</g>
</g>
<!-- _114357 -->
<g id="node7" class="node">
<title>_114357</title>
<g id="a_node7"><a xlink:href="/graphviz/svg/block/114357" xlink:title=" &#160;Block #\n114357 &#160;">
<polygon fill="none" stroke="#000000" points="451.7194,-602 448.7194,-606 427.7194,-606 424.7194,-602 384.7194,-602 384.7194,-564 451.7194,-564 451.7194,-602"/>
<text text-anchor="middle" x="418.2194" y="-586.8" font-family="Times,serif" font-size="14.00" fill="#000000"> &#160;Block #</text>
<text text-anchor="middle" x="418.2194" y="-571.8" font-family="Times,serif" font-size="14.00" fill="#000000">114357 &#160;</text>
</a>
</g>
</g>
<!-- _114356&#45;&gt;_114357 -->
<g id="edge9" class="edge">
<title>_114356&#45;&gt;_114357</title>
<path fill="none" stroke="#000000" d="M172.8901,-583C223.2649,-583 318.3148,-583 374.1616,-583"/>
<polygon fill="#000000" stroke="#000000" points="374.4485,-586.5001 384.4485,-583 374.4484,-579.5001 374.4485,-586.5001"/>
</g>
<!-- _114356hash -->
<g id="node2" class="node">
<title>_114356hash</title>
<polygon fill="none" stroke="transparent" points="221.2385,-546 57.2385,-546 57.2385,-510 221.2385,-510 221.2385,-546"/>
<polyline fill="none" stroke="#000000" points="57.2385,-510 221.2385,-510 "/>
<text text-anchor="middle" x="139.2385" y="-524.3" font-family="Times,serif" font-size="14.00" fill="#000000">Hash: 000000E...36D8E8F</text>
</g>
<!-- _114357phash -->
<g id="node9" class="node">
<title>_114357phash</title>
<polygon fill="none" stroke="transparent" points="504.2194,-492 332.2194,-492 332.2194,-456 504.2194,-456 504.2194,-492"/>
<polyline fill="none" stroke="#000000" points="332.2194,-456 504.2194,-456 "/>
<text text-anchor="middle" x="418.2194" y="-470.3" font-family="Times,serif" font-size="14.00" fill="#000000">PHash: 000000E...36D8E8F</text>
</g>
<!-- _114356hash&#45;&gt;_114357phash -->
<g id="edge1" class="edge">
<title>_114356hash&#45;&gt;_114357phash</title>
<path fill="none" stroke="#000000" stroke-dasharray="1,5" d="M221.4331,-512.0903C252.8955,-506.0004 289.0648,-498.9994 321.743,-492.6741"/>
<polygon fill="#000000" stroke="#000000" points="322.6108,-496.0712 331.7634,-490.7346 321.2805,-489.1988 322.6108,-496.0712"/>
</g>
<!-- _114356phash -->
<g id="node3" class="node">
<title>_114356phash</title>
<polygon fill="none" stroke="transparent" points="225.7385,-492 52.7385,-492 52.7385,-456 225.7385,-456 225.7385,-492"/>
<polyline fill="none" stroke="#000000" points="52.7385,-456 225.7385,-456 "/>
<text text-anchor="middle" x="139.2385" y="-470.3" font-family="Times,serif" font-size="14.00" fill="#000000">PHash: 0000025...DBB656F</text>
</g>
<!-- _114356issuer -->
<g id="node4" class="node">
<title>_114356issuer</title>
<g id="a_node4"><a xlink:href="/graphviz/svg/certs/81t4UcqmrVnRqGaQwc2zSmoe1bM5G4vQ7fPxbTeD8a5X" xlink:title="issuer:\n81t4Ucq...TeD8a5X">
<polygon fill="none" stroke="#000000" points="250.9909,-415.3298 139.2385,-438.4278 27.4862,-415.3298 27.5905,-377.9563 250.8866,-377.9563 250.9909,-415.3298"/>
<text text-anchor="middle" x="139.2385" y="-408.8" font-family="Times,serif" font-size="14.00" fill="#000000">issuer:</text>
<text text-anchor="middle" x="139.2385" y="-393.8" font-family="Times,serif" font-size="14.00" fill="#000000">81t4Ucq...TeD8a5X</text>
</a>
</g>
</g>
<!-- _114357pissuer -->
<g id="node11" class="node">
<title>_114357pissuer</title>
<polygon fill="none" stroke="#000000" points="529.9718,-331.3298 418.2194,-354.4278 306.4671,-331.3298 306.5714,-293.9563 529.8675,-293.9563 529.9718,-331.3298"/>
<text text-anchor="middle" x="418.2194" y="-324.8" font-family="Times,serif" font-size="14.00" fill="#000000">pissuer:</text>
<text text-anchor="middle" x="418.2194" y="-309.8" font-family="Times,serif" font-size="14.00" fill="#000000">81t4Ucq...TeD8a5X</text>
</g>
<!-- _114356issuer&#45;&gt;_114357pissuer -->
<g id="edge5" class="edge">
<title>_114356issuer&#45;&gt;_114357pissuer</title>
<path fill="none" stroke="#000000" stroke-dasharray="1,5" d="M229.4304,-377.8436C265.9546,-366.8463 307.6539,-354.2908 342.5564,-343.7818"/>
<polygon fill="#000000" stroke="#000000" points="343.6442,-347.1096 352.2105,-340.875 341.626,-340.4068 343.6442,-347.1096"/>
</g>
<!-- _114356pissuer -->
<g id="node5" class="node">
<title>_114356pissuer</title>
<polygon fill="none" stroke="#000000" points="262.716,-331.3298 139.2385,-354.4278 15.761,-331.3298 15.8763,-293.9563 262.6008,-293.9563 262.716,-331.3298"/>
<text text-anchor="middle" x="139.2385" y="-324.8" font-family="Times,serif" font-size="14.00" fill="#000000">pissuer:</text>
<text text-anchor="middle" x="139.2385" y="-309.8" font-family="Times,serif" font-size="14.00" fill="#000000">4e5X6GG...UWno7zT</text>
</g>
<!-- _114356info -->
<g id="node6" class="node">
<title>_114356info</title>
<text text-anchor="start" x="66.2385" y="-254.3" font-family="Times,serif" font-size="14.00" fill="#000000">Mbr: 990</text>
<text text-anchor="start" x="66.2385" y="-239.3" font-family="Times,serif" font-size="14.00" fill="#000000">Cur: g1</text>
<text text-anchor="start" x="66.2385" y="-224.3" font-family="Times,serif" font-size="14.00" fill="#000000">Ver: 10</text>
<text text-anchor="start" x="66.2385" y="-209.3" font-family="Times,serif" font-size="14.00" fill="#000000">Pow: 92</text>
<text text-anchor="start" x="66.2385" y="-194.3" font-family="Times,serif" font-size="14.00" fill="#000000">issCnt: 37</text>
<text text-anchor="start" x="66.2385" y="-179.3" font-family="Times,serif" font-size="14.00" fill="#000000">issFrm: 185</text>
<text text-anchor="start" x="66.2385" y="-164.3" font-family="Times,serif" font-size="14.00" fill="#000000">issFVar: 1</text>
<text text-anchor="start" x="66.2385" y="-149.3" font-family="Times,serif" font-size="14.00" fill="#000000">M.M: 161306355</text>
<text text-anchor="start" x="66.2385" y="-134.3" font-family="Times,serif" font-size="14.00" fill="#000000">Tim: 2018&#45;04&#45;25 11:47:08</text>
<text text-anchor="start" x="66.2385" y="-119.3" font-family="Times,serif" font-size="14.00" fill="#000000">DeltaTime: 5m 54s</text>
<text text-anchor="start" x="66.2385" y="-104.3" font-family="Times,serif" font-size="14.00" fill="#000000">Sign: /lGiDFM...5rqBg==</text>
</g>
<!-- _114358 -->
<g id="node13" class="node">
<title>_114358</title>
<g id="a_node13"><a xlink:href="/graphviz/svg/block/114358" xlink:title=" &#160;Block #\n114358 &#160;">
<polygon fill="none" stroke="#000000" points="728.0782,-602 725.0782,-606 704.0782,-606 701.0782,-602 661.0782,-602 661.0782,-564 728.0782,-564 728.0782,-602"/>
<text text-anchor="middle" x="694.5782" y="-586.8" font-family="Times,serif" font-size="14.00" fill="#000000"> &#160;Block #</text>
<text text-anchor="middle" x="694.5782" y="-571.8" font-family="Times,serif" font-size="14.00" fill="#000000">114358 &#160;</text>
</a>
</g>
</g>
<!-- _114357&#45;&gt;_114358 -->
<g id="edge10" class="edge">
<title>_114357&#45;&gt;_114358</title>
<path fill="none" stroke="#000000" d="M451.8302,-583C501.6962,-583 595.3174,-583 650.5839,-583"/>
<polygon fill="#000000" stroke="#000000" points="650.7696,-586.5001 660.7696,-583 650.7695,-579.5001 650.7696,-586.5001"/>
</g>
<!-- _114357hash -->
<g id="node8" class="node">
<title>_114357hash</title>
<polygon fill="none" stroke="transparent" points="501.2194,-546 335.2194,-546 335.2194,-510 501.2194,-510 501.2194,-546"/>
<polyline fill="none" stroke="#000000" points="335.2194,-510 501.2194,-510 "/>
<text text-anchor="middle" x="418.2194" y="-524.3" font-family="Times,serif" font-size="14.00" fill="#000000">Hash: 0000006...AEF5A44</text>
</g>
<!-- _114358phash -->
<g id="node15" class="node">
<title>_114358phash</title>
<polygon fill="none" stroke="transparent" points="781.0782,-492 608.0782,-492 608.0782,-456 781.0782,-456 781.0782,-492"/>
<polyline fill="none" stroke="#000000" points="608.0782,-456 781.0782,-456 "/>
<text text-anchor="middle" x="694.5782" y="-470.3" font-family="Times,serif" font-size="14.00" fill="#000000">PHash: 0000006...AEF5A44</text>
</g>
<!-- _114357hash&#45;&gt;_114358phash -->
<g id="edge2" class="edge">
<title>_114357hash&#45;&gt;_114358phash</title>
<path fill="none" stroke="#000000" stroke-dasharray="1,5" d="M501.511,-511.725C531.7702,-505.8124 566.2228,-499.0804 597.5656,-492.9561"/>
<polygon fill="#000000" stroke="#000000" points="598.4801,-496.3437 607.6233,-490.9908 597.1376,-489.4736 598.4801,-496.3437"/>
</g>
<!-- _114357issuer -->
<g id="node10" class="node">
<title>_114357issuer</title>
<g id="a_node10"><a xlink:href="/graphviz/svg/certs/CRBxCJrTA6tmHsgt9cQh9SHcCc8w8q95YTp38CPHx2Uk" xlink:title="issuer:\nCRBxCJr...CPHx2Uk">
<polygon fill="none" stroke="#000000" points="538.2047,-415.3298 418.2194,-438.4278 298.2342,-415.3298 298.3461,-377.9563 538.0927,-377.9563 538.2047,-415.3298"/>
<text text-anchor="middle" x="418.2194" y="-408.8" font-family="Times,serif" font-size="14.00" fill="#000000">issuer:</text>
<text text-anchor="middle" x="418.2194" y="-393.8" font-family="Times,serif" font-size="14.00" fill="#000000">CRBxCJr...CPHx2Uk</text>
</a>
</g>
</g>
<!-- _114358pissuer -->
<g id="node17" class="node">
<title>_114358pissuer</title>
<polygon fill="none" stroke="#000000" points="814.5635,-331.3298 694.5782,-354.4278 574.593,-331.3298 574.705,-293.9563 814.4515,-293.9563 814.5635,-331.3298"/>
<text text-anchor="middle" x="694.5782" y="-324.8" font-family="Times,serif" font-size="14.00" fill="#000000">pissuer:</text>
<text text-anchor="middle" x="694.5782" y="-309.8" font-family="Times,serif" font-size="14.00" fill="#000000">CRBxCJr...CPHx2Uk</text>
</g>
<!-- _114357issuer&#45;&gt;_114358pissuer -->
<g id="edge6" class="edge">
<title>_114357issuer&#45;&gt;_114358pissuer</title>
<path fill="none" stroke="#000000" stroke-dasharray="1,5" d="M507.5636,-377.8436C542.8723,-367.1114 583.0632,-354.8953 617.1141,-344.5454"/>
<polygon fill="#000000" stroke="#000000" points="618.4579,-347.7952 627.0078,-341.5382 616.4221,-341.0977 618.4579,-347.7952"/>
</g>
<!-- _114357info -->
<g id="node12" class="node">
<title>_114357info</title>
<text text-anchor="start" x="336.7194" y="-254.3" font-family="Times,serif" font-size="14.00" fill="#000000">Mbr: 990</text>
<text text-anchor="start" x="336.7194" y="-239.3" font-family="Times,serif" font-size="14.00" fill="#000000">Cur: g1</text>
<text text-anchor="start" x="336.7194" y="-224.3" font-family="Times,serif" font-size="14.00" fill="#000000">Ver: 10</text>
<text text-anchor="start" x="336.7194" y="-209.3" font-family="Times,serif" font-size="14.00" fill="#000000">Pow: 92</text>
<text text-anchor="start" x="336.7194" y="-194.3" font-family="Times,serif" font-size="14.00" fill="#000000">issCnt: 37</text>
<text text-anchor="start" x="336.7194" y="-179.3" font-family="Times,serif" font-size="14.00" fill="#000000">issFrm: 186</text>
<text text-anchor="start" x="336.7194" y="-164.3" font-family="Times,serif" font-size="14.00" fill="#000000">issFVar: 0</text>
<text text-anchor="start" x="336.7194" y="-149.3" font-family="Times,serif" font-size="14.00" fill="#000000">M.M: 161306355</text>
<text text-anchor="start" x="336.7194" y="-134.3" font-family="Times,serif" font-size="14.00" fill="#000000">Tim: 2018&#45;04&#45;25 11:53:25</text>
<text text-anchor="start" x="336.7194" y="-119.3" font-family="Times,serif" font-size="14.00" fill="#000000">DeltaTime: 6m 17s</text>
<text text-anchor="start" x="336.7194" y="-104.3" font-family="Times,serif" font-size="14.00" fill="#000000">Sign: vKH2/eh...mWRCw==</text>
</g>
<!-- _114359 -->
<g id="node20" class="node">
<title>_114359</title>
<g id="a_node20"><a xlink:href="/graphviz/svg/block/114359" xlink:title=" &#160;Block #\n114359 &#160;">
<polygon fill="none" stroke="#000000" points="1005.3111,-602 1002.3111,-606 981.3111,-606 978.3111,-602 938.3111,-602 938.3111,-564 1005.3111,-564 1005.3111,-602"/>
<text text-anchor="middle" x="971.8111" y="-586.8" font-family="Times,serif" font-size="14.00" fill="#000000"> &#160;Block #</text>
<text text-anchor="middle" x="971.8111" y="-571.8" font-family="Times,serif" font-size="14.00" fill="#000000">114359 &#160;</text>
</a>
</g>
</g>
<!-- _114358&#45;&gt;_114359 -->
<g id="edge11" class="edge">
<title>_114358&#45;&gt;_114359</title>
<path fill="none" stroke="#000000" d="M728.2953,-583C778.319,-583 872.2363,-583 927.6776,-583"/>
<polygon fill="#000000" stroke="#000000" points="927.8955,-586.5001 937.8955,-583 927.8954,-579.5001 927.8955,-586.5001"/>
</g>
<!-- _114358hash -->
<g id="node14" class="node">
<title>_114358hash</title>
<polygon fill="none" stroke="transparent" points="780.0782,-546 609.0782,-546 609.0782,-510 780.0782,-510 780.0782,-546"/>
<polyline fill="none" stroke="#000000" points="609.0782,-510 780.0782,-510 "/>
<text text-anchor="middle" x="694.5782" y="-524.3" font-family="Times,serif" font-size="14.00" fill="#000000">Hash: 000001D...D24E1DD</text>
</g>
<!-- _114359phash -->
<g id="node22" class="node">
<title>_114359phash</title>
<polygon fill="none" stroke="transparent" points="1061.3111,-492 882.3111,-492 882.3111,-456 1061.3111,-456 1061.3111,-492"/>
<polyline fill="none" stroke="#000000" points="882.3111,-456 1061.3111,-456 "/>
<text text-anchor="middle" x="971.8111" y="-470.3" font-family="Times,serif" font-size="14.00" fill="#000000">PHash: 000001D...D24E1DD</text>
</g>
<!-- _114358hash&#45;&gt;_114359phash -->
<g id="edge3" class="edge">
<title>_114358hash&#45;&gt;_114359phash</title>
<path fill="none" stroke="#000000" stroke-dasharray="1,5" d="M780.3979,-511.2839C809.4012,-505.6345 842.03,-499.279 872.0212,-493.4373"/>
<polygon fill="#000000" stroke="#000000" points="872.9356,-496.825 882.082,-491.4776 871.5973,-489.9542 872.9356,-496.825"/>
</g>
<!-- _114358issuer -->
<g id="node16" class="node">
<title>_114358issuer</title>
<g id="a_node16"><a xlink:href="/graphviz/svg/certs/Do99s6wQR2JLfhirPdpAERSjNbmjjECzGxHNJMiNKT3P" xlink:title="issuer:\nDo99s6w...MiNKT3P">
<polygon fill="none" stroke="#000000" points="815.3112,-415.3298 694.5782,-438.4278 573.8453,-415.3298 573.958,-377.9563 815.1985,-377.9563 815.3112,-415.3298"/>
<text text-anchor="middle" x="694.5782" y="-408.8" font-family="Times,serif" font-size="14.00" fill="#000000">issuer:</text>
<text text-anchor="middle" x="694.5782" y="-393.8" font-family="Times,serif" font-size="14.00" fill="#000000">Do99s6w...MiNKT3P</text>
</a>
</g>
</g>
<!-- _114359pissuer -->
<g id="node24" class="node">
<title>_114359pissuer</title>
<polygon fill="none" stroke="#000000" points="1092.544,-331.3298 971.8111,-354.4278 851.0781,-331.3298 851.1908,-293.9563 1092.4314,-293.9563 1092.544,-331.3298"/>
<text text-anchor="middle" x="971.8111" y="-324.8" font-family="Times,serif" font-size="14.00" fill="#000000">pissuer:</text>
<text text-anchor="middle" x="971.8111" y="-309.8" font-family="Times,serif" font-size="14.00" fill="#000000">Do99s6w...MiNKT3P</text>
</g>
<!-- _114358issuer&#45;&gt;_114359pissuer -->
<g id="edge7" class="edge">
<title>_114358issuer&#45;&gt;_114359pissuer</title>
<path fill="none" stroke="#000000" stroke-dasharray="1,5" d="M784.2049,-377.8436C819.6253,-367.1114 859.9433,-354.8953 894.102,-344.5454"/>
<polygon fill="#000000" stroke="#000000" points="895.4715,-347.7877 904.0269,-341.5382 893.4417,-341.0884 895.4715,-347.7877"/>
</g>
<!-- _114358info -->
<g id="node18" class="node">
<title>_114358info</title>
<text text-anchor="start" x="618.5782" y="-254.3" font-family="Times,serif" font-size="14.00" fill="#000000">Mbr: 990</text>
<text text-anchor="start" x="618.5782" y="-239.3" font-family="Times,serif" font-size="14.00" fill="#000000">Cur: g1</text>
<text text-anchor="start" x="618.5782" y="-224.3" font-family="Times,serif" font-size="14.00" fill="#000000">Ver: 10</text>
<text text-anchor="start" x="618.5782" y="-209.3" font-family="Times,serif" font-size="14.00" fill="#000000">Pow: 92</text>
<text text-anchor="start" x="618.5782" y="-194.3" font-family="Times,serif" font-size="14.00" fill="#000000">issCnt: 37</text>
<text text-anchor="start" x="618.5782" y="-179.3" font-family="Times,serif" font-size="14.00" fill="#000000">issFrm: 186</text>
<text text-anchor="start" x="618.5782" y="-164.3" font-family="Times,serif" font-size="14.00" fill="#000000">issFVar: 0</text>
<text text-anchor="start" x="618.5782" y="-149.3" font-family="Times,serif" font-size="14.00" fill="#000000">M.M: 162298335</text>
<text text-anchor="start" x="618.5782" y="-134.3" font-family="Times,serif" font-size="14.00" fill="#000000">Tim: 2018&#45;04&#45;25 12:01:36</text>
<text text-anchor="start" x="618.5782" y="-119.3" font-family="Times,serif" font-size="14.00" fill="#000000">DeltaTime: 8m 11s</text>
<text text-anchor="start" x="618.5782" y="-104.3" font-family="Times,serif" font-size="14.00" fill="#000000">Sign: FNfWP6c...ayfBw==</text>
</g>
<!-- _114358Ud -->
<g id="node19" class="node">
<title>_114358Ud</title>
<ellipse fill="#ffff00" stroke="#ffff00" cx="694.5782" cy="-47" rx="31.2258" ry="31.2258"/>
<text text-anchor="middle" x="694.5782" y="-50.8" font-family="Times,serif" font-size="14.00" fill="#000000">UD</text>
<text text-anchor="middle" x="694.5782" y="-35.8" font-family="Times,serif" font-size="14.00" fill="#000000">1002</text>
</g>
<!-- _114360 -->
<g id="node27" class="node">
<title>_114360</title>
<g id="a_node27"><a xlink:href="/graphviz/svg/block/114360" xlink:title=" &#160;Block #\n114360 &#160;">
<polygon fill="none" stroke="#000000" points="1279.9218,-602 1276.9218,-606 1255.9218,-606 1252.9218,-602 1212.9218,-602 1212.9218,-564 1279.9218,-564 1279.9218,-602"/>
<text text-anchor="middle" x="1246.4218" y="-586.8" font-family="Times,serif" font-size="14.00" fill="#000000"> &#160;Block #</text>
<text text-anchor="middle" x="1246.4218" y="-571.8" font-family="Times,serif" font-size="14.00" fill="#000000">114360 &#160;</text>
</a>
</g>
</g>
<!-- _114359&#45;&gt;_114360 -->
<g id="edge12" class="edge">
<title>_114359&#45;&gt;_114360</title>
<path fill="none" stroke="#000000" d="M1005.4838,-583C1055.1324,-583 1148.0008,-583 1202.8038,-583"/>
<polygon fill="#000000" stroke="#000000" points="1202.9037,-586.5001 1212.9037,-583 1202.9037,-579.5001 1202.9037,-586.5001"/>
</g>
<!-- _114359hash -->
<g id="node21" class="node">
<title>_114359hash</title>
<polygon fill="none" stroke="transparent" points="1050.8111,-546 892.8111,-546 892.8111,-510 1050.8111,-510 1050.8111,-546"/>
<polyline fill="none" stroke="#000000" points="892.8111,-510 1050.8111,-510 "/>
<text text-anchor="middle" x="971.8111" y="-524.3" font-family="Times,serif" font-size="14.00" fill="#000000">Hash: 0000019...1454218</text>
</g>
<!-- _114360phash -->
<g id="node29" class="node">
<title>_114360phash</title>
<polygon fill="none" stroke="transparent" points="1328.9218,-492 1163.9218,-492 1163.9218,-456 1328.9218,-456 1328.9218,-492"/>
<polyline fill="none" stroke="#000000" points="1163.9218,-456 1328.9218,-456 "/>
<text text-anchor="middle" x="1246.4218" y="-470.3" font-family="Times,serif" font-size="14.00" fill="#000000">PHash: 0000019...1454218</text>
</g>
<!-- _114359hash&#45;&gt;_114360phash -->
<g id="edge4" class="edge">
<title>_114359hash&#45;&gt;_114360phash</title>
<path fill="none" stroke="#000000" stroke-dasharray="1,5" d="M1050.8715,-512.4534C1082.8929,-506.1567 1120.1023,-498.8397 1153.4152,-492.289"/>
<polygon fill="#000000" stroke="#000000" points="1154.4818,-495.6464 1163.6186,-490.2826 1153.1311,-488.7779 1154.4818,-495.6464"/>
</g>
<!-- _114359issuer -->
<g id="node23" class="node">
<title>_114359issuer</title>
<g id="a_node23"><a xlink:href="/graphviz/svg/certs/6fFt4zdvtNyVcfJn7Y41mKLmMDizyK3nVeNW3qdDXzpc" xlink:title="issuer:\n6fFt4zd...qdDXzpc">
<polygon fill="none" stroke="#000000" points="1078.5751,-415.3298 971.8111,-438.4278 865.0471,-415.3298 865.1468,-377.9563 1078.4754,-377.9563 1078.5751,-415.3298"/>
<text text-anchor="middle" x="971.8111" y="-408.8" font-family="Times,serif" font-size="14.00" fill="#000000">issuer:</text>
<text text-anchor="middle" x="971.8111" y="-393.8" font-family="Times,serif" font-size="14.00" fill="#000000">6fFt4zd...qdDXzpc</text>
</a>
</g>
</g>
<!-- _114360pissuer -->
<g id="node31" class="node">
<title>_114360pissuer</title>
<polygon fill="none" stroke="#000000" points="1353.1858,-331.3298 1246.4218,-354.4278 1139.6579,-331.3298 1139.7575,-293.9563 1353.0862,-293.9563 1353.1858,-331.3298"/>
<text text-anchor="middle" x="1246.4218" y="-324.8" font-family="Times,serif" font-size="14.00" fill="#000000">pissuer:</text>
<text text-anchor="middle" x="1246.4218" y="-309.8" font-family="Times,serif" font-size="14.00" fill="#000000">6fFt4zd...qdDXzpc</text>
</g>
<!-- _114359issuer&#45;&gt;_114360pissuer -->
<g id="edge8" class="edge">
<title>_114359issuer&#45;&gt;_114360pissuer</title>
<path fill="none" stroke="#000000" stroke-dasharray="1,5" d="M1060.5901,-377.8436C1096.6738,-366.8061 1137.8889,-354.1989 1172.321,-343.6665"/>
<polygon fill="#000000" stroke="#000000" points="1173.7691,-346.8837 1182.308,-340.6116 1171.7215,-340.1899 1173.7691,-346.8837"/>
</g>
<!-- _114359info -->
<g id="node25" class="node">
<title>_114359info</title>
<text text-anchor="start" x="898.8111" y="-254.3" font-family="Times,serif" font-size="14.00" fill="#000000">Mbr: 990</text>
<text text-anchor="start" x="898.8111" y="-239.3" font-family="Times,serif" font-size="14.00" fill="#000000">Cur: g1</text>
<text text-anchor="start" x="898.8111" y="-224.3" font-family="Times,serif" font-size="14.00" fill="#000000">Ver: 10</text>
<text text-anchor="start" x="898.8111" y="-209.3" font-family="Times,serif" font-size="14.00" fill="#000000">Pow: 92</text>
<text text-anchor="start" x="898.8111" y="-194.3" font-family="Times,serif" font-size="14.00" fill="#000000">issCnt: 37</text>
<text text-anchor="start" x="898.8111" y="-179.3" font-family="Times,serif" font-size="14.00" fill="#000000">issFrm: 186</text>
<text text-anchor="start" x="898.8111" y="-164.3" font-family="Times,serif" font-size="14.00" fill="#000000">issFVar: 0</text>
<text text-anchor="start" x="898.8111" y="-149.3" font-family="Times,serif" font-size="14.00" fill="#000000">M.M: 162298335</text>
<text text-anchor="start" x="898.8111" y="-134.3" font-family="Times,serif" font-size="14.00" fill="#000000">Tim: 2018&#45;04&#45;25 12:08:19</text>
<text text-anchor="start" x="898.8111" y="-119.3" font-family="Times,serif" font-size="14.00" fill="#000000">DeltaTime: 6m 43s</text>
<text text-anchor="start" x="898.8111" y="-104.3" font-family="Times,serif" font-size="14.00" fill="#000000">Sign: J3g9aud...Tl5BQ==</text>
</g>
<!-- txDF6D37773B224D376EF425F2B087D0372C32D8B3F0EF273116553CB1072EADE7 -->
<g id="node26" class="node">
<title>txDF6D37773B224D376EF425F2B087D0372C32D8B3F0EF273116553CB1072EADE7</title>
<g id="a_node26"><a xlink:href="/graphviz/svg/tx/DF6D37773B224D376EF425F2B087D0372C32D8B3F0EF273116553CB1072EADE7" xlink:title=" &#160;3gcobgC...UHNi77A &#160;">
<polygon fill="none" stroke="#000000" points="1027.8111,-650 897.8111,-650 897.8111,-626 1027.8111,-626 1027.8111,-620 1045.8111,-638 1027.8111,-656 1027.8111,-650"/>
<text text-anchor="middle" x="971.8111" y="-634.3" font-family="Times,serif" font-size="14.00" fill="#000000"> &#160;3gcobgC...UHNi77A &#160;</text>
</a>
</g>
</g>
<!-- _114360hash -->
<g id="node28" class="node">
<title>_114360hash</title>
<polygon fill="none" stroke="transparent" points="1326.9218,-546 1165.9218,-546 1165.9218,-510 1326.9218,-510 1326.9218,-546"/>
<polyline fill="none" stroke="#000000" points="1165.9218,-510 1326.9218,-510 "/>
<text text-anchor="middle" x="1246.4218" y="-524.3" font-family="Times,serif" font-size="14.00" fill="#000000">Hash: 0000032...4B35F49</text>
</g>
<!-- _114360issuer -->
<g id="node30" class="node">
<title>_114360issuer</title>
<g id="a_node30"><a xlink:href="/graphviz/svg/certs/D9D2zaJoWYWveii1JRYLVK3J4Z7ZH3QczoKrnQeiM6mx" xlink:title="issuer:\nD9D2zaJ...QeiM6mx">
<polygon fill="none" stroke="#000000" points="1364.4105,-415.3298 1246.4218,-438.4278 1128.4332,-415.3298 1128.5433,-377.9563 1364.3004,-377.9563 1364.4105,-415.3298"/>
<text text-anchor="middle" x="1246.4218" y="-408.8" font-family="Times,serif" font-size="14.00" fill="#000000">issuer:</text>
<text text-anchor="middle" x="1246.4218" y="-393.8" font-family="Times,serif" font-size="14.00" fill="#000000">D9D2zaJ...QeiM6mx</text>
</a>
</g>
</g>
<!-- _114360info -->
<g id="node32" class="node">
<title>_114360info</title>
<text text-anchor="start" x="1170.4218" y="-254.3" font-family="Times,serif" font-size="14.00" fill="#000000">Mbr: 990</text>
<text text-anchor="start" x="1170.4218" y="-239.3" font-family="Times,serif" font-size="14.00" fill="#000000">Cur: g1</text>
<text text-anchor="start" x="1170.4218" y="-224.3" font-family="Times,serif" font-size="14.00" fill="#000000">Ver: 10</text>
<text text-anchor="start" x="1170.4218" y="-209.3" font-family="Times,serif" font-size="14.00" fill="#000000">Pow: 91</text>
<text text-anchor="start" x="1170.4218" y="-194.3" font-family="Times,serif" font-size="14.00" fill="#000000">issCnt: 37</text>
<text text-anchor="start" x="1170.4218" y="-179.3" font-family="Times,serif" font-size="14.00" fill="#000000">issFrm: 186</text>
<text text-anchor="start" x="1170.4218" y="-164.3" font-family="Times,serif" font-size="14.00" fill="#000000">issFVar: 0</text>
<text text-anchor="start" x="1170.4218" y="-149.3" font-family="Times,serif" font-size="14.00" fill="#000000">M.M: 162298335</text>
<text text-anchor="start" x="1170.4218" y="-134.3" font-family="Times,serif" font-size="14.00" fill="#000000">Tim: 2018&#45;04&#45;25 12:15:12</text>
<text text-anchor="start" x="1170.4218" y="-119.3" font-family="Times,serif" font-size="14.00" fill="#000000">DeltaTime: 6m 53s</text>
<text text-anchor="start" x="1170.4218" y="-104.3" font-family="Times,serif" font-size="14.00" fill="#000000">Sign: pZrUvG0...0J+CA==</text>
</g>
<!-- txE8CF465A853DC109C382D49F08FF655E8DB5D4EB4DBC210644DFA2F99BE30912 -->
<g id="node33" class="node">
<title>txE8CF465A853DC109C382D49F08FF655E8DB5D4EB4DBC210644DFA2F99BE30912</title>
<g id="a_node33"><a xlink:href="/graphviz/svg/tx/E8CF465A853DC109C382D49F08FF655E8DB5D4EB4DBC210644DFA2F99BE30912" xlink:title=" &#160;Gmsq5BC...TUkNxAh &#160;">
<polygon fill="none" stroke="#000000" points="1307.4218,-650 1167.4218,-650 1167.4218,-626 1307.4218,-626 1307.4218,-620 1325.4218,-638 1307.4218,-656 1307.4218,-650"/>
<text text-anchor="middle" x="1246.4218" y="-634.3" font-family="Times,serif" font-size="14.00" fill="#000000"> &#160;Gmsq5BC...TUkNxAh &#160;</text>
</a>
</g>
</g>
</g>
</svg>
