<?xml version="1.0" encoding="UTF-8" standalone="no"?>
<!DOCTYPE svg PUBLIC "-//W3C//DTD SVG 1.1//EN"
 "http://www.w3.org/Graphics/SVG/1.1/DTD/svg11.dtd">
<!-- Generated by graphviz version 2.40.1 (20161225.0304)
 -->
<!-- Title: %3 Pages: 1 -->
<svg width="1350pt" height="1117pt"
 viewBox="0.00 0.00 1349.96 1117.00" xmlns="http://www.w3.org/2000/svg" xmlns:xlink="http://www.w3.org/1999/xlink">
<g id="graph0" class="graph" transform="scale(1 1) rotate(0) translate(4 1113)">
<title>%3</title>
<polygon fill="#ffffff" stroke="transparent" points="-4,4 -4,-1113 1345.9588,-1113 1345.9588,4 -4,4"/>
<g id="clust1" class="cluster">
<title>cluster_127126</title>
<polygon fill="#d3d3d3" stroke="#d3d3d3" points="8,-62 8,-777 252.9964,-777 252.9964,-62 8,-62"/>
</g>
<g id="clust2" class="cluster">
<title>cluster_127126Tx</title>
<polygon fill="none" stroke="#000000" stroke-dasharray="1,5" points="49.9982,-586 49.9982,-769 210.9982,-769 210.9982,-586 49.9982,-586"/>
<text text-anchor="middle" x="130.4982" y="-753.8" font-family="Times,serif" font-size="14.00" fill="#000000">Transactions</text>
</g>
<g id="clust3" class="cluster">
<title>cluster_127127</title>
<polygon fill="#d3d3d3" stroke="#d3d3d3" points="272.9964,-62 272.9964,-831 523.237,-831 523.237,-62 272.9964,-62"/>
</g>
<g id="clust4" class="cluster">
<title>cluster_127127Tx</title>
<polygon fill="none" stroke="#000000" stroke-dasharray="1,5" points="308.6167,-586 308.6167,-823 487.6167,-823 487.6167,-586 308.6167,-586"/>
<text text-anchor="middle" x="398.1167" y="-807.8" font-family="Times,serif" font-size="14.00" fill="#000000">Transactions</text>
</g>
<g id="clust5" class="cluster">
<title>cluster_127128</title>
<polygon fill="#d3d3d3" stroke="#d3d3d3" points="543.237,-8 543.237,-1101 793.4776,-1101 793.4776,-8 543.237,-8"/>
</g>
<g id="clust6" class="cluster">
<title>cluster_127128Tx</title>
<polygon fill="none" stroke="#000000" stroke-dasharray="1,5" points="582.8573,-586 582.8573,-1093 753.8573,-1093 753.8573,-586 582.8573,-586"/>
<text text-anchor="middle" x="668.3573" y="-1077.8" font-family="Times,serif" font-size="14.00" fill="#000000">Transactions</text>
</g>
<g id="clust7" class="cluster">
<title>cluster_127129</title>
<polygon fill="#d3d3d3" stroke="#d3d3d3" points="813.4776,-62 813.4776,-669 1056.7259,-669 1056.7259,-62 813.4776,-62"/>
</g>
<g id="clust8" class="cluster">
<title>cluster_127129Tx</title>
<polygon fill="none" stroke="#000000" stroke-dasharray="1,5" points="854.1017,-586 854.1017,-661 1016.1017,-661 1016.1017,-586 854.1017,-586"/>
<text text-anchor="middle" x="935.1017" y="-645.8" font-family="Times,serif" font-size="14.00" fill="#000000">Transactions</text>
</g>
<g id="clust9" class="cluster">
<title>cluster_127130</title>
<polygon fill="#d3d3d3" stroke="#d3d3d3" points="1076.7259,-62 1076.7259,-669 1333.9588,-669 1333.9588,-62 1076.7259,-62"/>
</g>
<g id="clust10" class="cluster">
<title>cluster_127130Tx</title>
<polygon fill="none" stroke="#000000" stroke-dasharray="1,5" points="1124.3423,-586 1124.3423,-661 1286.3423,-661 1286.3423,-586 1124.3423,-586"/>
<text text-anchor="middle" x="1205.3423" y="-645.8" font-family="Times,serif" font-size="14.00" fill="#000000">Transactions</text>
</g>
<!-- _127126 -->
<g id="node1" class="node">
<title>_127126</title>
<g id="a_node1"><a xlink:href="/graphviz/svg/block/127126" xlink:title=" &#160;Block #\n127126 &#160;">
<polygon fill="none" stroke="#000000" points="163.9982,-576 160.9982,-580 139.9982,-580 136.9982,-576 96.9982,-576 96.9982,-538 163.9982,-538 163.9982,-576"/>
<text text-anchor="middle" x="130.4982" y="-560.8" font-family="Times,serif" font-size="14.00" fill="#000000"> &#160;Block #</text>
<text text-anchor="middle" x="130.4982" y="-545.8" font-family="Times,serif" font-size="14.00" fill="#000000">127126 &#160;</text>
</a>
</g>
</g>
<!-- _127127 -->
<g id="node10" class="node">
<title>_127127</title>
<g id="a_node10"><a xlink:href="/graphviz/svg/block/127127" xlink:title=" &#160;Block #\n127127 &#160;">
<polygon fill="none" stroke="#000000" points="431.6167,-576 428.6167,-580 407.6167,-580 404.6167,-576 364.6167,-576 364.6167,-538 431.6167,-538 431.6167,-576"/>
<text text-anchor="middle" x="398.1167" y="-560.8" font-family="Times,serif" font-size="14.00" fill="#000000"> &#160;Block #</text>
<text text-anchor="middle" x="398.1167" y="-545.8" font-family="Times,serif" font-size="14.00" fill="#000000">127127 &#160;</text>
</a>
</g>
</g>
<!-- _127126&#45;&gt;_127127 -->
<g id="edge9" class="edge">
<title>_127126&#45;&gt;_127127</title>
<path fill="none" stroke="#000000" d="M164.1213,-557C212.2907,-557 300.9897,-557 354.2612,-557"/>
<polygon fill="#000000" stroke="#000000" points="354.4207,-560.5001 364.4206,-557 354.4206,-553.5001 354.4207,-560.5001"/>
</g>
<!-- _127126hash -->
<g id="node2" class="node">
<title>_127126hash</title>
<polygon fill="none" stroke="transparent" points="211.9982,-520 48.9982,-520 48.9982,-484 211.9982,-484 211.9982,-520"/>
<polyline fill="none" stroke="#000000" points="48.9982,-484 211.9982,-484 "/>
<text text-anchor="middle" x="130.4982" y="-498.3" font-family="Times,serif" font-size="14.00" fill="#000000">Hash: 0000019...E599EC3</text>
</g>
<!-- _127127phash -->
<g id="node12" class="node">
<title>_127127phash</title>
<polygon fill="none" stroke="transparent" points="483.1167,-466 313.1167,-466 313.1167,-430 483.1167,-430 483.1167,-466"/>
<polyline fill="none" stroke="#000000" points="313.1167,-430 483.1167,-430 "/>
<text text-anchor="middle" x="398.1167" y="-444.3" font-family="Times,serif" font-size="14.00" fill="#000000">PHash: 0000019...E599EC3</text>
</g>
<!-- _127126hash&#45;&gt;_127127phash -->
<g id="edge1" class="edge">
<title>_127126hash&#45;&gt;_127127phash</title>
<path fill="none" stroke="#000000" stroke-dasharray="1,5" d="M212.2467,-485.5048C240.834,-479.7365 273.1771,-473.2103 302.7758,-467.2379"/>
<polygon fill="#000000" stroke="#000000" points="303.5888,-470.6444 312.699,-465.2356 302.2042,-463.7827 303.5888,-470.6444"/>
</g>
<!-- _127126phash -->
<g id="node3" class="node">
<title>_127126phash</title>
<polygon fill="none" stroke="transparent" points="214.9982,-466 45.9982,-466 45.9982,-430 214.9982,-430 214.9982,-466"/>
<polyline fill="none" stroke="#000000" points="45.9982,-430 214.9982,-430 "/>
<text text-anchor="middle" x="130.4982" y="-444.3" font-family="Times,serif" font-size="14.00" fill="#000000">PHash: 0000037...6EB2984</text>
</g>
<!-- _127126issuer -->
<g id="node4" class="node">
<title>_127126issuer</title>
<g id="a_node4"><a xlink:href="/graphviz/svg/certs/2sZF6j2PkxBDNAqUde7Dgo5x3crkerZpQ4rBqqJGn8QT" xlink:title="issuer:\n2sZF6j2...qJGn8QT">
<polygon fill="none" stroke="#000000" points="240.7544,-389.3298 130.4982,-412.4278 20.242,-389.3298 20.3449,-351.9563 240.6515,-351.9563 240.7544,-389.3298"/>
<text text-anchor="middle" x="130.4982" y="-382.8" font-family="Times,serif" font-size="14.00" fill="#000000">issuer:</text>
<text text-anchor="middle" x="130.4982" y="-367.8" font-family="Times,serif" font-size="14.00" fill="#000000">2sZF6j2...qJGn8QT</text>
</a>
</g>
</g>
<!-- _127127pissuer -->
<g id="node14" class="node">
<title>_127127pissuer</title>
<polygon fill="none" stroke="#000000" points="508.3729,-305.3298 398.1167,-328.4278 287.8605,-305.3298 287.9634,-267.9563 508.27,-267.9563 508.3729,-305.3298"/>
<text text-anchor="middle" x="398.1167" y="-298.8" font-family="Times,serif" font-size="14.00" fill="#000000">pissuer:</text>
<text text-anchor="middle" x="398.1167" y="-283.8" font-family="Times,serif" font-size="14.00" fill="#000000">2sZF6j2...qJGn8QT</text>
</g>
<!-- _127126issuer&#45;&gt;_127127pissuer -->
<g id="edge5" class="edge">
<title>_127126issuer&#45;&gt;_127127pissuer</title>
<path fill="none" stroke="#000000" stroke-dasharray="1,5" d="M217.0167,-351.8436C251.6256,-340.9806 291.0784,-328.5971 324.3062,-318.1676"/>
<polygon fill="#000000" stroke="#000000" points="325.4607,-321.4737 333.9536,-315.1395 323.3643,-314.7949 325.4607,-321.4737"/>
</g>
<!-- _127126pissuer -->
<g id="node5" class="node">
<title>_127126pissuer</title>
<polygon fill="none" stroke="#000000" points="244.9946,-305.3298 130.4982,-328.4278 16.0018,-305.3298 16.1087,-267.9563 244.8877,-267.9563 244.9946,-305.3298"/>
<text text-anchor="middle" x="130.4982" y="-298.8" font-family="Times,serif" font-size="14.00" fill="#000000">pissuer:</text>
<text text-anchor="middle" x="130.4982" y="-283.8" font-family="Times,serif" font-size="14.00" fill="#000000">5SwfQub...rNqQb6S</text>
</g>
<!-- _127126info -->
<g id="node6" class="node">
<title>_127126info</title>
<text text-anchor="start" x="53.9982" y="-228.3" font-family="Times,serif" font-size="14.00" fill="#000000">Mbr: 1120</text>
<text text-anchor="start" x="53.9982" y="-213.3" font-family="Times,serif" font-size="14.00" fill="#000000">Cur: g1</text>
<text text-anchor="start" x="53.9982" y="-198.3" font-family="Times,serif" font-size="14.00" fill="#000000">Ver: 10</text>
<text text-anchor="start" x="53.9982" y="-183.3" font-family="Times,serif" font-size="14.00" fill="#000000">Pow: 90</text>
<text text-anchor="start" x="53.9982" y="-168.3" font-family="Times,serif" font-size="14.00" fill="#000000">issCnt: 32</text>
<text text-anchor="start" x="53.9982" y="-153.3" font-family="Times,serif" font-size="14.00" fill="#000000">issFrm: 161</text>
<text text-anchor="start" x="53.9982" y="-138.3" font-family="Times,serif" font-size="14.00" fill="#000000">issFVar: 0</text>
<text text-anchor="start" x="53.9982" y="-123.3" font-family="Times,serif" font-size="14.00" fill="#000000">M.M: 210918381</text>
<text text-anchor="start" x="53.9982" y="-108.3" font-family="Times,serif" font-size="14.00" fill="#000000">Tim: 2018&#45;06&#45;10 13:06:09</text>
<text text-anchor="start" x="53.9982" y="-93.3" font-family="Times,serif" font-size="14.00" fill="#000000">DeltaTime: 5m 36s</text>
<text text-anchor="start" x="53.9982" y="-78.3" font-family="Times,serif" font-size="14.00" fill="#000000">Sign: pj3huWb...JYhAw==</text>
</g>
<!-- txFE292BFB45A84341731066A935752182A4F2D465E93C306500D03645D616C239 -->
<g id="node7" class="node">
<title>txFE292BFB45A84341731066A935752182A4F2D465E93C306500D03645D616C239</title>
<g id="a_node7"><a xlink:href="/graphviz/svg/tx/FE292BFB45A84341731066A935752182A4F2D465E93C306500D03645D616C239" xlink:title=" &#160;CYPsYTd...gJ9jjoV &#160;">
<polygon fill="none" stroke="#000000" points="183.4982,-732 59.4982,-732 59.4982,-708 183.4982,-708 183.4982,-702 201.4982,-720 183.4982,-738 183.4982,-732"/>
<text text-anchor="middle" x="130.4982" y="-716.3" font-family="Times,serif" font-size="14.00" fill="#000000"> &#160;CYPsYTd...gJ9jjoV &#160;</text>
</a>
</g>
</g>
<!-- tx9D78EEBAD7945B7D93FFD0699D9243F66D2B84112B3874B044C0DA3F729268BC -->
<g id="node8" class="node">
<title>tx9D78EEBAD7945B7D93FFD0699D9243F66D2B84112B3874B044C0DA3F729268BC</title>
<g id="a_node8"><a xlink:href="/graphviz/svg/tx/9D78EEBAD7945B7D93FFD0699D9243F66D2B84112B3874B044C0DA3F729268BC" xlink:title=" &#160;9qf8TCz...LcV4Dnx &#160;">
<polygon fill="none" stroke="#000000" points="184.9982,-678 57.9982,-678 57.9982,-654 184.9982,-654 184.9982,-648 202.9982,-666 184.9982,-684 184.9982,-678"/>
<text text-anchor="middle" x="130.4982" y="-662.3" font-family="Times,serif" font-size="14.00" fill="#000000"> &#160;9qf8TCz...LcV4Dnx &#160;</text>
</a>
</g>
</g>
<!-- tx3B2D17952F134A7C070C4CBD25D13E57F047665E38F54F3A4BAEFAACD1973BDD -->
<g id="node9" class="node">
<title>tx3B2D17952F134A7C070C4CBD25D13E57F047665E38F54F3A4BAEFAACD1973BDD</title>
<g id="a_node9"><a xlink:href="/graphviz/svg/tx/3B2D17952F134A7C070C4CBD25D13E57F047665E38F54F3A4BAEFAACD1973BDD" xlink:title=" &#160;8EtECvs...SxJorEG &#160;">
<polygon fill="none" stroke="#000000" points="182.4982,-624 60.4982,-624 60.4982,-600 182.4982,-600 182.4982,-594 200.4982,-612 182.4982,-630 182.4982,-624"/>
<text text-anchor="middle" x="130.4982" y="-608.3" font-family="Times,serif" font-size="14.00" fill="#000000"> &#160;8EtECvs...SxJorEG &#160;</text>
</a>
</g>
</g>
<!-- _127128 -->
<g id="node20" class="node">
<title>_127128</title>
<g id="a_node20"><a xlink:href="/graphviz/svg/block/127128" xlink:title=" &#160;Block #\n127128 &#160;">
<polygon fill="none" stroke="#000000" points="701.8573,-576 698.8573,-580 677.8573,-580 674.8573,-576 634.8573,-576 634.8573,-538 701.8573,-538 701.8573,-576"/>
<text text-anchor="middle" x="668.3573" y="-560.8" font-family="Times,serif" font-size="14.00" fill="#000000"> &#160;Block #</text>
<text text-anchor="middle" x="668.3573" y="-545.8" font-family="Times,serif" font-size="14.00" fill="#000000">127128 &#160;</text>
</a>
</g>
</g>
<!-- _127127&#45;&gt;_127128 -->
<g id="edge10" class="edge">
<title>_127127&#45;&gt;_127128</title>
<path fill="none" stroke="#000000" d="M431.7964,-557C480.4778,-557 570.5578,-557 624.4135,-557"/>
<polygon fill="#000000" stroke="#000000" points="624.6786,-560.5001 634.6786,-557 624.6786,-553.5001 624.6786,-560.5001"/>
</g>
<!-- _127127hash -->
<g id="node11" class="node">
<title>_127127hash</title>
<polygon fill="none" stroke="transparent" points="479.1167,-520 317.1167,-520 317.1167,-484 479.1167,-484 479.1167,-520"/>
<polyline fill="none" stroke="#000000" points="317.1167,-484 479.1167,-484 "/>
<text text-anchor="middle" x="398.1167" y="-498.3" font-family="Times,serif" font-size="14.00" fill="#000000">Hash: 0000045...FC6519E</text>
</g>
<!-- _127128phash -->
<g id="node22" class="node">
<title>_127128phash</title>
<polygon fill="none" stroke="transparent" points="753.3573,-466 583.3573,-466 583.3573,-430 753.3573,-430 753.3573,-466"/>
<polyline fill="none" stroke="#000000" points="583.3573,-430 753.3573,-430 "/>
<text text-anchor="middle" x="668.3573" y="-444.3" font-family="Times,serif" font-size="14.00" fill="#000000">PHash: 0000045...FC6519E</text>
</g>
<!-- _127127hash&#45;&gt;_127128phash -->
<g id="edge2" class="edge">
<title>_127127hash&#45;&gt;_127128phash</title>
<path fill="none" stroke="#000000" stroke-dasharray="1,5" d="M479.1978,-485.7982C508.7986,-479.8833 542.542,-473.1407 573.2537,-467.0038"/>
<polygon fill="#000000" stroke="#000000" points="573.9891,-470.4261 583.1094,-465.0344 572.6174,-463.5618 573.9891,-470.4261"/>
</g>
<!-- _127127issuer -->
<g id="node13" class="node">
<title>_127127issuer</title>
<g id="a_node13"><a xlink:href="/graphviz/svg/certs/4C4jsvxmFQBoHN86BHsSreTKoK2bYvQV9gAGtH3BMNc3" xlink:title="issuer:\n4C4jsvx...H3BMNc3">
<polygon fill="none" stroke="#000000" points="515.3574,-389.3298 398.1167,-412.4278 280.876,-389.3298 280.9854,-351.9563 515.248,-351.9563 515.3574,-389.3298"/>
<text text-anchor="middle" x="398.1167" y="-382.8" font-family="Times,serif" font-size="14.00" fill="#000000">issuer:</text>
<text text-anchor="middle" x="398.1167" y="-367.8" font-family="Times,serif" font-size="14.00" fill="#000000">4C4jsvx...H3BMNc3</text>
</a>
</g>
</g>
<!-- _127128pissuer -->
<g id="node24" class="node">
<title>_127128pissuer</title>
<polygon fill="none" stroke="#000000" points="785.598,-305.3298 668.3573,-328.4278 551.1166,-305.3298 551.226,-267.9563 785.4886,-267.9563 785.598,-305.3298"/>
<text text-anchor="middle" x="668.3573" y="-298.8" font-family="Times,serif" font-size="14.00" fill="#000000">pissuer:</text>
<text text-anchor="middle" x="668.3573" y="-283.8" font-family="Times,serif" font-size="14.00" fill="#000000">4C4jsvx...H3BMNc3</text>
</g>
<!-- _127127issuer&#45;&gt;_127128pissuer -->
<g id="edge6" class="edge">
<title>_127127issuer&#45;&gt;_127128pissuer</title>
<path fill="none" stroke="#000000" stroke-dasharray="1,5" d="M485.4829,-351.8436C520.0099,-341.1114 559.311,-328.8953 592.6081,-318.5454"/>
<polygon fill="#000000" stroke="#000000" points="593.7724,-321.8488 602.2828,-315.5382 591.6945,-315.1643 593.7724,-321.8488"/>
</g>
<!-- _127127info -->
<g id="node15" class="node">
<title>_127127info</title>
<text text-anchor="start" x="325.1167" y="-228.3" font-family="Times,serif" font-size="14.00" fill="#000000">Mbr: 1120</text>
<text text-anchor="start" x="325.1167" y="-213.3" font-family="Times,serif" font-size="14.00" fill="#000000">Cur: g1</text>
<text text-anchor="start" x="325.1167" y="-198.3" font-family="Times,serif" font-size="14.00" fill="#000000">Ver: 10</text>
<text text-anchor="start" x="325.1167" y="-183.3" font-family="Times,serif" font-size="14.00" fill="#000000">Pow: 90</text>
<text text-anchor="start" x="325.1167" y="-168.3" font-family="Times,serif" font-size="14.00" fill="#000000">issCnt: 32</text>
<text text-anchor="start" x="325.1167" y="-153.3" font-family="Times,serif" font-size="14.00" fill="#000000">issFrm: 161</text>
<text text-anchor="start" x="325.1167" y="-138.3" font-family="Times,serif" font-size="14.00" fill="#000000">issFVar: 0</text>
<text text-anchor="start" x="325.1167" y="-123.3" font-family="Times,serif" font-size="14.00" fill="#000000">M.M: 210918381</text>
<text text-anchor="start" x="325.1167" y="-108.3" font-family="Times,serif" font-size="14.00" fill="#000000">Tim: 2018&#45;06&#45;10 13:11:55</text>
<text text-anchor="start" x="325.1167" y="-93.3" font-family="Times,serif" font-size="14.00" fill="#000000">DeltaTime: 5m 46s</text>
<text text-anchor="start" x="325.1167" y="-78.3" font-family="Times,serif" font-size="14.00" fill="#000000">Sign: xrJTufJ...vxsDA==</text>
</g>
<!-- tx1626DC83B03E9F8315E6345F98CFCEA7C13B9C2B73E7D0B5A3E25467B0F6B120 -->
<g id="node16" class="node">
<title>tx1626DC83B03E9F8315E6345F98CFCEA7C13B9C2B73E7D0B5A3E25467B0F6B120</title>
<g id="a_node16"><a xlink:href="/graphviz/svg/tx/1626DC83B03E9F8315E6345F98CFCEA7C13B9C2B73E7D0B5A3E25467B0F6B120" xlink:title=" &#160;G3uAY6t...RfyNPxR &#160;">
<polygon fill="none" stroke="#000000" points="454.6167,-786 323.6167,-786 323.6167,-762 454.6167,-762 454.6167,-756 472.6167,-774 454.6167,-792 454.6167,-786"/>
<text text-anchor="middle" x="398.1167" y="-770.3" font-family="Times,serif" font-size="14.00" fill="#000000"> &#160;G3uAY6t...RfyNPxR &#160;</text>
</a>
</g>
</g>
<!-- txEAFD56644C9374C4DE38AD3880DB30F109051A84FEE7FF38471694207798D927 -->
<g id="node17" class="node">
<title>txEAFD56644C9374C4DE38AD3880DB30F109051A84FEE7FF38471694207798D927</title>
<g id="a_node17"><a xlink:href="/graphviz/svg/tx/EAFD56644C9374C4DE38AD3880DB30F109051A84FEE7FF38471694207798D927" xlink:title=" &#160;CCdjH7P...iVV6NwJ &#160;">
<polygon fill="none" stroke="#000000" points="455.1167,-732 323.1167,-732 323.1167,-708 455.1167,-708 455.1167,-702 473.1167,-720 455.1167,-738 455.1167,-732"/>
<text text-anchor="middle" x="398.1167" y="-716.3" font-family="Times,serif" font-size="14.00" fill="#000000"> &#160;CCdjH7P...iVV6NwJ &#160;</text>
</a>
</g>
</g>
<!-- txEE1A59B3413F7930B14F6257332AEB3DD0B551305FF148B8AAF57BF1661B4571 -->
<g id="node18" class="node">
<title>txEE1A59B3413F7930B14F6257332AEB3DD0B551305FF148B8AAF57BF1661B4571</title>
<g id="a_node18"><a xlink:href="/graphviz/svg/tx/EE1A59B3413F7930B14F6257332AEB3DD0B551305FF148B8AAF57BF1661B4571" xlink:title=" &#160;8EtECvs...SxJorEG &#160;">
<polygon fill="none" stroke="#000000" points="450.1167,-678 328.1167,-678 328.1167,-654 450.1167,-654 450.1167,-648 468.1167,-666 450.1167,-684 450.1167,-678"/>
<text text-anchor="middle" x="398.1167" y="-662.3" font-family="Times,serif" font-size="14.00" fill="#000000"> &#160;8EtECvs...SxJorEG &#160;</text>
</a>
</g>
</g>
<!-- txEBDCC90BE4870C118934B3A4322362ED82EE291B8848896416707B38ABE34B1B -->
<g id="node19" class="node">
<title>txEBDCC90BE4870C118934B3A4322362ED82EE291B8848896416707B38ABE34B1B</title>
<g id="a_node19"><a xlink:href="/graphviz/svg/tx/EBDCC90BE4870C118934B3A4322362ED82EE291B8848896416707B38ABE34B1B" xlink:title=" &#160;9AqQZZV...2HCAeDN &#160;">
<polygon fill="none" stroke="#000000" points="461.6167,-624 316.6167,-624 316.6167,-600 461.6167,-600 461.6167,-594 479.6167,-612 461.6167,-630 461.6167,-624"/>
<text text-anchor="middle" x="398.1167" y="-608.3" font-family="Times,serif" font-size="14.00" fill="#000000"> &#160;9AqQZZV...2HCAeDN &#160;</text>
</a>
</g>
</g>
<!-- _127129 -->
<g id="node36" class="node">
<title>_127129</title>
<g id="a_node36"><a xlink:href="/graphviz/svg/block/127129" xlink:title=" &#160;Block #\n127129 &#160;">
<polygon fill="none" stroke="#000000" points="968.6017,-576 965.6017,-580 944.6017,-580 941.6017,-576 901.6017,-576 901.6017,-538 968.6017,-538 968.6017,-576"/>
<text text-anchor="middle" x="935.1017" y="-560.8" font-family="Times,serif" font-size="14.00" fill="#000000"> &#160;Block #</text>
<text text-anchor="middle" x="935.1017" y="-545.8" font-family="Times,serif" font-size="14.00" fill="#000000">127129 &#160;</text>
</a>
</g>
</g>
<!-- _127128&#45;&gt;_127129 -->
<g id="edge11" class="edge">
<title>_127128&#45;&gt;_127129</title>
<path fill="none" stroke="#000000" d="M701.8706,-557C749.8826,-557 838.292,-557 891.3895,-557"/>
<polygon fill="#000000" stroke="#000000" points="891.5158,-560.5001 901.5157,-557 891.5157,-553.5001 891.5158,-560.5001"/>
</g>
<!-- _127128hash -->
<g id="node21" class="node">
<title>_127128hash</title>
<polygon fill="none" stroke="transparent" points="752.8573,-520 583.8573,-520 583.8573,-484 752.8573,-484 752.8573,-520"/>
<polyline fill="none" stroke="#000000" points="583.8573,-484 752.8573,-484 "/>
<text text-anchor="middle" x="668.3573" y="-498.3" font-family="Times,serif" font-size="14.00" fill="#000000">Hash: 000003C...D082AA7</text>
</g>
<!-- _127129phash -->
<g id="node38" class="node">
<title>_127129phash</title>
<polygon fill="none" stroke="transparent" points="1023.1017,-466 847.1017,-466 847.1017,-430 1023.1017,-430 1023.1017,-466"/>
<polyline fill="none" stroke="#000000" points="847.1017,-430 1023.1017,-430 "/>
<text text-anchor="middle" x="935.1017" y="-444.3" font-family="Times,serif" font-size="14.00" fill="#000000">PHash: 000003C...D082AA7</text>
</g>
<!-- _127128hash&#45;&gt;_127129phash -->
<g id="edge3" class="edge">
<title>_127128hash&#45;&gt;_127129phash</title>
<path fill="none" stroke="#000000" stroke-dasharray="1,5" d="M753.1234,-484.8399C779.7533,-479.4489 809.3781,-473.4516 836.8602,-467.8881"/>
<polygon fill="#000000" stroke="#000000" points="837.772,-471.2746 846.8787,-465.86 836.383,-464.4138 837.772,-471.2746"/>
</g>
<!-- _127128issuer -->
<g id="node23" class="node">
<title>_127128issuer</title>
<g id="a_node23"><a xlink:href="/graphviz/svg/certs/4weakHxDBMJG9NShULG1g786eeGh7wwntMeLZBDhJFni" xlink:title="issuer:\n4weakHx...BDhJFni">
<polygon fill="none" stroke="#000000" points="780.1096,-389.3298 668.3573,-412.4278 556.6049,-389.3298 556.7092,-351.9563 780.0053,-351.9563 780.1096,-389.3298"/>
<text text-anchor="middle" x="668.3573" y="-382.8" font-family="Times,serif" font-size="14.00" fill="#000000">issuer:</text>
<text text-anchor="middle" x="668.3573" y="-367.8" font-family="Times,serif" font-size="14.00" fill="#000000">4weakHx...BDhJFni</text>
</a>
</g>
</g>
<!-- _127129pissuer -->
<g id="node40" class="node">
<title>_127129pissuer</title>
<polygon fill="none" stroke="#000000" points="1046.8541,-305.3298 935.1017,-328.4278 823.3494,-305.3298 823.4537,-267.9563 1046.7498,-267.9563 1046.8541,-305.3298"/>
<text text-anchor="middle" x="935.1017" y="-298.8" font-family="Times,serif" font-size="14.00" fill="#000000">pissuer:</text>
<text text-anchor="middle" x="935.1017" y="-283.8" font-family="Times,serif" font-size="14.00" fill="#000000">4weakHx...BDhJFni</text>
</g>
<!-- _127128issuer&#45;&gt;_127129pissuer -->
<g id="edge7" class="edge">
<title>_127128issuer&#45;&gt;_127129pissuer</title>
<path fill="none" stroke="#000000" stroke-dasharray="1,5" d="M754.5932,-351.8436C788.9506,-341.0242 828.0973,-328.6966 861.133,-318.2934"/>
<polygon fill="#000000" stroke="#000000" points="862.24,-321.6143 870.727,-315.2721 860.1374,-314.9375 862.24,-321.6143"/>
</g>
<!-- _127128info -->
<g id="node25" class="node">
<title>_127128info</title>
<text text-anchor="start" x="589.8573" y="-228.3" font-family="Times,serif" font-size="14.00" fill="#000000">Mbr: 1120</text>
<text text-anchor="start" x="589.8573" y="-213.3" font-family="Times,serif" font-size="14.00" fill="#000000">Cur: g1</text>
<text text-anchor="start" x="589.8573" y="-198.3" font-family="Times,serif" font-size="14.00" fill="#000000">Ver: 10</text>
<text text-anchor="start" x="589.8573" y="-183.3" font-family="Times,serif" font-size="14.00" fill="#000000">Pow: 90</text>
<text text-anchor="start" x="589.8573" y="-168.3" font-family="Times,serif" font-size="14.00" fill="#000000">issCnt: 32</text>
<text text-anchor="start" x="589.8573" y="-153.3" font-family="Times,serif" font-size="14.00" fill="#000000">issFrm: 161</text>
<text text-anchor="start" x="589.8573" y="-138.3" font-family="Times,serif" font-size="14.00" fill="#000000">issFVar: 0</text>
<text text-anchor="start" x="589.8573" y="-123.3" font-family="Times,serif" font-size="14.00" fill="#000000">M.M: 210918381</text>
<text text-anchor="start" x="589.8573" y="-108.3" font-family="Times,serif" font-size="14.00" fill="#000000">Tim: 2018&#45;06&#45;10 13:18:21</text>
<text text-anchor="start" x="589.8573" y="-93.3" font-family="Times,serif" font-size="14.00" fill="#000000">DeltaTime: 6m 26s</text>
<text text-anchor="start" x="589.8573" y="-78.3" font-family="Times,serif" font-size="14.00" fill="#000000">Sign: yA0IREL...sDEDw==</text>
</g>
<!-- tx3BE66EE5F40F8E93441D63E1274F8780FB330003B779C374B247DD45B737799E -->
<g id="node26" class="node">
<title>tx3BE66EE5F40F8E93441D63E1274F8780FB330003B779C374B247DD45B737799E</title>
<g id="a_node26"><a xlink:href="/graphviz/svg/tx/3BE66EE5F40F8E93441D63E1274F8780FB330003B779C374B247DD45B737799E" xlink:title=" &#160;3c8Jyzf...hXRdnu1 &#160;">
<polygon fill="none" stroke="#000000" points="718.8573,-1056 599.8573,-1056 599.8573,-1032 718.8573,-1032 718.8573,-1026 736.8573,-1044 718.8573,-1062 718.8573,-1056"/>
<text text-anchor="middle" x="668.3573" y="-1040.3" font-family="Times,serif" font-size="14.00" fill="#000000"> &#160;3c8Jyzf...hXRdnu1 &#160;</text>
</a>
</g>
</g>
<!-- txAA723D11C8BC27CA2C80514B7C3819C5231023723A3F92AABCD4C0A3993C9DC9 -->
<g id="node27" class="node">
<title>txAA723D11C8BC27CA2C80514B7C3819C5231023723A3F92AABCD4C0A3993C9DC9</title>
<g id="a_node27"><a xlink:href="/graphviz/svg/tx/AA723D11C8BC27CA2C80514B7C3819C5231023723A3F92AABCD4C0A3993C9DC9" xlink:title=" &#160;HMZxPj5...WFZh4xS &#160;">
<polygon fill="none" stroke="#000000" points="727.8573,-1002 590.8573,-1002 590.8573,-978 727.8573,-978 727.8573,-972 745.8573,-990 727.8573,-1008 727.8573,-1002"/>
<text text-anchor="middle" x="668.3573" y="-986.3" font-family="Times,serif" font-size="14.00" fill="#000000"> &#160;HMZxPj5...WFZh4xS &#160;</text>
</a>
</g>
</g>
<!-- tx5D3967662622E2C8DA43DC6C2E9E669843020381B26D10BF25F1ACBA7F34E1E4 -->
<g id="node28" class="node">
<title>tx5D3967662622E2C8DA43DC6C2E9E669843020381B26D10BF25F1ACBA7F34E1E4</title>
<g id="a_node28"><a xlink:href="/graphviz/svg/tx/5D3967662622E2C8DA43DC6C2E9E669843020381B26D10BF25F1ACBA7F34E1E4" xlink:title=" &#160;646YvKJ...ucjrMKq &#160;">
<polygon fill="none" stroke="#000000" points="722.8573,-948 595.8573,-948 595.8573,-924 722.8573,-924 722.8573,-918 740.8573,-936 722.8573,-954 722.8573,-948"/>
<text text-anchor="middle" x="668.3573" y="-932.3" font-family="Times,serif" font-size="14.00" fill="#000000"> &#160;646YvKJ...ucjrMKq &#160;</text>
</a>
</g>
</g>
<!-- txDB7C58CC43EFE32B38A992A8927334412B506B96F846CC907C8CE587A25C6286 -->
<g id="node29" class="node">
<title>txDB7C58CC43EFE32B38A992A8927334412B506B96F846CC907C8CE587A25C6286</title>
<g id="a_node29"><a xlink:href="/graphviz/svg/tx/DB7C58CC43EFE32B38A992A8927334412B506B96F846CC907C8CE587A25C6286" xlink:title=" &#160;8ysx7yQ...TqWq73e &#160;">
<polygon fill="none" stroke="#000000" points="723.3573,-894 595.3573,-894 595.3573,-870 723.3573,-870 723.3573,-864 741.3573,-882 723.3573,-900 723.3573,-894"/>
<text text-anchor="middle" x="668.3573" y="-878.3" font-family="Times,serif" font-size="14.00" fill="#000000"> &#160;8ysx7yQ...TqWq73e &#160;</text>
</a>
</g>
</g>
<!-- tx2564089BC9B7D9E8B9B27CD40685C7144002DBABE94ECE9D87C0A33A122761A4 -->
<g id="node30" class="node">
<title>tx2564089BC9B7D9E8B9B27CD40685C7144002DBABE94ECE9D87C0A33A122761A4</title>
<g id="a_node30"><a xlink:href="/graphviz/svg/tx/2564089BC9B7D9E8B9B27CD40685C7144002DBABE94ECE9D87C0A33A122761A4" xlink:title=" &#160;3c8Jyzf...hXRdnu1 &#160;">
<polygon fill="none" stroke="#000000" points="718.8573,-840 599.8573,-840 599.8573,-816 718.8573,-816 718.8573,-810 736.8573,-828 718.8573,-846 718.8573,-840"/>
<text text-anchor="middle" x="668.3573" y="-824.3" font-family="Times,serif" font-size="14.00" fill="#000000"> &#160;3c8Jyzf...hXRdnu1 &#160;</text>
</a>
</g>
</g>
<!-- tx3FD63BE1AFB8F2338B04DB14BD43DBC9CBB3FD2AFDC51B6FE9D323020761AA7E -->
<g id="node31" class="node">
<title>tx3FD63BE1AFB8F2338B04DB14BD43DBC9CBB3FD2AFDC51B6FE9D323020761AA7E</title>
<g id="a_node31"><a xlink:href="/graphviz/svg/tx/3FD63BE1AFB8F2338B04DB14BD43DBC9CBB3FD2AFDC51B6FE9D323020761AA7E" xlink:title=" &#160;4Sv8X5C...mhvpBRQ &#160;">
<polygon fill="none" stroke="#000000" points="727.8573,-786 590.8573,-786 590.8573,-762 727.8573,-762 727.8573,-756 745.8573,-774 727.8573,-792 727.8573,-786"/>
<text text-anchor="middle" x="668.3573" y="-770.3" font-family="Times,serif" font-size="14.00" fill="#000000"> &#160;4Sv8X5C...mhvpBRQ &#160;</text>
</a>
</g>
</g>
<!-- tx1A67BDA3C016434CC7921B57A91D9385290B6141622DC36BFC99196A2E682AC2 -->
<g id="node32" class="node">
<title>tx1A67BDA3C016434CC7921B57A91D9385290B6141622DC36BFC99196A2E682AC2</title>
<g id="a_node32"><a xlink:href="/graphviz/svg/tx/1A67BDA3C016434CC7921B57A91D9385290B6141622DC36BFC99196A2E682AC2" xlink:title=" &#160;FMTJdP8...vU4LtAc &#160;">
<polygon fill="none" stroke="#000000" points="724.8573,-732 593.8573,-732 593.8573,-708 724.8573,-708 724.8573,-702 742.8573,-720 724.8573,-738 724.8573,-732"/>
<text text-anchor="middle" x="668.3573" y="-716.3" font-family="Times,serif" font-size="14.00" fill="#000000"> &#160;FMTJdP8...vU4LtAc &#160;</text>
</a>
</g>
</g>
<!-- txADA1787E9AA7A2A29413A691378E84CA961F29B15CBDFA6E6E8F3454FD3D0FC9 -->
<g id="node33" class="node">
<title>txADA1787E9AA7A2A29413A691378E84CA961F29B15CBDFA6E6E8F3454FD3D0FC9</title>
<g id="a_node33"><a xlink:href="/graphviz/svg/tx/ADA1787E9AA7A2A29413A691378E84CA961F29B15CBDFA6E6E8F3454FD3D0FC9" xlink:title=" &#160;G3uAY6t...RfyNPxR &#160;">
<polygon fill="none" stroke="#000000" points="724.8573,-678 593.8573,-678 593.8573,-654 724.8573,-654 724.8573,-648 742.8573,-666 724.8573,-684 724.8573,-678"/>
<text text-anchor="middle" x="668.3573" y="-662.3" font-family="Times,serif" font-size="14.00" fill="#000000"> &#160;G3uAY6t...RfyNPxR &#160;</text>
</a>
</g>
</g>
<!-- tx695306FDD83A22ED042DB7E97F2C60B64ECDE973337299A69C32972629B8A63C -->
<g id="node34" class="node">
<title>tx695306FDD83A22ED042DB7E97F2C60B64ECDE973337299A69C32972629B8A63C</title>
<g id="a_node34"><a xlink:href="/graphviz/svg/tx/695306FDD83A22ED042DB7E97F2C60B64ECDE973337299A69C32972629B8A63C" xlink:title=" &#160;DymYJzi...tSWJSg5 &#160;">
<polygon fill="none" stroke="#000000" points="723.3573,-624 595.3573,-624 595.3573,-600 723.3573,-600 723.3573,-594 741.3573,-612 723.3573,-630 723.3573,-624"/>
<text text-anchor="middle" x="668.3573" y="-608.3" font-family="Times,serif" font-size="14.00" fill="#000000"> &#160;DymYJzi...tSWJSg5 &#160;</text>
</a>
</g>
</g>
<!-- _127128Ce -->
<g id="node35" class="node">
<title>_127128Ce</title>
<g id="a_node35"><a xlink:href="/graphviz/svg/certs/Fzf73WM6v1vGdSW2UrJWQHj4CWnoKKDwLJ4So2LxZGkV" xlink:title="Certs: 1">
<polygon fill="none" stroke="#000000" points="709.8694,-26.5442 709.8694,-41.4558 685.5522,-52 651.1624,-52 626.8452,-41.4558 626.8452,-26.5442 651.1624,-16 685.5522,-16 709.8694,-26.5442"/>
<text text-anchor="middle" x="668.3573" y="-30.3" font-family="Times,serif" font-size="14.00" fill="#000000">Certs: 1</text>
</a>
</g>
</g>
<!-- _127130 -->
<g id="node43" class="node">
<title>_127130</title>
<g id="a_node43"><a xlink:href="/graphviz/svg/block/127130" xlink:title=" &#160;Block #\n127130 &#160;">
<polygon fill="none" stroke="#000000" points="1238.8423,-576 1235.8423,-580 1214.8423,-580 1211.8423,-576 1171.8423,-576 1171.8423,-538 1238.8423,-538 1238.8423,-576"/>
<text text-anchor="middle" x="1205.3423" y="-560.8" font-family="Times,serif" font-size="14.00" fill="#000000"> &#160;Block #</text>
<text text-anchor="middle" x="1205.3423" y="-545.8" font-family="Times,serif" font-size="14.00" fill="#000000">127130 &#160;</text>
</a>
</g>
</g>
<!-- _127129&#45;&gt;_127130 -->
<g id="edge12" class="edge">
<title>_127129&#45;&gt;_127130</title>
<path fill="none" stroke="#000000" d="M968.7815,-557C1017.4628,-557 1107.5429,-557 1161.3985,-557"/>
<polygon fill="#000000" stroke="#000000" points="1161.6637,-560.5001 1171.6636,-557 1161.6636,-553.5001 1161.6637,-560.5001"/>
</g>
<!-- _127129hash -->
<g id="node37" class="node">
<title>_127129hash</title>
<polygon fill="none" stroke="transparent" points="1018.6017,-520 851.6017,-520 851.6017,-484 1018.6017,-484 1018.6017,-520"/>
<polyline fill="none" stroke="#000000" points="851.6017,-484 1018.6017,-484 "/>
<text text-anchor="middle" x="935.1017" y="-498.3" font-family="Times,serif" font-size="14.00" fill="#000000">Hash: 0000023...85DFCBE</text>
</g>
<!-- _127130phash -->
<g id="node45" class="node">
<title>_127130phash</title>
<polygon fill="none" stroke="transparent" points="1292.8423,-466 1117.8423,-466 1117.8423,-430 1292.8423,-430 1292.8423,-466"/>
<polyline fill="none" stroke="#000000" points="1117.8423,-430 1292.8423,-430 "/>
<text text-anchor="middle" x="1205.3423" y="-444.3" font-family="Times,serif" font-size="14.00" fill="#000000">PHash: 0000023...85DFCBE</text>
</g>
<!-- _127129hash&#45;&gt;_127130phash -->
<g id="edge4" class="edge">
<title>_127129hash&#45;&gt;_127130phash</title>
<path fill="none" stroke="#000000" stroke-dasharray="1,5" d="M1018.7569,-485.2839C1046.7671,-479.6868 1078.2463,-473.3966 1107.2572,-467.5996"/>
<polygon fill="#000000" stroke="#000000" points="1108.2857,-470.9633 1117.406,-465.5716 1106.914,-464.099 1108.2857,-470.9633"/>
</g>
<!-- _127129issuer -->
<g id="node39" class="node">
<title>_127129issuer</title>
<g id="a_node39"><a xlink:href="/graphviz/svg/certs/GfKERHnJTYzKhKUma5h1uWhetbA8yHKymhVH2raf2aCP" xlink:title="issuer:\nGfKERHn...raf2aCP">
<polygon fill="none" stroke="#000000" points="1048.8502,-389.3298 935.1017,-412.4278 821.3533,-389.3298 821.4594,-351.9563 1048.744,-351.9563 1048.8502,-389.3298"/>
<text text-anchor="middle" x="935.1017" y="-382.8" font-family="Times,serif" font-size="14.00" fill="#000000">issuer:</text>
<text text-anchor="middle" x="935.1017" y="-367.8" font-family="Times,serif" font-size="14.00" fill="#000000">GfKERHn...raf2aCP</text>
</a>
</g>
</g>
<!-- _127130pissuer -->
<g id="node47" class="node">
<title>_127130pissuer</title>
<polygon fill="none" stroke="#000000" points="1319.0908,-305.3298 1205.3423,-328.4278 1091.5939,-305.3298 1091.7,-267.9563 1318.9846,-267.9563 1319.0908,-305.3298"/>
<text text-anchor="middle" x="1205.3423" y="-298.8" font-family="Times,serif" font-size="14.00" fill="#000000">pissuer:</text>
<text text-anchor="middle" x="1205.3423" y="-283.8" font-family="Times,serif" font-size="14.00" fill="#000000">GfKERHn...raf2aCP</text>
</g>
<!-- _127129issuer&#45;&gt;_127130pissuer -->
<g id="edge8" class="edge">
<title>_127129issuer&#45;&gt;_127130pissuer</title>
<path fill="none" stroke="#000000" stroke-dasharray="1,5" d="M1022.4679,-351.8436C1057.2756,-341.0242 1096.9354,-328.6966 1130.4041,-318.2934"/>
<polygon fill="#000000" stroke="#000000" points="1131.6134,-321.5827 1140.1238,-315.2721 1129.5356,-314.8982 1131.6134,-321.5827"/>
</g>
<!-- _127129info -->
<g id="node41" class="node">
<title>_127129info</title>
<text text-anchor="start" x="856.1017" y="-228.3" font-family="Times,serif" font-size="14.00" fill="#000000">Mbr: 1120</text>
<text text-anchor="start" x="856.1017" y="-213.3" font-family="Times,serif" font-size="14.00" fill="#000000">Cur: g1</text>
<text text-anchor="start" x="856.1017" y="-198.3" font-family="Times,serif" font-size="14.00" fill="#000000">Ver: 10</text>
<text text-anchor="start" x="856.1017" y="-183.3" font-family="Times,serif" font-size="14.00" fill="#000000">Pow: 90</text>
<text text-anchor="start" x="856.1017" y="-168.3" font-family="Times,serif" font-size="14.00" fill="#000000">issCnt: 32</text>
<text text-anchor="start" x="856.1017" y="-153.3" font-family="Times,serif" font-size="14.00" fill="#000000">issFrm: 161</text>
<text text-anchor="start" x="856.1017" y="-138.3" font-family="Times,serif" font-size="14.00" fill="#000000">issFVar: 0</text>
<text text-anchor="start" x="856.1017" y="-123.3" font-family="Times,serif" font-size="14.00" fill="#000000">M.M: 210918381</text>
<text text-anchor="start" x="856.1017" y="-108.3" font-family="Times,serif" font-size="14.00" fill="#000000">Tim: 2018&#45;06&#45;10 13:24:44</text>
<text text-anchor="start" x="856.1017" y="-93.3" font-family="Times,serif" font-size="14.00" fill="#000000">DeltaTime: 6m 23s</text>
<text text-anchor="start" x="856.1017" y="-78.3" font-family="Times,serif" font-size="14.00" fill="#000000">Sign: DYzox1Y...6BkDw==</text>
</g>
<!-- tx97A239CA02FA2F97B859C2EA093FE68FEADF90A1FDE8EE69711C2048BD328128 -->
<g id="node42" class="node">
<title>tx97A239CA02FA2F97B859C2EA093FE68FEADF90A1FDE8EE69711C2048BD328128</title>
<g id="a_node42"><a xlink:href="/graphviz/svg/tx/97A239CA02FA2F97B859C2EA093FE68FEADF90A1FDE8EE69711C2048BD328128" xlink:title=" &#160;8ysx7yQ...TqWq73e &#160;">
<polygon fill="none" stroke="#000000" points="990.1017,-624 862.1017,-624 862.1017,-600 990.1017,-600 990.1017,-594 1008.1017,-612 990.1017,-630 990.1017,-624"/>
<text text-anchor="middle" x="935.1017" y="-608.3" font-family="Times,serif" font-size="14.00" fill="#000000"> &#160;8ysx7yQ...TqWq73e &#160;</text>
</a>
</g>
</g>
<!-- _127130hash -->
<g id="node44" class="node">
<title>_127130hash</title>
<polygon fill="none" stroke="transparent" points="1288.8423,-520 1121.8423,-520 1121.8423,-484 1288.8423,-484 1288.8423,-520"/>
<polyline fill="none" stroke="#000000" points="1121.8423,-484 1288.8423,-484 "/>
<text text-anchor="middle" x="1205.3423" y="-498.3" font-family="Times,serif" font-size="14.00" fill="#000000">Hash: 0000013...EFB2CC8</text>
</g>
<!-- _127130issuer -->
<g id="node46" class="node">
<title>_127130issuer</title>
<g id="a_node46"><a xlink:href="/graphviz/svg/certs/FSAPnBZidfUaiURd1qxwmx4z5VGEPvYfthWfq5vfwGFB" xlink:title="issuer:\nFSAPnBZ...5vfwGFB">
<polygon fill="none" stroke="#000000" points="1326.0753,-389.3298 1205.3423,-412.4278 1084.6094,-389.3298 1084.7221,-351.9563 1325.9626,-351.9563 1326.0753,-389.3298"/>
<text text-anchor="middle" x="1205.3423" y="-382.8" font-family="Times,serif" font-size="14.00" fill="#000000">issuer:</text>
<text text-anchor="middle" x="1205.3423" y="-367.8" font-family="Times,serif" font-size="14.00" fill="#000000">FSAPnBZ...5vfwGFB</text>
</a>
</g>
</g>
<!-- _127130info -->
<g id="node48" class="node">
<title>_127130info</title>
<text text-anchor="start" x="1126.8423" y="-228.3" font-family="Times,serif" font-size="14.00" fill="#000000">Mbr: 1120</text>
<text text-anchor="start" x="1126.8423" y="-213.3" font-family="Times,serif" font-size="14.00" fill="#000000">Cur: g1</text>
<text text-anchor="start" x="1126.8423" y="-198.3" font-family="Times,serif" font-size="14.00" fill="#000000">Ver: 10</text>
<text text-anchor="start" x="1126.8423" y="-183.3" font-family="Times,serif" font-size="14.00" fill="#000000">Pow: 90</text>
<text text-anchor="start" x="1126.8423" y="-168.3" font-family="Times,serif" font-size="14.00" fill="#000000">issCnt: 32</text>
<text text-anchor="start" x="1126.8423" y="-153.3" font-family="Times,serif" font-size="14.00" fill="#000000">issFrm: 161</text>
<text text-anchor="start" x="1126.8423" y="-138.3" font-family="Times,serif" font-size="14.00" fill="#000000">issFVar: 0</text>
<text text-anchor="start" x="1126.8423" y="-123.3" font-family="Times,serif" font-size="14.00" fill="#000000">M.M: 210918381</text>
<text text-anchor="start" x="1126.8423" y="-108.3" font-family="Times,serif" font-size="14.00" fill="#000000">Tim: 2018&#45;06&#45;10 13:30:58</text>
<text text-anchor="start" x="1126.8423" y="-93.3" font-family="Times,serif" font-size="14.00" fill="#000000">DeltaTime: 6m 14s</text>
<text text-anchor="start" x="1126.8423" y="-78.3" font-family="Times,serif" font-size="14.00" fill="#000000">Sign: Hr9o7Bm...yNoBw==</text>
</g>
<!-- tx3F0810E3B821B819D375B373124C9FAD7DD4B9C182D9544A175ECFF49D119097 -->
<g id="node49" class="node">
<title>tx3F0810E3B821B819D375B373124C9FAD7DD4B9C182D9544A175ECFF49D119097</title>
<g id="a_node49"><a xlink:href="/graphviz/svg/tx/3F0810E3B821B819D375B373124C9FAD7DD4B9C182D9544A175ECFF49D119097" xlink:title=" &#160;8ysx7yQ...TqWq73e &#160;">
<polygon fill="none" stroke="#000000" points="1260.3423,-624 1132.3423,-624 1132.3423,-600 1260.3423,-600 1260.3423,-594 1278.3423,-612 1260.3423,-630 1260.3423,-624"/>
<text text-anchor="middle" x="1205.3423" y="-608.3" font-family="Times,serif" font-size="14.00" fill="#000000"> &#160;8ysx7yQ...TqWq73e &#160;</text>
</a>
</g>
</g>
</g>
</svg>
