<?xml version="1.0" encoding="UTF-8" standalone="no"?>
<!DOCTYPE svg PUBLIC "-//W3C//DTD SVG 1.1//EN"
 "http://www.w3.org/Graphics/SVG/1.1/DTD/svg11.dtd">
<!-- Generated by graphviz version 2.40.1 (20161225.0304)
 -->
<!-- Title: %3 Pages: 1 -->
<svg width="1261pt" height="457pt"
 viewBox="0.00 0.00 1260.64 457.00" xmlns="http://www.w3.org/2000/svg" xmlns:xlink="http://www.w3.org/1999/xlink">
<g id="graph0" class="graph" transform="scale(1 1) rotate(0) translate(4 453)">
<title>%3</title>
<polygon fill="#ffffff" stroke="transparent" points="-4,4 -4,-453 1256.6377,-453 1256.6377,4 -4,4"/>
<g id="clust1" class="cluster">
<title>cluster_inputs</title>
<polygon fill="none" stroke="#0000ff" points="67.597,-150 67.597,-300 130.3929,-300 130.3929,-150 67.597,-150"/>
<text text-anchor="middle" x="98.9949" y="-284.8" font-family="Times,serif" font-size="14.00" fill="#000000">Inputs</text>
</g>
<g id="clust2" class="cluster">
<title>cluster_unlocks</title>
<polygon fill="none" stroke="#0000ff" points="226.9899,-120 226.9899,-441 350.9899,-441 350.9899,-120 226.9899,-120"/>
<text text-anchor="middle" x="288.9899" y="-425.8" font-family="Times,serif" font-size="14.00" fill="#000000">Unlocks</text>
</g>
<g id="clust3" class="cluster">
<title>cluster_outputs</title>
<polygon fill="none" stroke="#0000ff" points="483.9899,-113 483.9899,-434 767.9899,-434 767.9899,-113 483.9899,-113"/>
<text text-anchor="middle" x="625.9899" y="-418.8" font-family="Times,serif" font-size="14.00" fill="#000000">Outputs</text>
</g>
<!-- info -->
<g id="node1" class="node">
<title>info</title>
<g id="a_node1"><a xlink:href="/graphviz/svg/block/127126" xlink:title="blockstamp: 127126&#45;...E599EC3\lCur: g1\lhash: 3FD63BE...761AA7E\llocktime: 0\l">
<polygon fill="none" stroke="#000000" points="196.9949,-68 193.9949,-72 172.9949,-72 169.9949,-68 .9949,-68 .9949,0 196.9949,0 196.9949,-68"/>
<text text-anchor="start" x="8.9949" y="-52.8" font-family="Times,serif" font-size="14.00" fill="#000000">blockstamp: 127126&#45;...E599EC3</text>
<text text-anchor="start" x="8.9949" y="-37.8" font-family="Times,serif" font-size="14.00" fill="#000000">Cur: g1</text>
<text text-anchor="start" x="8.9949" y="-22.8" font-family="Times,serif" font-size="14.00" fill="#000000">hash: 3FD63BE...761AA7E</text>
<text text-anchor="start" x="8.9949" y="-7.8" font-family="Times,serif" font-size="14.00" fill="#000000">locktime: 0</text>
</a>
</g>
</g>
<!-- good -->
<g id="node2" class="node">
<title>good</title>
<ellipse fill="none" stroke="#000000" cx="1179.8057" cy="-153" rx="72.6644" ry="26.7407"/>
<text text-anchor="middle" x="1179.8057" y="-156.8" font-family="Times,serif" font-size="14.00" fill="#000000">Product/Service</text>
<text text-anchor="middle" x="1179.8057" y="-141.8" font-family="Times,serif" font-size="14.00" fill="#000000">un bon pain</text>
</g>
<!-- sum -->
<g id="node3" class="node">
<title>sum</title>
<ellipse fill="none" stroke="#000000" cx="406.9899" cy="-183" rx="27" ry="18"/>
<text text-anchor="middle" x="406.9899" y="-179.3" font-family="Times,serif" font-size="14.00" fill="#000000">sum</text>
</g>
<!-- lockOut212233986 -->
<g id="node10" class="node">
<title>lockOut212233986</title>
<polygon fill="none" stroke="#000000" points="625.9899,-291 491.9899,-253 625.9899,-215 759.9899,-253 625.9899,-291"/>
<text text-anchor="middle" x="625.9899" y="-256.8" font-family="Times,serif" font-size="14.00" fill="#000000">lockOut</text>
<text text-anchor="middle" x="625.9899" y="-241.8" font-family="Times,serif" font-size="14.00" fill="#000000">SIG(CCd...VV6NwJ)</text>
</g>
<!-- sum&#45;&gt;lockOut212233986 -->
<g id="edge5" class="edge">
<title>sum&#45;&gt;lockOut212233986</title>
<path fill="none" stroke="#000000" d="M431.6863,-190.8938C460.9521,-200.2482 511.042,-216.2587 553.0334,-229.6806"/>
<polygon fill="#000000" stroke="#000000" points="552.0942,-233.0547 562.6851,-232.7656 554.2254,-226.3871 552.0942,-233.0547"/>
<text text-anchor="middle" x="462.9899" y="-206.8" font-family="Times,serif" font-size="14.00" fill="#000000">SIG</text>
</g>
<!-- lockOut1763814952 -->
<g id="node11" class="node">
<title>lockOut1763814952</title>
<polygon fill="none" stroke="#000000" points="625.9899,-197 497.9899,-159 625.9899,-121 753.9899,-159 625.9899,-197"/>
<text text-anchor="middle" x="625.9899" y="-162.8" font-family="Times,serif" font-size="14.00" fill="#000000">lockOut</text>
<text text-anchor="middle" x="625.9899" y="-147.8" font-family="Times,serif" font-size="14.00" fill="#000000">SIG(4Sv...hvpBRQ)</text>
</g>
<!-- sum&#45;&gt;lockOut1763814952 -->
<g id="edge9" class="edge">
<title>sum&#45;&gt;lockOut1763814952</title>
<path fill="none" stroke="#000000" d="M433.8436,-180.0571C456.2017,-177.6069 489.55,-173.9523 522.2169,-170.3724"/>
<polygon fill="#000000" stroke="#000000" points="522.7609,-173.8338 532.3201,-169.2652 521.9983,-166.8755 522.7609,-173.8338"/>
<text text-anchor="middle" x="462.9899" y="-180.8" font-family="Times,serif" font-size="14.00" fill="#000000">SIG</text>
</g>
<!-- input157744040 -->
<g id="node4" class="node">
<title>input157744040</title>
<g id="a_node4"><a xlink:href="/graphviz/svg/block/94919" xlink:title="UD">
<ellipse fill="#ffff00" stroke="#ffff00" cx="98.9949" cy="-181" rx="23.2963" ry="23.2963"/>
<text text-anchor="middle" x="98.9949" y="-177.3" font-family="Times,serif" font-size="14.00" fill="#000000">UD</text>
</a>
</g>
</g>
<!-- unlock504429310 -->
<g id="node7" class="node">
<title>unlock504429310</title>
<polygon fill="none" stroke="#000000" points="288.9899,-204 234.9899,-166 288.9899,-128 342.9899,-166 288.9899,-204"/>
<text text-anchor="middle" x="288.9899" y="-169.8" font-family="Times,serif" font-size="14.00" fill="#000000">unlock</text>
<text text-anchor="middle" x="288.9899" y="-154.8" font-family="Times,serif" font-size="14.00" fill="#000000">SIG(0)</text>
</g>
<!-- input157744040&#45;&gt;unlock504429310 -->
<g id="edge1" class="edge">
<title>input157744040&#45;&gt;unlock504429310</title>
<path fill="none" stroke="#000000" d="M122.6738,-179.1306C149.4063,-177.0201 193.895,-173.5077 230.1359,-170.6465"/>
<polygon fill="#000000" stroke="#000000" points="230.4239,-174.1347 240.1174,-169.8585 229.8729,-167.1565 230.4239,-174.1347"/>
</g>
<!-- input1552133188 -->
<g id="node5" class="node">
<title>input1552133188</title>
<g id="a_node5"><a xlink:href="/graphviz/svg/block/95195" xlink:title="UD">
<ellipse fill="#ffff00" stroke="#ffff00" cx="98.9949" cy="-246" rx="23.2963" ry="23.2963"/>
<text text-anchor="middle" x="98.9949" y="-242.3" font-family="Times,serif" font-size="14.00" fill="#000000">UD</text>
</a>
</g>
</g>
<!-- unlock1467372172 -->
<g id="node8" class="node">
<title>unlock1467372172</title>
<polygon fill="none" stroke="#000000" points="288.9899,-298 234.9899,-260 288.9899,-222 342.9899,-260 288.9899,-298"/>
<text text-anchor="middle" x="288.9899" y="-263.8" font-family="Times,serif" font-size="14.00" fill="#000000">unlock</text>
<text text-anchor="middle" x="288.9899" y="-248.8" font-family="Times,serif" font-size="14.00" fill="#000000">SIG(0)</text>
</g>
<!-- input1552133188&#45;&gt;unlock1467372172 -->
<g id="edge2" class="edge">
<title>input1552133188&#45;&gt;unlock1467372172</title>
<path fill="none" stroke="#000000" d="M122.6738,-247.7448C149.2015,-249.6995 193.2145,-252.9427 229.3016,-255.6018"/>
<polygon fill="#000000" stroke="#000000" points="229.5021,-259.126 239.7323,-256.3704 230.0165,-252.1449 229.5021,-259.126"/>
</g>
<!-- dbu -->
<g id="node6" class="node">
<title>dbu</title>
<path fill="none" stroke="#000000" d="M320.4899,-401.4556C320.4899,-406.171 306.3711,-410.0013 288.9899,-410.0013 271.6087,-410.0013 257.4899,-406.171 257.4899,-401.4556 257.4899,-401.4556 257.4899,-324.5444 257.4899,-324.5444 257.4899,-319.829 271.6087,-315.9987 288.9899,-315.9987 306.3711,-315.9987 320.4899,-319.829 320.4899,-324.5444 320.4899,-324.5444 320.4899,-401.4556 320.4899,-401.4556"/>
<path fill="none" stroke="#000000" d="M320.4899,-401.4556C320.4899,-396.7403 306.3711,-392.9099 288.9899,-392.9099 271.6087,-392.9099 257.4899,-396.7403 257.4899,-401.4556"/>
<text text-anchor="middle" x="288.9899" y="-381.8" font-family="Times,serif" font-size="14.00" fill="#000000">useful</text>
<text text-anchor="middle" x="288.9899" y="-366.8" font-family="Times,serif" font-size="14.00" fill="#000000">for</text>
<text text-anchor="middle" x="288.9899" y="-351.8" font-family="Times,serif" font-size="14.00" fill="#000000">state</text>
<text text-anchor="middle" x="288.9899" y="-336.8" font-family="Times,serif" font-size="14.00" fill="#000000">machine</text>
</g>
<!-- unlock504429310&#45;&gt;sum -->
<g id="edge3" class="edge">
<title>unlock504429310&#45;&gt;sum</title>
<path fill="none" stroke="#000000" d="M333.9373,-172.4755C345.905,-174.1996 358.6917,-176.0418 370.1682,-177.6952"/>
<polygon fill="#000000" stroke="#000000" points="369.8815,-181.1899 380.2784,-179.1517 370.8797,-174.2615 369.8815,-181.1899"/>
</g>
<!-- unlock1467372172&#45;&gt;sum -->
<g id="edge4" class="edge">
<title>unlock1467372172&#45;&gt;sum</title>
<path fill="none" stroke="#000000" d="M317.2538,-241.5566C335.9714,-229.3426 360.4151,-213.392 379.0633,-201.2233"/>
<polygon fill="#000000" stroke="#000000" points="380.9795,-204.1522 387.4415,-195.7561 377.1541,-198.2899 380.9795,-204.1522"/>
</g>
<!-- dbo -->
<g id="node9" class="node">
<title>dbo</title>
<path fill="none" stroke="#000000" d="M657.4899,-394.4556C657.4899,-399.171 643.3711,-403.0013 625.9899,-403.0013 608.6087,-403.0013 594.4899,-399.171 594.4899,-394.4556 594.4899,-394.4556 594.4899,-317.5444 594.4899,-317.5444 594.4899,-312.829 608.6087,-308.9987 625.9899,-308.9987 643.3711,-308.9987 657.4899,-312.829 657.4899,-317.5444 657.4899,-317.5444 657.4899,-394.4556 657.4899,-394.4556"/>
<path fill="none" stroke="#000000" d="M657.4899,-394.4556C657.4899,-389.7403 643.3711,-385.9099 625.9899,-385.9099 608.6087,-385.9099 594.4899,-389.7403 594.4899,-394.4556"/>
<text text-anchor="middle" x="625.9899" y="-374.8" font-family="Times,serif" font-size="14.00" fill="#000000">useful</text>
<text text-anchor="middle" x="625.9899" y="-359.8" font-family="Times,serif" font-size="14.00" fill="#000000">for</text>
<text text-anchor="middle" x="625.9899" y="-344.8" font-family="Times,serif" font-size="14.00" fill="#000000">state</text>
<text text-anchor="middle" x="625.9899" y="-329.8" font-family="Times,serif" font-size="14.00" fill="#000000">machine</text>
</g>
<!-- amountOut212233986 -->
<g id="node12" class="node">
<title>amountOut212233986</title>
<polygon fill="none" stroke="#000000" points="850.9899,-265 796.9899,-265 796.9899,-241 850.9899,-241 850.9899,-265"/>
<polyline fill="none" stroke="#000000" points="799.9899,-254.5 802.9899,-251.5 "/>
<polyline fill="none" stroke="#000000" points="799.9899,-251.5 802.9899,-254.5 "/>
<polyline fill="none" stroke="#000000" points="799.9899,-244 847.9899,-244 "/>
<text text-anchor="middle" x="823.9899" y="-249.3" font-family="Times,serif" font-size="14.00" fill="#000000">2000</text>
</g>
<!-- lockOut212233986&#45;&gt;amountOut212233986 -->
<g id="edge8" class="edge">
<title>lockOut212233986&#45;&gt;amountOut212233986</title>
<path fill="none" stroke="#000000" d="M760.2516,-253C769.7465,-253 778.7436,-253 786.8242,-253"/>
<polygon fill="#000000" stroke="#000000" points="786.8837,-256.5001 796.8837,-253 786.8837,-249.5001 786.8837,-256.5001"/>
</g>
<!-- amountOut1763814952 -->
<g id="node14" class="node">
<title>amountOut1763814952</title>
<polygon fill="none" stroke="#000000" points="850.9899,-171 796.9899,-171 796.9899,-147 850.9899,-147 850.9899,-171"/>
<polyline fill="none" stroke="#000000" points="799.9899,-160.5 802.9899,-157.5 "/>
<polyline fill="none" stroke="#000000" points="799.9899,-157.5 802.9899,-160.5 "/>
<polyline fill="none" stroke="#000000" points="799.9899,-150 847.9899,-150 "/>
<text text-anchor="middle" x="823.9899" y="-155.3" font-family="Times,serif" font-size="14.00" fill="#000000">2</text>
</g>
<!-- lockOut1763814952&#45;&gt;amountOut1763814952 -->
<g id="edge13" class="edge">
<title>lockOut1763814952&#45;&gt;amountOut1763814952</title>
<path fill="none" stroke="#000000" d="M754.1825,-159C765.8665,-159 776.9548,-159 786.7122,-159"/>
<polygon fill="#000000" stroke="#000000" points="786.7429,-162.5001 796.7429,-159 786.7429,-155.5001 786.7429,-162.5001"/>
</g>
<!-- _destCCdjH7Pd8GPe74ZbiD1DdZ1CXQ2ggYVehk2c7iVV6NwJ -->
<g id="node13" class="node">
<title>_destCCdjH7Pd8GPe74ZbiD1DdZ1CXQ2ggYVehk2c7iVV6NwJ</title>
<ellipse fill="none" stroke="#000000" cx="978.9818" cy="-181" rx="87.9851" ry="18"/>
<text text-anchor="middle" x="978.9818" y="-177.3" font-family="Times,serif" font-size="14.00" fill="#000000">CCdjH7P...iVV6NwJ</text>
</g>
<!-- amountOut212233986&#45;&gt;_destCCdjH7Pd8GPe74ZbiD1DdZ1CXQ2ggYVehk2c7iVV6NwJ -->
<g id="edge6" class="edge">
<title>amountOut212233986&#45;&gt;_destCCdjH7Pd8GPe74ZbiD1DdZ1CXQ2ggYVehk2c7iVV6NwJ</title>
<path fill="none" stroke="#000000" d="M851.3426,-240.2936C874.2755,-229.6403 907.4752,-214.2177 934.2667,-201.772"/>
<polygon fill="#000000" stroke="#000000" points="935.854,-204.8939 943.4486,-197.5066 932.9048,-198.5455 935.854,-204.8939"/>
</g>
<!-- _destCCdjH7Pd8GPe74ZbiD1DdZ1CXQ2ggYVehk2c7iVV6NwJ&#45;&gt;good -->
<g id="edge7" class="edge">
<title>_destCCdjH7Pd8GPe74ZbiD1DdZ1CXQ2ggYVehk2c7iVV6NwJ&#45;&gt;good</title>
<path fill="none" stroke="#000000" d="M1061.9561,-169.4313C1078.4809,-167.1273 1095.6557,-164.7327 1111.6156,-162.5074"/>
<polygon fill="#000000" stroke="#000000" points="1061.1887,-166.0043 1051.7678,-170.8518 1062.1554,-172.9373 1061.1887,-166.0043"/>
</g>
<!-- _dest4Sv8X5CuKhgbxNAEDZwgdPXBpq8DuCfAr2JaXmhvpBRQ -->
<g id="node15" class="node">
<title>_dest4Sv8X5CuKhgbxNAEDZwgdPXBpq8DuCfAr2JaXmhvpBRQ</title>
<ellipse fill="none" stroke="#000000" cx="978.9818" cy="-127" rx="90.9839" ry="18"/>
<text text-anchor="middle" x="978.9818" y="-123.3" font-family="Times,serif" font-size="14.00" fill="#000000">4Sv8X5C...mhvpBRQ</text>
</g>
<!-- amountOut1763814952&#45;&gt;_dest4Sv8X5CuKhgbxNAEDZwgdPXBpq8DuCfAr2JaXmhvpBRQ -->
<g id="edge10" class="edge">
<title>amountOut1763814952&#45;&gt;_dest4Sv8X5CuKhgbxNAEDZwgdPXBpq8DuCfAr2JaXmhvpBRQ</title>
<path fill="none" stroke="#000000" d="M851.3426,-153.3527C866.6574,-150.1908 886.551,-146.0835 906.0571,-142.0562"/>
<polygon fill="#000000" stroke="#000000" points="906.8008,-145.4766 915.8865,-140.0268 905.3854,-138.6212 906.8008,-145.4766"/>
</g>
<!-- _dest4Sv8X5CuKhgbxNAEDZwgdPXBpq8DuCfAr2JaXmhvpBRQ&#45;&gt;good -->
<g id="edge11" class="edge">
<title>_dest4Sv8X5CuKhgbxNAEDZwgdPXBpq8DuCfAr2JaXmhvpBRQ&#45;&gt;good</title>
<path fill="none" stroke="#000000" d="M1055.1911,-136.8666C1070.0667,-138.7925 1085.6959,-140.8159 1100.6641,-142.7538"/>
<polygon fill="#000000" stroke="#000000" points="1100.5371,-146.2665 1110.9037,-144.0795 1101.4359,-139.3244 1100.5371,-146.2665"/>
</g>
<!-- _4Sv8X5CuKhgbxNAEDZwgdPXBpq8DuCfAr2JaXmhvpBRQ -->
<g id="node16" class="node">
<title>_4Sv8X5CuKhgbxNAEDZwgdPXBpq8DuCfAr2JaXmhvpBRQ</title>
<ellipse fill="none" stroke="#000000" cx="98.9949" cy="-113" rx="98.9899" ry="26.7407"/>
<text text-anchor="middle" x="98.9949" y="-116.8" font-family="Times,serif" font-size="14.00" fill="#000000">issuer</text>
<text text-anchor="middle" x="98.9949" y="-101.8" font-family="Times,serif" font-size="14.00" fill="#000000">4Sv8X5C...mhvpBRQ</text>
</g>
<!-- _4Sv8X5CuKhgbxNAEDZwgdPXBpq8DuCfAr2JaXmhvpBRQ&#45;&gt;unlock504429310 -->
<g id="edge14" class="edge">
<title>_4Sv8X5CuKhgbxNAEDZwgdPXBpq8DuCfAr2JaXmhvpBRQ&#45;&gt;unlock504429310</title>
<path fill="none" stroke="#000000" d="M168.1249,-132.2841C192.1397,-138.9832 218.5417,-146.3481 240.5274,-152.4812"/>
<polygon fill="#000000" stroke="#000000" points="239.7211,-155.8898 250.2938,-155.2055 241.602,-149.1472 239.7211,-155.8898"/>
</g>
<!-- _4Sv8X5CuKhgbxNAEDZwgdPXBpq8DuCfAr2JaXmhvpBRQ&#45;&gt;_dest4Sv8X5CuKhgbxNAEDZwgdPXBpq8DuCfAr2JaXmhvpBRQ -->
<g id="edge12" class="edge">
<title>_4Sv8X5CuKhgbxNAEDZwgdPXBpq8DuCfAr2JaXmhvpBRQ&#45;&gt;_dest4Sv8X5CuKhgbxNAEDZwgdPXBpq8DuCfAr2JaXmhvpBRQ</title>
<path fill="none" stroke="#000000" d="M207.5305,-109.1187C339.9176,-105.1307 570.4969,-100.5911 767.9899,-109 811.2399,-110.8415 859.3415,-114.7971 898.6816,-118.5324"/>
<polygon fill="#000000" stroke="#000000" points="207.2741,-105.6249 197.3858,-109.4291 207.4882,-112.6216 207.2741,-105.6249"/>
</g>
</g>
</svg>
