<?xml version="1.0" encoding="UTF-8" standalone="no"?>
<!DOCTYPE svg PUBLIC "-//W3C//DTD SVG 1.1//EN"
 "http://www.w3.org/Graphics/SVG/1.1/DTD/svg11.dtd">
<!-- Generated by graphviz version 2.40.1 (20161225.0304)
 -->
<!-- Title: %3 Pages: 1 -->
<svg width="1399pt" height="546pt"
 viewBox="0.00 0.00 1398.90 546.00" xmlns="http://www.w3.org/2000/svg" xmlns:xlink="http://www.w3.org/1999/xlink">
<g id="graph0" class="graph" transform="scale(1 1) rotate(0) translate(4 542)">
<title>%3</title>
<polygon fill="#ffffff" stroke="transparent" points="-4,4 -4,-542 1394.9045,-542 1394.9045,4 -4,4"/>
<g id="clust1" class="cluster">
<title>cluster_3</title>
<polygon fill="#d3d3d3" stroke="#d3d3d3" points="8,-8 8,-530 266.9809,-530 266.9809,-8 8,-8"/>
</g>
<g id="clust2" class="cluster">
<title>cluster_4</title>
<polygon fill="#d3d3d3" stroke="#d3d3d3" points="286.9809,-8 286.9809,-530 545.9618,-530 545.9618,-8 286.9809,-8"/>
</g>
<g id="clust3" class="cluster">
<title>cluster_5</title>
<polygon fill="#d3d3d3" stroke="#d3d3d3" points="565.9618,-8 565.9618,-530 824.9427,-530 824.9427,-8 565.9618,-8"/>
</g>
<g id="clust4" class="cluster">
<title>cluster_6</title>
<polygon fill="#d3d3d3" stroke="#d3d3d3" points="844.9427,-8 844.9427,-530 1103.9236,-530 1103.9236,-8 844.9427,-8"/>
</g>
<g id="clust5" class="cluster">
<title>cluster_7</title>
<polygon fill="#d3d3d3" stroke="#d3d3d3" points="1123.9236,-8 1123.9236,-530 1382.9045,-530 1382.9045,-8 1123.9236,-8"/>
</g>
<!-- _3 -->
<g id="node1" class="node">
<title>_3</title>
<g id="a_node1"><a xlink:href="/graphviz/svg/block/3" xlink:title=" &#160;Block #\n3 &#160;">
<polygon fill="none" stroke="#000000" points="170.9905,-522 167.9905,-526 146.9905,-526 143.9905,-522 103.9905,-522 103.9905,-484 170.9905,-484 170.9905,-522"/>
<text text-anchor="middle" x="137.4905" y="-506.8" font-family="Times,serif" font-size="14.00" fill="#000000"> &#160;Block #</text>
<text text-anchor="middle" x="137.4905" y="-491.8" font-family="Times,serif" font-size="14.00" fill="#000000">3 &#160;</text>
</a>
</g>
</g>
<!-- _4 -->
<g id="node7" class="node">
<title>_4</title>
<g id="a_node7"><a xlink:href="/graphviz/svg/block/4" xlink:title=" &#160;Block #\n4 &#160;">
<polygon fill="none" stroke="#000000" points="449.9714,-522 446.9714,-526 425.9714,-526 422.9714,-522 382.9714,-522 382.9714,-484 449.9714,-484 449.9714,-522"/>
<text text-anchor="middle" x="416.4714" y="-506.8" font-family="Times,serif" font-size="14.00" fill="#000000"> &#160;Block #</text>
<text text-anchor="middle" x="416.4714" y="-491.8" font-family="Times,serif" font-size="14.00" fill="#000000">4 &#160;</text>
</a>
</g>
</g>
<!-- _3&#45;&gt;_4 -->
<g id="edge9" class="edge">
<title>_3&#45;&gt;_4</title>
<path fill="none" stroke="#000000" d="M171.1421,-503C221.5169,-503 316.5667,-503 372.4135,-503"/>
<polygon fill="#000000" stroke="#000000" points="372.7004,-506.5001 382.7004,-503 372.7004,-499.5001 372.7004,-506.5001"/>
</g>
<!-- _3hash -->
<g id="node2" class="node">
<title>_3hash</title>
<polygon fill="none" stroke="transparent" points="219.9905,-466 54.9905,-466 54.9905,-430 219.9905,-430 219.9905,-466"/>
<polyline fill="none" stroke="#000000" points="54.9905,-430 219.9905,-430 "/>
<text text-anchor="middle" x="137.4905" y="-444.3" font-family="Times,serif" font-size="14.00" fill="#000000">Hash: 0000611...9C22BD1</text>
</g>
<!-- _4phash -->
<g id="node9" class="node">
<title>_4phash</title>
<polygon fill="none" stroke="transparent" points="502.9714,-412 329.9714,-412 329.9714,-376 502.9714,-376 502.9714,-412"/>
<polyline fill="none" stroke="#000000" points="329.9714,-376 502.9714,-376 "/>
<text text-anchor="middle" x="416.4714" y="-390.3" font-family="Times,serif" font-size="14.00" fill="#000000">PHash: 0000611...9C22BD1</text>
</g>
<!-- _3hash&#45;&gt;_4phash -->
<g id="edge1" class="edge">
<title>_3hash&#45;&gt;_4phash</title>
<path fill="none" stroke="#000000" stroke-dasharray="1,5" d="M220.0616,-432.0174C251.3678,-425.9577 287.2909,-419.0044 319.7832,-412.7151"/>
<polygon fill="#000000" stroke="#000000" points="320.5953,-416.123 329.748,-410.7863 319.265,-409.2505 320.5953,-416.123"/>
</g>
<!-- _3phash -->
<g id="node3" class="node">
<title>_3phash</title>
<polygon fill="none" stroke="transparent" points="222.4905,-412 52.4905,-412 52.4905,-376 222.4905,-376 222.4905,-412"/>
<polyline fill="none" stroke="#000000" points="52.4905,-376 222.4905,-376 "/>
<text text-anchor="middle" x="137.4905" y="-390.3" font-family="Times,serif" font-size="14.00" fill="#000000">PHash: 000027A...260322C</text>
</g>
<!-- _3issuer -->
<g id="node4" class="node">
<title>_3issuer</title>
<g id="a_node4"><a xlink:href="/graphviz/svg/certs/2ny7YAdmzReQxAayyJZsyVYwYhVyax2thKcGknmQy5nQ" xlink:title="issuer:\n2ny7YAd...nmQy5nQ">
<polygon fill="none" stroke="#000000" points="258.9714,-335.3298 137.4905,-358.4278 16.0095,-335.3298 16.1229,-297.9563 258.858,-297.9563 258.9714,-335.3298"/>
<text text-anchor="middle" x="137.4905" y="-328.8" font-family="Times,serif" font-size="14.00" fill="#000000">issuer:</text>
<text text-anchor="middle" x="137.4905" y="-313.8" font-family="Times,serif" font-size="14.00" fill="#000000">2ny7YAd...nmQy5nQ</text>
</a>
</g>
</g>
<!-- _4pissuer -->
<g id="node11" class="node">
<title>_4pissuer</title>
<polygon fill="none" stroke="#000000" points="537.9523,-251.3298 416.4714,-274.4278 294.9905,-251.3298 295.1038,-213.9563 537.8389,-213.9563 537.9523,-251.3298"/>
<text text-anchor="middle" x="416.4714" y="-244.8" font-family="Times,serif" font-size="14.00" fill="#000000">pissuer:</text>
<text text-anchor="middle" x="416.4714" y="-229.8" font-family="Times,serif" font-size="14.00" fill="#000000">2ny7YAd...nmQy5nQ</text>
</g>
<!-- _3issuer&#45;&gt;_4pissuer -->
<g id="edge5" class="edge">
<title>_3issuer&#45;&gt;_4pissuer</title>
<path fill="none" stroke="#000000" stroke-dasharray="1,5" d="M227.6823,-297.8436C263.326,-287.1114 303.8982,-274.8953 338.2723,-264.5454"/>
<polygon fill="#000000" stroke="#000000" points="339.6936,-267.7728 348.2598,-261.5382 337.6753,-261.07 339.6936,-267.7728"/>
</g>
<!-- _3pissuer -->
<g id="node5" class="node">
<title>_3pissuer</title>
<polygon fill="none" stroke="#000000" points="258.9714,-251.3298 137.4905,-274.4278 16.0095,-251.3298 16.1229,-213.9563 258.858,-213.9563 258.9714,-251.3298"/>
<text text-anchor="middle" x="137.4905" y="-244.8" font-family="Times,serif" font-size="14.00" fill="#000000">pissuer:</text>
<text text-anchor="middle" x="137.4905" y="-229.8" font-family="Times,serif" font-size="14.00" fill="#000000">2ny7YAd...nmQy5nQ</text>
</g>
<!-- _3info -->
<g id="node6" class="node">
<title>_3info</title>
<text text-anchor="start" x="53.9905" y="-174.3" font-family="Times,serif" font-size="14.00" fill="#000000">Mbr: 59</text>
<text text-anchor="start" x="53.9905" y="-159.3" font-family="Times,serif" font-size="14.00" fill="#000000">Cur: g1</text>
<text text-anchor="start" x="53.9905" y="-144.3" font-family="Times,serif" font-size="14.00" fill="#000000">Ver: 10</text>
<text text-anchor="start" x="53.9905" y="-129.3" font-family="Times,serif" font-size="14.00" fill="#000000">Pow: 70</text>
<text text-anchor="start" x="53.9905" y="-114.3" font-family="Times,serif" font-size="14.00" fill="#000000">issCnt: 1</text>
<text text-anchor="start" x="53.9905" y="-99.3" font-family="Times,serif" font-size="14.00" fill="#000000">issFrm: 3</text>
<text text-anchor="start" x="53.9905" y="-84.3" font-family="Times,serif" font-size="14.00" fill="#000000">issFVar: 3</text>
<text text-anchor="start" x="53.9905" y="-69.3" font-family="Times,serif" font-size="14.00" fill="#000000">M.M: 59000</text>
<text text-anchor="start" x="53.9905" y="-54.3" font-family="Times,serif" font-size="14.00" fill="#000000">Tim: 2017&#45;03&#45;08 16:34:04</text>
<text text-anchor="start" x="53.9905" y="-39.3" font-family="Times,serif" font-size="14.00" fill="#000000">DeltaTime: 1m 4s</text>
<text text-anchor="start" x="53.9905" y="-24.3" font-family="Times,serif" font-size="14.00" fill="#000000">Sign: UDVSAMa...nKJDA==</text>
</g>
<!-- _5 -->
<g id="node13" class="node">
<title>_5</title>
<g id="a_node13"><a xlink:href="/graphviz/svg/block/5" xlink:title=" &#160;Block #\n5 &#160;">
<polygon fill="none" stroke="#000000" points="728.9523,-522 725.9523,-526 704.9523,-526 701.9523,-522 661.9523,-522 661.9523,-484 728.9523,-484 728.9523,-522"/>
<text text-anchor="middle" x="695.4523" y="-506.8" font-family="Times,serif" font-size="14.00" fill="#000000"> &#160;Block #</text>
<text text-anchor="middle" x="695.4523" y="-491.8" font-family="Times,serif" font-size="14.00" fill="#000000">5 &#160;</text>
</a>
</g>
</g>
<!-- _4&#45;&gt;_5 -->
<g id="edge10" class="edge">
<title>_4&#45;&gt;_5</title>
<path fill="none" stroke="#000000" d="M450.123,-503C500.4978,-503 595.5476,-503 651.3944,-503"/>
<polygon fill="#000000" stroke="#000000" points="651.6813,-506.5001 661.6813,-503 651.6813,-499.5001 651.6813,-506.5001"/>
</g>
<!-- _4hash -->
<g id="node8" class="node">
<title>_4hash</title>
<polygon fill="none" stroke="transparent" points="497.4714,-466 335.4714,-466 335.4714,-430 497.4714,-430 497.4714,-466"/>
<polyline fill="none" stroke="#000000" points="335.4714,-430 497.4714,-430 "/>
<text text-anchor="middle" x="416.4714" y="-444.3" font-family="Times,serif" font-size="14.00" fill="#000000">Hash: 0000090...9DE6744</text>
</g>
<!-- _5phash -->
<g id="node15" class="node">
<title>_5phash</title>
<polygon fill="none" stroke="transparent" points="780.4523,-412 610.4523,-412 610.4523,-376 780.4523,-376 780.4523,-412"/>
<polyline fill="none" stroke="#000000" points="610.4523,-376 780.4523,-376 "/>
<text text-anchor="middle" x="695.4523" y="-390.3" font-family="Times,serif" font-size="14.00" fill="#000000">PHash: 0000090...9DE6744</text>
</g>
<!-- _4hash&#45;&gt;_5phash -->
<g id="edge2" class="edge">
<title>_4hash&#45;&gt;_5phash</title>
<path fill="none" stroke="#000000" stroke-dasharray="1,5" d="M497.5389,-432.3084C529.6141,-426.0999 566.7196,-418.9177 600.074,-412.4616"/>
<polygon fill="#000000" stroke="#000000" points="601.1426,-415.8198 610.2952,-410.4831 599.8123,-408.9473 601.1426,-415.8198"/>
</g>
<!-- _4issuer -->
<g id="node10" class="node">
<title>_4issuer</title>
<g id="a_node10"><a xlink:href="/graphviz/svg/certs/2ny7YAdmzReQxAayyJZsyVYwYhVyax2thKcGknmQy5nQ" xlink:title="issuer:\n2ny7YAd...nmQy5nQ">
<polygon fill="none" stroke="#000000" points="537.9523,-335.3298 416.4714,-358.4278 294.9905,-335.3298 295.1038,-297.9563 537.8389,-297.9563 537.9523,-335.3298"/>
<text text-anchor="middle" x="416.4714" y="-328.8" font-family="Times,serif" font-size="14.00" fill="#000000">issuer:</text>
<text text-anchor="middle" x="416.4714" y="-313.8" font-family="Times,serif" font-size="14.00" fill="#000000">2ny7YAd...nmQy5nQ</text>
</a>
</g>
</g>
<!-- _5pissuer -->
<g id="node17" class="node">
<title>_5pissuer</title>
<polygon fill="none" stroke="#000000" points="816.9332,-251.3298 695.4523,-274.4278 573.9714,-251.3298 574.0848,-213.9563 816.8198,-213.9563 816.9332,-251.3298"/>
<text text-anchor="middle" x="695.4523" y="-244.8" font-family="Times,serif" font-size="14.00" fill="#000000">pissuer:</text>
<text text-anchor="middle" x="695.4523" y="-229.8" font-family="Times,serif" font-size="14.00" fill="#000000">2ny7YAd...nmQy5nQ</text>
</g>
<!-- _4issuer&#45;&gt;_5pissuer -->
<g id="edge6" class="edge">
<title>_4issuer&#45;&gt;_5pissuer</title>
<path fill="none" stroke="#000000" stroke-dasharray="1,5" d="M506.6632,-297.8436C542.3069,-287.1114 582.8792,-274.8953 617.2532,-264.5454"/>
<polygon fill="#000000" stroke="#000000" points="618.6745,-267.7728 627.2407,-261.5382 616.6562,-261.07 618.6745,-267.7728"/>
</g>
<!-- _4info -->
<g id="node12" class="node">
<title>_4info</title>
<text text-anchor="start" x="337.4714" y="-174.3" font-family="Times,serif" font-size="14.00" fill="#000000">Mbr: 59</text>
<text text-anchor="start" x="337.4714" y="-159.3" font-family="Times,serif" font-size="14.00" fill="#000000">Cur: g1</text>
<text text-anchor="start" x="337.4714" y="-144.3" font-family="Times,serif" font-size="14.00" fill="#000000">Ver: 10</text>
<text text-anchor="start" x="337.4714" y="-129.3" font-family="Times,serif" font-size="14.00" fill="#000000">Pow: 70</text>
<text text-anchor="start" x="337.4714" y="-114.3" font-family="Times,serif" font-size="14.00" fill="#000000">issCnt: 1</text>
<text text-anchor="start" x="337.4714" y="-99.3" font-family="Times,serif" font-size="14.00" fill="#000000">issFrm: 4</text>
<text text-anchor="start" x="337.4714" y="-84.3" font-family="Times,serif" font-size="14.00" fill="#000000">issFVar: 2</text>
<text text-anchor="start" x="337.4714" y="-69.3" font-family="Times,serif" font-size="14.00" fill="#000000">M.M: 59000</text>
<text text-anchor="start" x="337.4714" y="-54.3" font-family="Times,serif" font-size="14.00" fill="#000000">Tim: 2017&#45;03&#45;08 16:34:45</text>
<text text-anchor="start" x="337.4714" y="-39.3" font-family="Times,serif" font-size="14.00" fill="#000000">DeltaTime: 0m 41s</text>
<text text-anchor="start" x="337.4714" y="-24.3" font-family="Times,serif" font-size="14.00" fill="#000000">Sign: aUXjHD6...K0xCQ==</text>
</g>
<!-- _6 -->
<g id="node19" class="node">
<title>_6</title>
<g id="a_node19"><a xlink:href="/graphviz/svg/block/6" xlink:title=" &#160;Block #\n6 &#160;">
<polygon fill="none" stroke="#000000" points="1007.9332,-522 1004.9332,-526 983.9332,-526 980.9332,-522 940.9332,-522 940.9332,-484 1007.9332,-484 1007.9332,-522"/>
<text text-anchor="middle" x="974.4332" y="-506.8" font-family="Times,serif" font-size="14.00" fill="#000000"> &#160;Block #</text>
<text text-anchor="middle" x="974.4332" y="-491.8" font-family="Times,serif" font-size="14.00" fill="#000000">6 &#160;</text>
</a>
</g>
</g>
<!-- _5&#45;&gt;_6 -->
<g id="edge11" class="edge">
<title>_5&#45;&gt;_6</title>
<path fill="none" stroke="#000000" d="M729.1039,-503C779.4787,-503 874.5285,-503 930.3754,-503"/>
<polygon fill="#000000" stroke="#000000" points="930.6623,-506.5001 940.6622,-503 930.6622,-499.5001 930.6623,-506.5001"/>
</g>
<!-- _5hash -->
<g id="node14" class="node">
<title>_5hash</title>
<polygon fill="none" stroke="transparent" points="775.9523,-466 614.9523,-466 614.9523,-430 775.9523,-430 775.9523,-466"/>
<polyline fill="none" stroke="#000000" points="614.9523,-430 775.9523,-430 "/>
<text text-anchor="middle" x="695.4523" y="-444.3" font-family="Times,serif" font-size="14.00" fill="#000000">Hash: 0000062...6A61373</text>
</g>
<!-- _6phash -->
<g id="node21" class="node">
<title>_6phash</title>
<polygon fill="none" stroke="transparent" points="1058.4332,-412 890.4332,-412 890.4332,-376 1058.4332,-376 1058.4332,-412"/>
<polyline fill="none" stroke="#000000" points="890.4332,-376 1058.4332,-376 "/>
<text text-anchor="middle" x="974.4332" y="-390.3" font-family="Times,serif" font-size="14.00" fill="#000000">PHash: 0000062...6A61373</text>
</g>
<!-- _5hash&#45;&gt;_6phash -->
<g id="edge3" class="edge">
<title>_5hash&#45;&gt;_6phash</title>
<path fill="none" stroke="#000000" stroke-dasharray="1,5" d="M776.1451,-432.381C808.6608,-426.0872 846.3938,-418.7835 880.1624,-412.2472"/>
<polygon fill="#000000" stroke="#000000" points="880.8851,-415.6724 890.0378,-410.3357 879.5548,-408.7999 880.8851,-415.6724"/>
</g>
<!-- _5issuer -->
<g id="node16" class="node">
<title>_5issuer</title>
<g id="a_node16"><a xlink:href="/graphviz/svg/certs/2ny7YAdmzReQxAayyJZsyVYwYhVyax2thKcGknmQy5nQ" xlink:title="issuer:\n2ny7YAd...nmQy5nQ">
<polygon fill="none" stroke="#000000" points="816.9332,-335.3298 695.4523,-358.4278 573.9714,-335.3298 574.0848,-297.9563 816.8198,-297.9563 816.9332,-335.3298"/>
<text text-anchor="middle" x="695.4523" y="-328.8" font-family="Times,serif" font-size="14.00" fill="#000000">issuer:</text>
<text text-anchor="middle" x="695.4523" y="-313.8" font-family="Times,serif" font-size="14.00" fill="#000000">2ny7YAd...nmQy5nQ</text>
</a>
</g>
</g>
<!-- _6pissuer -->
<g id="node23" class="node">
<title>_6pissuer</title>
<polygon fill="none" stroke="#000000" points="1095.9141,-251.3298 974.4332,-274.4278 852.9523,-251.3298 853.0657,-213.9563 1095.8007,-213.9563 1095.9141,-251.3298"/>
<text text-anchor="middle" x="974.4332" y="-244.8" font-family="Times,serif" font-size="14.00" fill="#000000">pissuer:</text>
<text text-anchor="middle" x="974.4332" y="-229.8" font-family="Times,serif" font-size="14.00" fill="#000000">2ny7YAd...nmQy5nQ</text>
</g>
<!-- _5issuer&#45;&gt;_6pissuer -->
<g id="edge7" class="edge">
<title>_5issuer&#45;&gt;_6pissuer</title>
<path fill="none" stroke="#000000" stroke-dasharray="1,5" d="M785.6441,-297.8436C821.2878,-287.1114 861.8601,-274.8953 896.2341,-264.5454"/>
<polygon fill="#000000" stroke="#000000" points="897.6554,-267.7728 906.2216,-261.5382 895.6372,-261.07 897.6554,-267.7728"/>
</g>
<!-- _5info -->
<g id="node18" class="node">
<title>_5info</title>
<text text-anchor="start" x="619.9523" y="-174.3" font-family="Times,serif" font-size="14.00" fill="#000000">Mbr: 59</text>
<text text-anchor="start" x="619.9523" y="-159.3" font-family="Times,serif" font-size="14.00" fill="#000000">Cur: g1</text>
<text text-anchor="start" x="619.9523" y="-144.3" font-family="Times,serif" font-size="14.00" fill="#000000">Ver: 10</text>
<text text-anchor="start" x="619.9523" y="-129.3" font-family="Times,serif" font-size="14.00" fill="#000000">Pow: 70</text>
<text text-anchor="start" x="619.9523" y="-114.3" font-family="Times,serif" font-size="14.00" fill="#000000">issCnt: 1</text>
<text text-anchor="start" x="619.9523" y="-99.3" font-family="Times,serif" font-size="14.00" fill="#000000">issFrm: 5</text>
<text text-anchor="start" x="619.9523" y="-84.3" font-family="Times,serif" font-size="14.00" fill="#000000">issFVar: 1</text>
<text text-anchor="start" x="619.9523" y="-69.3" font-family="Times,serif" font-size="14.00" fill="#000000">M.M: 59000</text>
<text text-anchor="start" x="619.9523" y="-54.3" font-family="Times,serif" font-size="14.00" fill="#000000">Tim: 2017&#45;03&#45;08 16:35:27</text>
<text text-anchor="start" x="619.9523" y="-39.3" font-family="Times,serif" font-size="14.00" fill="#000000">DeltaTime: 0m 42s</text>
<text text-anchor="start" x="619.9523" y="-24.3" font-family="Times,serif" font-size="14.00" fill="#000000">Sign: UnZeyUs...6FkDg==</text>
</g>
<!-- _7 -->
<g id="node25" class="node">
<title>_7</title>
<g id="a_node25"><a xlink:href="/graphviz/svg/block/7" xlink:title=" &#160;Block #\n7 &#160;">
<polygon fill="none" stroke="#000000" points="1286.9141,-522 1283.9141,-526 1262.9141,-526 1259.9141,-522 1219.9141,-522 1219.9141,-484 1286.9141,-484 1286.9141,-522"/>
<text text-anchor="middle" x="1253.4141" y="-506.8" font-family="Times,serif" font-size="14.00" fill="#000000"> &#160;Block #</text>
<text text-anchor="middle" x="1253.4141" y="-491.8" font-family="Times,serif" font-size="14.00" fill="#000000">7 &#160;</text>
</a>
</g>
</g>
<!-- _6&#45;&gt;_7 -->
<g id="edge12" class="edge">
<title>_6&#45;&gt;_7</title>
<path fill="none" stroke="#000000" d="M1008.0848,-503C1058.4596,-503 1153.5094,-503 1209.3563,-503"/>
<polygon fill="#000000" stroke="#000000" points="1209.6432,-506.5001 1219.6431,-503 1209.6431,-499.5001 1209.6432,-506.5001"/>
</g>
<!-- _6hash -->
<g id="node20" class="node">
<title>_6hash</title>
<polygon fill="none" stroke="transparent" points="1057.9332,-466 890.9332,-466 890.9332,-430 1057.9332,-430 1057.9332,-466"/>
<polyline fill="none" stroke="#000000" points="890.9332,-430 1057.9332,-430 "/>
<text text-anchor="middle" x="974.4332" y="-444.3" font-family="Times,serif" font-size="14.00" fill="#000000">Hash: 0000379...7AC16EA</text>
</g>
<!-- _7phash -->
<g id="node27" class="node">
<title>_7phash</title>
<polygon fill="none" stroke="transparent" points="1340.9141,-412 1165.9141,-412 1165.9141,-376 1340.9141,-376 1340.9141,-412"/>
<polyline fill="none" stroke="#000000" points="1165.9141,-376 1340.9141,-376 "/>
<text text-anchor="middle" x="1253.4141" y="-390.3" font-family="Times,serif" font-size="14.00" fill="#000000">PHash: 0000379...7AC16EA</text>
</g>
<!-- _6hash&#45;&gt;_7phash -->
<g id="edge4" class="edge">
<title>_6hash&#45;&gt;_7phash</title>
<path fill="none" stroke="#000000" stroke-dasharray="1,5" d="M1058.1367,-431.7982C1088.8396,-425.8553 1123.8598,-419.0767 1155.6852,-412.9166"/>
<polygon fill="#000000" stroke="#000000" points="1156.7437,-416.2767 1165.8963,-410.9401 1155.4134,-409.4043 1156.7437,-416.2767"/>
</g>
<!-- _6issuer -->
<g id="node22" class="node">
<title>_6issuer</title>
<g id="a_node22"><a xlink:href="/graphviz/svg/certs/2ny7YAdmzReQxAayyJZsyVYwYhVyax2thKcGknmQy5nQ" xlink:title="issuer:\n2ny7YAd...nmQy5nQ">
<polygon fill="none" stroke="#000000" points="1095.9141,-335.3298 974.4332,-358.4278 852.9523,-335.3298 853.0657,-297.9563 1095.8007,-297.9563 1095.9141,-335.3298"/>
<text text-anchor="middle" x="974.4332" y="-328.8" font-family="Times,serif" font-size="14.00" fill="#000000">issuer:</text>
<text text-anchor="middle" x="974.4332" y="-313.8" font-family="Times,serif" font-size="14.00" fill="#000000">2ny7YAd...nmQy5nQ</text>
</a>
</g>
</g>
<!-- _7pissuer -->
<g id="node29" class="node">
<title>_7pissuer</title>
<polygon fill="none" stroke="#000000" points="1374.895,-251.3298 1253.4141,-274.4278 1131.9332,-251.3298 1132.0466,-213.9563 1374.7816,-213.9563 1374.895,-251.3298"/>
<text text-anchor="middle" x="1253.4141" y="-244.8" font-family="Times,serif" font-size="14.00" fill="#000000">pissuer:</text>
<text text-anchor="middle" x="1253.4141" y="-229.8" font-family="Times,serif" font-size="14.00" fill="#000000">2ny7YAd...nmQy5nQ</text>
</g>
<!-- _6issuer&#45;&gt;_7pissuer -->
<g id="edge8" class="edge">
<title>_6issuer&#45;&gt;_7pissuer</title>
<path fill="none" stroke="#000000" stroke-dasharray="1,5" d="M1064.625,-297.8436C1100.2687,-287.1114 1140.841,-274.8953 1175.215,-264.5454"/>
<polygon fill="#000000" stroke="#000000" points="1176.6363,-267.7728 1185.2025,-261.5382 1174.6181,-261.07 1176.6363,-267.7728"/>
</g>
<!-- _6info -->
<g id="node24" class="node">
<title>_6info</title>
<text text-anchor="start" x="888.4332" y="-174.3" font-family="Times,serif" font-size="14.00" fill="#000000">Mbr: 59</text>
<text text-anchor="start" x="888.4332" y="-159.3" font-family="Times,serif" font-size="14.00" fill="#000000">Cur: g1</text>
<text text-anchor="start" x="888.4332" y="-144.3" font-family="Times,serif" font-size="14.00" fill="#000000">Ver: 10</text>
<text text-anchor="start" x="888.4332" y="-129.3" font-family="Times,serif" font-size="14.00" fill="#000000">Pow: 70</text>
<text text-anchor="start" x="888.4332" y="-114.3" font-family="Times,serif" font-size="14.00" fill="#000000">issCnt: 1</text>
<text text-anchor="start" x="888.4332" y="-99.3" font-family="Times,serif" font-size="14.00" fill="#000000">issFrm: 6</text>
<text text-anchor="start" x="888.4332" y="-84.3" font-family="Times,serif" font-size="14.00" fill="#000000">issFVar: 0</text>
<text text-anchor="start" x="888.4332" y="-69.3" font-family="Times,serif" font-size="14.00" fill="#000000">M.M: 59000</text>
<text text-anchor="start" x="888.4332" y="-54.3" font-family="Times,serif" font-size="14.00" fill="#000000">Tim: 2017&#45;03&#45;08 16:36:03</text>
<text text-anchor="start" x="888.4332" y="-39.3" font-family="Times,serif" font-size="14.00" fill="#000000">DeltaTime: 0m 36s</text>
<text text-anchor="start" x="888.4332" y="-24.3" font-family="Times,serif" font-size="14.00" fill="#000000">Sign: qTEvKGM...7VWDQ==</text>
</g>
<!-- _7hash -->
<g id="node26" class="node">
<title>_7hash</title>
<polygon fill="none" stroke="transparent" points="1335.4141,-466 1171.4141,-466 1171.4141,-430 1335.4141,-430 1335.4141,-466"/>
<polyline fill="none" stroke="#000000" points="1171.4141,-430 1335.4141,-430 "/>
<text text-anchor="middle" x="1253.4141" y="-444.3" font-family="Times,serif" font-size="14.00" fill="#000000">Hash: 0000407...5D105EC</text>
</g>
<!-- _7issuer -->
<g id="node28" class="node">
<title>_7issuer</title>
<g id="a_node28"><a xlink:href="/graphviz/svg/certs/2ny7YAdmzReQxAayyJZsyVYwYhVyax2thKcGknmQy5nQ" xlink:title="issuer:\n2ny7YAd...nmQy5nQ">
<polygon fill="none" stroke="#000000" points="1374.895,-335.3298 1253.4141,-358.4278 1131.9332,-335.3298 1132.0466,-297.9563 1374.7816,-297.9563 1374.895,-335.3298"/>
<text text-anchor="middle" x="1253.4141" y="-328.8" font-family="Times,serif" font-size="14.00" fill="#000000">issuer:</text>
<text text-anchor="middle" x="1253.4141" y="-313.8" font-family="Times,serif" font-size="14.00" fill="#000000">2ny7YAd...nmQy5nQ</text>
</a>
</g>
</g>
<!-- _7info -->
<g id="node30" class="node">
<title>_7info</title>
<text text-anchor="start" x="1172.4141" y="-174.3" font-family="Times,serif" font-size="14.00" fill="#000000">Mbr: 59</text>
<text text-anchor="start" x="1172.4141" y="-159.3" font-family="Times,serif" font-size="14.00" fill="#000000">Cur: g1</text>
<text text-anchor="start" x="1172.4141" y="-144.3" font-family="Times,serif" font-size="14.00" fill="#000000">Ver: 10</text>
<text text-anchor="start" x="1172.4141" y="-129.3" font-family="Times,serif" font-size="14.00" fill="#000000">Pow: 70</text>
<text text-anchor="start" x="1172.4141" y="-114.3" font-family="Times,serif" font-size="14.00" fill="#000000">issCnt: 1</text>
<text text-anchor="start" x="1172.4141" y="-99.3" font-family="Times,serif" font-size="14.00" fill="#000000">issFrm: 6</text>
<text text-anchor="start" x="1172.4141" y="-84.3" font-family="Times,serif" font-size="14.00" fill="#000000">issFVar: 0</text>
<text text-anchor="start" x="1172.4141" y="-69.3" font-family="Times,serif" font-size="14.00" fill="#000000">M.M: 59000</text>
<text text-anchor="start" x="1172.4141" y="-54.3" font-family="Times,serif" font-size="14.00" fill="#000000">Tim: 2017&#45;03&#45;08 16:36:34</text>
<text text-anchor="start" x="1172.4141" y="-39.3" font-family="Times,serif" font-size="14.00" fill="#000000">DeltaTime: 0m 31s</text>
<text text-anchor="start" x="1172.4141" y="-24.3" font-family="Times,serif" font-size="14.00" fill="#000000">Sign: xaWNjdF...CGHCA==</text>
</g>
</g>
</svg>
