<?xml version="1.0" encoding="UTF-8" standalone="no"?>
<!DOCTYPE svg PUBLIC "-//W3C//DTD SVG 1.1//EN"
 "http://www.w3.org/Graphics/SVG/1.1/DTD/svg11.dtd">
<!-- Generated by graphviz version 2.40.1 (20161225.0304)
 -->
<!-- Title: %3 Pages: 1 -->
<svg width="1367pt" height="546pt"
 viewBox="0.00 0.00 1367.44 546.00" xmlns="http://www.w3.org/2000/svg" xmlns:xlink="http://www.w3.org/1999/xlink">
<g id="graph0" class="graph" transform="scale(1 1) rotate(0) translate(4 542)">
<title>%3</title>
<polygon fill="#ffffff" stroke="transparent" points="-4,4 -4,-542 1363.4394,-542 1363.4394,4 -4,4"/>
<g id="clust1" class="cluster">
<title>cluster_4998</title>
<polygon fill="#d3d3d3" stroke="#d3d3d3" points="8,-8 8,-530 266.9809,-530 266.9809,-8 8,-8"/>
</g>
<g id="clust2" class="cluster">
<title>cluster_4999</title>
<polygon fill="#d3d3d3" stroke="#d3d3d3" points="286.9809,-8 286.9809,-530 538.9696,-530 538.9696,-8 286.9809,-8"/>
</g>
<g id="clust3" class="cluster">
<title>cluster_5000</title>
<polygon fill="#d3d3d3" stroke="#d3d3d3" points="558.9696,-8 558.9696,-530 810.9582,-530 810.9582,-8 558.9696,-8"/>
</g>
<g id="clust4" class="cluster">
<title>cluster_5001</title>
<polygon fill="#d3d3d3" stroke="#d3d3d3" points="830.9582,-8 830.9582,-530 1079.4507,-530 1079.4507,-8 830.9582,-8"/>
</g>
<g id="clust5" class="cluster">
<title>cluster_5002</title>
<polygon fill="#d3d3d3" stroke="#d3d3d3" points="1099.4507,-8 1099.4507,-530 1351.4394,-530 1351.4394,-8 1099.4507,-8"/>
</g>
<!-- _4998 -->
<g id="node1" class="node">
<title>_4998</title>
<g id="a_node1"><a xlink:href="/graphviz/svg/block/4998" xlink:title=" &#160;Block #\n4998 &#160;">
<polygon fill="none" stroke="#000000" points="170.9905,-522 167.9905,-526 146.9905,-526 143.9905,-522 103.9905,-522 103.9905,-484 170.9905,-484 170.9905,-522"/>
<text text-anchor="middle" x="137.4905" y="-506.8" font-family="Times,serif" font-size="14.00" fill="#000000"> &#160;Block #</text>
<text text-anchor="middle" x="137.4905" y="-491.8" font-family="Times,serif" font-size="14.00" fill="#000000">4998 &#160;</text>
</a>
</g>
</g>
<!-- _4999 -->
<g id="node7" class="node">
<title>_4999</title>
<g id="a_node7"><a xlink:href="/graphviz/svg/block/4999" xlink:title=" &#160;Block #\n4999 &#160;">
<polygon fill="none" stroke="#000000" points="446.4752,-522 443.4752,-526 422.4752,-526 419.4752,-522 379.4752,-522 379.4752,-484 446.4752,-484 446.4752,-522"/>
<text text-anchor="middle" x="412.9752" y="-506.8" font-family="Times,serif" font-size="14.00" fill="#000000"> &#160;Block #</text>
<text text-anchor="middle" x="412.9752" y="-491.8" font-family="Times,serif" font-size="14.00" fill="#000000">4999 &#160;</text>
</a>
</g>
</g>
<!-- _4998&#45;&gt;_4999 -->
<g id="edge9" class="edge">
<title>_4998&#45;&gt;_4999</title>
<path fill="none" stroke="#000000" d="M170.9949,-503C220.7032,-503 314.0283,-503 369.12,-503"/>
<polygon fill="#000000" stroke="#000000" points="369.2735,-506.5001 379.2735,-503 369.2734,-499.5001 369.2735,-506.5001"/>
</g>
<!-- _4998hash -->
<g id="node2" class="node">
<title>_4998hash</title>
<polygon fill="none" stroke="transparent" points="219.4905,-466 55.4905,-466 55.4905,-430 219.4905,-430 219.4905,-466"/>
<polyline fill="none" stroke="#000000" points="55.4905,-430 219.4905,-430 "/>
<text text-anchor="middle" x="137.4905" y="-444.3" font-family="Times,serif" font-size="14.00" fill="#000000">Hash: 000001C...B123B12</text>
</g>
<!-- _4999phash -->
<g id="node9" class="node">
<title>_4999phash</title>
<polygon fill="none" stroke="transparent" points="498.9752,-412 326.9752,-412 326.9752,-376 498.9752,-376 498.9752,-412"/>
<polyline fill="none" stroke="#000000" points="326.9752,-376 498.9752,-376 "/>
<text text-anchor="middle" x="412.9752" y="-390.3" font-family="Times,serif" font-size="14.00" fill="#000000">PHash: 000001C...B123B12</text>
</g>
<!-- _4998hash&#45;&gt;_4999phash -->
<g id="edge1" class="edge">
<title>_4998hash&#45;&gt;_4999phash</title>
<path fill="none" stroke="#000000" stroke-dasharray="1,5" d="M219.7718,-431.8714C250.2444,-425.8982 285.0645,-419.0728 316.674,-412.8768"/>
<polygon fill="#000000" stroke="#000000" points="317.6744,-416.2474 326.8144,-410.8891 316.3279,-409.3781 317.6744,-416.2474"/>
</g>
<!-- _4998phash -->
<g id="node3" class="node">
<title>_4998phash</title>
<polygon fill="none" stroke="transparent" points="224.4905,-412 50.4905,-412 50.4905,-376 224.4905,-376 224.4905,-412"/>
<polyline fill="none" stroke="#000000" points="50.4905,-376 224.4905,-376 "/>
<text text-anchor="middle" x="137.4905" y="-390.3" font-family="Times,serif" font-size="14.00" fill="#000000">PHash: 00000DD...9A40644</text>
</g>
<!-- _4998issuer -->
<g id="node4" class="node">
<title>_4998issuer</title>
<g id="a_node4"><a xlink:href="/graphviz/svg/certs/4fHMTFBMo5sTQEc5p1CNWz28S4mnnqdUBmECq1zt4n2m" xlink:title="issuer:\n4fHMTFB...1zt4n2m">
<polygon fill="none" stroke="#000000" points="254.7312,-335.3298 137.4905,-358.4278 20.2497,-335.3298 20.3592,-297.9563 254.6217,-297.9563 254.7312,-335.3298"/>
<text text-anchor="middle" x="137.4905" y="-328.8" font-family="Times,serif" font-size="14.00" fill="#000000">issuer:</text>
<text text-anchor="middle" x="137.4905" y="-313.8" font-family="Times,serif" font-size="14.00" fill="#000000">4fHMTFB...1zt4n2m</text>
</a>
</g>
</g>
<!-- _4999pissuer -->
<g id="node11" class="node">
<title>_4999pissuer</title>
<polygon fill="none" stroke="#000000" points="530.2159,-251.3298 412.9752,-274.4278 295.7345,-251.3298 295.844,-213.9563 530.1065,-213.9563 530.2159,-251.3298"/>
<text text-anchor="middle" x="412.9752" y="-244.8" font-family="Times,serif" font-size="14.00" fill="#000000">pissuer:</text>
<text text-anchor="middle" x="412.9752" y="-229.8" font-family="Times,serif" font-size="14.00" fill="#000000">4fHMTFB...1zt4n2m</text>
</g>
<!-- _4998issuer&#45;&gt;_4999pissuer -->
<g id="edge5" class="edge">
<title>_4998issuer&#45;&gt;_4999pissuer</title>
<path fill="none" stroke="#000000" stroke-dasharray="1,5" d="M226.552,-297.8436C261.8921,-287.0678 302.1387,-274.796 336.1698,-264.4193"/>
<polygon fill="#000000" stroke="#000000" points="337.5109,-267.6695 346.0552,-261.405 335.4692,-260.9739 337.5109,-267.6695"/>
</g>
<!-- _4998pissuer -->
<g id="node5" class="node">
<title>_4998pissuer</title>
<polygon fill="none" stroke="#000000" points="258.9714,-251.3298 137.4905,-274.4278 16.0095,-251.3298 16.1229,-213.9563 258.858,-213.9563 258.9714,-251.3298"/>
<text text-anchor="middle" x="137.4905" y="-244.8" font-family="Times,serif" font-size="14.00" fill="#000000">pissuer:</text>
<text text-anchor="middle" x="137.4905" y="-229.8" font-family="Times,serif" font-size="14.00" fill="#000000">7vU9BMD...cQuT5cz</text>
</g>
<!-- _4998info -->
<g id="node6" class="node">
<title>_4998info</title>
<text text-anchor="start" x="61.9905" y="-174.3" font-family="Times,serif" font-size="14.00" fill="#000000">Mbr: 68</text>
<text text-anchor="start" x="61.9905" y="-159.3" font-family="Times,serif" font-size="14.00" fill="#000000">Cur: g1</text>
<text text-anchor="start" x="61.9905" y="-144.3" font-family="Times,serif" font-size="14.00" fill="#000000">Ver: 10</text>
<text text-anchor="start" x="61.9905" y="-129.3" font-family="Times,serif" font-size="14.00" fill="#000000">Pow: 80</text>
<text text-anchor="start" x="61.9905" y="-114.3" font-family="Times,serif" font-size="14.00" fill="#000000">issCnt: 22</text>
<text text-anchor="start" x="61.9905" y="-99.3" font-family="Times,serif" font-size="14.00" fill="#000000">issFrm: 111</text>
<text text-anchor="start" x="61.9905" y="-84.3" font-family="Times,serif" font-size="14.00" fill="#000000">issFVar: 0</text>
<text text-anchor="start" x="61.9905" y="-69.3" font-family="Times,serif" font-size="14.00" fill="#000000">M.M: 1192000</text>
<text text-anchor="start" x="61.9905" y="-54.3" font-family="Times,serif" font-size="14.00" fill="#000000">Tim: 2017&#45;03&#45;26 15:49:48</text>
<text text-anchor="start" x="61.9905" y="-39.3" font-family="Times,serif" font-size="14.00" fill="#000000">DeltaTime: 5m 39s</text>
<text text-anchor="start" x="61.9905" y="-24.3" font-family="Times,serif" font-size="14.00" fill="#000000">Sign: EhLrLgY...5paCw==</text>
</g>
<!-- _5000 -->
<g id="node13" class="node">
<title>_5000</title>
<g id="a_node13"><a xlink:href="/graphviz/svg/block/5000" xlink:title=" &#160;Block #\n5000 &#160;">
<polygon fill="none" stroke="#000000" points="718.4639,-522 715.4639,-526 694.4639,-526 691.4639,-522 651.4639,-522 651.4639,-484 718.4639,-484 718.4639,-522"/>
<text text-anchor="middle" x="684.9639" y="-506.8" font-family="Times,serif" font-size="14.00" fill="#000000"> &#160;Block #</text>
<text text-anchor="middle" x="684.9639" y="-491.8" font-family="Times,serif" font-size="14.00" fill="#000000">5000 &#160;</text>
</a>
</g>
</g>
<!-- _4999&#45;&gt;_5000 -->
<g id="edge10" class="edge">
<title>_4999&#45;&gt;_5000</title>
<path fill="none" stroke="#000000" d="M446.5992,-503C495.6342,-503 586.815,-503 641.0795,-503"/>
<polygon fill="#000000" stroke="#000000" points="641.4168,-506.5001 651.4168,-503 641.4167,-499.5001 641.4168,-506.5001"/>
</g>
<!-- _4999hash -->
<g id="node8" class="node">
<title>_4999hash</title>
<polygon fill="none" stroke="transparent" points="496.4752,-466 329.4752,-466 329.4752,-430 496.4752,-430 496.4752,-466"/>
<polyline fill="none" stroke="#000000" points="329.4752,-430 496.4752,-430 "/>
<text text-anchor="middle" x="412.9752" y="-444.3" font-family="Times,serif" font-size="14.00" fill="#000000">Hash: 000002E...160BECC</text>
</g>
<!-- _5000phash -->
<g id="node15" class="node">
<title>_5000phash</title>
<polygon fill="none" stroke="transparent" points="772.4639,-412 597.4639,-412 597.4639,-376 772.4639,-376 772.4639,-412"/>
<polyline fill="none" stroke="#000000" points="597.4639,-376 772.4639,-376 "/>
<text text-anchor="middle" x="684.9639" y="-390.3" font-family="Times,serif" font-size="14.00" fill="#000000">PHash: 000002E...160BECC</text>
</g>
<!-- _4999hash&#45;&gt;_5000phash -->
<g id="edge2" class="edge">
<title>_4999hash&#45;&gt;_5000phash</title>
<path fill="none" stroke="#000000" stroke-dasharray="1,5" d="M496.8001,-431.3576C525.408,-425.6779 557.6463,-419.2773 587.2498,-413.3999"/>
<polygon fill="#000000" stroke="#000000" points="588.0523,-416.809 597.1792,-411.4286 586.689,-409.943 588.0523,-416.809"/>
</g>
<!-- _4999issuer -->
<g id="node10" class="node">
<title>_4999issuer</title>
<g id="a_node10"><a xlink:href="/graphviz/svg/certs/FVUFRrk1K5TQGsY7PRLwqHgdHRoHrwb1hcucp4C2N5tD" xlink:title="issuer:\nFVUFRrk...4C2N5tD">
<polygon fill="none" stroke="#000000" points="530.9639,-335.3298 412.9752,-358.4278 294.9866,-335.3298 295.0967,-297.9563 530.8538,-297.9563 530.9639,-335.3298"/>
<text text-anchor="middle" x="412.9752" y="-328.8" font-family="Times,serif" font-size="14.00" fill="#000000">issuer:</text>
<text text-anchor="middle" x="412.9752" y="-313.8" font-family="Times,serif" font-size="14.00" fill="#000000">FVUFRrk...4C2N5tD</text>
</a>
</g>
</g>
<!-- _5000pissuer -->
<g id="node17" class="node">
<title>_5000pissuer</title>
<polygon fill="none" stroke="#000000" points="802.9525,-251.3298 684.9639,-274.4278 566.9752,-251.3298 567.0854,-213.9563 802.8424,-213.9563 802.9525,-251.3298"/>
<text text-anchor="middle" x="684.9639" y="-244.8" font-family="Times,serif" font-size="14.00" fill="#000000">pissuer:</text>
<text text-anchor="middle" x="684.9639" y="-229.8" font-family="Times,serif" font-size="14.00" fill="#000000">FVUFRrk...4C2N5tD</text>
</g>
<!-- _4999issuer&#45;&gt;_5000pissuer -->
<g id="edge6" class="edge">
<title>_4999issuer&#45;&gt;_5000pissuer</title>
<path fill="none" stroke="#000000" stroke-dasharray="1,5" d="M500.9065,-297.8436C535.6569,-287.1114 575.2123,-274.8953 608.7247,-264.5454"/>
<polygon fill="#000000" stroke="#000000" points="609.9401,-267.8333 618.462,-261.5382 607.8744,-261.145 609.9401,-267.8333"/>
</g>
<!-- _4999info -->
<g id="node12" class="node">
<title>_4999info</title>
<text text-anchor="start" x="338.9752" y="-174.3" font-family="Times,serif" font-size="14.00" fill="#000000">Mbr: 68</text>
<text text-anchor="start" x="338.9752" y="-159.3" font-family="Times,serif" font-size="14.00" fill="#000000">Cur: g1</text>
<text text-anchor="start" x="338.9752" y="-144.3" font-family="Times,serif" font-size="14.00" fill="#000000">Ver: 10</text>
<text text-anchor="start" x="338.9752" y="-129.3" font-family="Times,serif" font-size="14.00" fill="#000000">Pow: 80</text>
<text text-anchor="start" x="338.9752" y="-114.3" font-family="Times,serif" font-size="14.00" fill="#000000">issCnt: 22</text>
<text text-anchor="start" x="338.9752" y="-99.3" font-family="Times,serif" font-size="14.00" fill="#000000">issFrm: 111</text>
<text text-anchor="start" x="338.9752" y="-84.3" font-family="Times,serif" font-size="14.00" fill="#000000">issFVar: 0</text>
<text text-anchor="start" x="338.9752" y="-69.3" font-family="Times,serif" font-size="14.00" fill="#000000">M.M: 1192000</text>
<text text-anchor="start" x="338.9752" y="-54.3" font-family="Times,serif" font-size="14.00" fill="#000000">Tim: 2017&#45;03&#45;26 15:56:07</text>
<text text-anchor="start" x="338.9752" y="-39.3" font-family="Times,serif" font-size="14.00" fill="#000000">DeltaTime: 6m 19s</text>
<text text-anchor="start" x="338.9752" y="-24.3" font-family="Times,serif" font-size="14.00" fill="#000000">Sign: yS5luTh...y7ZDw==</text>
</g>
<!-- _5001 -->
<g id="node19" class="node">
<title>_5001</title>
<g id="a_node19"><a xlink:href="/graphviz/svg/block/5001" xlink:title=" &#160;Block #\n5001 &#160;">
<polygon fill="none" stroke="#000000" points="988.7045,-522 985.7045,-526 964.7045,-526 961.7045,-522 921.7045,-522 921.7045,-484 988.7045,-484 988.7045,-522"/>
<text text-anchor="middle" x="955.2045" y="-506.8" font-family="Times,serif" font-size="14.00" fill="#000000"> &#160;Block #</text>
<text text-anchor="middle" x="955.2045" y="-491.8" font-family="Times,serif" font-size="14.00" fill="#000000">5001 &#160;</text>
</a>
</g>
</g>
<!-- _5000&#45;&gt;_5001 -->
<g id="edge11" class="edge">
<title>_5000&#45;&gt;_5001</title>
<path fill="none" stroke="#000000" d="M718.6436,-503C767.325,-503 857.405,-503 911.2607,-503"/>
<polygon fill="#000000" stroke="#000000" points="911.5258,-506.5001 921.5258,-503 911.5258,-499.5001 911.5258,-506.5001"/>
</g>
<!-- _5000hash -->
<g id="node14" class="node">
<title>_5000hash</title>
<polygon fill="none" stroke="transparent" points="766.9639,-466 602.9639,-466 602.9639,-430 766.9639,-430 766.9639,-466"/>
<polyline fill="none" stroke="#000000" points="602.9639,-430 766.9639,-430 "/>
<text text-anchor="middle" x="684.9639" y="-444.3" font-family="Times,serif" font-size="14.00" fill="#000000">Hash: 00000F0...F75C08B</text>
</g>
<!-- _5001phash -->
<g id="node21" class="node">
<title>_5001phash</title>
<polygon fill="none" stroke="transparent" points="1040.7045,-412 869.7045,-412 869.7045,-376 1040.7045,-376 1040.7045,-412"/>
<polyline fill="none" stroke="#000000" points="869.7045,-376 1040.7045,-376 "/>
<text text-anchor="middle" x="955.2045" y="-390.3" font-family="Times,serif" font-size="14.00" fill="#000000">PHash: 00000F0...F75C08B</text>
</g>
<!-- _5000hash&#45;&gt;_5001phash -->
<g id="edge3" class="edge">
<title>_5000hash&#45;&gt;_5001phash</title>
<path fill="none" stroke="#000000" stroke-dasharray="1,5" d="M767.1457,-431.5783C796.3042,-425.7518 829.3695,-419.1446 859.5541,-413.113"/>
<polygon fill="#000000" stroke="#000000" points="860.5501,-416.4833 869.6704,-411.0916 859.1784,-409.619 860.5501,-416.4833"/>
</g>
<!-- _5000issuer -->
<g id="node16" class="node">
<title>_5000issuer</title>
<g id="a_node16"><a xlink:href="/graphviz/svg/certs/GfKERHnJTYzKhKUma5h1uWhetbA8yHKymhVH2raf2aCP" xlink:title="issuer:\nGfKERHn...raf2aCP">
<polygon fill="none" stroke="#000000" points="798.7124,-335.3298 684.9639,-358.4278 571.2154,-335.3298 571.3216,-297.9563 798.6062,-297.9563 798.7124,-335.3298"/>
<text text-anchor="middle" x="684.9639" y="-328.8" font-family="Times,serif" font-size="14.00" fill="#000000">issuer:</text>
<text text-anchor="middle" x="684.9639" y="-313.8" font-family="Times,serif" font-size="14.00" fill="#000000">GfKERHn...raf2aCP</text>
</a>
</g>
</g>
<!-- _5001pissuer -->
<g id="node23" class="node">
<title>_5001pissuer</title>
<polygon fill="none" stroke="#000000" points="1068.9529,-251.3298 955.2045,-274.4278 841.456,-251.3298 841.5622,-213.9563 1068.8468,-213.9563 1068.9529,-251.3298"/>
<text text-anchor="middle" x="955.2045" y="-244.8" font-family="Times,serif" font-size="14.00" fill="#000000">pissuer:</text>
<text text-anchor="middle" x="955.2045" y="-229.8" font-family="Times,serif" font-size="14.00" fill="#000000">GfKERHn...raf2aCP</text>
</g>
<!-- _5000issuer&#45;&gt;_5001pissuer -->
<g id="edge7" class="edge">
<title>_5000issuer&#45;&gt;_5001pissuer</title>
<path fill="none" stroke="#000000" stroke-dasharray="1,5" d="M772.3301,-297.8436C807.1378,-287.0242 846.7976,-274.6966 880.2663,-264.2934"/>
<polygon fill="#000000" stroke="#000000" points="881.4756,-267.5827 889.986,-261.2721 879.3977,-260.8982 881.4756,-267.5827"/>
</g>
<!-- _5000info -->
<g id="node18" class="node">
<title>_5000info</title>
<text text-anchor="start" x="608.9639" y="-174.3" font-family="Times,serif" font-size="14.00" fill="#000000">Mbr: 68</text>
<text text-anchor="start" x="608.9639" y="-159.3" font-family="Times,serif" font-size="14.00" fill="#000000">Cur: g1</text>
<text text-anchor="start" x="608.9639" y="-144.3" font-family="Times,serif" font-size="14.00" fill="#000000">Ver: 10</text>
<text text-anchor="start" x="608.9639" y="-129.3" font-family="Times,serif" font-size="14.00" fill="#000000">Pow: 80</text>
<text text-anchor="start" x="608.9639" y="-114.3" font-family="Times,serif" font-size="14.00" fill="#000000">issCnt: 22</text>
<text text-anchor="start" x="608.9639" y="-99.3" font-family="Times,serif" font-size="14.00" fill="#000000">issFrm: 111</text>
<text text-anchor="start" x="608.9639" y="-84.3" font-family="Times,serif" font-size="14.00" fill="#000000">issFVar: 0</text>
<text text-anchor="start" x="608.9639" y="-69.3" font-family="Times,serif" font-size="14.00" fill="#000000">M.M: 1192000</text>
<text text-anchor="start" x="608.9639" y="-54.3" font-family="Times,serif" font-size="14.00" fill="#000000">Tim: 2017&#45;03&#45;26 16:03:21</text>
<text text-anchor="start" x="608.9639" y="-39.3" font-family="Times,serif" font-size="14.00" fill="#000000">DeltaTime: 7m 14s</text>
<text text-anchor="start" x="608.9639" y="-24.3" font-family="Times,serif" font-size="14.00" fill="#000000">Sign: XeWhcIv...AteCQ==</text>
</g>
<!-- _5002 -->
<g id="node25" class="node">
<title>_5002</title>
<g id="a_node25"><a xlink:href="/graphviz/svg/block/5002" xlink:title=" &#160;Block #\n5002 &#160;">
<polygon fill="none" stroke="#000000" points="1258.9451,-522 1255.9451,-526 1234.9451,-526 1231.9451,-522 1191.9451,-522 1191.9451,-484 1258.9451,-484 1258.9451,-522"/>
<text text-anchor="middle" x="1225.4451" y="-506.8" font-family="Times,serif" font-size="14.00" fill="#000000"> &#160;Block #</text>
<text text-anchor="middle" x="1225.4451" y="-491.8" font-family="Times,serif" font-size="14.00" fill="#000000">5002 &#160;</text>
</a>
</g>
</g>
<!-- _5001&#45;&gt;_5002 -->
<g id="edge12" class="edge">
<title>_5001&#45;&gt;_5002</title>
<path fill="none" stroke="#000000" d="M988.8842,-503C1037.5655,-503 1127.6456,-503 1181.5012,-503"/>
<polygon fill="#000000" stroke="#000000" points="1181.7664,-506.5001 1191.7664,-503 1181.7663,-499.5001 1181.7664,-506.5001"/>
</g>
<!-- _5001hash -->
<g id="node20" class="node">
<title>_5001hash</title>
<polygon fill="none" stroke="transparent" points="1037.7045,-466 872.7045,-466 872.7045,-430 1037.7045,-430 1037.7045,-466"/>
<polyline fill="none" stroke="#000000" points="872.7045,-430 1037.7045,-430 "/>
<text text-anchor="middle" x="955.2045" y="-444.3" font-family="Times,serif" font-size="14.00" fill="#000000">Hash: 00000BD...980520B</text>
</g>
<!-- _5002phash -->
<g id="node27" class="node">
<title>_5002phash</title>
<polygon fill="none" stroke="transparent" points="1311.9451,-412 1138.9451,-412 1138.9451,-376 1311.9451,-376 1311.9451,-412"/>
<polyline fill="none" stroke="#000000" points="1138.9451,-376 1311.9451,-376 "/>
<text text-anchor="middle" x="1225.4451" y="-390.3" font-family="Times,serif" font-size="14.00" fill="#000000">PHash: 00000BD...980520B</text>
</g>
<!-- _5001hash&#45;&gt;_5002phash -->
<g id="edge4" class="edge">
<title>_5001hash&#45;&gt;_5002phash</title>
<path fill="none" stroke="#000000" stroke-dasharray="1,5" d="M1037.754,-431.5048C1066.4819,-425.7643 1098.9659,-419.2733 1128.7366,-413.3245"/>
<polygon fill="#000000" stroke="#000000" points="1129.5992,-416.7214 1138.7195,-411.3297 1128.2275,-409.8571 1129.5992,-416.7214"/>
</g>
<!-- _5001issuer -->
<g id="node22" class="node">
<title>_5001issuer</title>
<g id="a_node22"><a xlink:href="/graphviz/svg/certs/39GRfKaXUrT6gzNaxipnzbgj9zNBfLaRCfHS54XLwp2r" xlink:title="issuer:\n39GRfKa...4XLwp2r">
<polygon fill="none" stroke="#000000" points="1071.6975,-335.3298 955.2045,-358.4278 838.7114,-335.3298 838.8202,-297.9563 1071.5888,-297.9563 1071.6975,-335.3298"/>
<text text-anchor="middle" x="955.2045" y="-328.8" font-family="Times,serif" font-size="14.00" fill="#000000">issuer:</text>
<text text-anchor="middle" x="955.2045" y="-313.8" font-family="Times,serif" font-size="14.00" fill="#000000">39GRfKa...4XLwp2r</text>
</a>
</g>
</g>
<!-- _5002pissuer -->
<g id="node29" class="node">
<title>_5002pissuer</title>
<polygon fill="none" stroke="#000000" points="1341.9381,-251.3298 1225.4451,-274.4278 1108.952,-251.3298 1109.0608,-213.9563 1341.8294,-213.9563 1341.9381,-251.3298"/>
<text text-anchor="middle" x="1225.4451" y="-244.8" font-family="Times,serif" font-size="14.00" fill="#000000">pissuer:</text>
<text text-anchor="middle" x="1225.4451" y="-229.8" font-family="Times,serif" font-size="14.00" fill="#000000">39GRfKa...4XLwp2r</text>
</g>
<!-- _5001issuer&#45;&gt;_5002pissuer -->
<g id="edge8" class="edge">
<title>_5001issuer&#45;&gt;_5002pissuer</title>
<path fill="none" stroke="#000000" stroke-dasharray="1,5" d="M1042.5707,-297.8436C1077.0977,-287.1114 1116.3988,-274.8953 1149.6959,-264.5454"/>
<polygon fill="#000000" stroke="#000000" points="1150.8601,-267.8488 1159.3706,-261.5382 1148.7823,-261.1643 1150.8601,-267.8488"/>
</g>
<!-- _5001info -->
<g id="node24" class="node">
<title>_5001info</title>
<text text-anchor="start" x="876.7045" y="-174.3" font-family="Times,serif" font-size="14.00" fill="#000000">Mbr: 68</text>
<text text-anchor="start" x="876.7045" y="-159.3" font-family="Times,serif" font-size="14.00" fill="#000000">Cur: g1</text>
<text text-anchor="start" x="876.7045" y="-144.3" font-family="Times,serif" font-size="14.00" fill="#000000">Ver: 10</text>
<text text-anchor="start" x="876.7045" y="-129.3" font-family="Times,serif" font-size="14.00" fill="#000000">Pow: 80</text>
<text text-anchor="start" x="876.7045" y="-114.3" font-family="Times,serif" font-size="14.00" fill="#000000">issCnt: 22</text>
<text text-anchor="start" x="876.7045" y="-99.3" font-family="Times,serif" font-size="14.00" fill="#000000">issFrm: 111</text>
<text text-anchor="start" x="876.7045" y="-84.3" font-family="Times,serif" font-size="14.00" fill="#000000">issFVar: 0</text>
<text text-anchor="start" x="876.7045" y="-69.3" font-family="Times,serif" font-size="14.00" fill="#000000">M.M: 1192000</text>
<text text-anchor="start" x="876.7045" y="-54.3" font-family="Times,serif" font-size="14.00" fill="#000000">Tim: 2017&#45;03&#45;26 16:10:32</text>
<text text-anchor="start" x="876.7045" y="-39.3" font-family="Times,serif" font-size="14.00" fill="#000000">DeltaTime: 7m 11s</text>
<text text-anchor="start" x="876.7045" y="-24.3" font-family="Times,serif" font-size="14.00" fill="#000000">Sign: GVFuW27...3aoCg==</text>
</g>
<!-- _5002hash -->
<g id="node26" class="node">
<title>_5002hash</title>
<polygon fill="none" stroke="transparent" points="1304.4451,-466 1146.4451,-466 1146.4451,-430 1304.4451,-430 1304.4451,-466"/>
<polyline fill="none" stroke="#000000" points="1146.4451,-430 1304.4451,-430 "/>
<text text-anchor="middle" x="1225.4451" y="-444.3" font-family="Times,serif" font-size="14.00" fill="#000000">Hash: 0000091...F311832</text>
</g>
<!-- _5002issuer -->
<g id="node28" class="node">
<title>_5002issuer</title>
<g id="a_node28"><a xlink:href="/graphviz/svg/certs/D9D2zaJoWYWveii1JRYLVK3J4Z7ZH3QczoKrnQeiM6mx" xlink:title="issuer:\nD9D2zaJ...QeiM6mx">
<polygon fill="none" stroke="#000000" points="1343.4337,-335.3298 1225.4451,-358.4278 1107.4564,-335.3298 1107.5665,-297.9563 1343.3236,-297.9563 1343.4337,-335.3298"/>
<text text-anchor="middle" x="1225.4451" y="-328.8" font-family="Times,serif" font-size="14.00" fill="#000000">issuer:</text>
<text text-anchor="middle" x="1225.4451" y="-313.8" font-family="Times,serif" font-size="14.00" fill="#000000">D9D2zaJ...QeiM6mx</text>
</a>
</g>
</g>
<!-- _5002info -->
<g id="node30" class="node">
<title>_5002info</title>
<text text-anchor="start" x="1151.9451" y="-174.3" font-family="Times,serif" font-size="14.00" fill="#000000">Mbr: 68</text>
<text text-anchor="start" x="1151.9451" y="-159.3" font-family="Times,serif" font-size="14.00" fill="#000000">Cur: g1</text>
<text text-anchor="start" x="1151.9451" y="-144.3" font-family="Times,serif" font-size="14.00" fill="#000000">Ver: 10</text>
<text text-anchor="start" x="1151.9451" y="-129.3" font-family="Times,serif" font-size="14.00" fill="#000000">Pow: 80</text>
<text text-anchor="start" x="1151.9451" y="-114.3" font-family="Times,serif" font-size="14.00" fill="#000000">issCnt: 22</text>
<text text-anchor="start" x="1151.9451" y="-99.3" font-family="Times,serif" font-size="14.00" fill="#000000">issFrm: 111</text>
<text text-anchor="start" x="1151.9451" y="-84.3" font-family="Times,serif" font-size="14.00" fill="#000000">issFVar: 0</text>
<text text-anchor="start" x="1151.9451" y="-69.3" font-family="Times,serif" font-size="14.00" fill="#000000">M.M: 1192000</text>
<text text-anchor="start" x="1151.9451" y="-54.3" font-family="Times,serif" font-size="14.00" fill="#000000">Tim: 2017&#45;03&#45;26 16:18:17</text>
<text text-anchor="start" x="1151.9451" y="-39.3" font-family="Times,serif" font-size="14.00" fill="#000000">DeltaTime: 7m 45s</text>
<text text-anchor="start" x="1151.9451" y="-24.3" font-family="Times,serif" font-size="14.00" fill="#000000">Sign: zZeEjL4...ktVBQ==</text>
</g>
</g>
</svg>
