<?xml version="1.0" encoding="UTF-8" standalone="no"?>
<!DOCTYPE svg PUBLIC "-//W3C//DTD SVG 1.1//EN"
 "http://www.w3.org/Graphics/SVG/1.1/DTD/svg11.dtd">
<!-- Generated by graphviz version 2.40.1 (20161225.0304)
 -->
<!-- Title: %3 Pages: 1 -->
<svg width="1371pt" height="631pt"
 viewBox="0.00 0.00 1370.94 631.00" xmlns="http://www.w3.org/2000/svg" xmlns:xlink="http://www.w3.org/1999/xlink">
<g id="graph0" class="graph" transform="scale(1 1) rotate(0) translate(4 627)">
<title>%3</title>
<polygon fill="#ffffff" stroke="transparent" points="-4,4 -4,-627 1366.9355,-627 1366.9355,4 -4,4"/>
<g id="clust1" class="cluster">
<title>cluster_5000</title>
<polygon fill="#d3d3d3" stroke="#d3d3d3" points="8,-8 8,-530 259.9887,-530 259.9887,-8 8,-8"/>
</g>
<g id="clust2" class="cluster">
<title>cluster_5001</title>
<polygon fill="#d3d3d3" stroke="#d3d3d3" points="279.9887,-8 279.9887,-530 528.4812,-530 528.4812,-8 279.9887,-8"/>
</g>
<g id="clust3" class="cluster">
<title>cluster_5002</title>
<polygon fill="#d3d3d3" stroke="#d3d3d3" points="548.4812,-8 548.4812,-530 800.4698,-530 800.4698,-8 548.4812,-8"/>
</g>
<g id="clust4" class="cluster">
<title>cluster_5003</title>
<polygon fill="#d3d3d3" stroke="#d3d3d3" points="820.4698,-8 820.4698,-615 1072.4585,-615 1072.4585,-8 820.4698,-8"/>
</g>
<g id="clust5" class="cluster">
<title>cluster_5003Tx</title>
<polygon fill="none" stroke="#000000" stroke-dasharray="1,5" points="859.9642,-532 859.9642,-607 1032.9642,-607 1032.9642,-532 859.9642,-532"/>
<text text-anchor="middle" x="946.4642" y="-591.8" font-family="Times,serif" font-size="14.00" fill="#000000">Transactions</text>
</g>
<g id="clust6" class="cluster">
<title>cluster_5004</title>
<polygon fill="#d3d3d3" stroke="#d3d3d3" points="1092.4585,-8 1092.4585,-530 1354.9355,-530 1354.9355,-8 1092.4585,-8"/>
</g>
<!-- _5000 -->
<g id="node1" class="node">
<title>_5000</title>
<g id="a_node1"><a xlink:href="/graphviz/svg/block/5000" xlink:title=" &#160;Block #\n5000 &#160;">
<polygon fill="none" stroke="#000000" points="167.4943,-522 164.4943,-526 143.4943,-526 140.4943,-522 100.4943,-522 100.4943,-484 167.4943,-484 167.4943,-522"/>
<text text-anchor="middle" x="133.9943" y="-506.8" font-family="Times,serif" font-size="14.00" fill="#000000"> &#160;Block #</text>
<text text-anchor="middle" x="133.9943" y="-491.8" font-family="Times,serif" font-size="14.00" fill="#000000">5000 &#160;</text>
</a>
</g>
</g>
<!-- _5001 -->
<g id="node7" class="node">
<title>_5001</title>
<g id="a_node7"><a xlink:href="/graphviz/svg/block/5001" xlink:title=" &#160;Block #\n5001 &#160;">
<polygon fill="none" stroke="#000000" points="437.7349,-522 434.7349,-526 413.7349,-526 410.7349,-522 370.7349,-522 370.7349,-484 437.7349,-484 437.7349,-522"/>
<text text-anchor="middle" x="404.2349" y="-506.8" font-family="Times,serif" font-size="14.00" fill="#000000"> &#160;Block #</text>
<text text-anchor="middle" x="404.2349" y="-491.8" font-family="Times,serif" font-size="14.00" fill="#000000">5001 &#160;</text>
</a>
</g>
</g>
<!-- _5000&#45;&gt;_5001 -->
<g id="edge9" class="edge">
<title>_5000&#45;&gt;_5001</title>
<path fill="none" stroke="#000000" d="M167.6741,-503C216.3554,-503 306.4355,-503 360.2911,-503"/>
<polygon fill="#000000" stroke="#000000" points="360.5563,-506.5001 370.5562,-503 360.5562,-499.5001 360.5563,-506.5001"/>
</g>
<!-- _5000hash -->
<g id="node2" class="node">
<title>_5000hash</title>
<polygon fill="none" stroke="transparent" points="215.9943,-466 51.9943,-466 51.9943,-430 215.9943,-430 215.9943,-466"/>
<polyline fill="none" stroke="#000000" points="51.9943,-430 215.9943,-430 "/>
<text text-anchor="middle" x="133.9943" y="-444.3" font-family="Times,serif" font-size="14.00" fill="#000000">Hash: 00000F0...F75C08B</text>
</g>
<!-- _5001phash -->
<g id="node9" class="node">
<title>_5001phash</title>
<polygon fill="none" stroke="transparent" points="489.7349,-412 318.7349,-412 318.7349,-376 489.7349,-376 489.7349,-412"/>
<polyline fill="none" stroke="#000000" points="318.7349,-376 489.7349,-376 "/>
<text text-anchor="middle" x="404.2349" y="-390.3" font-family="Times,serif" font-size="14.00" fill="#000000">PHash: 00000F0...F75C08B</text>
</g>
<!-- _5000hash&#45;&gt;_5001phash -->
<g id="edge1" class="edge">
<title>_5000hash&#45;&gt;_5001phash</title>
<path fill="none" stroke="#000000" stroke-dasharray="1,5" d="M216.1761,-431.5783C245.3346,-425.7518 278.3999,-419.1446 308.5845,-413.113"/>
<polygon fill="#000000" stroke="#000000" points="309.5805,-416.4833 318.7008,-411.0916 308.2088,-409.619 309.5805,-416.4833"/>
</g>
<!-- _5000phash -->
<g id="node3" class="node">
<title>_5000phash</title>
<polygon fill="none" stroke="transparent" points="221.4943,-412 46.4943,-412 46.4943,-376 221.4943,-376 221.4943,-412"/>
<polyline fill="none" stroke="#000000" points="46.4943,-376 221.4943,-376 "/>
<text text-anchor="middle" x="133.9943" y="-390.3" font-family="Times,serif" font-size="14.00" fill="#000000">PHash: 000002E...160BECC</text>
</g>
<!-- _5000issuer -->
<g id="node4" class="node">
<title>_5000issuer</title>
<g id="a_node4"><a xlink:href="/graphviz/svg/certs/GfKERHnJTYzKhKUma5h1uWhetbA8yHKymhVH2raf2aCP" xlink:title="issuer:\nGfKERHn...raf2aCP">
<polygon fill="none" stroke="#000000" points="247.7428,-335.3298 133.9943,-358.4278 20.2459,-335.3298 20.352,-297.9563 247.6366,-297.9563 247.7428,-335.3298"/>
<text text-anchor="middle" x="133.9943" y="-328.8" font-family="Times,serif" font-size="14.00" fill="#000000">issuer:</text>
<text text-anchor="middle" x="133.9943" y="-313.8" font-family="Times,serif" font-size="14.00" fill="#000000">GfKERHn...raf2aCP</text>
</a>
</g>
</g>
<!-- _5001pissuer -->
<g id="node11" class="node">
<title>_5001pissuer</title>
<polygon fill="none" stroke="#000000" points="517.9834,-251.3298 404.2349,-274.4278 290.4864,-251.3298 290.5926,-213.9563 517.8772,-213.9563 517.9834,-251.3298"/>
<text text-anchor="middle" x="404.2349" y="-244.8" font-family="Times,serif" font-size="14.00" fill="#000000">pissuer:</text>
<text text-anchor="middle" x="404.2349" y="-229.8" font-family="Times,serif" font-size="14.00" fill="#000000">GfKERHn...raf2aCP</text>
</g>
<!-- _5000issuer&#45;&gt;_5001pissuer -->
<g id="edge5" class="edge">
<title>_5000issuer&#45;&gt;_5001pissuer</title>
<path fill="none" stroke="#000000" stroke-dasharray="1,5" d="M221.3605,-297.8436C256.1682,-287.0242 295.828,-274.6966 329.2967,-264.2934"/>
<polygon fill="#000000" stroke="#000000" points="330.506,-267.5827 339.0164,-261.2721 328.4282,-260.8982 330.506,-267.5827"/>
</g>
<!-- _5000pissuer -->
<g id="node5" class="node">
<title>_5000pissuer</title>
<polygon fill="none" stroke="#000000" points="251.983,-251.3298 133.9943,-274.4278 16.0057,-251.3298 16.1158,-213.9563 251.8729,-213.9563 251.983,-251.3298"/>
<text text-anchor="middle" x="133.9943" y="-244.8" font-family="Times,serif" font-size="14.00" fill="#000000">pissuer:</text>
<text text-anchor="middle" x="133.9943" y="-229.8" font-family="Times,serif" font-size="14.00" fill="#000000">FVUFRrk...4C2N5tD</text>
</g>
<!-- _5000info -->
<g id="node6" class="node">
<title>_5000info</title>
<text text-anchor="start" x="57.9943" y="-174.3" font-family="Times,serif" font-size="14.00" fill="#000000">Mbr: 68</text>
<text text-anchor="start" x="57.9943" y="-159.3" font-family="Times,serif" font-size="14.00" fill="#000000">Cur: g1</text>
<text text-anchor="start" x="57.9943" y="-144.3" font-family="Times,serif" font-size="14.00" fill="#000000">Ver: 10</text>
<text text-anchor="start" x="57.9943" y="-129.3" font-family="Times,serif" font-size="14.00" fill="#000000">Pow: 80</text>
<text text-anchor="start" x="57.9943" y="-114.3" font-family="Times,serif" font-size="14.00" fill="#000000">issCnt: 22</text>
<text text-anchor="start" x="57.9943" y="-99.3" font-family="Times,serif" font-size="14.00" fill="#000000">issFrm: 111</text>
<text text-anchor="start" x="57.9943" y="-84.3" font-family="Times,serif" font-size="14.00" fill="#000000">issFVar: 0</text>
<text text-anchor="start" x="57.9943" y="-69.3" font-family="Times,serif" font-size="14.00" fill="#000000">M.M: 1192000</text>
<text text-anchor="start" x="57.9943" y="-54.3" font-family="Times,serif" font-size="14.00" fill="#000000">Tim: 2017&#45;03&#45;26 16:03:21</text>
<text text-anchor="start" x="57.9943" y="-39.3" font-family="Times,serif" font-size="14.00" fill="#000000">DeltaTime: 7m 14s</text>
<text text-anchor="start" x="57.9943" y="-24.3" font-family="Times,serif" font-size="14.00" fill="#000000">Sign: XeWhcIv...AteCQ==</text>
</g>
<!-- _5002 -->
<g id="node13" class="node">
<title>_5002</title>
<g id="a_node13"><a xlink:href="/graphviz/svg/block/5002" xlink:title=" &#160;Block #\n5002 &#160;">
<polygon fill="none" stroke="#000000" points="707.9755,-522 704.9755,-526 683.9755,-526 680.9755,-522 640.9755,-522 640.9755,-484 707.9755,-484 707.9755,-522"/>
<text text-anchor="middle" x="674.4755" y="-506.8" font-family="Times,serif" font-size="14.00" fill="#000000"> &#160;Block #</text>
<text text-anchor="middle" x="674.4755" y="-491.8" font-family="Times,serif" font-size="14.00" fill="#000000">5002 &#160;</text>
</a>
</g>
</g>
<!-- _5001&#45;&gt;_5002 -->
<g id="edge10" class="edge">
<title>_5001&#45;&gt;_5002</title>
<path fill="none" stroke="#000000" d="M437.9147,-503C486.596,-503 576.6761,-503 630.5317,-503"/>
<polygon fill="#000000" stroke="#000000" points="630.7969,-506.5001 640.7968,-503 630.7968,-499.5001 630.7969,-506.5001"/>
</g>
<!-- _5001hash -->
<g id="node8" class="node">
<title>_5001hash</title>
<polygon fill="none" stroke="transparent" points="486.7349,-466 321.7349,-466 321.7349,-430 486.7349,-430 486.7349,-466"/>
<polyline fill="none" stroke="#000000" points="321.7349,-430 486.7349,-430 "/>
<text text-anchor="middle" x="404.2349" y="-444.3" font-family="Times,serif" font-size="14.00" fill="#000000">Hash: 00000BD...980520B</text>
</g>
<!-- _5002phash -->
<g id="node15" class="node">
<title>_5002phash</title>
<polygon fill="none" stroke="transparent" points="760.9755,-412 587.9755,-412 587.9755,-376 760.9755,-376 760.9755,-412"/>
<polyline fill="none" stroke="#000000" points="587.9755,-376 760.9755,-376 "/>
<text text-anchor="middle" x="674.4755" y="-390.3" font-family="Times,serif" font-size="14.00" fill="#000000">PHash: 00000BD...980520B</text>
</g>
<!-- _5001hash&#45;&gt;_5002phash -->
<g id="edge2" class="edge">
<title>_5001hash&#45;&gt;_5002phash</title>
<path fill="none" stroke="#000000" stroke-dasharray="1,5" d="M486.7844,-431.5048C515.5123,-425.7643 547.9963,-419.2733 577.7671,-413.3245"/>
<polygon fill="#000000" stroke="#000000" points="578.6296,-416.7214 587.7499,-411.3297 577.2579,-409.8571 578.6296,-416.7214"/>
</g>
<!-- _5001issuer -->
<g id="node10" class="node">
<title>_5001issuer</title>
<g id="a_node10"><a xlink:href="/graphviz/svg/certs/39GRfKaXUrT6gzNaxipnzbgj9zNBfLaRCfHS54XLwp2r" xlink:title="issuer:\n39GRfKa...4XLwp2r">
<polygon fill="none" stroke="#000000" points="520.728,-335.3298 404.2349,-358.4278 287.7419,-335.3298 287.8506,-297.9563 520.6192,-297.9563 520.728,-335.3298"/>
<text text-anchor="middle" x="404.2349" y="-328.8" font-family="Times,serif" font-size="14.00" fill="#000000">issuer:</text>
<text text-anchor="middle" x="404.2349" y="-313.8" font-family="Times,serif" font-size="14.00" fill="#000000">39GRfKa...4XLwp2r</text>
</a>
</g>
</g>
<!-- _5002pissuer -->
<g id="node17" class="node">
<title>_5002pissuer</title>
<polygon fill="none" stroke="#000000" points="790.9686,-251.3298 674.4755,-274.4278 557.9825,-251.3298 558.0912,-213.9563 790.8598,-213.9563 790.9686,-251.3298"/>
<text text-anchor="middle" x="674.4755" y="-244.8" font-family="Times,serif" font-size="14.00" fill="#000000">pissuer:</text>
<text text-anchor="middle" x="674.4755" y="-229.8" font-family="Times,serif" font-size="14.00" fill="#000000">39GRfKa...4XLwp2r</text>
</g>
<!-- _5001issuer&#45;&gt;_5002pissuer -->
<g id="edge6" class="edge">
<title>_5001issuer&#45;&gt;_5002pissuer</title>
<path fill="none" stroke="#000000" stroke-dasharray="1,5" d="M491.6011,-297.8436C526.1281,-287.1114 565.4292,-274.8953 598.7264,-264.5454"/>
<polygon fill="#000000" stroke="#000000" points="599.8906,-267.8488 608.401,-261.5382 597.8128,-261.1643 599.8906,-267.8488"/>
</g>
<!-- _5001info -->
<g id="node12" class="node">
<title>_5001info</title>
<text text-anchor="start" x="325.7349" y="-174.3" font-family="Times,serif" font-size="14.00" fill="#000000">Mbr: 68</text>
<text text-anchor="start" x="325.7349" y="-159.3" font-family="Times,serif" font-size="14.00" fill="#000000">Cur: g1</text>
<text text-anchor="start" x="325.7349" y="-144.3" font-family="Times,serif" font-size="14.00" fill="#000000">Ver: 10</text>
<text text-anchor="start" x="325.7349" y="-129.3" font-family="Times,serif" font-size="14.00" fill="#000000">Pow: 80</text>
<text text-anchor="start" x="325.7349" y="-114.3" font-family="Times,serif" font-size="14.00" fill="#000000">issCnt: 22</text>
<text text-anchor="start" x="325.7349" y="-99.3" font-family="Times,serif" font-size="14.00" fill="#000000">issFrm: 111</text>
<text text-anchor="start" x="325.7349" y="-84.3" font-family="Times,serif" font-size="14.00" fill="#000000">issFVar: 0</text>
<text text-anchor="start" x="325.7349" y="-69.3" font-family="Times,serif" font-size="14.00" fill="#000000">M.M: 1192000</text>
<text text-anchor="start" x="325.7349" y="-54.3" font-family="Times,serif" font-size="14.00" fill="#000000">Tim: 2017&#45;03&#45;26 16:10:32</text>
<text text-anchor="start" x="325.7349" y="-39.3" font-family="Times,serif" font-size="14.00" fill="#000000">DeltaTime: 7m 11s</text>
<text text-anchor="start" x="325.7349" y="-24.3" font-family="Times,serif" font-size="14.00" fill="#000000">Sign: GVFuW27...3aoCg==</text>
</g>
<!-- _5003 -->
<g id="node19" class="node">
<title>_5003</title>
<g id="a_node19"><a xlink:href="/graphviz/svg/block/5003" xlink:title=" &#160;Block #\n5003 &#160;">
<polygon fill="none" stroke="#000000" points="979.9642,-522 976.9642,-526 955.9642,-526 952.9642,-522 912.9642,-522 912.9642,-484 979.9642,-484 979.9642,-522"/>
<text text-anchor="middle" x="946.4642" y="-506.8" font-family="Times,serif" font-size="14.00" fill="#000000"> &#160;Block #</text>
<text text-anchor="middle" x="946.4642" y="-491.8" font-family="Times,serif" font-size="14.00" fill="#000000">5003 &#160;</text>
</a>
</g>
</g>
<!-- _5002&#45;&gt;_5003 -->
<g id="edge11" class="edge">
<title>_5002&#45;&gt;_5003</title>
<path fill="none" stroke="#000000" d="M708.0994,-503C757.1344,-503 848.3153,-503 902.5798,-503"/>
<polygon fill="#000000" stroke="#000000" points="902.9171,-506.5001 912.917,-503 902.917,-499.5001 902.9171,-506.5001"/>
</g>
<!-- _5002hash -->
<g id="node14" class="node">
<title>_5002hash</title>
<polygon fill="none" stroke="transparent" points="753.4755,-466 595.4755,-466 595.4755,-430 753.4755,-430 753.4755,-466"/>
<polyline fill="none" stroke="#000000" points="595.4755,-430 753.4755,-430 "/>
<text text-anchor="middle" x="674.4755" y="-444.3" font-family="Times,serif" font-size="14.00" fill="#000000">Hash: 0000091...F311832</text>
</g>
<!-- _5003phash -->
<g id="node21" class="node">
<title>_5003phash</title>
<polygon fill="none" stroke="transparent" points="1029.4642,-412 863.4642,-412 863.4642,-376 1029.4642,-376 1029.4642,-412"/>
<polyline fill="none" stroke="#000000" points="863.4642,-376 1029.4642,-376 "/>
<text text-anchor="middle" x="946.4642" y="-390.3" font-family="Times,serif" font-size="14.00" fill="#000000">PHash: 0000091...F311832</text>
</g>
<!-- _5002hash&#45;&gt;_5003phash -->
<g id="edge3" class="edge">
<title>_5002hash&#45;&gt;_5003phash</title>
<path fill="none" stroke="#000000" stroke-dasharray="1,5" d="M753.5112,-432.3084C784.7825,-426.0999 820.958,-418.9177 853.4764,-412.4616"/>
<polygon fill="#000000" stroke="#000000" points="854.3145,-415.8636 863.4414,-410.4831 852.9513,-408.9976 854.3145,-415.8636"/>
</g>
<!-- _5002issuer -->
<g id="node16" class="node">
<title>_5002issuer</title>
<g id="a_node16"><a xlink:href="/graphviz/svg/certs/D9D2zaJoWYWveii1JRYLVK3J4Z7ZH3QczoKrnQeiM6mx" xlink:title="issuer:\nD9D2zaJ...QeiM6mx">
<polygon fill="none" stroke="#000000" points="792.4642,-335.3298 674.4755,-358.4278 556.4869,-335.3298 556.597,-297.9563 792.354,-297.9563 792.4642,-335.3298"/>
<text text-anchor="middle" x="674.4755" y="-328.8" font-family="Times,serif" font-size="14.00" fill="#000000">issuer:</text>
<text text-anchor="middle" x="674.4755" y="-313.8" font-family="Times,serif" font-size="14.00" fill="#000000">D9D2zaJ...QeiM6mx</text>
</a>
</g>
</g>
<!-- _5003pissuer -->
<g id="node23" class="node">
<title>_5003pissuer</title>
<polygon fill="none" stroke="#000000" points="1064.4528,-251.3298 946.4642,-274.4278 828.4755,-251.3298 828.5856,-213.9563 1064.3427,-213.9563 1064.4528,-251.3298"/>
<text text-anchor="middle" x="946.4642" y="-244.8" font-family="Times,serif" font-size="14.00" fill="#000000">pissuer:</text>
<text text-anchor="middle" x="946.4642" y="-229.8" font-family="Times,serif" font-size="14.00" fill="#000000">D9D2zaJ...QeiM6mx</text>
</g>
<!-- _5002issuer&#45;&gt;_5003pissuer -->
<g id="edge7" class="edge">
<title>_5002issuer&#45;&gt;_5003pissuer</title>
<path fill="none" stroke="#000000" stroke-dasharray="1,5" d="M762.4068,-297.8436C797.1572,-287.1114 836.7125,-274.8953 870.225,-264.5454"/>
<polygon fill="#000000" stroke="#000000" points="871.4403,-267.8333 879.9622,-261.5382 869.3747,-261.145 871.4403,-267.8333"/>
</g>
<!-- _5002info -->
<g id="node18" class="node">
<title>_5002info</title>
<text text-anchor="start" x="600.9755" y="-174.3" font-family="Times,serif" font-size="14.00" fill="#000000">Mbr: 68</text>
<text text-anchor="start" x="600.9755" y="-159.3" font-family="Times,serif" font-size="14.00" fill="#000000">Cur: g1</text>
<text text-anchor="start" x="600.9755" y="-144.3" font-family="Times,serif" font-size="14.00" fill="#000000">Ver: 10</text>
<text text-anchor="start" x="600.9755" y="-129.3" font-family="Times,serif" font-size="14.00" fill="#000000">Pow: 80</text>
<text text-anchor="start" x="600.9755" y="-114.3" font-family="Times,serif" font-size="14.00" fill="#000000">issCnt: 22</text>
<text text-anchor="start" x="600.9755" y="-99.3" font-family="Times,serif" font-size="14.00" fill="#000000">issFrm: 111</text>
<text text-anchor="start" x="600.9755" y="-84.3" font-family="Times,serif" font-size="14.00" fill="#000000">issFVar: 0</text>
<text text-anchor="start" x="600.9755" y="-69.3" font-family="Times,serif" font-size="14.00" fill="#000000">M.M: 1192000</text>
<text text-anchor="start" x="600.9755" y="-54.3" font-family="Times,serif" font-size="14.00" fill="#000000">Tim: 2017&#45;03&#45;26 16:18:17</text>
<text text-anchor="start" x="600.9755" y="-39.3" font-family="Times,serif" font-size="14.00" fill="#000000">DeltaTime: 7m 45s</text>
<text text-anchor="start" x="600.9755" y="-24.3" font-family="Times,serif" font-size="14.00" fill="#000000">Sign: zZeEjL4...ktVBQ==</text>
</g>
<!-- _5004 -->
<g id="node26" class="node">
<title>_5004</title>
<g id="a_node26"><a xlink:href="/graphviz/svg/block/5004" xlink:title=" &#160;Block #\n5004 &#160;">
<polygon fill="none" stroke="#000000" points="1257.197,-522 1254.197,-526 1233.197,-526 1230.197,-522 1190.197,-522 1190.197,-484 1257.197,-484 1257.197,-522"/>
<text text-anchor="middle" x="1223.697" y="-506.8" font-family="Times,serif" font-size="14.00" fill="#000000"> &#160;Block #</text>
<text text-anchor="middle" x="1223.697" y="-491.8" font-family="Times,serif" font-size="14.00" fill="#000000">5004 &#160;</text>
</a>
</g>
</g>
<!-- _5003&#45;&gt;_5004 -->
<g id="edge12" class="edge">
<title>_5003&#45;&gt;_5004</title>
<path fill="none" stroke="#000000" d="M980.1812,-503C1030.2049,-503 1124.1222,-503 1179.5635,-503"/>
<polygon fill="#000000" stroke="#000000" points="1179.7814,-506.5001 1189.7814,-503 1179.7814,-499.5001 1179.7814,-506.5001"/>
</g>
<!-- _5003hash -->
<g id="node20" class="node">
<title>_5003hash</title>
<polygon fill="none" stroke="transparent" points="1031.4642,-466 861.4642,-466 861.4642,-430 1031.4642,-430 1031.4642,-466"/>
<polyline fill="none" stroke="#000000" points="861.4642,-430 1031.4642,-430 "/>
<text text-anchor="middle" x="946.4642" y="-444.3" font-family="Times,serif" font-size="14.00" fill="#000000">Hash: 0000023...BE17BDA</text>
</g>
<!-- _5004phash -->
<g id="node28" class="node">
<title>_5004phash</title>
<polygon fill="none" stroke="transparent" points="1312.197,-412 1135.197,-412 1135.197,-376 1312.197,-376 1312.197,-412"/>
<polyline fill="none" stroke="#000000" points="1135.197,-376 1312.197,-376 "/>
<text text-anchor="middle" x="1223.697" y="-390.3" font-family="Times,serif" font-size="14.00" fill="#000000">PHash: 0000023...BE17BDA</text>
</g>
<!-- _5003hash&#45;&gt;_5004phash -->
<g id="edge4" class="edge">
<title>_5003hash&#45;&gt;_5004phash</title>
<path fill="none" stroke="#000000" stroke-dasharray="1,5" d="M1031.5272,-431.4312C1061.1137,-425.6683 1094.5467,-419.1562 1125.1334,-413.1984"/>
<polygon fill="#000000" stroke="#000000" points="1125.8093,-416.6326 1134.9557,-411.2852 1124.471,-409.7618 1125.8093,-416.6326"/>
</g>
<!-- _5003issuer -->
<g id="node22" class="node">
<title>_5003issuer</title>
<g id="a_node22"><a xlink:href="/graphviz/svg/certs/FEkbc4BfJukSWnCU6Hed6dgwwTuPFTVdgz5LpL4iHr9J" xlink:title="issuer:\nFEkbc4B...L4iHr9J">
<polygon fill="none" stroke="#000000" points="1054.7242,-335.3298 946.4642,-358.4278 838.2041,-335.3298 838.3051,-297.9563 1054.6232,-297.9563 1054.7242,-335.3298"/>
<text text-anchor="middle" x="946.4642" y="-328.8" font-family="Times,serif" font-size="14.00" fill="#000000">issuer:</text>
<text text-anchor="middle" x="946.4642" y="-313.8" font-family="Times,serif" font-size="14.00" fill="#000000">FEkbc4B...L4iHr9J</text>
</a>
</g>
</g>
<!-- _5004pissuer -->
<g id="node30" class="node">
<title>_5004pissuer</title>
<polygon fill="none" stroke="#000000" points="1331.9571,-251.3298 1223.697,-274.4278 1115.4369,-251.3298 1115.538,-213.9563 1331.856,-213.9563 1331.9571,-251.3298"/>
<text text-anchor="middle" x="1223.697" y="-244.8" font-family="Times,serif" font-size="14.00" fill="#000000">pissuer:</text>
<text text-anchor="middle" x="1223.697" y="-229.8" font-family="Times,serif" font-size="14.00" fill="#000000">FEkbc4B...L4iHr9J</text>
</g>
<!-- _5003issuer&#45;&gt;_5004pissuer -->
<g id="edge8" class="edge">
<title>_5003issuer&#45;&gt;_5004pissuer</title>
<path fill="none" stroke="#000000" stroke-dasharray="1,5" d="M1036.0909,-297.8436C1072.5309,-286.8025 1114.1546,-274.1907 1148.9223,-263.6563"/>
<polygon fill="#000000" stroke="#000000" points="1149.9813,-266.9926 1158.5367,-260.7432 1147.9515,-260.2934 1149.9813,-266.9926"/>
</g>
<!-- _5003info -->
<g id="node24" class="node">
<title>_5003info</title>
<text text-anchor="start" x="869.9642" y="-174.3" font-family="Times,serif" font-size="14.00" fill="#000000">Mbr: 68</text>
<text text-anchor="start" x="869.9642" y="-159.3" font-family="Times,serif" font-size="14.00" fill="#000000">Cur: g1</text>
<text text-anchor="start" x="869.9642" y="-144.3" font-family="Times,serif" font-size="14.00" fill="#000000">Ver: 10</text>
<text text-anchor="start" x="869.9642" y="-129.3" font-family="Times,serif" font-size="14.00" fill="#000000">Pow: 80</text>
<text text-anchor="start" x="869.9642" y="-114.3" font-family="Times,serif" font-size="14.00" fill="#000000">issCnt: 22</text>
<text text-anchor="start" x="869.9642" y="-99.3" font-family="Times,serif" font-size="14.00" fill="#000000">issFrm: 111</text>
<text text-anchor="start" x="869.9642" y="-84.3" font-family="Times,serif" font-size="14.00" fill="#000000">issFVar: 0</text>
<text text-anchor="start" x="869.9642" y="-69.3" font-family="Times,serif" font-size="14.00" fill="#000000">M.M: 1192000</text>
<text text-anchor="start" x="869.9642" y="-54.3" font-family="Times,serif" font-size="14.00" fill="#000000">Tim: 2017&#45;03&#45;26 16:26:13</text>
<text text-anchor="start" x="869.9642" y="-39.3" font-family="Times,serif" font-size="14.00" fill="#000000">DeltaTime: 7m 56s</text>
<text text-anchor="start" x="869.9642" y="-24.3" font-family="Times,serif" font-size="14.00" fill="#000000">Sign: kdFcAKb...yQ6Cg==</text>
</g>
<!-- tx4AA21CF538A2C213C81FF0F4A392B438E7462C67D17BB7C44B3A7BBD53068027 -->
<g id="node25" class="node">
<title>tx4AA21CF538A2C213C81FF0F4A392B438E7462C67D17BB7C44B3A7BBD53068027</title>
<g id="a_node25"><a xlink:href="/graphviz/svg/tx/4AA21CF538A2C213C81FF0F4A392B438E7462C67D17BB7C44B3A7BBD53068027" xlink:title=" &#160;TENGx7W...iLvp1mS &#160;">
<polygon fill="none" stroke="#000000" points="1006.9642,-570 867.9642,-570 867.9642,-546 1006.9642,-546 1006.9642,-540 1024.9642,-558 1006.9642,-576 1006.9642,-570"/>
<text text-anchor="middle" x="946.4642" y="-554.3" font-family="Times,serif" font-size="14.00" fill="#000000"> &#160;TENGx7W...iLvp1mS &#160;</text>
</a>
</g>
</g>
<!-- _5004hash -->
<g id="node27" class="node">
<title>_5004hash</title>
<polygon fill="none" stroke="transparent" points="1302.697,-466 1144.697,-466 1144.697,-430 1302.697,-430 1302.697,-466"/>
<polyline fill="none" stroke="#000000" points="1144.697,-430 1302.697,-430 "/>
<text text-anchor="middle" x="1223.697" y="-444.3" font-family="Times,serif" font-size="14.00" fill="#000000">Hash: 0000007...4268153</text>
</g>
<!-- _5004issuer -->
<g id="node29" class="node">
<title>_5004issuer</title>
<g id="a_node29"><a xlink:href="/graphviz/svg/certs/38MEAZN68Pz1DTvT3tqgxx4yQP6snJCQhPqEFxbDk4aE" xlink:title="issuer:\n38MEAZN...xbDk4aE">
<polygon fill="none" stroke="#000000" points="1347.1745,-335.3298 1223.697,-358.4278 1100.2195,-335.3298 1100.3348,-297.9563 1347.0593,-297.9563 1347.1745,-335.3298"/>
<text text-anchor="middle" x="1223.697" y="-328.8" font-family="Times,serif" font-size="14.00" fill="#000000">issuer:</text>
<text text-anchor="middle" x="1223.697" y="-313.8" font-family="Times,serif" font-size="14.00" fill="#000000">38MEAZN...xbDk4aE</text>
</a>
</g>
</g>
<!-- _5004info -->
<g id="node31" class="node">
<title>_5004info</title>
<text text-anchor="start" x="1149.697" y="-174.3" font-family="Times,serif" font-size="14.00" fill="#000000">Mbr: 68</text>
<text text-anchor="start" x="1149.697" y="-159.3" font-family="Times,serif" font-size="14.00" fill="#000000">Cur: g1</text>
<text text-anchor="start" x="1149.697" y="-144.3" font-family="Times,serif" font-size="14.00" fill="#000000">Ver: 10</text>
<text text-anchor="start" x="1149.697" y="-129.3" font-family="Times,serif" font-size="14.00" fill="#000000">Pow: 78</text>
<text text-anchor="start" x="1149.697" y="-114.3" font-family="Times,serif" font-size="14.00" fill="#000000">issCnt: 22</text>
<text text-anchor="start" x="1149.697" y="-99.3" font-family="Times,serif" font-size="14.00" fill="#000000">issFrm: 111</text>
<text text-anchor="start" x="1149.697" y="-84.3" font-family="Times,serif" font-size="14.00" fill="#000000">issFVar: 0</text>
<text text-anchor="start" x="1149.697" y="-69.3" font-family="Times,serif" font-size="14.00" fill="#000000">M.M: 1192000</text>
<text text-anchor="start" x="1149.697" y="-54.3" font-family="Times,serif" font-size="14.00" fill="#000000">Tim: 2017&#45;03&#45;26 16:32:57</text>
<text text-anchor="start" x="1149.697" y="-39.3" font-family="Times,serif" font-size="14.00" fill="#000000">DeltaTime: 6m 44s</text>
<text text-anchor="start" x="1149.697" y="-24.3" font-family="Times,serif" font-size="14.00" fill="#000000">Sign: ij24DAY...g+5Cg==</text>
</g>
</g>
</svg>
