<?xml version="1.0" encoding="UTF-8" standalone="no"?>
<!DOCTYPE svg PUBLIC "-//W3C//DTD SVG 1.1//EN"
 "http://www.w3.org/Graphics/SVG/1.1/DTD/svg11.dtd">
<!-- Generated by graphviz version 2.40.1 (20161225.0304)
 -->
<!-- Title: %3 Pages: 1 -->
<svg width="993pt" height="712pt"
 viewBox="0.00 0.00 993.00 711.74" xmlns="http://www.w3.org/2000/svg" xmlns:xlink="http://www.w3.org/1999/xlink">
<g id="graph0" class="graph" transform="scale(1 1) rotate(0) translate(4 707.7401)">
<title>%3</title>
<polygon fill="#ffffff" stroke="transparent" points="-4,4 -4,-707.7401 989,-707.7401 989,4 -4,4"/>
<g id="clust2" class="cluster">
<title>cluster_inputs</title>
<polygon fill="none" stroke="#0000ff" points="204,-581.7401 204,-695.7401 718,-695.7401 718,-581.7401 204,-581.7401"/>
<text text-anchor="middle" x="461" y="-680.5401" font-family="Times,serif" font-size="14.00" fill="#000000">Inputs</text>
</g>
<g id="clust3" class="cluster">
<title>cluster_input390740038</title>
<polygon fill="none" stroke="#0000ff" points="212,-589.7401 212,-664.7401 710,-664.7401 710,-589.7401 212,-589.7401"/>
<text text-anchor="middle" x="461" y="-649.5401" font-family="Times,serif" font-size="14.00" fill="#000000">TxInput</text>
</g>
<g id="clust4" class="cluster">
<title>cluster_unlocks</title>
<polygon fill="none" stroke="#0000ff" points="576,-422.2401 576,-554.7401 782,-554.7401 782,-422.2401 576,-422.2401"/>
<text text-anchor="middle" x="679" y="-539.5401" font-family="Times,serif" font-size="14.00" fill="#000000">Unlocks</text>
</g>
<g id="clust5" class="cluster">
<title>cluster_outputs</title>
<polygon fill="none" stroke="#0000ff" points="367,-152 367,-284.5 977,-284.5 977,-152 367,-152"/>
<text text-anchor="middle" x="672" y="-269.3" font-family="Times,serif" font-size="14.00" fill="#000000">Outputs</text>
</g>
<!-- info -->
<g id="node1" class="node">
<title>info</title>
<g id="a_node1"><a xlink:href="/graphviz/svg/block/127124" xlink:title="blockstamp: 127124&#45;...FE2F7EF\lCur: g1\lhash: 9D78EEB...29268BC\llocktime: 0\l">
<polygon fill="none" stroke="#000000" points="196,-649.7401 4,-649.7401 0,-645.7401 0,-581.7401 192,-581.7401 196,-585.7401 196,-649.7401"/>
<polyline fill="none" stroke="#000000" points="192,-645.7401 0,-645.7401 "/>
<polyline fill="none" stroke="#000000" points="192,-645.7401 192,-581.7401 "/>
<polyline fill="none" stroke="#000000" points="192,-645.7401 196,-649.7401 "/>
<text text-anchor="start" x="8" y="-634.5401" font-family="Times,serif" font-size="14.00" fill="#000000">blockstamp: 127124&#45;...FE2F7EF</text>
<text text-anchor="start" x="8" y="-619.5401" font-family="Times,serif" font-size="14.00" fill="#000000">Cur: g1</text>
<text text-anchor="start" x="8" y="-604.5401" font-family="Times,serif" font-size="14.00" fill="#000000">hash: 9D78EEB...29268BC</text>
<text text-anchor="start" x="8" y="-589.5401" font-family="Times,serif" font-size="14.00" fill="#000000">locktime: 0</text>
</a>
</g>
</g>
<!-- good -->
<g id="node2" class="node">
<title>good</title>
<ellipse fill="none" stroke="#000000" cx="500" cy="-352.3701" rx="72.6644" ry="26.7407"/>
<text text-anchor="middle" x="500" y="-356.1701" font-family="Times,serif" font-size="14.00" fill="#000000">Product/Service</text>
<text text-anchor="middle" x="500" y="-341.1701" font-family="Times,serif" font-size="14.00" fill="#000000">4 citrons</text>
</g>
<!-- _destFnZKoCVFCp4D5hVAmZJaZMYmsLvByLPon9iHRDGyFaPy -->
<g id="node13" class="node">
<title>_destFnZKoCVFCp4D5hVAmZJaZMYmsLvByLPon9iHRDGyFaPy</title>
<ellipse fill="none" stroke="#000000" cx="507" cy="-18" rx="90.9839" ry="18"/>
<text text-anchor="middle" x="507" y="-14.3" font-family="Times,serif" font-size="14.00" fill="#000000">FnZKoCV...DGyFaPy</text>
</g>
<!-- good&#45;&gt;_destFnZKoCVFCp4D5hVAmZJaZMYmsLvByLPon9iHRDGyFaPy -->
<g id="edge5" class="edge">
<title>good&#45;&gt;_destFnZKoCVFCp4D5hVAmZJaZMYmsLvByLPon9iHRDGyFaPy</title>
<path fill="none" stroke="#000000" d="M438.2422,-337.7941C410.1712,-327.7517 379.5856,-311.2258 363,-284.5 331.948,-234.4633 339.4898,-205.9923 363,-152 384.3664,-102.9309 433.5391,-63.7215 468.4655,-40.6894"/>
<polygon fill="#000000" stroke="#000000" points="470.4995,-43.5426 477.0126,-35.1861 466.7099,-37.657 470.4995,-43.5426"/>
<text text-anchor="middle" x="385.5" y="-130.8" font-family="Times,serif" font-size="14.00" fill="#000000">sell</text>
</g>
<!-- sum -->
<g id="node3" class="node">
<title>sum</title>
<ellipse fill="none" stroke="#000000" cx="638" cy="-352.3701" rx="35.2113" ry="26.7407"/>
<text text-anchor="middle" x="638" y="-356.1701" font-family="Times,serif" font-size="14.00" fill="#000000">sum</text>
<text text-anchor="middle" x="638" y="-341.1701" font-family="Times,serif" font-size="14.00" fill="#000000">14771</text>
</g>
<!-- lockOut1295921550 -->
<g id="node10" class="node">
<title>lockOut1295921550</title>
<polygon fill="none" stroke="#000000" points="762,-244.75 637,-206.75 762,-168.75 887,-206.75 762,-244.75"/>
<text text-anchor="middle" x="762" y="-210.55" font-family="Times,serif" font-size="14.00" fill="#000000">lockOut</text>
<text text-anchor="middle" x="762" y="-195.55" font-family="Times,serif" font-size="14.00" fill="#000000">SIG(FnZ...GyFaPy)</text>
</g>
<!-- sum&#45;&gt;lockOut1295921550 -->
<g id="edge3" class="edge">
<title>sum&#45;&gt;lockOut1295921550</title>
<path fill="none" stroke="#000000" d="M657.375,-329.6169C676.6556,-306.9746 706.5955,-271.8146 729.5157,-244.8981"/>
<polygon fill="#000000" stroke="#000000" points="732.2625,-247.0709 736.081,-237.1881 726.933,-242.5326 732.2625,-247.0709"/>
<text text-anchor="middle" x="699" y="-296.3" font-family="Times,serif" font-size="14.00" fill="#000000">SIG</text>
</g>
<!-- lockOut1936855060 -->
<g id="node11" class="node">
<title>lockOut1936855060</title>
<polygon fill="none" stroke="#000000" points="497,-244.75 375,-206.75 497,-168.75 619,-206.75 497,-244.75"/>
<text text-anchor="middle" x="497" y="-210.55" font-family="Times,serif" font-size="14.00" fill="#000000">lockOut</text>
<text text-anchor="middle" x="497" y="-195.55" font-family="Times,serif" font-size="14.00" fill="#000000">SIG(9qf...cV4Dnx)</text>
</g>
<!-- sum&#45;&gt;lockOut1936855060 -->
<g id="edge7" class="edge">
<title>sum&#45;&gt;lockOut1936855060</title>
<path fill="none" stroke="#000000" d="M616.8909,-330.5693C594.6303,-307.5793 559.167,-270.954 532.5744,-243.49"/>
<polygon fill="#000000" stroke="#000000" points="534.7981,-240.7551 525.3274,-236.0056 529.7692,-245.6244 534.7981,-240.7551"/>
<text text-anchor="middle" x="603" y="-296.3" font-family="Times,serif" font-size="14.00" fill="#000000">SIG</text>
</g>
<!-- input390740038 -->
<g id="node4" class="node">
<title>input390740038</title>
<ellipse fill="none" stroke="#000000" cx="638" cy="-615.7401" rx="64.189" ry="18"/>
<text text-anchor="middle" x="638" y="-612.0401" font-family="Times,serif" font-size="14.00" fill="#000000">amount: 14771</text>
</g>
<!-- unlock358970103 -->
<g id="node8" class="node">
<title>unlock358970103</title>
<polygon fill="none" stroke="#000000" points="638,-514.9901 584,-476.9901 638,-438.9901 692,-476.9901 638,-514.9901"/>
<text text-anchor="middle" x="638" y="-480.7901" font-family="Times,serif" font-size="14.00" fill="#000000">unlock</text>
<text text-anchor="middle" x="638" y="-465.7901" font-family="Times,serif" font-size="14.00" fill="#000000">SIG(0)</text>
</g>
<!-- input390740038&#45;&gt;unlock358970103 -->
<g id="edge1" class="edge">
<title>input390740038&#45;&gt;unlock358970103</title>
<path fill="none" stroke="#000000" d="M638,-597.601C638,-579.2655 638,-550.1417 638,-525.1065"/>
<polygon fill="#000000" stroke="#000000" points="641.5001,-525.0303 638,-515.0303 634.5001,-525.0303 641.5001,-525.0303"/>
</g>
<!-- thash390740038 -->
<g id="node5" class="node">
<title>thash390740038</title>
<ellipse fill="none" stroke="#000000" cx="442" cy="-615.7401" rx="113.9803" ry="18"/>
<text text-anchor="middle" x="442" y="-612.0401" font-family="Times,serif" font-size="14.00" fill="#000000">Thash: 86D011B...79FD32A</text>
</g>
<!-- tindex390740038 -->
<g id="node6" class="node">
<title>tindex390740038</title>
<ellipse fill="none" stroke="#000000" cx="265" cy="-615.7401" rx="44.6926" ry="18"/>
<text text-anchor="middle" x="265" y="-612.0401" font-family="Times,serif" font-size="14.00" fill="#000000">Tindex: 1</text>
</g>
<!-- dbu -->
<g id="node7" class="node">
<title>dbu</title>
<path fill="none" stroke="#000000" d="M773.5,-515.4458C773.5,-520.1611 759.3812,-523.9915 742,-523.9915 724.6188,-523.9915 710.5,-520.1611 710.5,-515.4458 710.5,-515.4458 710.5,-438.5345 710.5,-438.5345 710.5,-433.8191 724.6188,-429.9888 742,-429.9888 759.3812,-429.9888 773.5,-433.8191 773.5,-438.5345 773.5,-438.5345 773.5,-515.4458 773.5,-515.4458"/>
<path fill="none" stroke="#000000" d="M773.5,-515.4458C773.5,-510.7304 759.3812,-506.9001 742,-506.9001 724.6188,-506.9001 710.5,-510.7304 710.5,-515.4458"/>
<text text-anchor="middle" x="742" y="-495.7901" font-family="Times,serif" font-size="14.00" fill="#000000">useful</text>
<text text-anchor="middle" x="742" y="-480.7901" font-family="Times,serif" font-size="14.00" fill="#000000">for</text>
<text text-anchor="middle" x="742" y="-465.7901" font-family="Times,serif" font-size="14.00" fill="#000000">state</text>
<text text-anchor="middle" x="742" y="-450.7901" font-family="Times,serif" font-size="14.00" fill="#000000">machine</text>
</g>
<!-- unlock358970103&#45;&gt;sum -->
<g id="edge2" class="edge">
<title>unlock358970103&#45;&gt;sum</title>
<path fill="none" stroke="#000000" d="M638,-438.9228C638,-423.3365 638,-405.3525 638,-389.8295"/>
<polygon fill="#000000" stroke="#000000" points="641.5001,-389.5356 638,-379.5356 634.5001,-389.5357 641.5001,-389.5356"/>
</g>
<!-- dbo -->
<g id="node9" class="node">
<title>dbo</title>
<path fill="none" stroke="#000000" d="M968.5,-245.2056C968.5,-249.921 954.3812,-253.7513 937,-253.7513 919.6188,-253.7513 905.5,-249.921 905.5,-245.2056 905.5,-245.2056 905.5,-168.2944 905.5,-168.2944 905.5,-163.579 919.6188,-159.7487 937,-159.7487 954.3812,-159.7487 968.5,-163.579 968.5,-168.2944 968.5,-168.2944 968.5,-245.2056 968.5,-245.2056"/>
<path fill="none" stroke="#000000" d="M968.5,-245.2056C968.5,-240.4903 954.3812,-236.6599 937,-236.6599 919.6188,-236.6599 905.5,-240.4903 905.5,-245.2056"/>
<text text-anchor="middle" x="937" y="-225.55" font-family="Times,serif" font-size="14.00" fill="#000000">useful</text>
<text text-anchor="middle" x="937" y="-210.55" font-family="Times,serif" font-size="14.00" fill="#000000">for</text>
<text text-anchor="middle" x="937" y="-195.55" font-family="Times,serif" font-size="14.00" fill="#000000">state</text>
<text text-anchor="middle" x="937" y="-180.55" font-family="Times,serif" font-size="14.00" fill="#000000">machine</text>
</g>
<!-- amountOut1295921550 -->
<g id="node12" class="node">
<title>amountOut1295921550</title>
<polygon fill="none" stroke="#000000" points="789,-103 735,-103 735,-79 789,-79 789,-103"/>
<polyline fill="none" stroke="#000000" points="738,-92.5 741,-89.5 "/>
<polyline fill="none" stroke="#000000" points="738,-89.5 741,-92.5 "/>
<polyline fill="none" stroke="#000000" points="738,-82 786,-82 "/>
<text text-anchor="middle" x="762" y="-87.3" font-family="Times,serif" font-size="14.00" fill="#000000">2004</text>
</g>
<!-- lockOut1295921550&#45;&gt;amountOut1295921550 -->
<g id="edge6" class="edge">
<title>lockOut1295921550&#45;&gt;amountOut1295921550</title>
<path fill="none" stroke="#000000" d="M762,-168.5283C762,-152.4197 762,-134.006 762,-119.1671"/>
<polygon fill="#000000" stroke="#000000" points="765.5001,-119.078 762,-109.078 758.5001,-119.078 765.5001,-119.078"/>
</g>
<!-- amountOut1936855060 -->
<g id="node14" class="node">
<title>amountOut1936855060</title>
<polygon fill="none" stroke="#000000" points="524,-103 470,-103 470,-79 524,-79 524,-103"/>
<polyline fill="none" stroke="#000000" points="473,-92.5 476,-89.5 "/>
<polyline fill="none" stroke="#000000" points="473,-89.5 476,-92.5 "/>
<polyline fill="none" stroke="#000000" points="473,-82 521,-82 "/>
<text text-anchor="middle" x="497" y="-87.3" font-family="Times,serif" font-size="14.00" fill="#000000">12767</text>
</g>
<!-- lockOut1936855060&#45;&gt;amountOut1936855060 -->
<g id="edge10" class="edge">
<title>lockOut1936855060&#45;&gt;amountOut1936855060</title>
<path fill="none" stroke="#000000" d="M497,-168.5283C497,-152.4197 497,-134.006 497,-119.1671"/>
<polygon fill="#000000" stroke="#000000" points="500.5001,-119.078 497,-109.078 493.5001,-119.078 500.5001,-119.078"/>
</g>
<!-- amountOut1295921550&#45;&gt;_destFnZKoCVFCp4D5hVAmZJaZMYmsLvByLPon9iHRDGyFaPy -->
<g id="edge4" class="edge">
<title>amountOut1295921550&#45;&gt;_destFnZKoCVFCp4D5hVAmZJaZMYmsLvByLPon9iHRDGyFaPy</title>
<path fill="none" stroke="#000000" d="M734.7105,-83.1877C695.2795,-71.8996 621.3043,-50.7224 568.3646,-35.5671"/>
<polygon fill="#000000" stroke="#000000" points="569.3146,-32.1985 558.7374,-32.8111 567.388,-38.9282 569.3146,-32.1985"/>
</g>
<!-- _dest9qf8TCzcLhPXdibFWWQxKLk1fuHgTG3hoJSBMLcV4Dnx -->
<g id="node15" class="node">
<title>_dest9qf8TCzcLhPXdibFWWQxKLk1fuHgTG3hoJSBMLcV4Dnx</title>
<ellipse fill="none" stroke="#000000" cx="314" cy="-18" rx="84.485" ry="18"/>
<text text-anchor="middle" x="314" y="-14.3" font-family="Times,serif" font-size="14.00" fill="#000000">9qf8TCz...LcV4Dnx</text>
</g>
<!-- amountOut1936855060&#45;&gt;_dest9qf8TCzcLhPXdibFWWQxKLk1fuHgTG3hoJSBMLcV4Dnx -->
<g id="edge8" class="edge">
<title>amountOut1936855060&#45;&gt;_dest9qf8TCzcLhPXdibFWWQxKLk1fuHgTG3hoJSBMLcV4Dnx</title>
<path fill="none" stroke="#000000" d="M469.9977,-80.2286C442.0071,-69.0629 397.6323,-51.3615 363.3547,-37.6879"/>
<polygon fill="#000000" stroke="#000000" points="364.5615,-34.4012 353.9764,-33.9469 361.9678,-40.903 364.5615,-34.4012"/>
</g>
<!-- _9qf8TCzcLhPXdibFWWQxKLk1fuHgTG3hoJSBMLcV4Dnx -->
<g id="node16" class="node">
<title>_9qf8TCzcLhPXdibFWWQxKLk1fuHgTG3hoJSBMLcV4Dnx</title>
<ellipse fill="none" stroke="#000000" cx="440" cy="-476.9901" rx="91.8478" ry="26.7407"/>
<text text-anchor="middle" x="440" y="-480.7901" font-family="Times,serif" font-size="14.00" fill="#000000">issuer</text>
<text text-anchor="middle" x="440" y="-465.7901" font-family="Times,serif" font-size="14.00" fill="#000000">9qf8TCz...LcV4Dnx</text>
</g>
<!-- _9qf8TCzcLhPXdibFWWQxKLk1fuHgTG3hoJSBMLcV4Dnx&#45;&gt;good -->
<g id="edge12" class="edge">
<title>_9qf8TCzcLhPXdibFWWQxKLk1fuHgTG3hoJSBMLcV4Dnx&#45;&gt;good</title>
<path fill="none" stroke="#000000" d="M452.8715,-450.256C461.6109,-432.1043 473.2668,-407.895 482.8001,-388.0943"/>
<polygon fill="#000000" stroke="#000000" points="485.9652,-389.5884 487.1498,-379.06 479.6582,-386.5517 485.9652,-389.5884"/>
<text text-anchor="middle" x="487.5" y="-401.0401" font-family="Times,serif" font-size="14.00" fill="#000000">buy</text>
</g>
<!-- _9qf8TCzcLhPXdibFWWQxKLk1fuHgTG3hoJSBMLcV4Dnx&#45;&gt;unlock358970103 -->
<g id="edge11" class="edge">
<title>_9qf8TCzcLhPXdibFWWQxKLk1fuHgTG3hoJSBMLcV4Dnx&#45;&gt;unlock358970103</title>
<path fill="none" stroke="#000000" d="M532.0391,-476.9901C545.9169,-476.9901 559.7947,-476.9901 573.6726,-476.9901"/>
<polygon fill="#000000" stroke="#000000" points="573.7778,-480.4902 583.7778,-476.9901 573.7778,-473.4902 573.7778,-480.4902"/>
</g>
<!-- _9qf8TCzcLhPXdibFWWQxKLk1fuHgTG3hoJSBMLcV4Dnx&#45;&gt;_dest9qf8TCzcLhPXdibFWWQxKLk1fuHgTG3hoJSBMLcV4Dnx -->
<g id="edge9" class="edge">
<title>_9qf8TCzcLhPXdibFWWQxKLk1fuHgTG3hoJSBMLcV4Dnx&#45;&gt;_dest9qf8TCzcLhPXdibFWWQxKLk1fuHgTG3hoJSBMLcV4Dnx</title>
<path fill="none" stroke="#000000" d="M405.3536,-443.9757C370.7705,-408.4079 319.859,-348.2749 299,-284.5 269.7563,-195.0895 296.3233,-79.9034 308.5771,-36.0415"/>
<polygon fill="#000000" stroke="#000000" points="402.9532,-446.5262 412.4687,-451.1851 407.9354,-441.6091 402.9532,-446.5262"/>
<text text-anchor="middle" x="319" y="-203.05" font-family="Times,serif" font-size="14.00" fill="#000000">the rest</text>
</g>
</g>
</svg>
