<?xml version="1.0" encoding="UTF-8" standalone="no"?>
<!DOCTYPE svg PUBLIC "-//W3C//DTD SVG 1.1//EN"
 "http://www.w3.org/Graphics/SVG/1.1/DTD/svg11.dtd">
<!-- Generated by graphviz version 2.40.1 (20161225.0304)
 -->
<!-- Title: %3 Pages: 1 -->
<svg width="1233pt" height="712pt"
 viewBox="0.00 0.00 1233.00 711.74" xmlns="http://www.w3.org/2000/svg" xmlns:xlink="http://www.w3.org/1999/xlink">
<g id="graph0" class="graph" transform="scale(1 1) rotate(0) translate(4 707.7401)">
<title>%3</title>
<polygon fill="#ffffff" stroke="transparent" points="-4,4 -4,-707.7401 1229,-707.7401 1229,4 -4,4"/>
<g id="clust2" class="cluster">
<title>cluster_inputs</title>
<polygon fill="none" stroke="#0000ff" points="204,-581.7401 204,-695.7401 1217,-695.7401 1217,-581.7401 204,-581.7401"/>
<text text-anchor="middle" x="710.5" y="-680.5401" font-family="Times,serif" font-size="14.00" fill="#000000">Inputs</text>
</g>
<g id="clust3" class="cluster">
<title>cluster_input1492267418</title>
<polygon fill="none" stroke="#0000ff" points="212,-589.7401 212,-664.7401 698,-664.7401 698,-589.7401 212,-589.7401"/>
<text text-anchor="middle" x="455" y="-649.5401" font-family="Times,serif" font-size="14.00" fill="#000000">TxInput</text>
</g>
<g id="clust4" class="cluster">
<title>cluster_input96243379</title>
<polygon fill="none" stroke="#0000ff" points="706,-589.7401 706,-664.7401 1209,-664.7401 1209,-589.7401 706,-589.7401"/>
<text text-anchor="middle" x="957.5" y="-649.5401" font-family="Times,serif" font-size="14.00" fill="#000000">TxInput</text>
</g>
<g id="clust5" class="cluster">
<title>cluster_unlocks</title>
<polygon fill="none" stroke="#0000ff" points="713,-422.2401 713,-554.7401 1045,-554.7401 1045,-422.2401 713,-422.2401"/>
<text text-anchor="middle" x="879" y="-539.5401" font-family="Times,serif" font-size="14.00" fill="#000000">Unlocks</text>
</g>
<g id="clust6" class="cluster">
<title>cluster_outputs</title>
<polygon fill="none" stroke="#0000ff" points="589,-152 589,-284.5 1203,-284.5 1203,-152 589,-152"/>
<text text-anchor="middle" x="896" y="-269.3" font-family="Times,serif" font-size="14.00" fill="#000000">Outputs</text>
</g>
<!-- info -->
<g id="node1" class="node">
<title>info</title>
<g id="a_node1"><a xlink:href="/graphviz/svg/block/127126" xlink:title="blockstamp: 127126&#45;...E599EC3\lCur: g1\lhash: DB7C58C...25C6286\llocktime: 0\l">
<polygon fill="none" stroke="#000000" points="196,-649.7401 193,-653.7401 172,-653.7401 169,-649.7401 0,-649.7401 0,-581.7401 196,-581.7401 196,-649.7401"/>
<text text-anchor="start" x="8" y="-634.5401" font-family="Times,serif" font-size="14.00" fill="#000000">blockstamp: 127126&#45;...E599EC3</text>
<text text-anchor="start" x="8" y="-619.5401" font-family="Times,serif" font-size="14.00" fill="#000000">Cur: g1</text>
<text text-anchor="start" x="8" y="-604.5401" font-family="Times,serif" font-size="14.00" fill="#000000">hash: DB7C58C...25C6286</text>
<text text-anchor="start" x="8" y="-589.5401" font-family="Times,serif" font-size="14.00" fill="#000000">locktime: 0</text>
</a>
</g>
</g>
<!-- good -->
<g id="node2" class="node">
<title>good</title>
<ellipse fill="none" stroke="#000000" cx="643" cy="-352.3701" rx="66.8882" ry="18"/>
<text text-anchor="middle" x="643" y="-348.6701" font-family="Times,serif" font-size="14.00" fill="#000000">Product/Service</text>
</g>
<!-- _dest2uk8xhPMuVvQtM8gQE9q5V8PDZoFBJUBx3SKtkVKp732 -->
<g id="node17" class="node">
<title>_dest2uk8xhPMuVvQtM8gQE9q5V8PDZoFBJUBx3SKtkVKp732</title>
<ellipse fill="none" stroke="#000000" cx="556" cy="-18" rx="83.6854" ry="18"/>
<text text-anchor="middle" x="556" y="-14.3" font-family="Times,serif" font-size="14.00" fill="#000000">2uk8xhP...kVKp732</text>
</g>
<!-- good&#45;&gt;_dest2uk8xhPMuVvQtM8gQE9q5V8PDZoFBJUBx3SKtkVKp732 -->
<g id="edge7" class="edge">
<title>good&#45;&gt;_dest2uk8xhPMuVvQtM8gQE9q5V8PDZoFBJUBx3SKtkVKp732</title>
<path fill="none" stroke="#000000" d="M594.7883,-339.8448C566.7901,-329.8231 533.8161,-312.6585 517,-284.5 470.9396,-207.372 515.9768,-95.9164 541.322,-45.0942"/>
<polygon fill="#000000" stroke="#000000" points="544.5107,-46.5458 545.9474,-36.0488 538.2783,-43.3588 544.5107,-46.5458"/>
<text text-anchor="middle" x="517.5" y="-130.8" font-family="Times,serif" font-size="14.00" fill="#000000">sell</text>
</g>
<!-- sum -->
<g id="node3" class="node">
<title>sum</title>
<ellipse fill="none" stroke="#000000" cx="828" cy="-352.3701" rx="35.2113" ry="26.7407"/>
<text text-anchor="middle" x="828" y="-356.1701" font-family="Times,serif" font-size="14.00" fill="#000000">sum</text>
<text text-anchor="middle" x="828" y="-341.1701" font-family="Times,serif" font-size="14.00" fill="#000000">23006</text>
</g>
<!-- lockOut1712282018 -->
<g id="node14" class="node">
<title>lockOut1712282018</title>
<polygon fill="none" stroke="#000000" points="722,-244.75 597,-206.75 722,-168.75 847,-206.75 722,-244.75"/>
<text text-anchor="middle" x="722" y="-210.55" font-family="Times,serif" font-size="14.00" fill="#000000">lockOut</text>
<text text-anchor="middle" x="722" y="-195.55" font-family="Times,serif" font-size="14.00" fill="#000000">SIG(2uk...VKp732)</text>
</g>
<!-- sum&#45;&gt;lockOut1712282018 -->
<g id="edge5" class="edge">
<title>sum&#45;&gt;lockOut1712282018</title>
<path fill="none" stroke="#000000" d="M810.7334,-328.6496C794.535,-306.3967 770.0011,-272.6927 750.8333,-246.3605"/>
<polygon fill="#000000" stroke="#000000" points="753.5309,-244.119 744.816,-238.094 747.8714,-248.2387 753.5309,-244.119"/>
<text text-anchor="middle" x="804" y="-296.3" font-family="Times,serif" font-size="14.00" fill="#000000">SIG</text>
</g>
<!-- lockOut24459964 -->
<g id="node15" class="node">
<title>lockOut24459964</title>
<polygon fill="none" stroke="#000000" points="989,-244.75 865,-206.75 989,-168.75 1113,-206.75 989,-244.75"/>
<text text-anchor="middle" x="989" y="-210.55" font-family="Times,serif" font-size="14.00" fill="#000000">lockOut</text>
<text text-anchor="middle" x="989" y="-195.55" font-family="Times,serif" font-size="14.00" fill="#000000">SIG(8ys...qWq73e)</text>
</g>
<!-- sum&#45;&gt;lockOut24459964 -->
<g id="edge9" class="edge">
<title>sum&#45;&gt;lockOut24459964</title>
<path fill="none" stroke="#000000" d="M851.0674,-331.5063C876.7975,-308.2341 918.8617,-270.1881 949.7835,-242.2202"/>
<polygon fill="#000000" stroke="#000000" points="952.3195,-244.6458 957.3882,-235.342 947.6239,-239.4542 952.3195,-244.6458"/>
<text text-anchor="middle" x="905" y="-296.3" font-family="Times,serif" font-size="14.00" fill="#000000">SIG</text>
</g>
<!-- input1492267418 -->
<g id="node4" class="node">
<title>input1492267418</title>
<ellipse fill="none" stroke="#000000" cx="630" cy="-615.7401" rx="59.5901" ry="18"/>
<text text-anchor="middle" x="630" y="-612.0401" font-family="Times,serif" font-size="14.00" fill="#000000">amount: 3006</text>
</g>
<!-- unlock1011859914 -->
<g id="node11" class="node">
<title>unlock1011859914</title>
<polygon fill="none" stroke="#000000" points="775,-514.9901 721,-476.9901 775,-438.9901 829,-476.9901 775,-514.9901"/>
<text text-anchor="middle" x="775" y="-480.7901" font-family="Times,serif" font-size="14.00" fill="#000000">unlock</text>
<text text-anchor="middle" x="775" y="-465.7901" font-family="Times,serif" font-size="14.00" fill="#000000">SIG(0)</text>
</g>
<!-- input1492267418&#45;&gt;unlock1011859914 -->
<g id="edge1" class="edge">
<title>input1492267418&#45;&gt;unlock1011859914</title>
<path fill="none" stroke="#000000" d="M648.5726,-598.4719C661.6174,-586.304 679.4434,-569.5971 695,-554.7401 711.5788,-538.9068 729.9295,-521.0933 744.8692,-506.5157"/>
<polygon fill="#000000" stroke="#000000" points="747.6353,-508.7064 752.3433,-499.2151 742.744,-503.6989 747.6353,-508.7064"/>
</g>
<!-- thash1492267418 -->
<g id="node5" class="node">
<title>thash1492267418</title>
<ellipse fill="none" stroke="#000000" cx="440" cy="-615.7401" rx="112.3801" ry="18"/>
<text text-anchor="middle" x="440" y="-612.0401" font-family="Times,serif" font-size="14.00" fill="#000000">Thash: C57A23E...FC9178F</text>
</g>
<!-- tindex1492267418 -->
<g id="node6" class="node">
<title>tindex1492267418</title>
<ellipse fill="none" stroke="#000000" cx="265" cy="-615.7401" rx="44.6926" ry="18"/>
<text text-anchor="middle" x="265" y="-612.0401" font-family="Times,serif" font-size="14.00" fill="#000000">Tindex: 0</text>
</g>
<!-- input96243379 -->
<g id="node7" class="node">
<title>input96243379</title>
<ellipse fill="none" stroke="#000000" cx="1137" cy="-615.7401" rx="64.189" ry="18"/>
<text text-anchor="middle" x="1137" y="-612.0401" font-family="Times,serif" font-size="14.00" fill="#000000">amount: 20000</text>
</g>
<!-- unlock55351853 -->
<g id="node12" class="node">
<title>unlock55351853</title>
<polygon fill="none" stroke="#000000" points="901,-514.9901 847,-476.9901 901,-438.9901 955,-476.9901 901,-514.9901"/>
<text text-anchor="middle" x="901" y="-480.7901" font-family="Times,serif" font-size="14.00" fill="#000000">unlock</text>
<text text-anchor="middle" x="901" y="-465.7901" font-family="Times,serif" font-size="14.00" fill="#000000">SIG(0)</text>
</g>
<!-- input96243379&#45;&gt;unlock55351853 -->
<g id="edge2" class="edge">
<title>input96243379&#45;&gt;unlock55351853</title>
<path fill="none" stroke="#000000" d="M1105.4197,-599.8625C1092.4714,-593.7144 1077.2121,-586.9242 1063,-581.7401 1020.557,-566.2585 1002.9018,-579.3275 965,-554.7401 948.4478,-544.0025 934.0519,-527.6227 923.1277,-512.6619"/>
<polygon fill="#000000" stroke="#000000" points="925.7122,-510.2511 917.1069,-504.0705 919.9797,-514.2684 925.7122,-510.2511"/>
</g>
<!-- thash96243379 -->
<g id="node8" class="node">
<title>thash96243379</title>
<ellipse fill="none" stroke="#000000" cx="938" cy="-615.7401" rx="116.1796" ry="18"/>
<text text-anchor="middle" x="938" y="-612.0401" font-family="Times,serif" font-size="14.00" fill="#000000">Thash: B915B0F...DBC486D</text>
</g>
<!-- tindex96243379 -->
<g id="node9" class="node">
<title>tindex96243379</title>
<ellipse fill="none" stroke="#000000" cx="759" cy="-615.7401" rx="44.6926" ry="18"/>
<text text-anchor="middle" x="759" y="-612.0401" font-family="Times,serif" font-size="14.00" fill="#000000">Tindex: 0</text>
</g>
<!-- dbu -->
<g id="node10" class="node">
<title>dbu</title>
<path fill="none" stroke="#000000" d="M1036.5,-515.4458C1036.5,-520.1611 1022.3812,-523.9915 1005,-523.9915 987.6188,-523.9915 973.5,-520.1611 973.5,-515.4458 973.5,-515.4458 973.5,-438.5345 973.5,-438.5345 973.5,-433.8191 987.6188,-429.9888 1005,-429.9888 1022.3812,-429.9888 1036.5,-433.8191 1036.5,-438.5345 1036.5,-438.5345 1036.5,-515.4458 1036.5,-515.4458"/>
<path fill="none" stroke="#000000" d="M1036.5,-515.4458C1036.5,-510.7304 1022.3812,-506.9001 1005,-506.9001 987.6188,-506.9001 973.5,-510.7304 973.5,-515.4458"/>
<text text-anchor="middle" x="1005" y="-495.7901" font-family="Times,serif" font-size="14.00" fill="#000000">useful</text>
<text text-anchor="middle" x="1005" y="-480.7901" font-family="Times,serif" font-size="14.00" fill="#000000">for</text>
<text text-anchor="middle" x="1005" y="-465.7901" font-family="Times,serif" font-size="14.00" fill="#000000">state</text>
<text text-anchor="middle" x="1005" y="-450.7901" font-family="Times,serif" font-size="14.00" fill="#000000">machine</text>
</g>
<!-- unlock1011859914&#45;&gt;sum -->
<g id="edge3" class="edge">
<title>unlock1011859914&#45;&gt;sum</title>
<path fill="none" stroke="#000000" d="M787.5603,-447.4569C795.1719,-429.5596 804.9284,-406.6187 812.9512,-387.7545"/>
<polygon fill="#000000" stroke="#000000" points="816.2751,-388.8818 816.9681,-378.3097 809.8335,-386.1422 816.2751,-388.8818"/>
</g>
<!-- unlock55351853&#45;&gt;sum -->
<g id="edge4" class="edge">
<title>unlock55351853&#45;&gt;sum</title>
<path fill="none" stroke="#000000" d="M885.1601,-449.9494C874.1781,-431.2019 859.4756,-406.1028 847.732,-386.055"/>
<polygon fill="#000000" stroke="#000000" points="850.643,-384.0998 842.5685,-377.2402 844.603,-387.6379 850.643,-384.0998"/>
</g>
<!-- dbo -->
<g id="node13" class="node">
<title>dbo</title>
<path fill="none" stroke="#000000" d="M1194.5,-245.2056C1194.5,-249.921 1180.3812,-253.7513 1163,-253.7513 1145.6188,-253.7513 1131.5,-249.921 1131.5,-245.2056 1131.5,-245.2056 1131.5,-168.2944 1131.5,-168.2944 1131.5,-163.579 1145.6188,-159.7487 1163,-159.7487 1180.3812,-159.7487 1194.5,-163.579 1194.5,-168.2944 1194.5,-168.2944 1194.5,-245.2056 1194.5,-245.2056"/>
<path fill="none" stroke="#000000" d="M1194.5,-245.2056C1194.5,-240.4903 1180.3812,-236.6599 1163,-236.6599 1145.6188,-236.6599 1131.5,-240.4903 1131.5,-245.2056"/>
<text text-anchor="middle" x="1163" y="-225.55" font-family="Times,serif" font-size="14.00" fill="#000000">useful</text>
<text text-anchor="middle" x="1163" y="-210.55" font-family="Times,serif" font-size="14.00" fill="#000000">for</text>
<text text-anchor="middle" x="1163" y="-195.55" font-family="Times,serif" font-size="14.00" fill="#000000">state</text>
<text text-anchor="middle" x="1163" y="-180.55" font-family="Times,serif" font-size="14.00" fill="#000000">machine</text>
</g>
<!-- amountOut1712282018 -->
<g id="node16" class="node">
<title>amountOut1712282018</title>
<polygon fill="none" stroke="#000000" points="749,-103 695,-103 695,-79 749,-79 749,-103"/>
<polyline fill="none" stroke="#000000" points="698,-92.5 701,-89.5 "/>
<polyline fill="none" stroke="#000000" points="698,-89.5 701,-92.5 "/>
<polyline fill="none" stroke="#000000" points="698,-82 746,-82 "/>
<text text-anchor="middle" x="722" y="-87.3" font-family="Times,serif" font-size="14.00" fill="#000000">12000</text>
</g>
<!-- lockOut1712282018&#45;&gt;amountOut1712282018 -->
<g id="edge8" class="edge">
<title>lockOut1712282018&#45;&gt;amountOut1712282018</title>
<path fill="none" stroke="#000000" d="M722,-168.5283C722,-152.4197 722,-134.006 722,-119.1671"/>
<polygon fill="#000000" stroke="#000000" points="725.5001,-119.078 722,-109.078 718.5001,-119.078 725.5001,-119.078"/>
</g>
<!-- amountOut24459964 -->
<g id="node18" class="node">
<title>amountOut24459964</title>
<polygon fill="none" stroke="#000000" points="1016,-103 962,-103 962,-79 1016,-79 1016,-103"/>
<polyline fill="none" stroke="#000000" points="965,-92.5 968,-89.5 "/>
<polyline fill="none" stroke="#000000" points="965,-89.5 968,-92.5 "/>
<polyline fill="none" stroke="#000000" points="965,-82 1013,-82 "/>
<text text-anchor="middle" x="989" y="-87.3" font-family="Times,serif" font-size="14.00" fill="#000000">11006</text>
</g>
<!-- lockOut24459964&#45;&gt;amountOut24459964 -->
<g id="edge12" class="edge">
<title>lockOut24459964&#45;&gt;amountOut24459964</title>
<path fill="none" stroke="#000000" d="M989,-168.5283C989,-152.4197 989,-134.006 989,-119.1671"/>
<polygon fill="#000000" stroke="#000000" points="992.5001,-119.078 989,-109.078 985.5001,-119.078 992.5001,-119.078"/>
</g>
<!-- amountOut1712282018&#45;&gt;_dest2uk8xhPMuVvQtM8gQE9q5V8PDZoFBJUBx3SKtkVKp732 -->
<g id="edge6" class="edge">
<title>amountOut1712282018&#45;&gt;_dest2uk8xhPMuVvQtM8gQE9q5V8PDZoFBJUBx3SKtkVKp732</title>
<path fill="none" stroke="#000000" d="M694.9598,-79.1088C669.9242,-68.0992 632.1738,-51.4981 602.3355,-38.3765"/>
<polygon fill="#000000" stroke="#000000" points="603.5148,-35.0716 592.9519,-34.2499 600.6969,-41.4794 603.5148,-35.0716"/>
</g>
<!-- _dest8ysx7yQe47ffx379Evv3R6Qys86ekmVxwYTiVTqWq73e -->
<g id="node19" class="node">
<title>_dest8ysx7yQe47ffx379Evv3R6Qys86ekmVxwYTiVTqWq73e</title>
<ellipse fill="none" stroke="#000000" cx="743" cy="-18" rx="85.2851" ry="18"/>
<text text-anchor="middle" x="743" y="-14.3" font-family="Times,serif" font-size="14.00" fill="#000000">8ysx7yQ...TqWq73e</text>
</g>
<!-- amountOut24459964&#45;&gt;_dest8ysx7yQe47ffx379Evv3R6Qys86ekmVxwYTiVTqWq73e -->
<g id="edge10" class="edge">
<title>amountOut24459964&#45;&gt;_dest8ysx7yQe47ffx379Evv3R6Qys86ekmVxwYTiVTqWq73e</title>
<path fill="none" stroke="#000000" d="M961.7338,-82.9088C923.5013,-71.5634 852.9738,-50.6345 802.3295,-35.6059"/>
<polygon fill="#000000" stroke="#000000" points="803.0638,-32.173 792.4812,-32.6835 801.0723,-38.8838 803.0638,-32.173"/>
</g>
<!-- _8ysx7yQe47ffx379Evv3R6Qys86ekmVxwYTiVTqWq73e -->
<g id="node20" class="node">
<title>_8ysx7yQe47ffx379Evv3R6Qys86ekmVxwYTiVTqWq73e</title>
<ellipse fill="none" stroke="#000000" cx="593" cy="-476.9901" rx="92.7622" ry="26.7407"/>
<text text-anchor="middle" x="593" y="-480.7901" font-family="Times,serif" font-size="14.00" fill="#000000">issuer</text>
<text text-anchor="middle" x="593" y="-465.7901" font-family="Times,serif" font-size="14.00" fill="#000000">8ysx7yQ...TqWq73e</text>
</g>
<!-- _8ysx7yQe47ffx379Evv3R6Qys86ekmVxwYTiVTqWq73e&#45;&gt;good -->
<g id="edge14" class="edge">
<title>_8ysx7yQe47ffx379Evv3R6Qys86ekmVxwYTiVTqWq73e&#45;&gt;good</title>
<path fill="none" stroke="#000000" d="M603.7263,-450.256C612.0495,-429.5112 623.5471,-400.8545 631.951,-379.9087"/>
<polygon fill="#000000" stroke="#000000" points="635.2107,-381.1835 635.6861,-370.5993 628.714,-378.5769 635.2107,-381.1835"/>
<text text-anchor="middle" x="633.5" y="-401.0401" font-family="Times,serif" font-size="14.00" fill="#000000">buy</text>
</g>
<!-- _8ysx7yQe47ffx379Evv3R6Qys86ekmVxwYTiVTqWq73e&#45;&gt;unlock1011859914 -->
<g id="edge13" class="edge">
<title>_8ysx7yQe47ffx379Evv3R6Qys86ekmVxwYTiVTqWq73e&#45;&gt;unlock1011859914</title>
<path fill="none" stroke="#000000" d="M685.7773,-476.9901C694.1193,-476.9901 702.4612,-476.9901 710.8031,-476.9901"/>
<polygon fill="#000000" stroke="#000000" points="710.9785,-480.4902 720.9785,-476.9901 710.9784,-473.4902 710.9785,-480.4902"/>
</g>
<!-- _8ysx7yQe47ffx379Evv3R6Qys86ekmVxwYTiVTqWq73e&#45;&gt;_dest8ysx7yQe47ffx379Evv3R6Qys86ekmVxwYTiVTqWq73e -->
<g id="edge11" class="edge">
<title>_8ysx7yQe47ffx379Evv3R6Qys86ekmVxwYTiVTqWq73e&#45;&gt;_dest8ysx7yQe47ffx379Evv3R6Qys86ekmVxwYTiVTqWq73e</title>
<path fill="none" stroke="#000000" d="M646.0181,-447.9043C694.3086,-417.6561 753.2548,-368.7644 719,-325.5 669.6811,-263.2093 594.3189,-346.7907 545,-284.5 508.445,-238.3304 517.3937,-204.0172 545,-152 577.3003,-91.1381 650.9645,-52.8633 698.7674,-33.4737"/>
<polygon fill="#000000" stroke="#000000" points="644.1583,-444.939 637.4576,-453.1458 647.8136,-450.9089 644.1583,-444.939"/>
<text text-anchor="middle" x="565" y="-203.05" font-family="Times,serif" font-size="14.00" fill="#000000">the rest</text>
</g>
</g>
</svg>
