<?xml version="1.0" encoding="UTF-8" standalone="no"?>
<!DOCTYPE svg PUBLIC "-//W3C//DTD SVG 1.1//EN"
 "http://www.w3.org/Graphics/SVG/1.1/DTD/svg11.dtd">
<!-- Generated by graphviz version 2.40.1 (20161225.0304)
 -->
<!-- Title: %3 Pages: 1 -->
<svg width="1409pt" height="672pt"
 viewBox="0.00 0.00 1409.00 672.14" xmlns="http://www.w3.org/2000/svg" xmlns:xlink="http://www.w3.org/1999/xlink">
<g id="graph0" class="graph" transform="scale(1 1) rotate(0) translate(4 668.138)">
<title>%3</title>
<polygon fill="#ffffff" stroke="transparent" points="-4,4 -4,-668.138 1405,-668.138 1405,4 -4,4"/>
<g id="clust2" class="cluster">
<title>cluster_inputs</title>
<polygon fill="none" stroke="#0000ff" points="298,-570.3422 298,-656.138 945,-656.138 945,-570.3422 298,-570.3422"/>
<text text-anchor="middle" x="621.5" y="-640.938" font-family="Times,serif" font-size="14.00" fill="#000000">Inputs</text>
</g>
<g id="clust3" class="cluster">
<title>cluster_unlocks</title>
<polygon fill="none" stroke="#0000ff" points="8,-408.2401 8,-540.7401 1348,-540.7401 1348,-408.2401 8,-408.2401"/>
<text text-anchor="middle" x="678" y="-525.5401" font-family="Times,serif" font-size="14.00" fill="#000000">Unlocks</text>
</g>
<g id="clust4" class="cluster">
<title>cluster_outputs</title>
<polygon fill="none" stroke="#0000ff" points="487,-152 487,-284.5 817,-284.5 817,-152 487,-152"/>
<text text-anchor="middle" x="652" y="-269.3" font-family="Times,serif" font-size="14.00" fill="#000000">Outputs</text>
</g>
<!-- info -->
<g id="node1" class="node">
<title>info</title>
<g id="a_node1"><a xlink:href="/graphviz/svg/block/114357" xlink:title="blockstamp: 114357&#45;...AEF5A44\lCur: g1\lhash: DF6D377...72EADE7\llocktime: 0\l">
<polygon fill="none" stroke="#000000" points="287.5,-635.7401 284.5,-639.7401 263.5,-639.7401 260.5,-635.7401 88.5,-635.7401 88.5,-567.7401 287.5,-567.7401 287.5,-635.7401"/>
<text text-anchor="start" x="96.5" y="-620.5401" font-family="Times,serif" font-size="14.00" fill="#000000">blockstamp: 114357&#45;...AEF5A44</text>
<text text-anchor="start" x="96.5" y="-605.5401" font-family="Times,serif" font-size="14.00" fill="#000000">Cur: g1</text>
<text text-anchor="start" x="96.5" y="-590.5401" font-family="Times,serif" font-size="14.00" fill="#000000">hash: DF6D377...72EADE7</text>
<text text-anchor="start" x="96.5" y="-575.5401" font-family="Times,serif" font-size="14.00" fill="#000000">locktime: 0</text>
</a>
</g>
</g>
<!-- good -->
<g id="node2" class="node">
<title>good</title>
<ellipse fill="none" stroke="#000000" cx="1004" cy="-352.3701" rx="66.8882" ry="18"/>
<text text-anchor="middle" x="1004" y="-348.6701" font-family="Times,serif" font-size="14.00" fill="#000000">Product/Service</text>
</g>
<!-- _destJ1j7mGe5TaQ8fvr3xhdUVDWGWKttpeF2dqYMdVEo9qo5 -->
<g id="node28" class="node">
<title>_destJ1j7mGe5TaQ8fvr3xhdUVDWGWKttpeF2dqYMdVEo9qo5</title>
<ellipse fill="none" stroke="#000000" cx="638" cy="-18" rx="83.6854" ry="18"/>
<text text-anchor="middle" x="638" y="-14.3" font-family="Times,serif" font-size="14.00" fill="#000000">J1j7mGe...VEo9qo5</text>
</g>
<!-- good&#45;&gt;_destJ1j7mGe5TaQ8fvr3xhdUVDWGWKttpeF2dqYMdVEo9qo5 -->
<g id="edge23" class="edge">
<title>good&#45;&gt;_destJ1j7mGe5TaQ8fvr3xhdUVDWGWKttpeF2dqYMdVEo9qo5</title>
<path fill="none" stroke="#000000" d="M989.8801,-334.6725C960.4859,-298.3615 889.7246,-213.671 821,-152 772.9758,-108.9048 711.4532,-66.0773 673.3889,-40.8316"/>
<polygon fill="#000000" stroke="#000000" points="674.9811,-37.6892 664.7055,-35.1078 671.1286,-43.5337 674.9811,-37.6892"/>
<text text-anchor="middle" x="817.5" y="-130.8" font-family="Times,serif" font-size="14.00" fill="#000000">sell</text>
</g>
<!-- sum -->
<g id="node3" class="node">
<title>sum</title>
<ellipse fill="none" stroke="#000000" cx="611" cy="-352.3701" rx="35.2113" ry="26.7407"/>
<text text-anchor="middle" x="611" y="-356.1701" font-family="Times,serif" font-size="14.00" fill="#000000">sum</text>
<text text-anchor="middle" x="611" y="-341.1701" font-family="Times,serif" font-size="14.00" fill="#000000">10000</text>
</g>
<!-- lockOut1211063564 -->
<g id="node26" class="node">
<title>lockOut1211063564</title>
<polygon fill="none" stroke="#000000" points="611,-244.75 495,-206.75 611,-168.75 727,-206.75 611,-244.75"/>
<text text-anchor="middle" x="611" y="-210.55" font-family="Times,serif" font-size="14.00" fill="#000000">lockOut</text>
<text text-anchor="middle" x="611" y="-195.55" font-family="Times,serif" font-size="14.00" fill="#000000">SIG(J1j...Eo9qo5)</text>
</g>
<!-- sum&#45;&gt;lockOut1211063564 -->
<g id="edge21" class="edge">
<title>sum&#45;&gt;lockOut1211063564</title>
<path fill="none" stroke="#000000" d="M611,-325.3213C611,-305.6182 611,-278.3963 611,-255.0045"/>
<polygon fill="#000000" stroke="#000000" points="614.5001,-254.9081 611,-244.9081 607.5001,-254.9082 614.5001,-254.9081"/>
<text text-anchor="middle" x="622" y="-296.3" font-family="Times,serif" font-size="14.00" fill="#000000">SIG</text>
</g>
<!-- input2034746041 -->
<g id="node4" class="node">
<title>input2034746041</title>
<g id="a_node4"><a xlink:href="/graphviz/svg/block/49848" xlink:title="UD">
<ellipse fill="#ffff00" stroke="#ffff00" cx="849" cy="-601.7401" rx="23.2963" ry="23.2963"/>
<text text-anchor="middle" x="849" y="-598.0401" font-family="Times,serif" font-size="14.00" fill="#000000">UD</text>
</a>
</g>
</g>
<!-- unlock337017703 -->
<g id="node15" class="node">
<title>unlock337017703</title>
<polygon fill="none" stroke="#000000" points="1078,-500.9901 1024,-462.9901 1078,-424.9901 1132,-462.9901 1078,-500.9901"/>
<text text-anchor="middle" x="1078" y="-466.7901" font-family="Times,serif" font-size="14.00" fill="#000000">unlock</text>
<text text-anchor="middle" x="1078" y="-451.7901" font-family="Times,serif" font-size="14.00" fill="#000000">SIG(0)</text>
</g>
<!-- input2034746041&#45;&gt;unlock337017703 -->
<g id="edge1" class="edge">
<title>input2034746041&#45;&gt;unlock337017703</title>
<path fill="none" stroke="#000000" d="M863.611,-583.4286C874.972,-570.823 891.9662,-555.2254 911,-548.7401 932.9408,-541.2644 994.4754,-551.5115 1015,-540.7401 1032.6526,-531.476 1047.138,-514.8954 1057.7487,-499.4188"/>
<polygon fill="#000000" stroke="#000000" points="1060.7151,-501.2772 1063.2404,-490.9877 1054.8497,-497.4566 1060.7151,-501.2772"/>
</g>
<!-- input703115653 -->
<g id="node5" class="node">
<title>input703115653</title>
<g id="a_node5"><a xlink:href="/graphviz/svg/block/50133" xlink:title="UD">
<ellipse fill="#ffff00" stroke="#ffff00" cx="589" cy="-601.7401" rx="23.2963" ry="23.2963"/>
<text text-anchor="middle" x="589" y="-598.0401" font-family="Times,serif" font-size="14.00" fill="#000000">UD</text>
</a>
</g>
</g>
<!-- unlock1550209975 -->
<g id="node16" class="node">
<title>unlock1550209975</title>
<polygon fill="none" stroke="#000000" points="574,-500.9901 520,-462.9901 574,-424.9901 628,-462.9901 574,-500.9901"/>
<text text-anchor="middle" x="574" y="-466.7901" font-family="Times,serif" font-size="14.00" fill="#000000">unlock</text>
<text text-anchor="middle" x="574" y="-451.7901" font-family="Times,serif" font-size="14.00" fill="#000000">SIG(0)</text>
</g>
<!-- input703115653&#45;&gt;unlock1550209975 -->
<g id="edge2" class="edge">
<title>input703115653&#45;&gt;unlock1550209975</title>
<path fill="none" stroke="#000000" d="M586.4555,-578.2031C584.3949,-559.1431 581.4311,-531.7278 578.9115,-508.4218"/>
<polygon fill="#000000" stroke="#000000" points="582.3812,-507.9513 577.8265,-498.3855 575.4217,-508.7038 582.3812,-507.9513"/>
</g>
<!-- input1128121568 -->
<g id="node6" class="node">
<title>input1128121568</title>
<g id="a_node6"><a xlink:href="/graphviz/svg/block/50414" xlink:title="UD">
<ellipse fill="#ffff00" stroke="#ffff00" cx="654" cy="-601.7401" rx="23.2963" ry="23.2963"/>
<text text-anchor="middle" x="654" y="-598.0401" font-family="Times,serif" font-size="14.00" fill="#000000">UD</text>
</a>
</g>
</g>
<!-- unlock376558954 -->
<g id="node17" class="node">
<title>unlock376558954</title>
<polygon fill="none" stroke="#000000" points="700,-500.9901 646,-462.9901 700,-424.9901 754,-462.9901 700,-500.9901"/>
<text text-anchor="middle" x="700" y="-466.7901" font-family="Times,serif" font-size="14.00" fill="#000000">unlock</text>
<text text-anchor="middle" x="700" y="-451.7901" font-family="Times,serif" font-size="14.00" fill="#000000">SIG(0)</text>
</g>
<!-- input1128121568&#45;&gt;unlock376558954 -->
<g id="edge3" class="edge">
<title>input1128121568&#45;&gt;unlock376558954</title>
<path fill="none" stroke="#000000" d="M661.3907,-579.4475C668.1617,-559.0241 678.35,-528.293 686.5608,-503.5269"/>
<polygon fill="#000000" stroke="#000000" points="689.8886,-504.611 689.7134,-494.0177 683.2443,-502.4082 689.8886,-504.611"/>
</g>
<!-- input770493256 -->
<g id="node7" class="node">
<title>input770493256</title>
<g id="a_node7"><a xlink:href="/graphviz/svg/block/50687" xlink:title="UD">
<ellipse fill="#ffff00" stroke="#ffff00" cx="719" cy="-601.7401" rx="23.2963" ry="23.2963"/>
<text text-anchor="middle" x="719" y="-598.0401" font-family="Times,serif" font-size="14.00" fill="#000000">UD</text>
</a>
</g>
</g>
<!-- unlock1436558710 -->
<g id="node18" class="node">
<title>unlock1436558710</title>
<polygon fill="none" stroke="#000000" points="826,-500.9901 772,-462.9901 826,-424.9901 880,-462.9901 826,-500.9901"/>
<text text-anchor="middle" x="826" y="-466.7901" font-family="Times,serif" font-size="14.00" fill="#000000">unlock</text>
<text text-anchor="middle" x="826" y="-451.7901" font-family="Times,serif" font-size="14.00" fill="#000000">SIG(0)</text>
</g>
<!-- input770493256&#45;&gt;unlock1436558710 -->
<g id="edge4" class="edge">
<title>input770493256&#45;&gt;unlock1436558710</title>
<path fill="none" stroke="#000000" d="M733.4305,-583.0277C750.5935,-560.7718 779.5519,-523.2208 800.5157,-496.0364"/>
<polygon fill="#000000" stroke="#000000" points="803.4079,-498.0173 806.7431,-487.9611 797.8647,-493.7425 803.4079,-498.0173"/>
</g>
<!-- input1786353222 -->
<g id="node8" class="node">
<title>input1786353222</title>
<g id="a_node8"><a xlink:href="/graphviz/svg/block/50999" xlink:title="UD">
<ellipse fill="#ffff00" stroke="#ffff00" cx="784" cy="-601.7401" rx="23.2963" ry="23.2963"/>
<text text-anchor="middle" x="784" y="-598.0401" font-family="Times,serif" font-size="14.00" fill="#000000">UD</text>
</a>
</g>
</g>
<!-- unlock1925882342 -->
<g id="node19" class="node">
<title>unlock1925882342</title>
<polygon fill="none" stroke="#000000" points="952,-500.9901 898,-462.9901 952,-424.9901 1006,-462.9901 952,-500.9901"/>
<text text-anchor="middle" x="952" y="-466.7901" font-family="Times,serif" font-size="14.00" fill="#000000">unlock</text>
<text text-anchor="middle" x="952" y="-451.7901" font-family="Times,serif" font-size="14.00" fill="#000000">SIG(0)</text>
</g>
<!-- input1786353222&#45;&gt;unlock1925882342 -->
<g id="edge5" class="edge">
<title>input1786353222&#45;&gt;unlock1925882342</title>
<path fill="none" stroke="#000000" d="M799.4244,-583.6136C804.6546,-578.1055 810.7611,-572.308 817,-567.7401 832.2353,-556.5854 837.2455,-555.1681 855,-548.7401 869.5966,-543.4554 875.8511,-548.9921 889,-540.7401 905.6066,-530.3181 919.8146,-513.9757 930.5116,-498.9579"/>
<polygon fill="#000000" stroke="#000000" points="933.6566,-500.5582 936.3957,-490.3235 927.872,-496.6161 933.6566,-500.5582"/>
</g>
<!-- input108099093 -->
<g id="node9" class="node">
<title>input108099093</title>
<g id="a_node9"><a xlink:href="/graphviz/svg/block/51251" xlink:title="UD">
<ellipse fill="#ffff00" stroke="#ffff00" cx="914" cy="-601.7401" rx="23.2963" ry="23.2963"/>
<text text-anchor="middle" x="914" y="-598.0401" font-family="Times,serif" font-size="14.00" fill="#000000">UD</text>
</a>
</g>
</g>
<!-- unlock476032995 -->
<g id="node20" class="node">
<title>unlock476032995</title>
<polygon fill="none" stroke="#000000" points="1204,-500.9901 1150,-462.9901 1204,-424.9901 1258,-462.9901 1204,-500.9901"/>
<text text-anchor="middle" x="1204" y="-466.7901" font-family="Times,serif" font-size="14.00" fill="#000000">unlock</text>
<text text-anchor="middle" x="1204" y="-451.7901" font-family="Times,serif" font-size="14.00" fill="#000000">SIG(0)</text>
</g>
<!-- input108099093&#45;&gt;unlock476032995 -->
<g id="edge6" class="edge">
<title>input108099093&#45;&gt;unlock476032995</title>
<path fill="none" stroke="#000000" d="M928.3146,-582.7323C933.3519,-577.177 939.4154,-571.5744 946,-567.7401 976.8336,-549.7853 988.7398,-554.1992 1024,-548.7401 1049.7539,-544.7528 1117.8728,-552.7522 1141,-540.7401 1158.6918,-531.5511 1173.1812,-514.9783 1183.7845,-499.4874"/>
<polygon fill="#000000" stroke="#000000" points="1186.7557,-501.3384 1189.271,-491.0464 1180.8866,-497.5235 1186.7557,-501.3384"/>
</g>
<!-- input734443775 -->
<g id="node10" class="node">
<title>input734443775</title>
<g id="a_node10"><a xlink:href="/graphviz/svg/block/51542" xlink:title="UD">
<ellipse fill="#ffff00" stroke="#ffff00" cx="329" cy="-601.7401" rx="23.2963" ry="23.2963"/>
<text text-anchor="middle" x="329" y="-598.0401" font-family="Times,serif" font-size="14.00" fill="#000000">UD</text>
</a>
</g>
</g>
<!-- unlock69067655 -->
<g id="node21" class="node">
<title>unlock69067655</title>
<polygon fill="none" stroke="#000000" points="70,-500.9901 16,-462.9901 70,-424.9901 124,-462.9901 70,-500.9901"/>
<text text-anchor="middle" x="70" y="-466.7901" font-family="Times,serif" font-size="14.00" fill="#000000">unlock</text>
<text text-anchor="middle" x="70" y="-451.7901" font-family="Times,serif" font-size="14.00" fill="#000000">SIG(0)</text>
</g>
<!-- input734443775&#45;&gt;unlock69067655 -->
<g id="edge7" class="edge">
<title>input734443775&#45;&gt;unlock69067655</title>
<path fill="none" stroke="#000000" d="M315.1736,-582.7851C310.0852,-577.0943 303.8682,-571.3985 297,-567.7401 231.8022,-533.012 196.8663,-577.8601 133,-540.7401 115.7639,-530.7223 101.3217,-514.0637 90.6318,-498.7304"/>
<polygon fill="#000000" stroke="#000000" points="93.5402,-496.7833 85.085,-490.3989 87.7134,-500.6625 93.5402,-496.7833"/>
</g>
<!-- input1614512196 -->
<g id="node11" class="node">
<title>input1614512196</title>
<g id="a_node11"><a xlink:href="/graphviz/svg/block/51799" xlink:title="UD">
<ellipse fill="#ffff00" stroke="#ffff00" cx="394" cy="-601.7401" rx="23.2963" ry="23.2963"/>
<text text-anchor="middle" x="394" y="-598.0401" font-family="Times,serif" font-size="14.00" fill="#000000">UD</text>
</a>
</g>
</g>
<!-- unlock1354956263 -->
<g id="node22" class="node">
<title>unlock1354956263</title>
<polygon fill="none" stroke="#000000" points="196,-500.9901 142,-462.9901 196,-424.9901 250,-462.9901 196,-500.9901"/>
<text text-anchor="middle" x="196" y="-466.7901" font-family="Times,serif" font-size="14.00" fill="#000000">unlock</text>
<text text-anchor="middle" x="196" y="-451.7901" font-family="Times,serif" font-size="14.00" fill="#000000">SIG(0)</text>
</g>
<!-- input1614512196&#45;&gt;unlock1354956263 -->
<g id="edge8" class="edge">
<title>input1614512196&#45;&gt;unlock1354956263</title>
<path fill="none" stroke="#000000" d="M379.3773,-583.2583C374.1056,-577.5991 367.772,-571.8023 361,-567.7401 334.8236,-552.0382 324.5796,-556.2768 295,-548.7401 279.1171,-544.6933 272.9367,-549.3663 259,-540.7401 242.329,-530.4215 228.1133,-514.0913 217.4279,-499.0549"/>
<polygon fill="#000000" stroke="#000000" points="220.0672,-496.7114 211.5526,-490.4064 214.2769,-500.645 220.0672,-496.7114"/>
</g>
<!-- input1188487587 -->
<g id="node12" class="node">
<title>input1188487587</title>
<g id="a_node12"><a xlink:href="/graphviz/svg/block/52114" xlink:title="UD">
<ellipse fill="#ffff00" stroke="#ffff00" cx="459" cy="-601.7401" rx="23.2963" ry="23.2963"/>
<text text-anchor="middle" x="459" y="-598.0401" font-family="Times,serif" font-size="14.00" fill="#000000">UD</text>
</a>
</g>
</g>
<!-- unlock2007016328 -->
<g id="node23" class="node">
<title>unlock2007016328</title>
<polygon fill="none" stroke="#000000" points="322,-500.9901 268,-462.9901 322,-424.9901 376,-462.9901 322,-500.9901"/>
<text text-anchor="middle" x="322" y="-466.7901" font-family="Times,serif" font-size="14.00" fill="#000000">unlock</text>
<text text-anchor="middle" x="322" y="-451.7901" font-family="Times,serif" font-size="14.00" fill="#000000">SIG(0)</text>
</g>
<!-- input1188487587&#45;&gt;unlock2007016328 -->
<g id="edge9" class="edge">
<title>input1188487587&#45;&gt;unlock2007016328</title>
<path fill="none" stroke="#000000" d="M443.2369,-584.0486C437.9886,-578.5637 431.957,-572.67 426,-567.7401 409.1911,-553.8293 401.1698,-555.3889 385,-540.7401 370.6851,-527.7718 356.9214,-511.403 345.9301,-497.0334"/>
<polygon fill="#000000" stroke="#000000" points="348.5925,-494.7496 339.7958,-488.8446 342.9901,-498.9464 348.5925,-494.7496"/>
</g>
<!-- input1260058290 -->
<g id="node13" class="node">
<title>input1260058290</title>
<g id="a_node13"><a xlink:href="/graphviz/svg/block/52389" xlink:title="UD">
<ellipse fill="#ffff00" stroke="#ffff00" cx="524" cy="-601.7401" rx="23.2963" ry="23.2963"/>
<text text-anchor="middle" x="524" y="-598.0401" font-family="Times,serif" font-size="14.00" fill="#000000">UD</text>
</a>
</g>
</g>
<!-- unlock383855144 -->
<g id="node24" class="node">
<title>unlock383855144</title>
<polygon fill="none" stroke="#000000" points="448,-500.9901 394,-462.9901 448,-424.9901 502,-462.9901 448,-500.9901"/>
<text text-anchor="middle" x="448" y="-466.7901" font-family="Times,serif" font-size="14.00" fill="#000000">unlock</text>
<text text-anchor="middle" x="448" y="-451.7901" font-family="Times,serif" font-size="14.00" fill="#000000">SIG(0)</text>
</g>
<!-- input1260058290&#45;&gt;unlock383855144 -->
<g id="edge10" class="edge">
<title>input1260058290&#45;&gt;unlock383855144</title>
<path fill="none" stroke="#000000" d="M512.622,-580.9678C500.8428,-559.4629 482.2049,-525.4366 467.9656,-499.4405"/>
<polygon fill="#000000" stroke="#000000" points="471.0046,-497.703 463.1309,-490.614 464.8653,-501.0659 471.0046,-497.703"/>
</g>
<!-- dbu -->
<g id="node14" class="node">
<title>dbu</title>
<path fill="none" stroke="#000000" d="M1339.5,-501.4458C1339.5,-506.1611 1325.3812,-509.9915 1308,-509.9915 1290.6188,-509.9915 1276.5,-506.1611 1276.5,-501.4458 1276.5,-501.4458 1276.5,-424.5345 1276.5,-424.5345 1276.5,-419.8191 1290.6188,-415.9888 1308,-415.9888 1325.3812,-415.9888 1339.5,-419.8191 1339.5,-424.5345 1339.5,-424.5345 1339.5,-501.4458 1339.5,-501.4458"/>
<path fill="none" stroke="#000000" d="M1339.5,-501.4458C1339.5,-496.7304 1325.3812,-492.9001 1308,-492.9001 1290.6188,-492.9001 1276.5,-496.7304 1276.5,-501.4458"/>
<text text-anchor="middle" x="1308" y="-481.7901" font-family="Times,serif" font-size="14.00" fill="#000000">useful</text>
<text text-anchor="middle" x="1308" y="-466.7901" font-family="Times,serif" font-size="14.00" fill="#000000">for</text>
<text text-anchor="middle" x="1308" y="-451.7901" font-family="Times,serif" font-size="14.00" fill="#000000">state</text>
<text text-anchor="middle" x="1308" y="-436.7901" font-family="Times,serif" font-size="14.00" fill="#000000">machine</text>
</g>
<!-- unlock337017703&#45;&gt;sum -->
<g id="edge11" class="edge">
<title>unlock337017703&#45;&gt;sum</title>
<path fill="none" stroke="#000000" d="M1057.2365,-439.4222C1045.9109,-428.1205 1030.9634,-415.4925 1015,-408.2401 951.763,-379.5107 748.1768,-362.0024 656.4981,-355.3895"/>
<polygon fill="#000000" stroke="#000000" points="656.6342,-351.8905 646.4115,-354.6735 656.1385,-358.8729 656.6342,-351.8905"/>
</g>
<!-- unlock1550209975&#45;&gt;sum -->
<g id="edge12" class="edge">
<title>unlock1550209975&#45;&gt;sum</title>
<path fill="none" stroke="#000000" d="M584.3066,-432.1763C588.8491,-418.5954 594.2175,-402.5452 598.9444,-388.413"/>
<polygon fill="#000000" stroke="#000000" points="602.3992,-389.118 602.252,-378.5242 595.7607,-386.8975 602.3992,-389.118"/>
</g>
<!-- unlock376558954&#45;&gt;sum -->
<g id="edge13" class="edge">
<title>unlock376558954&#45;&gt;sum</title>
<path fill="none" stroke="#000000" d="M680.4686,-438.7141C667.4524,-422.536 650.2224,-401.1205 636.1786,-383.665"/>
<polygon fill="#000000" stroke="#000000" points="638.5682,-381.0518 629.5727,-375.4544 633.1143,-385.4398 638.5682,-381.0518"/>
</g>
<!-- unlock1436558710&#45;&gt;sum -->
<g id="edge14" class="edge">
<title>unlock1436558710&#45;&gt;sum</title>
<path fill="none" stroke="#000000" d="M803.9372,-440.2715C792.5013,-429.4619 777.8445,-417.0146 763,-408.2401 728.712,-387.9728 685.8247,-373.0272 654.356,-363.7201"/>
<polygon fill="#000000" stroke="#000000" points="655.1437,-360.3047 644.5655,-360.8969 653.2041,-367.0307 655.1437,-360.3047"/>
</g>
<!-- unlock1925882342&#45;&gt;sum -->
<g id="edge15" class="edge">
<title>unlock1925882342&#45;&gt;sum</title>
<path fill="none" stroke="#000000" d="M930.7633,-439.5471C919.4233,-428.4208 904.6052,-415.9113 889,-408.2401 813.0967,-370.9276 713.8622,-358.5334 656.7994,-354.4169"/>
<polygon fill="#000000" stroke="#000000" points="656.8611,-350.9133 646.6505,-353.7404 656.3955,-357.8978 656.8611,-350.9133"/>
</g>
<!-- unlock476032995&#45;&gt;sum -->
<g id="edge16" class="edge">
<title>unlock476032995&#45;&gt;sum</title>
<path fill="none" stroke="#000000" d="M1183.3327,-439.2057C1172.0326,-427.8468 1157.0788,-415.233 1141,-408.2401 1118.8725,-398.6166 780.7904,-367.5706 656.4436,-356.4117"/>
<polygon fill="#000000" stroke="#000000" points="656.7475,-352.925 646.475,-355.5187 656.1228,-359.8971 656.7475,-352.925"/>
</g>
<!-- unlock69067655&#45;&gt;sum -->
<g id="edge17" class="edge">
<title>unlock69067655&#45;&gt;sum</title>
<path fill="none" stroke="#000000" d="M90.7005,-439.2816C102.0095,-427.9427 116.9611,-415.324 133,-408.2401 209.9388,-374.2588 461.5152,-359.1705 565.447,-354.2763"/>
<polygon fill="#000000" stroke="#000000" points="565.7913,-357.7642 575.6196,-353.8077 565.4692,-350.7716 565.7913,-357.7642"/>
</g>
<!-- unlock1354956263&#45;&gt;sum -->
<g id="edge18" class="edge">
<title>unlock1354956263&#45;&gt;sum</title>
<path fill="none" stroke="#000000" d="M216.8247,-439.555C228.1664,-428.2884 243.1098,-415.6517 259,-408.2401 312.709,-383.1889 483.128,-364.3457 565.5237,-356.4464"/>
<polygon fill="#000000" stroke="#000000" points="565.9709,-359.9198 575.5967,-355.4933 565.3115,-352.9509 565.9709,-359.9198"/>
</g>
<!-- unlock2007016328&#45;&gt;sum -->
<g id="edge19" class="edge">
<title>unlock2007016328&#45;&gt;sum</title>
<path fill="none" stroke="#000000" d="M343.3829,-439.8363C354.7602,-428.7837 369.5675,-416.2529 385,-408.2401 443.315,-377.9621 518.7063,-363.6085 565.9682,-357.1645"/>
<polygon fill="#000000" stroke="#000000" points="566.4355,-360.6332 575.8995,-355.8705 565.5311,-353.6919 566.4355,-360.6332"/>
</g>
<!-- unlock383855144&#45;&gt;sum -->
<g id="edge20" class="edge">
<title>unlock383855144&#45;&gt;sum</title>
<path fill="none" stroke="#000000" d="M470.9872,-440.9831C482.5309,-430.4705 497.0092,-418.0702 511,-408.2401 530.2977,-394.6814 553.1765,-381.6949 572.177,-371.6603"/>
<polygon fill="#000000" stroke="#000000" points="573.9078,-374.7052 581.1604,-366.9818 570.6744,-368.4967 573.9078,-374.7052"/>
</g>
<!-- dbo -->
<g id="node25" class="node">
<title>dbo</title>
<path fill="none" stroke="#000000" d="M808.5,-245.2056C808.5,-249.921 794.3812,-253.7513 777,-253.7513 759.6188,-253.7513 745.5,-249.921 745.5,-245.2056 745.5,-245.2056 745.5,-168.2944 745.5,-168.2944 745.5,-163.579 759.6188,-159.7487 777,-159.7487 794.3812,-159.7487 808.5,-163.579 808.5,-168.2944 808.5,-168.2944 808.5,-245.2056 808.5,-245.2056"/>
<path fill="none" stroke="#000000" d="M808.5,-245.2056C808.5,-240.4903 794.3812,-236.6599 777,-236.6599 759.6188,-236.6599 745.5,-240.4903 745.5,-245.2056"/>
<text text-anchor="middle" x="777" y="-225.55" font-family="Times,serif" font-size="14.00" fill="#000000">useful</text>
<text text-anchor="middle" x="777" y="-210.55" font-family="Times,serif" font-size="14.00" fill="#000000">for</text>
<text text-anchor="middle" x="777" y="-195.55" font-family="Times,serif" font-size="14.00" fill="#000000">state</text>
<text text-anchor="middle" x="777" y="-180.55" font-family="Times,serif" font-size="14.00" fill="#000000">machine</text>
</g>
<!-- amountOut1211063564 -->
<g id="node27" class="node">
<title>amountOut1211063564</title>
<polygon fill="none" stroke="#000000" points="638,-103 584,-103 584,-79 638,-79 638,-103"/>
<polyline fill="none" stroke="#000000" points="587,-92.5 590,-89.5 "/>
<polyline fill="none" stroke="#000000" points="587,-89.5 590,-92.5 "/>
<polyline fill="none" stroke="#000000" points="587,-82 635,-82 "/>
<text text-anchor="middle" x="611" y="-87.3" font-family="Times,serif" font-size="14.00" fill="#000000">10000</text>
</g>
<!-- lockOut1211063564&#45;&gt;amountOut1211063564 -->
<g id="edge24" class="edge">
<title>lockOut1211063564&#45;&gt;amountOut1211063564</title>
<path fill="none" stroke="#000000" d="M611,-168.5283C611,-152.4197 611,-134.006 611,-119.1671"/>
<polygon fill="#000000" stroke="#000000" points="614.5001,-119.078 611,-109.078 607.5001,-119.078 614.5001,-119.078"/>
</g>
<!-- amountOut1211063564&#45;&gt;_destJ1j7mGe5TaQ8fvr3xhdUVDWGWKttpeF2dqYMdVEo9qo5 -->
<g id="edge22" class="edge">
<title>amountOut1211063564&#45;&gt;_destJ1j7mGe5TaQ8fvr3xhdUVDWGWKttpeF2dqYMdVEo9qo5</title>
<path fill="none" stroke="#000000" d="M617.6742,-72.9551C620.7247,-64.7074 624.4062,-54.7536 627.7932,-45.5962"/>
<polygon fill="#000000" stroke="#000000" points="631.1227,-46.6836 631.309,-36.0904 624.5574,-44.2552 631.1227,-46.6836"/>
</g>
<!-- _3gcobgCjDvnAhHniwFWQ6feXvf5vSmYjASuRuUHNi77A -->
<g id="node29" class="node">
<title>_3gcobgCjDvnAhHniwFWQ6feXvf5vSmYjASuRuUHNi77A</title>
<ellipse fill="none" stroke="#000000" cx="1049" cy="-601.7401" rx="94.0904" ry="26.7407"/>
<text text-anchor="middle" x="1049" y="-605.5401" font-family="Times,serif" font-size="14.00" fill="#000000">issuer</text>
<text text-anchor="middle" x="1049" y="-590.5401" font-family="Times,serif" font-size="14.00" fill="#000000">3gcobgC...UHNi77A</text>
</g>
<!-- _3gcobgCjDvnAhHniwFWQ6feXvf5vSmYjASuRuUHNi77A&#45;&gt;good -->
<g id="edge26" class="edge">
<title>_3gcobgCjDvnAhHniwFWQ6feXvf5vSmYjASuRuUHNi77A&#45;&gt;good</title>
<path fill="none" stroke="#000000" d="M1140.9733,-595.7729C1220.1348,-588.492 1325.6552,-572.9172 1352,-540.7401 1389.306,-495.1752 1390.1981,-453.0599 1352,-408.2401 1334.4142,-387.6057 1174.3898,-368.7645 1077.5749,-359.1231"/>
<polygon fill="#000000" stroke="#000000" points="1077.838,-355.6322 1067.5429,-358.1344 1077.1514,-362.5984 1077.838,-355.6322"/>
<text text-anchor="middle" x="1390.5" y="-459.2901" font-family="Times,serif" font-size="14.00" fill="#000000">buy</text>
</g>
<!-- _3gcobgCjDvnAhHniwFWQ6feXvf5vSmYjASuRuUHNi77A&#45;&gt;unlock337017703 -->
<g id="edge25" class="edge">
<title>_3gcobgCjDvnAhHniwFWQ6feXvf5vSmYjASuRuUHNi77A&#45;&gt;unlock337017703</title>
<path fill="none" stroke="#000000" d="M1028.1699,-575.427C1023.9031,-567.107 1021.4044,-557.7328 1024,-548.7401 1029.5573,-529.4864 1040.86,-510.3899 1051.695,-495.1225"/>
<polygon fill="#000000" stroke="#000000" points="1054.5211,-497.1873 1057.627,-487.0578 1048.8822,-493.0396 1054.5211,-497.1873"/>
</g>
</g>
</svg>
