<svg width="1961.3000000000002" height="700.7" xmlns="http://www.w3.org/2000/svg" xmlns:xlink="http://www.w3.org/1999/xlink"><line x1="455.25" y1="7.0" x2="23.0" y2="31.0" style="stroke:black; stroke-width:1px;" />
<line x1="23.0" y1="38.0" x2="23.0" y2="62.0" style="stroke:black; stroke-width:1px;" />
<line x1="455.25" y1="7.0" x2="75.5" y2="31.0" style="stroke:black; stroke-width:1px;" />
<line x1="455.25" y1="7.0" x2="131.5" y2="31.0" style="stroke:black; stroke-width:1px;" />
<line x1="131.5" y1="38.0" x2="131.5" y2="62.0" style="stroke:black; stroke-width:1px;" />
<line x1="455.25" y1="7.0" x2="331.5" y2="31.0" style="stroke:black; stroke-width:1px;" />
<line x1="331.5" y1="38.0" x2="331.5" y2="62.0" style="stroke:black; stroke-width:1px;" />
<line x1="455.25" y1="7.0" x2="505.5" y2="31.0" style="stroke:black; stroke-width:1px;" />
<line x1="505.5" y1="38.0" x2="505.5" y2="62.0" style="stroke:black; stroke-width:1px;" />
<line x1="455.25" y1="7.0" x2="565.0" y2="31.0" style="stroke:black; stroke-width:1px;" />
<line x1="565.0" y1="38.0" x2="565.0" y2="62.0" style="stroke:black; stroke-width:1px;" />
<line x1="565.0" y1="69.0" x2="483.75" y2="93.0" style="stroke:black; stroke-width:1px;" />
<line x1="483.75" y1="100.0" x2="483.75" y2="124.0" style="stroke:black; stroke-width:1px;" />
<line x1="565.0" y1="69.0" x2="564.25" y2="93.0" style="stroke:black; stroke-width:1px;" />
<line x1="565.0" y1="69.0" x2="646.25" y2="93.0" style="stroke:black; stroke-width:1px;" />
<line x1="646.25" y1="100.0" x2="646.25" y2="124.0" style="stroke:black; stroke-width:1px;" />
<line x1="455.25" y1="7.0" x2="887.5" y2="31.0" style="stroke:black; stroke-width:1px;" />
<line x1="887.5" y1="38.0" x2="887.5" y2="62.0" style="stroke:black; stroke-width:1px;" />
<rect x="560.25" y="93.0" width="8.0" height="14.0" style="fill:orange; stroke:rgb(0,0,0);" rx="1"/>
<text x="562" y="102" style="font-family:sans-serif;font-size:10px;">
-
</text>
<rect x="586.0" y="62.0" width="603.0" height="14.0" style="fill:orange; stroke:rgb(0,0,0);" rx="1"/>
<text x="588" y="71" style="font-family:sans-serif;font-size:10px;">
J3G9oM5AKYZNLAB5Wx499w61NuUoS57JVccTShUbGpCMjCqj9yXXqNq7dyZpDWA6BxipsiaMZhujMeBfCznzyci
</text>
<rect x="499.75" y="124.0" width="293.0" height="14.0" style="fill:orange; stroke:rgb(0,0,0);" rx="1"/>
<text x="501" y="133" style="font-family:sans-serif;font-size:10px;">
DB30D958EE5CB75186972286ED3F4686B8A1C2CD
</text>
<rect x="0.0" y="31.0" width="46.0" height="14.0" style="fill:orange; stroke:rgb(0,0,0);" rx="1"/>
<text x="2" y="40" style="font-family:sans-serif;font-size:10px;">
version
</text>
<rect x="474.75" y="124.0" width="18.0" height="14.0" style="fill:orange; stroke:rgb(0,0,0);" rx="1"/>
<text x="476" y="133" style="font-family:sans-serif;font-size:10px;">
32
</text>
<rect x="626.75" y="93.0" width="39.0" height="14.0" style="fill:orange; stroke:rgb(0,0,0);" rx="1"/>
<text x="628" y="102" style="font-family:sans-serif;font-size:10px;">
bhash
</text>
<rect x="181.5" y="62.0" width="300.0" height="14.0" style="fill:orange; stroke:rgb(0,0,0);" rx="1"/>
<text x="183" y="71" style="font-family:sans-serif;font-size:10px;">
HgTTJLAQ5sqfknMq7yLPZbehtuLSsKj9CxWN7k8QvYJd
</text>
<rect x="532.5" y="31.0" width="65.0" height="14.0" style="fill:orange; stroke:rgb(0,0,0);" rx="1"/>
<text x="534" y="40" style="font-family:sans-serif;font-size:10px;">
timestamp
</text>
<rect x="488.5" y="62.0" width="34.0" height="14.0" style="fill:orange; stroke:rgb(0,0,0);" rx="1"/>
<text x="490" y="71" style="font-family:sans-serif;font-size:10px;">
lolcat
</text>
<rect x="88.5" y="62.0" width="86.0" height="14.0" style="fill:orange; stroke:rgb(0,0,0);" rx="1"/>
<text x="90" y="71" style="font-family:sans-serif;font-size:10px;">
beta_brousouf
</text>
<rect x="485.5" y="31.0" width="40.0" height="14.0" style="fill:orange; stroke:rgb(0,0,0);" rx="1"/>
<text x="487" y="40" style="font-family:sans-serif;font-size:10px;">
userid
</text>
<rect x="105.0" y="31.0" width="53.0" height="14.0" style="fill:orange; stroke:rgb(0,0,0);" rx="1"/>
<text x="107" y="40" style="font-family:sans-serif;font-size:10px;">
currency
</text>
<rect x="14.0" y="62.0" width="18.0" height="14.0" style="fill:orange; stroke:rgb(0,0,0);" rx="1"/>
<text x="16" y="71" style="font-family:sans-serif;font-size:10px;">
10
</text>
<rect x="309.5" y="31.0" width="44.0" height="14.0" style="fill:orange; stroke:rgb(0,0,0);" rx="1"/>
<text x="311" y="40" style="font-family:sans-serif;font-size:10px;">
pubkey
</text>
<rect x="551.0" y="62.0" width="28.0" height="14.0" style="fill:orange; stroke:rgb(0,0,0);" rx="1"/>
<text x="553" y="71" style="font-family:sans-serif;font-size:10px;">
buid
</text>
<rect x="422.25" y="0.0" width="66.0" height="14.0" style="fill:orange; stroke:rgb(0,0,0);" rx="1"/>
<text x="424" y="9" style="font-family:sans-serif;font-size:10px;">
identityDoc
</text>
<rect x="53.0" y="31.0" width="45.0" height="14.0" style="fill:orange; stroke:rgb(0,0,0);" rx="1"/>
<text x="55" y="40" style="font-family:sans-serif;font-size:10px;">
Identity
</text>
<rect x="465.75" y="93.0" width="36.0" height="14.0" style="fill:orange; stroke:rgb(0,0,0);" rx="1"/>
<text x="467" y="102" style="font-family:sans-serif;font-size:10px;">
bnum
</text>
<rect x="858.5" y="31.0" width="58.0" height="14.0" style="fill:orange; stroke:rgb(0,0,0);" rx="1"/>
<text x="860" y="40" style="font-family:sans-serif;font-size:10px;">
signature
</text>
</svg>