<?xml version="1.0"?>
<svg xmlns="http://www.w3.org/2000/svg" width="1597" height="762">
 <!-- Created with Method Draw - http://github.com/duopixel/Method-Draw/ -->
 <g>
  
  <rect fill="#fff" id="canvas_background" height="764" width="1599" y="-1" x="-1"/>
  <g display="none" overflow="visible" y="0" x="0" height="100%" width="100%" id="canvasGrid">
   <rect fill="url(#gridpattern)" stroke-width="0" y="0" x="0" height="100%" width="100%"/>
  </g>
 </g>
 <g>
  
  <rect id="svg_73" height="482" width="445" y="181" x="815" fill-opacity="null" stroke-width="1.5" stroke="#000000" fill="#fff"/>
  <rect id="svg_79" height="337.999985" width="427" y="187.000005" x="825" fill-opacity="null" stroke-width="1.5" stroke="#ff007f" fill="#fff"/>
  <rect id="svg_76" height="74.000003" width="409.000016" y="344.999998" x="832.999978" fill-opacity="null" stroke-width="1.5" stroke="#bf00bf" fill="#fff"/>
  <rect id="svg_65" height="89.999997" width="414" y="211" x="833" fill-opacity="null" stroke-width="1.5" stroke="#00bf5f" fill="#fff"/>
  <rect id="svg_62" height="45" width="215" y="48" x="1056" fill-opacity="null" stroke-width="1.5" stroke="#00bf5f" fill="#fff"/>
  <rect id="svg_61" height="45" width="226" y="48" x="811" fill-opacity="null" stroke-width="1.5" stroke="#00bf5f" fill="#fff"/>
  <rect id="svg_56" height="62" width="136" y="588" x="246" fill-opacity="null" stroke-width="1.5" stroke="#007fff" fill="#fff"/>
  <rect id="svg_49" height="69" width="79.000002" y="191.5" x="563.999988" fill-opacity="null" stroke-opacity="null" stroke-width="1.5" stroke="#000" fill="#fff"/>
  <rect id="svg_47" height="65" width="134" y="51.5" x="536" fill-opacity="null" stroke-width="1.5" stroke="#007fff" fill="#fff"/>
  <rect id="svg_30" height="62" width="136" y="451" x="244" fill-opacity="null" stroke-width="1.5" stroke="#bf0000" fill="#fff"/>
  <rect id="svg_1" height="63" width="149.999995" y="327" x="104.000001" stroke-width="1.5" stroke="#007fff" fill="#fff"/>
  <text xml:space="preserve" text-anchor="start" font-family="Helvetica, Arial, sans-serif" font-size="24" id="svg_2" y="367" x="125" stroke-width="0" stroke="#000" fill="#000000">Cl&#xE9; priv&#xE9;e</text>
  <rect id="svg_3" height="60.999998" width="179.999991" y="325" x="413.000007" fill-opacity="null" stroke-opacity="null" stroke-width="1.5" stroke="#000" fill="#fff"/>
  <text xml:space="preserve" text-anchor="start" font-family="Helvetica, Arial, sans-serif" font-size="24" id="svg_4" y="363" x="439" fill-opacity="null" stroke-opacity="null" stroke-width="0" stroke="#000" fill="#000000">SHA256(TX)</text>
  <path transform="rotate(49.2379, 260.04, 420.934)" id="svg_9" d="m257.903534,431.134369l7.451691,-6.300293l-14.407806,0l-14.40744,0l0,-3.899933l0,-3.899902l14.242126,0c7.833557,0 14.242493,-0.197388 14.242493,-0.439087c0,-0.241699 -3.118591,-3.077148 -6.929932,-6.300293l-6.929596,-5.860718l6.404999,0l6.405334,0l9.782471,8.258057l9.782104,8.257568l-9.801147,8.242432l-9.80072,8.241943l-6.7435,0l-6.743134,0l7.452057,-6.299774l0,0z" fill-opacity="null" stroke-opacity="null" stroke-width="1.5" stroke="#000" fill="#fff"/>
  <path transform="rotate(49.2379, 260.04, 420.934)" id="svg_10" d="m257.903534,431.134369l7.451691,-6.300293l-14.407806,0l-14.40744,0l0,-3.899933l0,-3.899902l14.242126,0c7.833557,0 14.242493,-0.197388 14.242493,-0.439087c0,-0.241699 -3.118591,-3.077148 -6.929932,-6.300293l-6.929596,-5.860718l6.404999,0l6.405334,0l9.782471,8.258057l9.782104,8.257568l-9.801147,8.242432l-9.80072,8.241943l-6.7435,0l-6.743134,0l7.452057,-6.299774l0,0z" fill-opacity="null" stroke-opacity="null" stroke-width="1.5" stroke="#000" fill="#fff"/>
  <path transform="rotate(134.681, 368.04, 420.934)" id="svg_11" d="m365.903534,431.134369l7.451691,-6.300293l-14.407806,0l-14.40744,0l0,-3.899933l0,-3.899902l14.242126,0c7.833557,0 14.242493,-0.197388 14.242493,-0.439087c0,-0.241699 -3.118591,-3.077148 -6.929932,-6.300293l-6.929596,-5.860718l6.404999,0l6.405334,0l9.782471,8.258057l9.782104,8.257568l-9.801147,8.242432l-9.80072,8.241943l-6.7435,0l-6.743134,0l7.452057,-6.299774l0,0z" fill-opacity="null" stroke-opacity="null" stroke-width="1.5" stroke="#000" fill="#fff"/>
  <text xml:space="preserve" text-anchor="start" font-family="Helvetica, Arial, sans-serif" font-size="24" id="svg_16" y="624.5" x="262" fill-opacity="null" stroke-opacity="null" stroke-width="0" stroke="#000" fill="#000000">Signature</text>
  <text xml:space="preserve" text-anchor="start" font-family="Helvetica, Arial, sans-serif" font-size="24" id="svg_29" y="490" x="258" fill-opacity="null" stroke-opacity="null" stroke-width="0" stroke="#000" fill="#000000">Lib crypto</text>
  <rect id="svg_31" height="63" width="149.999995" y="68" x="16.000001" stroke-width="1.5" stroke="#007fff" fill="#fff"/>
  <text xml:space="preserve" text-anchor="start" font-family="Helvetica, Arial, sans-serif" font-size="24" id="svg_32" y="108" x="37" stroke-width="0" stroke="#000" fill="#000000">Identifiant</text>
  <rect id="svg_33" height="63" width="99.000001" y="69" x="193.000001" stroke-width="1.5" stroke="#007fff" fill="#fff"/>
  <text xml:space="preserve" text-anchor="start" font-family="Helvetica, Arial, sans-serif" font-size="24" id="svg_34" y="109" x="214" stroke-width="0" stroke="#000" fill="#000000">Pass</text>
  <rect id="svg_35" height="62" width="136" y="199" x="95" fill-opacity="null" stroke-width="1.5" stroke="#bf0000" fill="#fff"/>
  <text xml:space="preserve" text-anchor="start" font-family="Helvetica, Arial, sans-serif" font-size="24" id="svg_36" y="238" x="109" fill-opacity="null" stroke-opacity="null" stroke-width="0" stroke="#000" fill="#000000">Lib crypto</text>
  <path transform="rotate(90.1231, 167.04, 291.934)" id="svg_37" d="m164.903534,302.134369l7.451691,-6.300293l-14.407806,0l-14.40744,0l0,-3.899933l0,-3.899902l14.242126,0c7.833557,0 14.242493,-0.197388 14.242493,-0.439087c0,-0.241699 -3.118591,-3.077148 -6.929932,-6.300293l-6.929596,-5.860718l6.404999,0l6.405334,0l9.782471,8.258057l9.782104,8.257568l-9.801147,8.242432l-9.80072,8.241943l-6.7435,0l-6.743134,0l7.452057,-6.299774l0,0z" fill-opacity="null" stroke-opacity="null" stroke-width="1.5" stroke="#000" fill="#fff"/>
  <path transform="rotate(49.2379, 113.04, 162.934)" id="svg_38" d="m110.903534,173.134369l7.451691,-6.300293l-14.407806,0l-14.40744,0l0,-3.899933l0,-3.899902l14.242126,0c7.833557,0 14.242493,-0.197388 14.242493,-0.439087c0,-0.241699 -3.118591,-3.077148 -6.929932,-6.300293l-6.929596,-5.860718l6.404999,0l6.405334,0l9.782471,8.258057l9.782104,8.257568l-9.801147,8.242432l-9.80072,8.241943l-6.7435,0l-6.743134,0l7.452057,-6.299774l0,0z" fill-opacity="null" stroke-opacity="null" stroke-width="1.5" stroke="#000" fill="#fff"/>
  <path transform="rotate(49.2379, 113.04, 162.934)" id="svg_39" d="m110.903534,173.134369l7.451691,-6.300293l-14.407806,0l-14.40744,0l0,-3.899933l0,-3.899902l14.242126,0c7.833557,0 14.242493,-0.197388 14.242493,-0.439087c0,-0.241699 -3.118591,-3.077148 -6.929932,-6.300293l-6.929596,-5.860718l6.404999,0l6.405334,0l9.782471,8.258057l9.782104,8.257568l-9.801147,8.242432l-9.80072,8.241943l-6.7435,0l-6.743134,0l7.452057,-6.299774l0,0z" fill-opacity="null" stroke-opacity="null" stroke-width="1.5" stroke="#000" fill="#fff"/>
  <path transform="rotate(134.681, 221.04, 162.934)" id="svg_40" d="m218.903534,173.134369l7.451691,-6.300293l-14.407806,0l-14.40744,0l0,-3.899933l0,-3.899902l14.242126,0c7.833557,0 14.242493,-0.197388 14.242493,-0.439087c0,-0.241699 -3.118591,-3.077148 -6.929932,-6.300293l-6.929596,-5.860718l6.404999,0l6.405334,0l9.782471,8.258057l9.782104,8.257568l-9.801147,8.242432l-9.80072,8.241943l-6.7435,0l-6.743134,0l7.452057,-6.299774l0,0z" fill-opacity="null" stroke-opacity="null" stroke-width="1.5" stroke="#000" fill="#fff"/>
  <path transform="rotate(2.00885, 272.04, 228.934)" id="svg_41" d="m269.903534,239.134369l7.451691,-6.300293l-14.407806,0l-14.40744,0l0,-3.899933l0,-3.899902l14.242126,0c7.833557,0 14.242493,-0.197388 14.242493,-0.439087c0,-0.241699 -3.118591,-3.077148 -6.929932,-6.300293l-6.929596,-5.860718l6.404999,0l6.405334,0l9.782471,8.258057l9.782104,8.257568l-9.801147,8.242432l-9.80072,8.241943l-6.7435,0l-6.743134,0l7.452057,-6.299774l0,0z" fill-opacity="null" stroke-opacity="null" stroke-width="1.5" stroke="#000" fill="#fff"/>
  <rect id="svg_42" height="63" width="149.999995" y="195" x="312.000001" stroke-width="1.5" stroke="#007fff" fill="#fff"/>
  <text xml:space="preserve" text-anchor="start" font-family="Helvetica, Arial, sans-serif" font-size="24" id="svg_43" y="235" x="333" stroke-width="0" stroke="#000" fill="#000000">Cl&#xE9; public</text>
  <text xml:space="preserve" text-anchor="start" font-family="Helvetica, Arial, sans-serif" font-size="24" id="svg_44" y="230.5" x="587.5" fill-opacity="null" stroke-opacity="null" stroke-width="0" stroke="#000" fill="#000000">TX</text>
  <text xml:space="preserve" text-anchor="start" font-family="Helvetica, Arial, sans-serif" font-size="24" id="svg_46" y="93.5" x="555.5" fill-opacity="null" stroke-opacity="null" stroke-width="0" stroke="#000" fill="#000000">Montant</text>
  <path transform="rotate(2.00885, 519.04, 225.934)" id="svg_48" d="m516.903564,236.134369l7.45166,-6.300293l-14.407806,0l-14.40744,0l0,-3.899933l0,-3.899902l14.242126,0c7.833557,0 14.242493,-0.197388 14.242493,-0.439087c0,-0.241699 -3.118591,-3.077148 -6.929932,-6.300293l-6.929596,-5.860718l6.404999,0l6.405334,0l9.782471,8.258057l9.782104,8.257568l-9.801147,8.242432l-9.80072,8.241943l-6.74353,0l-6.743103,0l7.452087,-6.299774l0,0z" fill-opacity="null" stroke-opacity="null" stroke-width="1.5" stroke="#000" fill="#fff"/>
  <path transform="rotate(90.1231, 167.04, 291.934)" id="svg_50" d="m164.903534,302.134369l7.451691,-6.300293l-14.407806,0l-14.40744,0l0,-3.899933l0,-3.899902l14.242126,0c7.833557,0 14.242493,-0.197388 14.242493,-0.439087c0,-0.241699 -3.118591,-3.077148 -6.929932,-6.300293l-6.929596,-5.860718l6.404999,0l6.405334,0l9.782471,8.258057l9.782104,8.257568l-9.801147,8.242432l-9.80072,8.241943l-6.7435,0l-6.743134,0l7.452057,-6.299774l0,0z" fill-opacity="null" stroke-opacity="null" stroke-width="1.5" stroke="#000" fill="#fff"/>
  <path transform="rotate(90.1231, 606.04, 152.934)" id="svg_51" d="m603.903564,163.134369l7.45166,-6.300293l-14.407837,0l-14.40741,0l0,-3.899933l0,-3.899902l14.242126,0c7.833557,0 14.242493,-0.197388 14.242493,-0.439087c0,-0.241699 -3.118591,-3.077148 -6.929932,-6.300293l-6.929626,-5.860718l6.405029,0l6.405334,0l9.782471,8.258057l9.782104,8.257568l-9.801147,8.242432l-9.80072,8.241943l-6.74353,0l-6.743103,0l7.452087,-6.299774l0,0z" fill-opacity="null" stroke-opacity="null" stroke-width="1.5" stroke="#000" fill="#fff"/>
  <path transform="rotate(90.1231, 606.04, 152.934)" id="svg_52" d="m603.903564,163.134369l7.45166,-6.300293l-14.407837,0l-14.40741,0l0,-3.899933l0,-3.899902l14.242126,0c7.833557,0 14.242493,-0.197388 14.242493,-0.439087c0,-0.241699 -3.118591,-3.077148 -6.929932,-6.300293l-6.929626,-5.860718l6.405029,0l6.405334,0l9.782471,8.258057l9.782104,8.257568l-9.801147,8.242432l-9.80072,8.241943l-6.74353,0l-6.743103,0l7.452087,-6.299774l0,0z" fill-opacity="null" stroke-opacity="null" stroke-width="1.5" stroke="#000" fill="#fff"/>
  <path transform="rotate(-179.434, 691.04, 352.934)" id="svg_53" d="m688.903564,363.134369l7.45166,-6.300293l-14.407837,0l-14.40741,0l0,-3.899933l0,-3.899902l14.242126,0c7.833557,0 14.242493,-0.197388 14.242493,-0.439087c0,-0.241699 -3.118591,-3.077148 -6.929932,-6.300293l-6.929626,-5.860718l6.405029,0l6.405334,0l9.782471,8.258057l9.782104,8.257568l-9.801147,8.242432l-9.80072,8.241943l-6.74353,0l-6.743103,0l7.452087,-6.299774l0,0z" fill-opacity="null" stroke-width="1.5" stroke="#bf0000" fill="#fff"/>
  <path transform="rotate(90.1231, 312.259, 553.934)" id="svg_55" d="m310.122131,564.134399l7.451691,-6.300293l-14.407806,0l-14.40744,0l0,-3.899963l0,-3.899902l14.242126,0c7.833557,0 14.242493,-0.197388 14.242493,-0.439087c0,-0.241699 -3.118591,-3.077148 -6.929932,-6.300293l-6.929596,-5.860718l6.404999,0l6.405334,0l9.782471,8.258057l9.782104,8.257568l-9.801147,8.242432l-9.80072,8.241943l-6.7435,0l-6.743134,0l7.452057,-6.299744l0,0z" fill-opacity="null" stroke-opacity="null" stroke-width="1.5" stroke="#000" fill="#fff"/>
  <path id="svg_57" d="m732.725342,240.76152c1.492493,-0.432541 2.717102,-0.834869 0.396606,-0.846954c-2.045654,0.217026 -7.340698,-1.378189 -3.096313,-2.163208c2.65448,-0.818253 8.69751,1.071533 8.728821,-2.16069c-0.480103,-2.025742 -8.27655,-0.444122 -5.712524,-3.161224c2.824951,-0.910904 8.426147,1.236191 9.372437,-1.583633c-0.869751,-2.734222 -6.300476,-0.988953 -9.028015,-1.744766c-2.647522,0.430527 -3.343323,-2.315781 -0.375732,-1.901367c6.867554,-0.292053 13.780334,0.136963 20.623535,-0.459732c1.102844,-0.482895 1.92041,-3.455292 0.52533,-3.655701c-9.967346,-0.162643 -19.948608,-0.013092 -29.902039,-0.499008c-3.572937,-0.029709 -0.841919,-3.042892 1.798645,-2.334915c2.51532,-0.650574 3.513794,-2.356064 5.361145,-4.039902c0.94281,-3.680878 -3.590332,-2.31427 -5.444641,-1.237198c-2.070007,1.070023 -5.625549,3.291641 -7.514648,4.458344c-1.656006,0.944138 -5.465515,1.991501 -7.782532,3.257904c-1.983032,0.555405 -4.153931,0.278961 -6.098694,0.378662c0,4.987061 0,9.974121 0,14.961182c5.507263,1.892807 11.303284,3.555496 17.408936,3.365158c3.576416,-0.011581 7.253723,0.094162 10.739685,-0.63295l0,0zm-22.693542,1.599243c-2.811035,-0.852493 -5.615112,-1.716064 -8.401794,-2.619919c0.132202,-6.22728 0.267883,-12.455063 0.400085,-18.682846c2.223083,-0.066971 5.524658,0.804153 7.111084,-0.477859c4.26178,-1.080093 7.027588,-3.468384 10.764038,-5.260986c2.633606,-1.630966 4.731445,-2.187881 7.448547,-3.425079c2.063049,-0.752792 3.17981,-0.368591 5.503784,-0.03978c1.01239,1.308701 2.27179,1.984955 1.617737,4.478485c-1.360291,0.540802 -3.131104,4.17485 -0.452271,4.203552c7.452026,0.563965 15.022339,-0.228104 22.415222,0.756821c1.840393,1.966827 2.191772,6.386398 -1.179382,7.633667c-3.221558,0.735672 -6.620544,0.371109 -9.936035,0.459229c0,1.861084 0.393127,4.235779 -2.226563,5.170349c-1.934326,1.989487 -2.066528,4.91153 -5.180237,6.367264c-2.61969,2.117905 -6.349182,2.772507 -9.984741,2.702499c-5.963013,0.063446 -12.239136,0.515137 -17.899475,-1.264893l0,-0.000504l0,0z" fill-opacity="null" stroke-width="1.5" stroke="#000000" fill="#fff"/>
  <text transform="matrix(0.911592, 0, 0, 1, 67.0133, 0)" xml:space="preserve" text-anchor="start" font-family="Helvetica, Arial, sans-serif" font-size="24" id="svg_58" y="78" x="829.303839" fill-opacity="null" stroke-width="0" stroke="#000000" fill="#000000">tx/sources/[cl&#xE9; public]</text>
  <text transform="rotate(0.263414, 1026.04, 242.122) matrix(0.921086, 0, 0, 0.987019, 59.7494, -2.87108)" xml:space="preserve" text-anchor="start" font-family="Helvetica, Arial, sans-serif" font-size="24" id="svg_59" y="256.0718" x="862.611008" fill-opacity="null" stroke-width="0" stroke="#000000" fill="#000000">&gt; liste inputs - check solde suffisant</text>
  <text transform="matrix(0.911592, 0, 0, 1, 67.0133, 0)" xml:space="preserve" text-anchor="start" font-family="Helvetica, Arial, sans-serif" font-size="24" id="svg_60" y="78" x="1099.1614" fill-opacity="null" stroke-width="0" stroke="#000000" fill="#000000">/blockchain/current</text>
  <text xml:space="preserve" text-anchor="start" font-family="Helvetica, Arial, sans-serif" font-size="24" id="svg_64" y="282" x="853" fill-opacity="null" stroke-width="0" stroke="#000000" fill="#000000">&gt; obtenir le hash du dernier block</text>
  <path transform="rotate(90.7826, 1045.79, 133.183)" id="svg_67" d="m1067.907227,125.111481l-7.243652,-8.073761l0,8.9841l-12.98938,0c-2.276001,0.328323 -6.204224,-4.654221 -10.569946,-11.266441c-4.397705,-6.271957 -9.422852,-13.967644 -16.150513,-14.173592l-4.530457,0l0,14.321831l4.530457,0c3.293823,-0.185051 7.354858,4.819382 11.68457,11.276405c1.612915,2.25647 3.240234,4.744751 4.960571,6.991272c-1.720337,2.250519 -3.347656,4.741791 -4.960571,6.997253c-4.329712,6.439117 -8.390747,11.454498 -11.68457,11.272415l-4.530457,0l0,14.343735l4.530457,0c6.716797,-0.181076 11.742065,-7.898651 16.154175,-14.161652c4.369141,-6.612228 8.293945,-11.597763 10.569824,-11.275406l12.98584,0l0,8.9841l7.243652,-8.065781l7.240234,-8.07077l-7.240234,-8.08371l0,0z" fill-opacity="null" stroke-opacity="null" stroke-width="1.5" stroke="#000000" fill="#fff"/>
  <text xml:space="preserve" text-anchor="start" font-family="Helvetica, Arial, sans-serif" font-size="24" id="svg_68" y="371" x="849" fill-opacity="null" stroke-width="0" stroke="#000000" fill="#000000">&gt; d&#xE9;finir la liste unlocks</text>
  <text xml:space="preserve" text-anchor="start" font-family="Helvetica, Arial, sans-serif" font-size="24" id="svg_69" y="400" x="848" fill-opacity="null" stroke-width="0" stroke="#000000" fill="#000000">&gt; d&#xE9;finir la liste outputs</text>
  <rect id="svg_74" height="62" width="415.99998" y="576" x="830.000044" fill-opacity="null" stroke-width="1.5" stroke="#007fff" fill="#fff"/>
  <text xml:space="preserve" text-anchor="start" font-family="Helvetica, Arial, sans-serif" font-size="24" id="svg_75" y="612.5" x="993" fill-opacity="null" stroke-opacity="null" stroke-width="0" stroke="#000" fill="#000000">Signature</text>
  <path transform="rotate(2.00885, 428.04, 617.934)" id="svg_80" d="m425.903534,628.134399l7.451691,-6.300293l-14.407806,0l-14.40744,0l0,-3.899963l0,-3.899902l14.242126,0c7.833557,0 14.242493,-0.197388 14.242493,-0.439087c0,-0.241699 -3.118591,-3.077148 -6.929932,-6.300293l-6.929596,-5.860718l6.404999,0l6.405334,0l9.782471,8.258057l9.782104,8.257568l-9.801147,8.242432l-9.80072,8.241943l-6.7435,0l-6.743134,0l7.452057,-6.299744l0,0z" fill-opacity="null" stroke-opacity="null" stroke-width="1.5" stroke="#000" fill="#fff"/>
  <rect id="svg_81" height="53.999999" width="216.999988" y="592.999998" x="470.000012" fill-opacity="null" stroke-opacity="null" stroke-width="1.5" stroke="#000" fill="#fff"/>
  <text transform="matrix(0.842778, 0, 0, 0.868798, 81.2839, 82.2682)" xml:space="preserve" text-anchor="start" font-family="Helvetica, Arial, sans-serif" font-size="24" id="svg_82" y="626.906092" x="486.149633" fill-opacity="null" stroke-opacity="null" stroke-width="0" stroke="#000" fill="#000000">BASE64(Signature)</text>
  <path transform="rotate(2.00885, 744.04, 613.934)" id="svg_83" d="m741.903564,624.134399l7.45166,-6.300293l-14.407837,0l-14.40741,0l0,-3.899963l0,-3.899902l14.242126,0c7.833557,0 14.242493,-0.197388 14.242493,-0.439087c0,-0.241699 -3.118591,-3.077148 -6.929932,-6.300293l-6.929626,-5.860718l6.405029,0l6.405334,0l9.782471,8.258057l9.782104,8.257568l-9.801147,8.242432l-9.80072,8.241943l-6.74353,0l-6.743103,0l7.452087,-6.299744l0,0z" fill-opacity="null" stroke-opacity="null" stroke-width="1.5" stroke="#000" fill="#fff"/>
  <path id="svg_85" d="m1330.725342,399.761536c1.492432,-0.432556 2.717041,-0.8349 0.396606,-0.846985c-2.045654,0.217041 -7.340698,-1.378174 -3.096313,-2.163208c2.654541,-0.818237 8.69751,1.071533 8.72876,-2.160675c-0.47998,-2.025726 -8.276489,-0.444122 -5.712402,-3.161224c2.824951,-0.910889 8.426025,1.236206 9.372314,-1.583618c-0.869629,-2.734253 -6.300415,-0.988953 -9.027954,-1.744781c-2.647583,0.430511 -3.343384,-2.315765 -0.375732,-1.901367c6.867554,-0.292053 13.780396,0.136963 20.623535,-0.459747c1.102905,-0.48288 1.92041,-3.455261 0.525269,-3.655701c-9.967285,-0.162628 -19.948486,-0.013062 -29.901978,-0.498993c-3.572876,-0.029694 -0.841919,-3.042877 1.798706,-2.33493c2.515259,-0.650574 3.513672,-2.356049 5.361084,-4.039886c0.942871,-3.680878 -3.590332,-2.31427 -5.44458,-1.237213c-2.070068,1.070038 -5.62561,3.291656 -7.514648,4.458374c-1.656006,0.944122 -5.465576,1.991486 -7.782593,3.257874c-1.983032,0.55542 -4.153931,0.278992 -6.098755,0.378662c0,4.987061 0,9.974121 0,14.961182c5.507324,1.892822 11.303345,3.555511 17.408936,3.365173c3.576416,-0.011597 7.253784,0.094177 10.739746,-0.632935l0,0zm-22.693604,1.599243c-2.811035,-0.852509 -5.61499,-1.716064 -8.401733,-2.619934c0.132202,-6.227295 0.267944,-12.455078 0.400024,-18.682861c2.223145,-0.066956 5.524658,0.804169 7.111084,-0.477844c4.261841,-1.080078 7.027588,-3.468384 10.76416,-5.260986c2.633545,-1.630981 4.731445,-2.187866 7.448486,-3.425079c2.062988,-0.752777 3.17981,-0.368591 5.503784,-0.039764c1.012329,1.308685 2.271851,1.984924 1.617798,4.478455c-1.360352,0.540833 -3.131104,4.174866 -0.452393,4.203552c7.452148,0.563965 15.022461,-0.228088 22.415283,0.756836c1.840332,1.966827 2.191772,6.386414 -1.179443,7.633667c-3.221436,0.735657 -6.620483,0.371094 -9.936035,0.459229c0,1.861084 0.393188,4.235779 -2.226563,5.170349c-1.934326,1.989502 -2.066406,4.91153 -5.180176,6.367249c-2.619629,2.11792 -6.349121,2.772522 -9.984741,2.702515c-5.963013,0.063446 -12.239136,0.515137 -17.899536,-1.264893l0,-0.000488l0,0z" fill-opacity="null" stroke-width="1.5" stroke="#000000" fill="#fff"/>
  <rect id="svg_88" height="45" width="136.999999" y="363" x="1371.99999" fill-opacity="null" stroke-width="1.5" stroke="#00bf5f" fill="#fff"/>
  <text transform="matrix(0.911592, 0, 0, 1, 67.0133, 0)" xml:space="preserve" text-anchor="start" font-family="Helvetica, Arial, sans-serif" font-size="24" id="svg_89" y="393" x="1445.807695" fill-opacity="null" stroke-width="0" stroke="#000000" fill="#000000">/tx/process</text>
  <text xml:space="preserve" text-anchor="start" font-family="Helvetica, Arial, sans-serif" font-size="24" id="svg_90" y="481" x="905" fill-opacity="null" stroke-width="0" stroke="#000000" fill="#000000">&lt;&lt;&lt; envois vers SHA256</text>
 </g>
</svg>
