<?xml version="1.0" encoding="UTF-8" standalone="no"?>
<!DOCTYPE svg PUBLIC "-//W3C//DTD SVG 1.1//EN"
 "http://www.w3.org/Graphics/SVG/1.1/DTD/svg11.dtd">
<!-- Generated by graphviz version 2.40.1 (20161225.0304)
 -->
<!-- Title: %3 Pages: 1 -->
<svg width="1353pt" height="1117pt"
 viewBox="0.00 0.00 1353.45 1117.00" xmlns="http://www.w3.org/2000/svg" xmlns:xlink="http://www.w3.org/1999/xlink">
<g id="graph0" class="graph" transform="scale(1 1) rotate(0) translate(4 1113)">
<title>%3</title>
<polygon fill="#ffffff" stroke="transparent" points="-4,4 -4,-1113 1349.4549,-1113 1349.4549,4 -4,4"/>
<g id="clust1" class="cluster">
<title>cluster_127124</title>
<polygon fill="#d3d3d3" stroke="#d3d3d3" points="8,-62 8,-723 259.9887,-723 259.9887,-62 8,-62"/>
</g>
<g id="clust2" class="cluster">
<title>cluster_127124Tx</title>
<polygon fill="none" stroke="#000000" stroke-dasharray="1,5" points="50.9943,-586 50.9943,-715 216.9943,-715 216.9943,-586 50.9943,-586"/>
<text text-anchor="middle" x="133.9943" y="-699.8" font-family="Times,serif" font-size="14.00" fill="#000000">Transactions</text>
</g>
<g id="clust3" class="cluster">
<title>cluster_127125</title>
<polygon fill="#d3d3d3" stroke="#d3d3d3" points="279.9887,-62 279.9887,-993 531.9773,-993 531.9773,-62 279.9887,-62"/>
</g>
<g id="clust4" class="cluster">
<title>cluster_127125Tx</title>
<polygon fill="none" stroke="#000000" stroke-dasharray="1,5" points="320.483,-586 320.483,-985 491.483,-985 491.483,-586 320.483,-586"/>
<text text-anchor="middle" x="405.983" y="-969.8" font-family="Times,serif" font-size="14.00" fill="#000000">Transactions</text>
</g>
<g id="clust5" class="cluster">
<title>cluster_127126</title>
<polygon fill="#d3d3d3" stroke="#d3d3d3" points="551.9773,-62 551.9773,-777 796.9737,-777 796.9737,-62 551.9773,-62"/>
</g>
<g id="clust6" class="cluster">
<title>cluster_127126Tx</title>
<polygon fill="none" stroke="#000000" stroke-dasharray="1,5" points="593.9755,-586 593.9755,-769 754.9755,-769 754.9755,-586 593.9755,-586"/>
<text text-anchor="middle" x="674.4755" y="-753.8" font-family="Times,serif" font-size="14.00" fill="#000000">Transactions</text>
</g>
<g id="clust7" class="cluster">
<title>cluster_127127</title>
<polygon fill="#d3d3d3" stroke="#d3d3d3" points="816.9737,-62 816.9737,-831 1067.2143,-831 1067.2143,-62 816.9737,-62"/>
</g>
<g id="clust8" class="cluster">
<title>cluster_127127Tx</title>
<polygon fill="none" stroke="#000000" stroke-dasharray="1,5" points="852.594,-586 852.594,-823 1031.594,-823 1031.594,-586 852.594,-586"/>
<text text-anchor="middle" x="942.094" y="-807.8" font-family="Times,serif" font-size="14.00" fill="#000000">Transactions</text>
</g>
<g id="clust9" class="cluster">
<title>cluster_127128</title>
<polygon fill="#d3d3d3" stroke="#d3d3d3" points="1087.2143,-8 1087.2143,-1101 1337.4549,-1101 1337.4549,-8 1087.2143,-8"/>
</g>
<g id="clust10" class="cluster">
<title>cluster_127128Tx</title>
<polygon fill="none" stroke="#000000" stroke-dasharray="1,5" points="1126.8346,-586 1126.8346,-1093 1297.8346,-1093 1297.8346,-586 1126.8346,-586"/>
<text text-anchor="middle" x="1212.3346" y="-1077.8" font-family="Times,serif" font-size="14.00" fill="#000000">Transactions</text>
</g>
<!-- _127124 -->
<g id="node1" class="node">
<title>_127124</title>
<g id="a_node1"><a xlink:href="/graphviz/svg/block/127124" xlink:title=" &#160;Block #\n127124 &#160;">
<polygon fill="none" stroke="#000000" points="167.4943,-576 104.4943,-576 100.4943,-572 100.4943,-538 163.4943,-538 167.4943,-542 167.4943,-576"/>
<polyline fill="none" stroke="#000000" points="163.4943,-572 100.4943,-572 "/>
<polyline fill="none" stroke="#000000" points="163.4943,-572 163.4943,-538 "/>
<polyline fill="none" stroke="#000000" points="163.4943,-572 167.4943,-576 "/>
<text text-anchor="middle" x="133.9943" y="-560.8" font-family="Times,serif" font-size="14.00" fill="#000000"> &#160;Block #</text>
<text text-anchor="middle" x="133.9943" y="-545.8" font-family="Times,serif" font-size="14.00" fill="#000000">127124 &#160;</text>
</a>
</g>
</g>
<!-- _127125 -->
<g id="node9" class="node">
<title>_127125</title>
<g id="a_node9"><a xlink:href="/graphviz/svg/block/127125" xlink:title=" &#160;Block #\n127125 &#160;">
<polygon fill="none" stroke="#000000" points="439.483,-576 376.483,-576 372.483,-572 372.483,-538 435.483,-538 439.483,-542 439.483,-576"/>
<polyline fill="none" stroke="#000000" points="435.483,-572 372.483,-572 "/>
<polyline fill="none" stroke="#000000" points="435.483,-572 435.483,-538 "/>
<polyline fill="none" stroke="#000000" points="435.483,-572 439.483,-576 "/>
<text text-anchor="middle" x="405.983" y="-560.8" font-family="Times,serif" font-size="14.00" fill="#000000"> &#160;Block #</text>
<text text-anchor="middle" x="405.983" y="-545.8" font-family="Times,serif" font-size="14.00" fill="#000000">127125 &#160;</text>
</a>
</g>
</g>
<!-- _127124&#45;&gt;_127125 -->
<g id="edge9" class="edge">
<title>_127124&#45;&gt;_127125</title>
<path fill="none" stroke="#000000" d="M167.6183,-557C216.6533,-557 307.8341,-557 362.0986,-557"/>
<polygon fill="#000000" stroke="#000000" points="362.4359,-560.5001 372.4358,-557 362.4358,-553.5001 362.4359,-560.5001"/>
</g>
<!-- _127124hash -->
<g id="node2" class="node">
<title>_127124hash</title>
<polygon fill="none" stroke="transparent" points="216.9943,-520 50.9943,-520 50.9943,-484 216.9943,-484 216.9943,-520"/>
<polyline fill="none" stroke="#000000" points="50.9943,-484 216.9943,-484 "/>
<text text-anchor="middle" x="133.9943" y="-498.3" font-family="Times,serif" font-size="14.00" fill="#000000">Hash: 000000D...FE2F7EF</text>
</g>
<!-- _127125phash -->
<g id="node11" class="node">
<title>_127125phash</title>
<polygon fill="none" stroke="transparent" points="492.483,-466 319.483,-466 319.483,-430 492.483,-430 492.483,-466"/>
<polyline fill="none" stroke="#000000" points="319.483,-430 492.483,-430 "/>
<text text-anchor="middle" x="405.983" y="-444.3" font-family="Times,serif" font-size="14.00" fill="#000000">PHash: 000000D...FE2F7EF</text>
</g>
<!-- _127124hash&#45;&gt;_127125phash -->
<g id="edge1" class="edge">
<title>_127124hash&#45;&gt;_127125phash</title>
<path fill="none" stroke="#000000" stroke-dasharray="1,5" d="M217.0778,-485.5048C246.1319,-479.7365 279.0031,-473.2103 309.0852,-467.2379"/>
<polygon fill="#000000" stroke="#000000" points="310.0435,-470.616 319.1704,-465.2356 308.6802,-463.75 310.0435,-470.616"/>
</g>
<!-- _127124phash -->
<g id="node3" class="node">
<title>_127124phash</title>
<polygon fill="none" stroke="transparent" points="223.9943,-466 43.9943,-466 43.9943,-430 223.9943,-430 223.9943,-466"/>
<polyline fill="none" stroke="#000000" points="43.9943,-430 223.9943,-430 "/>
<text text-anchor="middle" x="133.9943" y="-444.3" font-family="Times,serif" font-size="14.00" fill="#000000">PHash: 0000029...D8DFABA</text>
</g>
<!-- _127124issuer -->
<g id="node4" class="node">
<title>_127124issuer</title>
<g id="a_node4"><a xlink:href="/graphviz/svg/certs/FVUFRrk1K5TQGsY7PRLwqHgdHRoHrwb1hcucp4C2N5tD" xlink:title="issuer:\nFVUFRrk...4C2N5tD">
<polygon fill="none" stroke="#000000" points="251.983,-389.3298 133.9943,-412.4278 16.0057,-389.3298 16.1158,-351.9563 251.8729,-351.9563 251.983,-389.3298"/>
<text text-anchor="middle" x="133.9943" y="-382.8" font-family="Times,serif" font-size="14.00" fill="#000000">issuer:</text>
<text text-anchor="middle" x="133.9943" y="-367.8" font-family="Times,serif" font-size="14.00" fill="#000000">FVUFRrk...4C2N5tD</text>
</a>
</g>
</g>
<!-- _127125pissuer -->
<g id="node13" class="node">
<title>_127125pissuer</title>
<polygon fill="none" stroke="#000000" points="523.9716,-305.3298 405.983,-328.4278 287.9943,-305.3298 288.1045,-267.9563 523.8615,-267.9563 523.9716,-305.3298"/>
<text text-anchor="middle" x="405.983" y="-298.8" font-family="Times,serif" font-size="14.00" fill="#000000">pissuer:</text>
<text text-anchor="middle" x="405.983" y="-283.8" font-family="Times,serif" font-size="14.00" fill="#000000">FVUFRrk...4C2N5tD</text>
</g>
<!-- _127124issuer&#45;&gt;_127125pissuer -->
<g id="edge5" class="edge">
<title>_127124issuer&#45;&gt;_127125pissuer</title>
<path fill="none" stroke="#000000" stroke-dasharray="1,5" d="M221.9256,-351.8436C256.676,-341.1114 296.2313,-328.8953 329.7438,-318.5454"/>
<polygon fill="#000000" stroke="#000000" points="330.9592,-321.8333 339.4811,-315.5382 328.8935,-315.145 330.9592,-321.8333"/>
</g>
<!-- _127124pissuer -->
<g id="node5" class="node">
<title>_127124pissuer</title>
<polygon fill="none" stroke="#000000" points="251.235,-305.3298 133.9943,-328.4278 16.7536,-305.3298 16.863,-267.9563 251.1256,-267.9563 251.235,-305.3298"/>
<text text-anchor="middle" x="133.9943" y="-298.8" font-family="Times,serif" font-size="14.00" fill="#000000">pissuer:</text>
<text text-anchor="middle" x="133.9943" y="-283.8" font-family="Times,serif" font-size="14.00" fill="#000000">4fHMTFB...1zt4n2m</text>
</g>
<!-- _127124info -->
<g id="node6" class="node">
<title>_127124info</title>
<text text-anchor="start" x="59.4943" y="-228.3" font-family="Times,serif" font-size="14.00" fill="#000000">Mbr: 1120</text>
<text text-anchor="start" x="59.4943" y="-213.3" font-family="Times,serif" font-size="14.00" fill="#000000">Cur: g1</text>
<text text-anchor="start" x="59.4943" y="-198.3" font-family="Times,serif" font-size="14.00" fill="#000000">Ver: 10</text>
<text text-anchor="start" x="59.4943" y="-183.3" font-family="Times,serif" font-size="14.00" fill="#000000">Pow: 90</text>
<text text-anchor="start" x="59.4943" y="-168.3" font-family="Times,serif" font-size="14.00" fill="#000000">issCnt: 32</text>
<text text-anchor="start" x="59.4943" y="-153.3" font-family="Times,serif" font-size="14.00" fill="#000000">issFrm: 161</text>
<text text-anchor="start" x="59.4943" y="-138.3" font-family="Times,serif" font-size="14.00" fill="#000000">issFVar: 0</text>
<text text-anchor="start" x="59.4943" y="-123.3" font-family="Times,serif" font-size="14.00" fill="#000000">M.M: 210918381</text>
<text text-anchor="start" x="59.4943" y="-108.3" font-family="Times,serif" font-size="14.00" fill="#000000">Tim: 2018&#45;06&#45;10 12:55:17</text>
<text text-anchor="start" x="59.4943" y="-93.3" font-family="Times,serif" font-size="14.00" fill="#000000">DeltaTime: 5m 4s</text>
<text text-anchor="start" x="59.4943" y="-78.3" font-family="Times,serif" font-size="14.00" fill="#000000">Sign: oeUyvoK...8xhBg==</text>
</g>
<!-- tx22600898069319E8A64E383CBF1E0A5E284BD1BD8564347C13B1FDC44CA3B785 -->
<g id="node7" class="node">
<title>tx22600898069319E8A64E383CBF1E0A5E284BD1BD8564347C13B1FDC44CA3B785</title>
<g id="a_node7"><a xlink:href="/graphviz/svg/tx/22600898069319E8A64E383CBF1E0A5E284BD1BD8564347C13B1FDC44CA3B785" xlink:title=" &#160;CCdjH7P...iVV6NwJ &#160;">
<polygon fill="none" stroke="#000000" points="190.9943,-678 58.9943,-678 58.9943,-654 190.9943,-654 190.9943,-648 208.9943,-666 190.9943,-684 190.9943,-678"/>
<text text-anchor="middle" x="133.9943" y="-662.3" font-family="Times,serif" font-size="14.00" fill="#000000"> &#160;CCdjH7P...iVV6NwJ &#160;</text>
</a>
</g>
</g>
<!-- tx4CA631D1D3E0C84879D9EBDD55713B060F0A649A97E4095873892B00134AF291 -->
<g id="node8" class="node">
<title>tx4CA631D1D3E0C84879D9EBDD55713B060F0A649A97E4095873892B00134AF291</title>
<g id="a_node8"><a xlink:href="/graphviz/svg/tx/4CA631D1D3E0C84879D9EBDD55713B060F0A649A97E4095873892B00134AF291" xlink:title=" &#160;9qf8TCz...LcV4Dnx &#160;">
<polygon fill="none" stroke="#000000" points="188.4943,-624 61.4943,-624 61.4943,-600 188.4943,-600 188.4943,-594 206.4943,-612 188.4943,-630 188.4943,-624"/>
<text text-anchor="middle" x="133.9943" y="-608.3" font-family="Times,serif" font-size="14.00" fill="#000000"> &#160;9qf8TCz...LcV4Dnx &#160;</text>
</a>
</g>
</g>
<!-- _127126 -->
<g id="node22" class="node">
<title>_127126</title>
<g id="a_node22"><a xlink:href="/graphviz/svg/block/127126" xlink:title=" &#160;Block #\n127126 &#160;">
<polygon fill="none" stroke="#000000" points="707.9755,-576 644.9755,-576 640.9755,-572 640.9755,-538 703.9755,-538 707.9755,-542 707.9755,-576"/>
<polyline fill="none" stroke="#000000" points="703.9755,-572 640.9755,-572 "/>
<polyline fill="none" stroke="#000000" points="703.9755,-572 703.9755,-538 "/>
<polyline fill="none" stroke="#000000" points="703.9755,-572 707.9755,-576 "/>
<text text-anchor="middle" x="674.4755" y="-560.8" font-family="Times,serif" font-size="14.00" fill="#000000"> &#160;Block #</text>
<text text-anchor="middle" x="674.4755" y="-545.8" font-family="Times,serif" font-size="14.00" fill="#000000">127126 &#160;</text>
</a>
</g>
</g>
<!-- _127125&#45;&gt;_127126 -->
<g id="edge10" class="edge">
<title>_127125&#45;&gt;_127126</title>
<path fill="none" stroke="#000000" d="M439.7159,-557C488.0426,-557 577.0313,-557 630.4768,-557"/>
<polygon fill="#000000" stroke="#000000" points="630.6694,-560.5001 640.6694,-557 630.6694,-553.5001 630.6694,-560.5001"/>
</g>
<!-- _127125hash -->
<g id="node10" class="node">
<title>_127125hash</title>
<polygon fill="none" stroke="transparent" points="486.483,-520 325.483,-520 325.483,-484 486.483,-484 486.483,-520"/>
<polyline fill="none" stroke="#000000" points="325.483,-484 486.483,-484 "/>
<text text-anchor="middle" x="405.983" y="-498.3" font-family="Times,serif" font-size="14.00" fill="#000000">Hash: 0000037...6EB2984</text>
</g>
<!-- _127126phash -->
<g id="node24" class="node">
<title>_127126phash</title>
<polygon fill="none" stroke="transparent" points="758.9755,-466 589.9755,-466 589.9755,-430 758.9755,-430 758.9755,-466"/>
<polyline fill="none" stroke="#000000" points="589.9755,-430 758.9755,-430 "/>
<text text-anchor="middle" x="674.4755" y="-444.3" font-family="Times,serif" font-size="14.00" fill="#000000">PHash: 0000037...6EB2984</text>
</g>
<!-- _127125hash&#45;&gt;_127126phash -->
<g id="edge2" class="edge">
<title>_127125hash&#45;&gt;_127126phash</title>
<path fill="none" stroke="#000000" stroke-dasharray="1,5" d="M486.5396,-485.7982C515.8216,-479.9089 549.1838,-473.199 579.5907,-467.0835"/>
<polygon fill="#000000" stroke="#000000" points="580.6655,-470.4375 589.7791,-465.0344 579.2852,-463.5749 580.6655,-470.4375"/>
</g>
<!-- _127125issuer -->
<g id="node12" class="node">
<title>_127125issuer</title>
<g id="a_node12"><a xlink:href="/graphviz/svg/certs/5SwfQubSat5SunNafCsunEGTY93nVM4kLSsuprNqQb6S" xlink:title="issuer:\n5SwfQub...rNqQb6S">
<polygon fill="none" stroke="#000000" points="520.4794,-389.3298 405.983,-412.4278 291.4866,-389.3298 291.5935,-351.9563 520.3725,-351.9563 520.4794,-389.3298"/>
<text text-anchor="middle" x="405.983" y="-382.8" font-family="Times,serif" font-size="14.00" fill="#000000">issuer:</text>
<text text-anchor="middle" x="405.983" y="-367.8" font-family="Times,serif" font-size="14.00" fill="#000000">5SwfQub...rNqQb6S</text>
</a>
</g>
</g>
<!-- _127126pissuer -->
<g id="node26" class="node">
<title>_127126pissuer</title>
<polygon fill="none" stroke="#000000" points="788.9719,-305.3298 674.4755,-328.4278 559.9791,-305.3298 560.086,-267.9563 788.865,-267.9563 788.9719,-305.3298"/>
<text text-anchor="middle" x="674.4755" y="-298.8" font-family="Times,serif" font-size="14.00" fill="#000000">pissuer:</text>
<text text-anchor="middle" x="674.4755" y="-283.8" font-family="Times,serif" font-size="14.00" fill="#000000">5SwfQub...rNqQb6S</text>
</g>
<!-- _127125issuer&#45;&gt;_127126pissuer -->
<g id="edge6" class="edge">
<title>_127125issuer&#45;&gt;_127126pissuer</title>
<path fill="none" stroke="#000000" stroke-dasharray="1,5" d="M492.784,-351.8436C527.2271,-341.0678 566.4521,-328.796 599.6195,-318.4193"/>
<polygon fill="#000000" stroke="#000000" points="600.7553,-321.7313 609.2541,-315.405 598.6652,-315.0506 600.7553,-321.7313"/>
</g>
<!-- _127125info -->
<g id="node14" class="node">
<title>_127125info</title>
<text text-anchor="start" x="327.483" y="-228.3" font-family="Times,serif" font-size="14.00" fill="#000000">Mbr: 1120</text>
<text text-anchor="start" x="327.483" y="-213.3" font-family="Times,serif" font-size="14.00" fill="#000000">Cur: g1</text>
<text text-anchor="start" x="327.483" y="-198.3" font-family="Times,serif" font-size="14.00" fill="#000000">Ver: 10</text>
<text text-anchor="start" x="327.483" y="-183.3" font-family="Times,serif" font-size="14.00" fill="#000000">Pow: 90</text>
<text text-anchor="start" x="327.483" y="-168.3" font-family="Times,serif" font-size="14.00" fill="#000000">issCnt: 32</text>
<text text-anchor="start" x="327.483" y="-153.3" font-family="Times,serif" font-size="14.00" fill="#000000">issFrm: 161</text>
<text text-anchor="start" x="327.483" y="-138.3" font-family="Times,serif" font-size="14.00" fill="#000000">issFVar: 0</text>
<text text-anchor="start" x="327.483" y="-123.3" font-family="Times,serif" font-size="14.00" fill="#000000">M.M: 210918381</text>
<text text-anchor="start" x="327.483" y="-108.3" font-family="Times,serif" font-size="14.00" fill="#000000">Tim: 2018&#45;06&#45;10 13:00:33</text>
<text text-anchor="start" x="327.483" y="-93.3" font-family="Times,serif" font-size="14.00" fill="#000000">DeltaTime: 5m 16s</text>
<text text-anchor="start" x="327.483" y="-78.3" font-family="Times,serif" font-size="14.00" fill="#000000">Sign: mMDTd5i...ig9Aw==</text>
</g>
<!-- tx822EAED1B379BF79B791519199E655ED13EF7C54221D120A06B55F643EB85507 -->
<g id="node15" class="node">
<title>tx822EAED1B379BF79B791519199E655ED13EF7C54221D120A06B55F643EB85507</title>
<g id="a_node15"><a xlink:href="/graphviz/svg/tx/822EAED1B379BF79B791519199E655ED13EF7C54221D120A06B55F643EB85507" xlink:title=" &#160;3c8Jyzf...hXRdnu1 &#160;">
<polygon fill="none" stroke="#000000" points="456.483,-948 337.483,-948 337.483,-924 456.483,-924 456.483,-918 474.483,-936 456.483,-954 456.483,-948"/>
<text text-anchor="middle" x="405.983" y="-932.3" font-family="Times,serif" font-size="14.00" fill="#000000"> &#160;3c8Jyzf...hXRdnu1 &#160;</text>
</a>
</g>
</g>
<!-- txAC563CB20342554D84E60EABC23EA86CFA8055BA57DF514FA367415CC133A005 -->
<g id="node16" class="node">
<title>txAC563CB20342554D84E60EABC23EA86CFA8055BA57DF514FA367415CC133A005</title>
<g id="a_node16"><a xlink:href="/graphviz/svg/tx/AC563CB20342554D84E60EABC23EA86CFA8055BA57DF514FA367415CC133A005" xlink:title=" &#160;FMTJdP8...vU4LtAc &#160;">
<polygon fill="none" stroke="#000000" points="462.483,-894 331.483,-894 331.483,-870 462.483,-870 462.483,-864 480.483,-882 462.483,-900 462.483,-894"/>
<text text-anchor="middle" x="405.983" y="-878.3" font-family="Times,serif" font-size="14.00" fill="#000000"> &#160;FMTJdP8...vU4LtAc &#160;</text>
</a>
</g>
</g>
<!-- tx2131F621AA1498CCDC95E11F2DEC903ADCC0C88CF64225E51801D96B00D5C137 -->
<g id="node17" class="node">
<title>tx2131F621AA1498CCDC95E11F2DEC903ADCC0C88CF64225E51801D96B00D5C137</title>
<g id="a_node17"><a xlink:href="/graphviz/svg/tx/2131F621AA1498CCDC95E11F2DEC903ADCC0C88CF64225E51801D96B00D5C137" xlink:title=" &#160;646YvKJ...ucjrMKq &#160;">
<polygon fill="none" stroke="#000000" points="460.483,-840 333.483,-840 333.483,-816 460.483,-816 460.483,-810 478.483,-828 460.483,-846 460.483,-840"/>
<text text-anchor="middle" x="405.983" y="-824.3" font-family="Times,serif" font-size="14.00" fill="#000000"> &#160;646YvKJ...ucjrMKq &#160;</text>
</a>
</g>
</g>
<!-- txA3BEBE65DE34034F275924486DC1DE6AF663E34998ECF62B1A445B7036586357 -->
<g id="node18" class="node">
<title>txA3BEBE65DE34034F275924486DC1DE6AF663E34998ECF62B1A445B7036586357</title>
<g id="a_node18"><a xlink:href="/graphviz/svg/tx/A3BEBE65DE34034F275924486DC1DE6AF663E34998ECF62B1A445B7036586357" xlink:title=" &#160;5SwfQub...rNqQb6S &#160;">
<polygon fill="none" stroke="#000000" points="460.983,-786 332.983,-786 332.983,-762 460.983,-762 460.983,-756 478.983,-774 460.983,-792 460.983,-786"/>
<text text-anchor="middle" x="405.983" y="-770.3" font-family="Times,serif" font-size="14.00" fill="#000000"> &#160;5SwfQub...rNqQb6S &#160;</text>
</a>
</g>
</g>
<!-- tx86D011BC75123ACF82A9525827F8B12B7BC75CE1BAB2B98D51FF38FE179FD32A -->
<g id="node19" class="node">
<title>tx86D011BC75123ACF82A9525827F8B12B7BC75CE1BAB2B98D51FF38FE179FD32A</title>
<g id="a_node19"><a xlink:href="/graphviz/svg/tx/86D011BC75123ACF82A9525827F8B12B7BC75CE1BAB2B98D51FF38FE179FD32A" xlink:title=" &#160;9qf8TCz...LcV4Dnx &#160;">
<polygon fill="none" stroke="#000000" points="460.483,-732 333.483,-732 333.483,-708 460.483,-708 460.483,-702 478.483,-720 460.483,-738 460.483,-732"/>
<text text-anchor="middle" x="405.983" y="-716.3" font-family="Times,serif" font-size="14.00" fill="#000000"> &#160;9qf8TCz...LcV4Dnx &#160;</text>
</a>
</g>
</g>
<!-- tx58D6C75A41ADA612871F529A697EAA9EC18A796F83C10EA2620E1B3E3B719C36 -->
<g id="node20" class="node">
<title>tx58D6C75A41ADA612871F529A697EAA9EC18A796F83C10EA2620E1B3E3B719C36</title>
<g id="a_node20"><a xlink:href="/graphviz/svg/tx/58D6C75A41ADA612871F529A697EAA9EC18A796F83C10EA2620E1B3E3B719C36" xlink:title=" &#160;4Sv8X5C...mhvpBRQ &#160;">
<polygon fill="none" stroke="#000000" points="465.483,-678 328.483,-678 328.483,-654 465.483,-654 465.483,-648 483.483,-666 465.483,-684 465.483,-678"/>
<text text-anchor="middle" x="405.983" y="-662.3" font-family="Times,serif" font-size="14.00" fill="#000000"> &#160;4Sv8X5C...mhvpBRQ &#160;</text>
</a>
</g>
</g>
<!-- txE21FEDC6C66205B0656B902F8141A8A92436C5CE787F77989708E4D5D09F8AE5 -->
<g id="node21" class="node">
<title>txE21FEDC6C66205B0656B902F8141A8A92436C5CE787F77989708E4D5D09F8AE5</title>
<g id="a_node21"><a xlink:href="/graphviz/svg/tx/E21FEDC6C66205B0656B902F8141A8A92436C5CE787F77989708E4D5D09F8AE5" xlink:title=" &#160;FMTJdP8...vU4LtAc &#160;">
<polygon fill="none" stroke="#000000" points="462.483,-624 331.483,-624 331.483,-600 462.483,-600 462.483,-594 480.483,-612 462.483,-630 462.483,-624"/>
<text text-anchor="middle" x="405.983" y="-608.3" font-family="Times,serif" font-size="14.00" fill="#000000"> &#160;FMTJdP8...vU4LtAc &#160;</text>
</a>
</g>
</g>
<!-- _127127 -->
<g id="node31" class="node">
<title>_127127</title>
<g id="a_node31"><a xlink:href="/graphviz/svg/block/127127" xlink:title=" &#160;Block #\n127127 &#160;">
<polygon fill="none" stroke="#000000" points="975.594,-576 912.594,-576 908.594,-572 908.594,-538 971.594,-538 975.594,-542 975.594,-576"/>
<polyline fill="none" stroke="#000000" points="971.594,-572 908.594,-572 "/>
<polyline fill="none" stroke="#000000" points="971.594,-572 971.594,-538 "/>
<polyline fill="none" stroke="#000000" points="971.594,-572 975.594,-576 "/>
<text text-anchor="middle" x="942.094" y="-560.8" font-family="Times,serif" font-size="14.00" fill="#000000"> &#160;Block #</text>
<text text-anchor="middle" x="942.094" y="-545.8" font-family="Times,serif" font-size="14.00" fill="#000000">127127 &#160;</text>
</a>
</g>
</g>
<!-- _127126&#45;&gt;_127127 -->
<g id="edge11" class="edge">
<title>_127126&#45;&gt;_127127</title>
<path fill="none" stroke="#000000" d="M708.0986,-557C756.268,-557 844.967,-557 898.2385,-557"/>
<polygon fill="#000000" stroke="#000000" points="898.398,-560.5001 908.398,-557 898.3979,-553.5001 898.398,-560.5001"/>
</g>
<!-- _127126hash -->
<g id="node23" class="node">
<title>_127126hash</title>
<polygon fill="none" stroke="transparent" points="755.9755,-520 592.9755,-520 592.9755,-484 755.9755,-484 755.9755,-520"/>
<polyline fill="none" stroke="#000000" points="592.9755,-484 755.9755,-484 "/>
<text text-anchor="middle" x="674.4755" y="-498.3" font-family="Times,serif" font-size="14.00" fill="#000000">Hash: 0000019...E599EC3</text>
</g>
<!-- _127127phash -->
<g id="node33" class="node">
<title>_127127phash</title>
<polygon fill="none" stroke="transparent" points="1027.094,-466 857.094,-466 857.094,-430 1027.094,-430 1027.094,-466"/>
<polyline fill="none" stroke="#000000" points="857.094,-430 1027.094,-430 "/>
<text text-anchor="middle" x="942.094" y="-444.3" font-family="Times,serif" font-size="14.00" fill="#000000">PHash: 0000019...E599EC3</text>
</g>
<!-- _127126hash&#45;&gt;_127127phash -->
<g id="edge3" class="edge">
<title>_127126hash&#45;&gt;_127127phash</title>
<path fill="none" stroke="#000000" stroke-dasharray="1,5" d="M756.224,-485.5048C784.8113,-479.7365 817.1544,-473.2103 846.7531,-467.2379"/>
<polygon fill="#000000" stroke="#000000" points="847.5661,-470.6444 856.6763,-465.2356 846.1815,-463.7827 847.5661,-470.6444"/>
</g>
<!-- _127126issuer -->
<g id="node25" class="node">
<title>_127126issuer</title>
<g id="a_node25"><a xlink:href="/graphviz/svg/certs/2sZF6j2PkxBDNAqUde7Dgo5x3crkerZpQ4rBqqJGn8QT" xlink:title="issuer:\n2sZF6j2...qJGn8QT">
<polygon fill="none" stroke="#000000" points="784.7317,-389.3298 674.4755,-412.4278 564.2193,-389.3298 564.3222,-351.9563 784.6288,-351.9563 784.7317,-389.3298"/>
<text text-anchor="middle" x="674.4755" y="-382.8" font-family="Times,serif" font-size="14.00" fill="#000000">issuer:</text>
<text text-anchor="middle" x="674.4755" y="-367.8" font-family="Times,serif" font-size="14.00" fill="#000000">2sZF6j2...qJGn8QT</text>
</a>
</g>
</g>
<!-- _127127pissuer -->
<g id="node35" class="node">
<title>_127127pissuer</title>
<polygon fill="none" stroke="#000000" points="1052.3502,-305.3298 942.094,-328.4278 831.8378,-305.3298 831.9407,-267.9563 1052.2473,-267.9563 1052.3502,-305.3298"/>
<text text-anchor="middle" x="942.094" y="-298.8" font-family="Times,serif" font-size="14.00" fill="#000000">pissuer:</text>
<text text-anchor="middle" x="942.094" y="-283.8" font-family="Times,serif" font-size="14.00" fill="#000000">2sZF6j2...qJGn8QT</text>
</g>
<!-- _127126issuer&#45;&gt;_127127pissuer -->
<g id="edge7" class="edge">
<title>_127126issuer&#45;&gt;_127127pissuer</title>
<path fill="none" stroke="#000000" stroke-dasharray="1,5" d="M760.994,-351.8436C795.6029,-340.9806 835.0558,-328.5971 868.2835,-318.1676"/>
<polygon fill="#000000" stroke="#000000" points="869.438,-321.4737 877.9309,-315.1395 867.3416,-314.7949 869.438,-321.4737"/>
</g>
<!-- _127126info -->
<g id="node27" class="node">
<title>_127126info</title>
<text text-anchor="start" x="597.9755" y="-228.3" font-family="Times,serif" font-size="14.00" fill="#000000">Mbr: 1120</text>
<text text-anchor="start" x="597.9755" y="-213.3" font-family="Times,serif" font-size="14.00" fill="#000000">Cur: g1</text>
<text text-anchor="start" x="597.9755" y="-198.3" font-family="Times,serif" font-size="14.00" fill="#000000">Ver: 10</text>
<text text-anchor="start" x="597.9755" y="-183.3" font-family="Times,serif" font-size="14.00" fill="#000000">Pow: 90</text>
<text text-anchor="start" x="597.9755" y="-168.3" font-family="Times,serif" font-size="14.00" fill="#000000">issCnt: 32</text>
<text text-anchor="start" x="597.9755" y="-153.3" font-family="Times,serif" font-size="14.00" fill="#000000">issFrm: 161</text>
<text text-anchor="start" x="597.9755" y="-138.3" font-family="Times,serif" font-size="14.00" fill="#000000">issFVar: 0</text>
<text text-anchor="start" x="597.9755" y="-123.3" font-family="Times,serif" font-size="14.00" fill="#000000">M.M: 210918381</text>
<text text-anchor="start" x="597.9755" y="-108.3" font-family="Times,serif" font-size="14.00" fill="#000000">Tim: 2018&#45;06&#45;10 13:06:09</text>
<text text-anchor="start" x="597.9755" y="-93.3" font-family="Times,serif" font-size="14.00" fill="#000000">DeltaTime: 5m 36s</text>
<text text-anchor="start" x="597.9755" y="-78.3" font-family="Times,serif" font-size="14.00" fill="#000000">Sign: pj3huWb...JYhAw==</text>
</g>
<!-- txFE292BFB45A84341731066A935752182A4F2D465E93C306500D03645D616C239 -->
<g id="node28" class="node">
<title>txFE292BFB45A84341731066A935752182A4F2D465E93C306500D03645D616C239</title>
<g id="a_node28"><a xlink:href="/graphviz/svg/tx/FE292BFB45A84341731066A935752182A4F2D465E93C306500D03645D616C239" xlink:title=" &#160;CYPsYTd...gJ9jjoV &#160;">
<polygon fill="none" stroke="#000000" points="727.4755,-732 603.4755,-732 603.4755,-708 727.4755,-708 727.4755,-702 745.4755,-720 727.4755,-738 727.4755,-732"/>
<text text-anchor="middle" x="674.4755" y="-716.3" font-family="Times,serif" font-size="14.00" fill="#000000"> &#160;CYPsYTd...gJ9jjoV &#160;</text>
</a>
</g>
</g>
<!-- tx9D78EEBAD7945B7D93FFD0699D9243F66D2B84112B3874B044C0DA3F729268BC -->
<g id="node29" class="node">
<title>tx9D78EEBAD7945B7D93FFD0699D9243F66D2B84112B3874B044C0DA3F729268BC</title>
<g id="a_node29"><a xlink:href="/graphviz/svg/tx/9D78EEBAD7945B7D93FFD0699D9243F66D2B84112B3874B044C0DA3F729268BC" xlink:title=" &#160;9qf8TCz...LcV4Dnx &#160;">
<polygon fill="none" stroke="#000000" points="728.9755,-678 601.9755,-678 601.9755,-654 728.9755,-654 728.9755,-648 746.9755,-666 728.9755,-684 728.9755,-678"/>
<text text-anchor="middle" x="674.4755" y="-662.3" font-family="Times,serif" font-size="14.00" fill="#000000"> &#160;9qf8TCz...LcV4Dnx &#160;</text>
</a>
</g>
</g>
<!-- tx3B2D17952F134A7C070C4CBD25D13E57F047665E38F54F3A4BAEFAACD1973BDD -->
<g id="node30" class="node">
<title>tx3B2D17952F134A7C070C4CBD25D13E57F047665E38F54F3A4BAEFAACD1973BDD</title>
<g id="a_node30"><a xlink:href="/graphviz/svg/tx/3B2D17952F134A7C070C4CBD25D13E57F047665E38F54F3A4BAEFAACD1973BDD" xlink:title=" &#160;8EtECvs...SxJorEG &#160;">
<polygon fill="none" stroke="#000000" points="726.4755,-624 604.4755,-624 604.4755,-600 726.4755,-600 726.4755,-594 744.4755,-612 726.4755,-630 726.4755,-624"/>
<text text-anchor="middle" x="674.4755" y="-608.3" font-family="Times,serif" font-size="14.00" fill="#000000"> &#160;8EtECvs...SxJorEG &#160;</text>
</a>
</g>
</g>
<!-- _127128 -->
<g id="node41" class="node">
<title>_127128</title>
<g id="a_node41"><a xlink:href="/graphviz/svg/block/127128" xlink:title=" &#160;Block #\n127128 &#160;">
<polygon fill="none" stroke="#000000" points="1245.8346,-576 1182.8346,-576 1178.8346,-572 1178.8346,-538 1241.8346,-538 1245.8346,-542 1245.8346,-576"/>
<polyline fill="none" stroke="#000000" points="1241.8346,-572 1178.8346,-572 "/>
<polyline fill="none" stroke="#000000" points="1241.8346,-572 1241.8346,-538 "/>
<polyline fill="none" stroke="#000000" points="1241.8346,-572 1245.8346,-576 "/>
<text text-anchor="middle" x="1212.3346" y="-560.8" font-family="Times,serif" font-size="14.00" fill="#000000"> &#160;Block #</text>
<text text-anchor="middle" x="1212.3346" y="-545.8" font-family="Times,serif" font-size="14.00" fill="#000000">127128 &#160;</text>
</a>
</g>
</g>
<!-- _127127&#45;&gt;_127128 -->
<g id="edge12" class="edge">
<title>_127127&#45;&gt;_127128</title>
<path fill="none" stroke="#000000" d="M975.7737,-557C1024.4551,-557 1114.5351,-557 1168.3908,-557"/>
<polygon fill="#000000" stroke="#000000" points="1168.6559,-560.5001 1178.6559,-557 1168.6559,-553.5001 1168.6559,-560.5001"/>
</g>
<!-- _127127hash -->
<g id="node32" class="node">
<title>_127127hash</title>
<polygon fill="none" stroke="transparent" points="1023.094,-520 861.094,-520 861.094,-484 1023.094,-484 1023.094,-520"/>
<polyline fill="none" stroke="#000000" points="861.094,-484 1023.094,-484 "/>
<text text-anchor="middle" x="942.094" y="-498.3" font-family="Times,serif" font-size="14.00" fill="#000000">Hash: 0000045...FC6519E</text>
</g>
<!-- _127128phash -->
<g id="node43" class="node">
<title>_127128phash</title>
<polygon fill="none" stroke="transparent" points="1297.3346,-466 1127.3346,-466 1127.3346,-430 1297.3346,-430 1297.3346,-466"/>
<polyline fill="none" stroke="#000000" points="1127.3346,-430 1297.3346,-430 "/>
<text text-anchor="middle" x="1212.3346" y="-444.3" font-family="Times,serif" font-size="14.00" fill="#000000">PHash: 0000045...FC6519E</text>
</g>
<!-- _127127hash&#45;&gt;_127128phash -->
<g id="edge4" class="edge">
<title>_127127hash&#45;&gt;_127128phash</title>
<path fill="none" stroke="#000000" stroke-dasharray="1,5" d="M1023.1751,-485.7982C1052.7759,-479.8833 1086.5193,-473.1407 1117.231,-467.0038"/>
<polygon fill="#000000" stroke="#000000" points="1117.9664,-470.4261 1127.0867,-465.0344 1116.5947,-463.5618 1117.9664,-470.4261"/>
</g>
<!-- _127127issuer -->
<g id="node34" class="node">
<title>_127127issuer</title>
<g id="a_node34"><a xlink:href="/graphviz/svg/certs/4C4jsvxmFQBoHN86BHsSreTKoK2bYvQV9gAGtH3BMNc3" xlink:title="issuer:\n4C4jsvx...H3BMNc3">
<polygon fill="none" stroke="#000000" points="1059.3347,-389.3298 942.094,-412.4278 824.8533,-389.3298 824.9627,-351.9563 1059.2253,-351.9563 1059.3347,-389.3298"/>
<text text-anchor="middle" x="942.094" y="-382.8" font-family="Times,serif" font-size="14.00" fill="#000000">issuer:</text>
<text text-anchor="middle" x="942.094" y="-367.8" font-family="Times,serif" font-size="14.00" fill="#000000">4C4jsvx...H3BMNc3</text>
</a>
</g>
</g>
<!-- _127128pissuer -->
<g id="node45" class="node">
<title>_127128pissuer</title>
<polygon fill="none" stroke="#000000" points="1329.5753,-305.3298 1212.3346,-328.4278 1095.0939,-305.3298 1095.2033,-267.9563 1329.4659,-267.9563 1329.5753,-305.3298"/>
<text text-anchor="middle" x="1212.3346" y="-298.8" font-family="Times,serif" font-size="14.00" fill="#000000">pissuer:</text>
<text text-anchor="middle" x="1212.3346" y="-283.8" font-family="Times,serif" font-size="14.00" fill="#000000">4C4jsvx...H3BMNc3</text>
</g>
<!-- _127127issuer&#45;&gt;_127128pissuer -->
<g id="edge8" class="edge">
<title>_127127issuer&#45;&gt;_127128pissuer</title>
<path fill="none" stroke="#000000" stroke-dasharray="1,5" d="M1029.4602,-351.8436C1063.9872,-341.1114 1103.2883,-328.8953 1136.5854,-318.5454"/>
<polygon fill="#000000" stroke="#000000" points="1137.7497,-321.8488 1146.2601,-315.5382 1135.6718,-315.1643 1137.7497,-321.8488"/>
</g>
<!-- _127127info -->
<g id="node36" class="node">
<title>_127127info</title>
<text text-anchor="start" x="869.094" y="-228.3" font-family="Times,serif" font-size="14.00" fill="#000000">Mbr: 1120</text>
<text text-anchor="start" x="869.094" y="-213.3" font-family="Times,serif" font-size="14.00" fill="#000000">Cur: g1</text>
<text text-anchor="start" x="869.094" y="-198.3" font-family="Times,serif" font-size="14.00" fill="#000000">Ver: 10</text>
<text text-anchor="start" x="869.094" y="-183.3" font-family="Times,serif" font-size="14.00" fill="#000000">Pow: 90</text>
<text text-anchor="start" x="869.094" y="-168.3" font-family="Times,serif" font-size="14.00" fill="#000000">issCnt: 32</text>
<text text-anchor="start" x="869.094" y="-153.3" font-family="Times,serif" font-size="14.00" fill="#000000">issFrm: 161</text>
<text text-anchor="start" x="869.094" y="-138.3" font-family="Times,serif" font-size="14.00" fill="#000000">issFVar: 0</text>
<text text-anchor="start" x="869.094" y="-123.3" font-family="Times,serif" font-size="14.00" fill="#000000">M.M: 210918381</text>
<text text-anchor="start" x="869.094" y="-108.3" font-family="Times,serif" font-size="14.00" fill="#000000">Tim: 2018&#45;06&#45;10 13:11:55</text>
<text text-anchor="start" x="869.094" y="-93.3" font-family="Times,serif" font-size="14.00" fill="#000000">DeltaTime: 5m 46s</text>
<text text-anchor="start" x="869.094" y="-78.3" font-family="Times,serif" font-size="14.00" fill="#000000">Sign: xrJTufJ...vxsDA==</text>
</g>
<!-- tx1626DC83B03E9F8315E6345F98CFCEA7C13B9C2B73E7D0B5A3E25467B0F6B120 -->
<g id="node37" class="node">
<title>tx1626DC83B03E9F8315E6345F98CFCEA7C13B9C2B73E7D0B5A3E25467B0F6B120</title>
<g id="a_node37"><a xlink:href="/graphviz/svg/tx/1626DC83B03E9F8315E6345F98CFCEA7C13B9C2B73E7D0B5A3E25467B0F6B120" xlink:title=" &#160;G3uAY6t...RfyNPxR &#160;">
<polygon fill="none" stroke="#000000" points="998.594,-786 867.594,-786 867.594,-762 998.594,-762 998.594,-756 1016.594,-774 998.594,-792 998.594,-786"/>
<text text-anchor="middle" x="942.094" y="-770.3" font-family="Times,serif" font-size="14.00" fill="#000000"> &#160;G3uAY6t...RfyNPxR &#160;</text>
</a>
</g>
</g>
<!-- txEAFD56644C9374C4DE38AD3880DB30F109051A84FEE7FF38471694207798D927 -->
<g id="node38" class="node">
<title>txEAFD56644C9374C4DE38AD3880DB30F109051A84FEE7FF38471694207798D927</title>
<g id="a_node38"><a xlink:href="/graphviz/svg/tx/EAFD56644C9374C4DE38AD3880DB30F109051A84FEE7FF38471694207798D927" xlink:title=" &#160;CCdjH7P...iVV6NwJ &#160;">
<polygon fill="none" stroke="#000000" points="999.094,-732 867.094,-732 867.094,-708 999.094,-708 999.094,-702 1017.094,-720 999.094,-738 999.094,-732"/>
<text text-anchor="middle" x="942.094" y="-716.3" font-family="Times,serif" font-size="14.00" fill="#000000"> &#160;CCdjH7P...iVV6NwJ &#160;</text>
</a>
</g>
</g>
<!-- txEE1A59B3413F7930B14F6257332AEB3DD0B551305FF148B8AAF57BF1661B4571 -->
<g id="node39" class="node">
<title>txEE1A59B3413F7930B14F6257332AEB3DD0B551305FF148B8AAF57BF1661B4571</title>
<g id="a_node39"><a xlink:href="/graphviz/svg/tx/EE1A59B3413F7930B14F6257332AEB3DD0B551305FF148B8AAF57BF1661B4571" xlink:title=" &#160;8EtECvs...SxJorEG &#160;">
<polygon fill="none" stroke="#000000" points="994.094,-678 872.094,-678 872.094,-654 994.094,-654 994.094,-648 1012.094,-666 994.094,-684 994.094,-678"/>
<text text-anchor="middle" x="942.094" y="-662.3" font-family="Times,serif" font-size="14.00" fill="#000000"> &#160;8EtECvs...SxJorEG &#160;</text>
</a>
</g>
</g>
<!-- txEBDCC90BE4870C118934B3A4322362ED82EE291B8848896416707B38ABE34B1B -->
<g id="node40" class="node">
<title>txEBDCC90BE4870C118934B3A4322362ED82EE291B8848896416707B38ABE34B1B</title>
<g id="a_node40"><a xlink:href="/graphviz/svg/tx/EBDCC90BE4870C118934B3A4322362ED82EE291B8848896416707B38ABE34B1B" xlink:title=" &#160;9AqQZZV...2HCAeDN &#160;">
<polygon fill="none" stroke="#000000" points="1005.594,-624 860.594,-624 860.594,-600 1005.594,-600 1005.594,-594 1023.594,-612 1005.594,-630 1005.594,-624"/>
<text text-anchor="middle" x="942.094" y="-608.3" font-family="Times,serif" font-size="14.00" fill="#000000"> &#160;9AqQZZV...2HCAeDN &#160;</text>
</a>
</g>
</g>
<!-- _127128hash -->
<g id="node42" class="node">
<title>_127128hash</title>
<polygon fill="none" stroke="transparent" points="1296.8346,-520 1127.8346,-520 1127.8346,-484 1296.8346,-484 1296.8346,-520"/>
<polyline fill="none" stroke="#000000" points="1127.8346,-484 1296.8346,-484 "/>
<text text-anchor="middle" x="1212.3346" y="-498.3" font-family="Times,serif" font-size="14.00" fill="#000000">Hash: 000003C...D082AA7</text>
</g>
<!-- _127128issuer -->
<g id="node44" class="node">
<title>_127128issuer</title>
<g id="a_node44"><a xlink:href="/graphviz/svg/certs/4weakHxDBMJG9NShULG1g786eeGh7wwntMeLZBDhJFni" xlink:title="issuer:\n4weakHx...BDhJFni">
<polygon fill="none" stroke="#000000" points="1324.0869,-389.3298 1212.3346,-412.4278 1100.5822,-389.3298 1100.6866,-351.9563 1323.9826,-351.9563 1324.0869,-389.3298"/>
<text text-anchor="middle" x="1212.3346" y="-382.8" font-family="Times,serif" font-size="14.00" fill="#000000">issuer:</text>
<text text-anchor="middle" x="1212.3346" y="-367.8" font-family="Times,serif" font-size="14.00" fill="#000000">4weakHx...BDhJFni</text>
</a>
</g>
</g>
<!-- _127128info -->
<g id="node46" class="node">
<title>_127128info</title>
<text text-anchor="start" x="1133.8346" y="-228.3" font-family="Times,serif" font-size="14.00" fill="#000000">Mbr: 1120</text>
<text text-anchor="start" x="1133.8346" y="-213.3" font-family="Times,serif" font-size="14.00" fill="#000000">Cur: g1</text>
<text text-anchor="start" x="1133.8346" y="-198.3" font-family="Times,serif" font-size="14.00" fill="#000000">Ver: 10</text>
<text text-anchor="start" x="1133.8346" y="-183.3" font-family="Times,serif" font-size="14.00" fill="#000000">Pow: 90</text>
<text text-anchor="start" x="1133.8346" y="-168.3" font-family="Times,serif" font-size="14.00" fill="#000000">issCnt: 32</text>
<text text-anchor="start" x="1133.8346" y="-153.3" font-family="Times,serif" font-size="14.00" fill="#000000">issFrm: 161</text>
<text text-anchor="start" x="1133.8346" y="-138.3" font-family="Times,serif" font-size="14.00" fill="#000000">issFVar: 0</text>
<text text-anchor="start" x="1133.8346" y="-123.3" font-family="Times,serif" font-size="14.00" fill="#000000">M.M: 210918381</text>
<text text-anchor="start" x="1133.8346" y="-108.3" font-family="Times,serif" font-size="14.00" fill="#000000">Tim: 2018&#45;06&#45;10 13:18:21</text>
<text text-anchor="start" x="1133.8346" y="-93.3" font-family="Times,serif" font-size="14.00" fill="#000000">DeltaTime: 6m 26s</text>
<text text-anchor="start" x="1133.8346" y="-78.3" font-family="Times,serif" font-size="14.00" fill="#000000">Sign: yA0IREL...sDEDw==</text>
</g>
<!-- tx3BE66EE5F40F8E93441D63E1274F8780FB330003B779C374B247DD45B737799E -->
<g id="node47" class="node">
<title>tx3BE66EE5F40F8E93441D63E1274F8780FB330003B779C374B247DD45B737799E</title>
<g id="a_node47"><a xlink:href="/graphviz/svg/tx/3BE66EE5F40F8E93441D63E1274F8780FB330003B779C374B247DD45B737799E" xlink:title=" &#160;3c8Jyzf...hXRdnu1 &#160;">
<polygon fill="none" stroke="#000000" points="1262.8346,-1056 1143.8346,-1056 1143.8346,-1032 1262.8346,-1032 1262.8346,-1026 1280.8346,-1044 1262.8346,-1062 1262.8346,-1056"/>
<text text-anchor="middle" x="1212.3346" y="-1040.3" font-family="Times,serif" font-size="14.00" fill="#000000"> &#160;3c8Jyzf...hXRdnu1 &#160;</text>
</a>
</g>
</g>
<!-- txAA723D11C8BC27CA2C80514B7C3819C5231023723A3F92AABCD4C0A3993C9DC9 -->
<g id="node48" class="node">
<title>txAA723D11C8BC27CA2C80514B7C3819C5231023723A3F92AABCD4C0A3993C9DC9</title>
<g id="a_node48"><a xlink:href="/graphviz/svg/tx/AA723D11C8BC27CA2C80514B7C3819C5231023723A3F92AABCD4C0A3993C9DC9" xlink:title=" &#160;HMZxPj5...WFZh4xS &#160;">
<polygon fill="none" stroke="#000000" points="1271.8346,-1002 1134.8346,-1002 1134.8346,-978 1271.8346,-978 1271.8346,-972 1289.8346,-990 1271.8346,-1008 1271.8346,-1002"/>
<text text-anchor="middle" x="1212.3346" y="-986.3" font-family="Times,serif" font-size="14.00" fill="#000000"> &#160;HMZxPj5...WFZh4xS &#160;</text>
</a>
</g>
</g>
<!-- tx5D3967662622E2C8DA43DC6C2E9E669843020381B26D10BF25F1ACBA7F34E1E4 -->
<g id="node49" class="node">
<title>tx5D3967662622E2C8DA43DC6C2E9E669843020381B26D10BF25F1ACBA7F34E1E4</title>
<g id="a_node49"><a xlink:href="/graphviz/svg/tx/5D3967662622E2C8DA43DC6C2E9E669843020381B26D10BF25F1ACBA7F34E1E4" xlink:title=" &#160;646YvKJ...ucjrMKq &#160;">
<polygon fill="none" stroke="#000000" points="1266.8346,-948 1139.8346,-948 1139.8346,-924 1266.8346,-924 1266.8346,-918 1284.8346,-936 1266.8346,-954 1266.8346,-948"/>
<text text-anchor="middle" x="1212.3346" y="-932.3" font-family="Times,serif" font-size="14.00" fill="#000000"> &#160;646YvKJ...ucjrMKq &#160;</text>
</a>
</g>
</g>
<!-- txDB7C58CC43EFE32B38A992A8927334412B506B96F846CC907C8CE587A25C6286 -->
<g id="node50" class="node">
<title>txDB7C58CC43EFE32B38A992A8927334412B506B96F846CC907C8CE587A25C6286</title>
<g id="a_node50"><a xlink:href="/graphviz/svg/tx/DB7C58CC43EFE32B38A992A8927334412B506B96F846CC907C8CE587A25C6286" xlink:title=" &#160;8ysx7yQ...TqWq73e &#160;">
<polygon fill="none" stroke="#000000" points="1267.3346,-894 1139.3346,-894 1139.3346,-870 1267.3346,-870 1267.3346,-864 1285.3346,-882 1267.3346,-900 1267.3346,-894"/>
<text text-anchor="middle" x="1212.3346" y="-878.3" font-family="Times,serif" font-size="14.00" fill="#000000"> &#160;8ysx7yQ...TqWq73e &#160;</text>
</a>
</g>
</g>
<!-- tx2564089BC9B7D9E8B9B27CD40685C7144002DBABE94ECE9D87C0A33A122761A4 -->
<g id="node51" class="node">
<title>tx2564089BC9B7D9E8B9B27CD40685C7144002DBABE94ECE9D87C0A33A122761A4</title>
<g id="a_node51"><a xlink:href="/graphviz/svg/tx/2564089BC9B7D9E8B9B27CD40685C7144002DBABE94ECE9D87C0A33A122761A4" xlink:title=" &#160;3c8Jyzf...hXRdnu1 &#160;">
<polygon fill="none" stroke="#000000" points="1262.8346,-840 1143.8346,-840 1143.8346,-816 1262.8346,-816 1262.8346,-810 1280.8346,-828 1262.8346,-846 1262.8346,-840"/>
<text text-anchor="middle" x="1212.3346" y="-824.3" font-family="Times,serif" font-size="14.00" fill="#000000"> &#160;3c8Jyzf...hXRdnu1 &#160;</text>
</a>
</g>
</g>
<!-- tx3FD63BE1AFB8F2338B04DB14BD43DBC9CBB3FD2AFDC51B6FE9D323020761AA7E -->
<g id="node52" class="node">
<title>tx3FD63BE1AFB8F2338B04DB14BD43DBC9CBB3FD2AFDC51B6FE9D323020761AA7E</title>
<g id="a_node52"><a xlink:href="/graphviz/svg/tx/3FD63BE1AFB8F2338B04DB14BD43DBC9CBB3FD2AFDC51B6FE9D323020761AA7E" xlink:title=" &#160;4Sv8X5C...mhvpBRQ &#160;">
<polygon fill="none" stroke="#000000" points="1271.8346,-786 1134.8346,-786 1134.8346,-762 1271.8346,-762 1271.8346,-756 1289.8346,-774 1271.8346,-792 1271.8346,-786"/>
<text text-anchor="middle" x="1212.3346" y="-770.3" font-family="Times,serif" font-size="14.00" fill="#000000"> &#160;4Sv8X5C...mhvpBRQ &#160;</text>
</a>
</g>
</g>
<!-- tx1A67BDA3C016434CC7921B57A91D9385290B6141622DC36BFC99196A2E682AC2 -->
<g id="node53" class="node">
<title>tx1A67BDA3C016434CC7921B57A91D9385290B6141622DC36BFC99196A2E682AC2</title>
<g id="a_node53"><a xlink:href="/graphviz/svg/tx/1A67BDA3C016434CC7921B57A91D9385290B6141622DC36BFC99196A2E682AC2" xlink:title=" &#160;FMTJdP8...vU4LtAc &#160;">
<polygon fill="none" stroke="#000000" points="1268.8346,-732 1137.8346,-732 1137.8346,-708 1268.8346,-708 1268.8346,-702 1286.8346,-720 1268.8346,-738 1268.8346,-732"/>
<text text-anchor="middle" x="1212.3346" y="-716.3" font-family="Times,serif" font-size="14.00" fill="#000000"> &#160;FMTJdP8...vU4LtAc &#160;</text>
</a>
</g>
</g>
<!-- txADA1787E9AA7A2A29413A691378E84CA961F29B15CBDFA6E6E8F3454FD3D0FC9 -->
<g id="node54" class="node">
<title>txADA1787E9AA7A2A29413A691378E84CA961F29B15CBDFA6E6E8F3454FD3D0FC9</title>
<g id="a_node54"><a xlink:href="/graphviz/svg/tx/ADA1787E9AA7A2A29413A691378E84CA961F29B15CBDFA6E6E8F3454FD3D0FC9" xlink:title=" &#160;G3uAY6t...RfyNPxR &#160;">
<polygon fill="none" stroke="#000000" points="1268.8346,-678 1137.8346,-678 1137.8346,-654 1268.8346,-654 1268.8346,-648 1286.8346,-666 1268.8346,-684 1268.8346,-678"/>
<text text-anchor="middle" x="1212.3346" y="-662.3" font-family="Times,serif" font-size="14.00" fill="#000000"> &#160;G3uAY6t...RfyNPxR &#160;</text>
</a>
</g>
</g>
<!-- tx695306FDD83A22ED042DB7E97F2C60B64ECDE973337299A69C32972629B8A63C -->
<g id="node55" class="node">
<title>tx695306FDD83A22ED042DB7E97F2C60B64ECDE973337299A69C32972629B8A63C</title>
<g id="a_node55"><a xlink:href="/graphviz/svg/tx/695306FDD83A22ED042DB7E97F2C60B64ECDE973337299A69C32972629B8A63C" xlink:title=" &#160;DymYJzi...tSWJSg5 &#160;">
<polygon fill="none" stroke="#000000" points="1267.3346,-624 1139.3346,-624 1139.3346,-600 1267.3346,-600 1267.3346,-594 1285.3346,-612 1267.3346,-630 1267.3346,-624"/>
<text text-anchor="middle" x="1212.3346" y="-608.3" font-family="Times,serif" font-size="14.00" fill="#000000"> &#160;DymYJzi...tSWJSg5 &#160;</text>
</a>
</g>
</g>
<!-- _127128Ce -->
<g id="node56" class="node">
<title>_127128Ce</title>
<g id="a_node56"><a xlink:href="/graphviz/svg/certs/Fzf73WM6v1vGdSW2UrJWQHj4CWnoKKDwLJ4So2LxZGkV" xlink:title="Certs: 1">
<polygon fill="none" stroke="#000000" points="1253.8467,-26.5442 1253.8467,-41.4558 1229.5295,-52 1195.1397,-52 1170.8225,-41.4558 1170.8225,-26.5442 1195.1397,-16 1229.5295,-16 1253.8467,-26.5442"/>
<text text-anchor="middle" x="1212.3346" y="-30.3" font-family="Times,serif" font-size="14.00" fill="#000000">Certs: 1</text>
</a>
</g>
</g>
</g>
</svg>
