<?xml version="1.0" encoding="UTF-8" standalone="no"?>
<!DOCTYPE svg PUBLIC "-//W3C//DTD SVG 1.1//EN"
        "http://www.w3.org/Graphics/SVG/1.1/DTD/svg11.dtd">
<!-- Generated by graphviz version 2.40.1 (20161225.0304)
 -->
<!-- Title: %3 Pages: 1 -->
<svg width="1243pt" height="959pt"
     viewBox="0.00 0.00 1243.37 959.00" xmlns="http://www.w3.org/2000/svg" xmlns:xlink="http://www.w3.org/1999/xlink">
    <g id="graph0" class="graph" transform="scale(1 1) rotate(0) translate(4 955)">
        <title>%3</title>
        <polygon fill="#ffffff" stroke="transparent" points="-4,4 -4,-955 1239.3737,-955 1239.3737,4 -4,4"/>
        <g id="clust1" class="cluster">
            <title>cluster_inputs</title>
            <polygon fill="none" stroke="#0000ff"
                     points="66.6021,-178 66.6021,-718 129.3979,-718 129.3979,-178 66.6021,-178"/>
            <text text-anchor="middle" x="98" y="-702.8" font-family="Times,serif" font-size="14.00" fill="#000000">
                Inputs
            </text>
        </g>
        <g id="clust2" class="cluster">
            <title>cluster_unlocks</title>
            <polygon fill="none" stroke="#0000ff" points="225,-58 225,-943 349,-943 349,-58 225,-58"/>
            <text text-anchor="middle" x="287" y="-927.8" font-family="Times,serif" font-size="14.00" fill="#000000">
                Unlocks
            </text>
        </g>
        <g id="clust3" class="cluster">
            <title>cluster_outputs</title>
            <polygon fill="none" stroke="#0000ff" points="500,-310 500,-631 764,-631 764,-310 500,-310"/>
            <text text-anchor="middle" x="632" y="-615.8" font-family="Times,serif" font-size="14.00" fill="#000000">
                Outputs
            </text>
        </g>
        <!-- info -->
        <g id="node1" class="node">
            <title>info</title>
            <g id="a_node1">
                <a xlink:href="/graphviz/svg/block/127126"
                   xlink:title="blockstamp: 127126&#45;...E599EC3\lCur: g1\lhash: 3BE66EE...737799E\llocktime: 0\l">
                    <polygon fill="none" stroke="#000000"
                             points="196,-68 193,-72 172,-72 169,-68 0,-68 0,0 196,0 196,-68"/>
                    <text text-anchor="start" x="8" y="-52.8" font-family="Times,serif" font-size="14.00"
                          fill="#000000">blockstamp: 127126&#45;...E599EC3
                    </text>
                    <text text-anchor="start" x="8" y="-37.8" font-family="Times,serif" font-size="14.00"
                          fill="#000000">Cur: g1
                    </text>
                    <text text-anchor="start" x="8" y="-22.8" font-family="Times,serif" font-size="14.00"
                          fill="#000000">hash: 3BE66EE...737799E
                    </text>
                    <text text-anchor="start" x="8" y="-7.8" font-family="Times,serif" font-size="14.00" fill="#000000">
                        locktime: 0
                    </text>
                </a>
            </g>
        </g>
        <!-- good -->
        <g id="node2" class="node">
            <title>good</title>
            <ellipse fill="none" stroke="#000000" cx="1168.4296" cy="-312" rx="66.8882" ry="18"/>
            <text text-anchor="middle" x="1168.4296" y="-308.3" font-family="Times,serif" font-size="14.00"
                  fill="#000000">Product/Service
            </text>
        </g>
        <!-- sum -->
        <g id="node3" class="node">
            <title>sum</title>
            <ellipse fill="none" stroke="#000000" cx="405" cy="-432" rx="27" ry="18"/>
            <text text-anchor="middle" x="405" y="-428.3" font-family="Times,serif" font-size="14.00" fill="#000000">
                sum
            </text>
        </g>
        <!-- lockOut1115927958 -->
        <g id="node22" class="node">
            <title>lockOut1115927958</title>
            <polygon fill="none" stroke="#000000" points="632,-488 511,-450 632,-412 753,-450 632,-488"/>
            <text text-anchor="middle" x="632" y="-453.8" font-family="Times,serif" font-size="14.00" fill="#000000">
                lockOut
            </text>
            <text text-anchor="middle" x="632" y="-438.8" font-family="Times,serif" font-size="14.00" fill="#000000">
                SIG(DsE...tK7ech)
            </text>
        </g>
        <!-- sum&#45;&gt;lockOut1115927958 -->
        <g id="edge17" class="edge">
            <title>sum&#45;&gt;lockOut1115927958</title>
            <path fill="none" stroke="#000000"
                  d="M431.9313,-434.1355C455.2333,-435.9833 490.5208,-438.7814 525.0049,-441.5158"/>
            <polygon fill="#000000" stroke="#000000"
                     points="524.9358,-445.0212 535.1812,-442.3227 525.4892,-438.0431 524.9358,-445.0212"/>
            <text text-anchor="middle" x="470" y="-441.8" font-family="Times,serif" font-size="14.00" fill="#000000">
                SIG
            </text>
        </g>
        <!-- lockOut1570447828 -->
        <g id="node23" class="node">
            <title>lockOut1570447828</title>
            <polygon fill="none" stroke="#000000" points="632,-394 508,-356 632,-318 756,-356 632,-394"/>
            <text text-anchor="middle" x="632" y="-359.8" font-family="Times,serif" font-size="14.00" fill="#000000">
                lockOut
            </text>
            <text text-anchor="middle" x="632" y="-344.8" font-family="Times,serif" font-size="14.00" fill="#000000">
                SIG(3c8...XRdnu1)
            </text>
        </g>
        <!-- sum&#45;&gt;lockOut1570447828 -->
        <g id="edge21" class="edge">
            <title>sum&#45;&gt;lockOut1570447828</title>
            <path fill="none" stroke="#000000"
                  d="M428.7851,-423.4272C435.6226,-420.9942 443.0971,-418.3647 450,-416 486.811,-403.39 527.9739,-389.7788 561.8292,-378.7133"/>
            <polygon fill="#000000" stroke="#000000"
                     points="563.2098,-381.9444 571.6302,-375.5141 561.0377,-375.2899 563.2098,-381.9444"/>
            <text text-anchor="middle" x="470" y="-419.8" font-family="Times,serif" font-size="14.00" fill="#000000">
                SIG
            </text>
        </g>
        <!-- input457658053 -->
        <g id="node4" class="node">
            <title>input457658053</title>
            <g id="a_node4">
                <a xlink:href="/graphviz/svg/block/113274" xlink:title="UD">
                    <ellipse fill="#ffff00" stroke="#ffff00" cx="98" cy="-209" rx="23.2963" ry="23.2963"/>
                    <text text-anchor="middle" x="98" y="-205.3" font-family="Times,serif" font-size="14.00"
                          fill="#000000">UD
                    </text>
                </a>
            </g>
        </g>
        <!-- unlock1971398345 -->
        <g id="node13" class="node">
            <title>unlock1971398345</title>
            <polygon fill="none" stroke="#000000" points="287,-142 233,-104 287,-66 341,-104 287,-142"/>
            <text text-anchor="middle" x="287" y="-107.8" font-family="Times,serif" font-size="14.00" fill="#000000">
                unlock
            </text>
            <text text-anchor="middle" x="287" y="-92.8" font-family="Times,serif" font-size="14.00" fill="#000000">
                SIG(0)
            </text>
        </g>
        <!-- input457658053&#45;&gt;unlock1971398345 -->
        <g id="edge1" class="edge">
            <title>input457658053&#45;&gt;unlock1971398345</title>
            <path fill="none" stroke="#000000"
                  d="M118.5861,-197.5633C149.4979,-180.3901 208.4624,-147.632 247.7645,-125.7975"/>
            <polygon fill="#000000" stroke="#000000"
                     points="249.7713,-128.6865 256.8132,-120.7705 246.3718,-122.5674 249.7713,-128.6865"/>
        </g>
        <!-- input789315063 -->
        <g id="node5" class="node">
            <title>input789315063</title>
            <g id="a_node5">
                <a xlink:href="/graphviz/svg/block/113558" xlink:title="UD">
                    <ellipse fill="#ffff00" stroke="#ffff00" cx="98" cy="-664" rx="23.2963" ry="23.2963"/>
                    <text text-anchor="middle" x="98" y="-660.3" font-family="Times,serif" font-size="14.00"
                          fill="#000000">UD
                    </text>
                </a>
            </g>
        </g>
        <!-- unlock733252153 -->
        <g id="node14" class="node">
            <title>unlock733252153</title>
            <polygon fill="none" stroke="#000000" points="287,-800 233,-762 287,-724 341,-762 287,-800"/>
            <text text-anchor="middle" x="287" y="-765.8" font-family="Times,serif" font-size="14.00" fill="#000000">
                unlock
            </text>
            <text text-anchor="middle" x="287" y="-750.8" font-family="Times,serif" font-size="14.00" fill="#000000">
                SIG(0)
            </text>
        </g>
        <!-- input789315063&#45;&gt;unlock733252153 -->
        <g id="edge2" class="edge">
            <title>input789315063&#45;&gt;unlock733252153</title>
            <path fill="none" stroke="#000000"
                  d="M118.9484,-674.8622C149.6455,-690.7792 207.4408,-720.7471 246.5799,-741.0415"/>
            <polygon fill="#000000" stroke="#000000"
                     points="245.1212,-744.2276 255.6099,-745.7236 248.3434,-738.0133 245.1212,-744.2276"/>
        </g>
        <!-- input1815056632 -->
        <g id="node6" class="node">
            <title>input1815056632</title>
            <g id="a_node6">
                <a xlink:href="/graphviz/svg/block/113820" xlink:title="UD">
                    <ellipse fill="#ffff00" stroke="#ffff00" cx="98" cy="-599" rx="23.2963" ry="23.2963"/>
                    <text text-anchor="middle" x="98" y="-595.3" font-family="Times,serif" font-size="14.00"
                          fill="#000000">UD
                    </text>
                </a>
            </g>
        </g>
        <!-- unlock453961880 -->
        <g id="node15" class="node">
            <title>unlock453961880</title>
            <polygon fill="none" stroke="#000000" points="287,-706 233,-668 287,-630 341,-668 287,-706"/>
            <text text-anchor="middle" x="287" y="-671.8" font-family="Times,serif" font-size="14.00" fill="#000000">
                unlock
            </text>
            <text text-anchor="middle" x="287" y="-656.8" font-family="Times,serif" font-size="14.00" fill="#000000">
                SIG(0)
            </text>
        </g>
        <!-- input1815056632&#45;&gt;unlock453961880 -->
        <g id="edge3" class="edge">
            <title>input1815056632&#45;&gt;unlock453961880</title>
            <path fill="none" stroke="#000000"
                  d="M120.2999,-606.1439C140.2381,-612.6179 170.205,-622.5619 196,-632 211.4444,-637.6509 228.2195,-644.1754 243.111,-650.1049"/>
            <polygon fill="#000000" stroke="#000000"
                     points="242.0074,-653.4331 252.5919,-653.9003 244.609,-646.9344 242.0074,-653.4331"/>
        </g>
        <!-- input405429262 -->
        <g id="node7" class="node">
            <title>input405429262</title>
            <g id="a_node7">
                <a xlink:href="/graphviz/svg/block/114082" xlink:title="UD">
                    <ellipse fill="#ffff00" stroke="#ffff00" cx="98" cy="-534" rx="23.2963" ry="23.2963"/>
                    <text text-anchor="middle" x="98" y="-530.3" font-family="Times,serif" font-size="14.00"
                          fill="#000000">UD
                    </text>
                </a>
            </g>
        </g>
        <!-- unlock541018180 -->
        <g id="node16" class="node">
            <title>unlock541018180</title>
            <polygon fill="none" stroke="#000000" points="287,-612 233,-574 287,-536 341,-574 287,-612"/>
            <text text-anchor="middle" x="287" y="-577.8" font-family="Times,serif" font-size="14.00" fill="#000000">
                unlock
            </text>
            <text text-anchor="middle" x="287" y="-562.8" font-family="Times,serif" font-size="14.00" fill="#000000">
                SIG(0)
            </text>
        </g>
        <!-- input405429262&#45;&gt;unlock541018180 -->
        <g id="edge4" class="edge">
            <title>input405429262&#45;&gt;unlock541018180</title>
            <path fill="none" stroke="#000000"
                  d="M121.1751,-538.9048C149.3765,-544.8733 197.839,-555.13 235.1134,-563.0187"/>
            <polygon fill="#000000" stroke="#000000"
                     points="234.7958,-566.5289 245.3038,-565.1754 236.2452,-559.6806 234.7958,-566.5289"/>
        </g>
        <!-- input960104616 -->
        <g id="node8" class="node">
            <title>input960104616</title>
            <g id="a_node8">
                <a xlink:href="/graphviz/svg/block/114358" xlink:title="UD">
                    <ellipse fill="#ffff00" stroke="#ffff00" cx="98" cy="-469" rx="23.2963" ry="23.2963"/>
                    <text text-anchor="middle" x="98" y="-465.3" font-family="Times,serif" font-size="14.00"
                          fill="#000000">UD
                    </text>
                </a>
            </g>
        </g>
        <!-- unlock1559533028 -->
        <g id="node17" class="node">
            <title>unlock1559533028</title>
            <polygon fill="none" stroke="#000000" points="287,-518 233,-480 287,-442 341,-480 287,-518"/>
            <text text-anchor="middle" x="287" y="-483.8" font-family="Times,serif" font-size="14.00" fill="#000000">
                unlock
            </text>
            <text text-anchor="middle" x="287" y="-468.8" font-family="Times,serif" font-size="14.00" fill="#000000">
                SIG(0)
            </text>
        </g>
        <!-- input960104616&#45;&gt;unlock1559533028 -->
        <g id="edge5" class="edge">
            <title>input960104616&#45;&gt;unlock1559533028</title>
            <path fill="none" stroke="#000000"
                  d="M121.5548,-470.3709C147.6735,-471.891 190.8314,-474.4029 226.5192,-476.48"/>
            <polygon fill="#000000" stroke="#000000"
                     points="226.6592,-479.9939 236.8457,-477.081 227.066,-473.0058 226.6592,-479.9939"/>
        </g>
        <!-- input1236184637 -->
        <g id="node9" class="node">
            <title>input1236184637</title>
            <g id="a_node9">
                <a xlink:href="/graphviz/svg/block/114634" xlink:title="UD">
                    <ellipse fill="#ffff00" stroke="#ffff00" cx="98" cy="-404" rx="23.2963" ry="23.2963"/>
                    <text text-anchor="middle" x="98" y="-400.3" font-family="Times,serif" font-size="14.00"
                          fill="#000000">UD
                    </text>
                </a>
            </g>
        </g>
        <!-- unlock1394489601 -->
        <g id="node18" class="node">
            <title>unlock1394489601</title>
            <polygon fill="none" stroke="#000000" points="287,-424 233,-386 287,-348 341,-386 287,-424"/>
            <text text-anchor="middle" x="287" y="-389.8" font-family="Times,serif" font-size="14.00" fill="#000000">
                unlock
            </text>
            <text text-anchor="middle" x="287" y="-374.8" font-family="Times,serif" font-size="14.00" fill="#000000">
                SIG(0)
            </text>
        </g>
        <!-- input1236184637&#45;&gt;unlock1394489601 -->
        <g id="edge6" class="edge">
            <title>input1236184637&#45;&gt;unlock1394489601</title>
            <path fill="none" stroke="#000000"
                  d="M121.5548,-401.7567C148.3283,-399.2068 193.006,-394.9518 229.1888,-391.5058"/>
            <polygon fill="#000000" stroke="#000000"
                     points="229.5239,-394.9898 239.147,-390.5574 228.8602,-388.0214 229.5239,-394.9898"/>
        </g>
        <!-- input1494638496 -->
        <g id="node10" class="node">
            <title>input1494638496</title>
            <g id="a_node10">
                <a xlink:href="/graphviz/svg/block/114906" xlink:title="UD">
                    <ellipse fill="#ffff00" stroke="#ffff00" cx="98" cy="-339" rx="23.2963" ry="23.2963"/>
                    <text text-anchor="middle" x="98" y="-335.3" font-family="Times,serif" font-size="14.00"
                          fill="#000000">UD
                    </text>
                </a>
            </g>
        </g>
        <!-- unlock1069044178 -->
        <g id="node19" class="node">
            <title>unlock1069044178</title>
            <polygon fill="none" stroke="#000000" points="287,-330 233,-292 287,-254 341,-292 287,-330"/>
            <text text-anchor="middle" x="287" y="-295.8" font-family="Times,serif" font-size="14.00" fill="#000000">
                unlock
            </text>
            <text text-anchor="middle" x="287" y="-280.8" font-family="Times,serif" font-size="14.00" fill="#000000">
                SIG(0)
            </text>
        </g>
        <!-- input1494638496&#45;&gt;unlock1069044178 -->
        <g id="edge7" class="edge">
            <title>input1494638496&#45;&gt;unlock1069044178</title>
            <path fill="none" stroke="#000000"
                  d="M120.7978,-333.3307C149.458,-326.2036 199.4638,-313.7683 237.1586,-304.3944"/>
            <polygon fill="#000000" stroke="#000000"
                     points="238.0853,-307.7707 246.945,-301.9608 236.3959,-300.9775 238.0853,-307.7707"/>
        </g>
        <!-- input328643232 -->
        <g id="node11" class="node">
            <title>input328643232</title>
            <g id="a_node11">
                <a xlink:href="/graphviz/svg/block/115185" xlink:title="UD">
                    <ellipse fill="#ffff00" stroke="#ffff00" cx="98" cy="-274" rx="23.2963" ry="23.2963"/>
                    <text text-anchor="middle" x="98" y="-270.3" font-family="Times,serif" font-size="14.00"
                          fill="#000000">UD
                    </text>
                </a>
            </g>
        </g>
        <!-- unlock1696551689 -->
        <g id="node20" class="node">
            <title>unlock1696551689</title>
            <polygon fill="none" stroke="#000000" points="287,-236 233,-198 287,-160 341,-198 287,-236"/>
            <text text-anchor="middle" x="287" y="-201.8" font-family="Times,serif" font-size="14.00" fill="#000000">
                unlock
            </text>
            <text text-anchor="middle" x="287" y="-186.8" font-family="Times,serif" font-size="14.00" fill="#000000">
                SIG(0)
            </text>
        </g>
        <!-- input328643232&#45;&gt;unlock1696551689 -->
        <g id="edge8" class="edge">
            <title>input328643232&#45;&gt;unlock1696551689</title>
            <path fill="none" stroke="#000000"
                  d="M120.4548,-267.259C140.4947,-261.0497 170.5238,-251.2678 196,-241 212.6424,-234.2926 230.5753,-226.0475 246.0858,-218.5775"/>
            <polygon fill="#000000" stroke="#000000"
                     points="247.9361,-221.5696 255.397,-214.0472 244.8735,-215.2751 247.9361,-221.5696"/>
        </g>
        <!-- dbu -->
        <g id="node12" class="node">
            <title>dbu</title>
            <path fill="none" stroke="#000000"
                  d="M318.5,-903.4556C318.5,-908.171 304.3812,-912.0013 287,-912.0013 269.6188,-912.0013 255.5,-908.171 255.5,-903.4556 255.5,-903.4556 255.5,-826.5444 255.5,-826.5444 255.5,-821.829 269.6188,-817.9987 287,-817.9987 304.3812,-817.9987 318.5,-821.829 318.5,-826.5444 318.5,-826.5444 318.5,-903.4556 318.5,-903.4556"/>
            <path fill="none" stroke="#000000"
                  d="M318.5,-903.4556C318.5,-898.7403 304.3812,-894.9099 287,-894.9099 269.6188,-894.9099 255.5,-898.7403 255.5,-903.4556"/>
            <text text-anchor="middle" x="287" y="-883.8" font-family="Times,serif" font-size="14.00" fill="#000000">
                useful
            </text>
            <text text-anchor="middle" x="287" y="-868.8" font-family="Times,serif" font-size="14.00" fill="#000000">
                for
            </text>
            <text text-anchor="middle" x="287" y="-853.8" font-family="Times,serif" font-size="14.00" fill="#000000">
                state
            </text>
            <text text-anchor="middle" x="287" y="-838.8" font-family="Times,serif" font-size="14.00" fill="#000000">
                machine
            </text>
        </g>
        <!-- unlock1971398345&#45;&gt;sum -->
        <g id="edge9" class="edge">
            <title>unlock1971398345&#45;&gt;sum</title>
            <path fill="none" stroke="#000000"
                  d="M317.8732,-120.3072C329.5089,-128.041 341.6863,-138.3781 349,-151 374.2753,-194.6198 363.6459,-327.6731 378,-376 381.0107,-386.1363 385.6713,-396.7158 390.278,-405.9148"/>
            <polygon fill="#000000" stroke="#000000"
                     points="387.2535,-407.6841 394.9878,-414.9249 393.457,-404.4412 387.2535,-407.6841"/>
        </g>
        <!-- unlock733252153&#45;&gt;sum -->
        <g id="edge10" class="edge">
            <title>unlock733252153&#45;&gt;sum</title>
            <path fill="none" stroke="#000000"
                  d="M317.7739,-745.2228C329.2499,-737.4759 341.3382,-727.2546 349,-715 375.6053,-672.4462 394.8741,-523.0859 401.9883,-460.2216"/>
            <polygon fill="#000000" stroke="#000000"
                     points="405.4741,-460.5425 403.1,-450.2171 398.5169,-459.7694 405.4741,-460.5425"/>
        </g>
        <!-- unlock453961880&#45;&gt;sum -->
        <g id="edge11" class="edge">
            <title>unlock453961880&#45;&gt;sum</title>
            <path fill="none" stroke="#000000"
                  d="M317.2053,-650.8487C328.5986,-643.0474 340.7787,-632.8865 349,-621 383.6102,-570.9605 397.1571,-499.2698 402.2042,-460.1339"/>
            <polygon fill="#000000" stroke="#000000"
                     points="405.7034,-460.3482 403.4128,-450.004 398.7527,-459.5189 405.7034,-460.3482"/>
        </g>
        <!-- unlock541018180&#45;&gt;sum -->
        <g id="edge12" class="edge">
            <title>unlock541018180&#45;&gt;sum</title>
            <path fill="none" stroke="#000000"
                  d="M315.4807,-555.9619C326.75,-547.9631 339.3002,-537.8956 349,-527 367.3793,-506.3547 382.8392,-478.7805 392.8269,-458.6591"/>
            <polygon fill="#000000" stroke="#000000"
                     points="396.0807,-459.9698 397.2792,-449.443 389.7777,-456.9248 396.0807,-459.9698"/>
        </g>
        <!-- unlock1559533028&#45;&gt;sum -->
        <g id="edge13" class="edge">
            <title>unlock1559533028&#45;&gt;sum</title>
            <path fill="none" stroke="#000000"
                  d="M321.4477,-465.9874C337.5592,-459.4335 356.6438,-451.6703 372.5032,-445.219"/>
            <polygon fill="#000000" stroke="#000000"
                     points="373.9616,-448.4043 381.9058,-441.3943 371.324,-441.9203 373.9616,-448.4043"/>
        </g>
        <!-- unlock1394489601&#45;&gt;sum -->
        <g id="edge14" class="edge">
            <title>unlock1394489601&#45;&gt;sum</title>
            <path fill="none" stroke="#000000"
                  d="M321.7657,-399.5527C337.7543,-405.7856 356.6169,-413.1388 372.3394,-419.2679"/>
            <polygon fill="#000000" stroke="#000000"
                     points="371.081,-422.5338 381.6694,-422.905 373.6235,-416.0119 371.081,-422.5338"/>
        </g>
        <!-- unlock1069044178&#45;&gt;sum -->
        <g id="edge15" class="edge">
            <title>unlock1069044178&#45;&gt;sum</title>
            <path fill="none" stroke="#000000"
                  d="M315.4297,-310.0837C326.6912,-318.0895 339.2494,-328.1498 349,-339 367.0796,-359.1183 382.4878,-385.9078 392.5377,-405.5658"/>
            <polygon fill="#000000" stroke="#000000"
                     points="389.4377,-407.1923 397.0292,-414.5828 395.7034,-404.0712 389.4377,-407.1923"/>
        </g>
        <!-- unlock1696551689&#45;&gt;sum -->
        <g id="edge16" class="edge">
            <title>unlock1696551689&#45;&gt;sum</title>
            <path fill="none" stroke="#000000"
                  d="M317.6343,-214.8656C329.09,-222.6253 341.2008,-232.8324 349,-245 381.1796,-295.2038 358.476,-319.655 378,-376 381.462,-385.9912 386.2285,-396.5366 390.794,-405.7489"/>
            <polygon fill="#000000" stroke="#000000"
                     points="387.7467,-407.4773 395.4158,-414.7873 393.9791,-404.2903 387.7467,-407.4773"/>
        </g>
        <!-- dbo -->
        <g id="node21" class="node">
            <title>dbo</title>
            <path fill="none" stroke="#000000"
                  d="M663.5,-591.4556C663.5,-596.171 649.3812,-600.0013 632,-600.0013 614.6188,-600.0013 600.5,-596.171 600.5,-591.4556 600.5,-591.4556 600.5,-514.5444 600.5,-514.5444 600.5,-509.829 614.6188,-505.9987 632,-505.9987 649.3812,-505.9987 663.5,-509.829 663.5,-514.5444 663.5,-514.5444 663.5,-591.4556 663.5,-591.4556"/>
            <path fill="none" stroke="#000000"
                  d="M663.5,-591.4556C663.5,-586.7403 649.3812,-582.9099 632,-582.9099 614.6188,-582.9099 600.5,-586.7403 600.5,-591.4556"/>
            <text text-anchor="middle" x="632" y="-571.8" font-family="Times,serif" font-size="14.00" fill="#000000">
                useful
            </text>
            <text text-anchor="middle" x="632" y="-556.8" font-family="Times,serif" font-size="14.00" fill="#000000">
                for
            </text>
            <text text-anchor="middle" x="632" y="-541.8" font-family="Times,serif" font-size="14.00" fill="#000000">
                state
            </text>
            <text text-anchor="middle" x="632" y="-526.8" font-family="Times,serif" font-size="14.00" fill="#000000">
                machine
            </text>
        </g>
        <!-- amountOut1115927958 -->
        <g id="node24" class="node">
            <title>amountOut1115927958</title>
            <polygon fill="none" stroke="#000000" points="847,-462 793,-462 793,-438 847,-438 847,-462"/>
            <polyline fill="none" stroke="#000000" points="796,-451.5 799,-448.5 "/>
            <polyline fill="none" stroke="#000000" points="796,-448.5 799,-451.5 "/>
            <polyline fill="none" stroke="#000000" points="796,-441 844,-441 "/>
            <text text-anchor="middle" x="820" y="-446.3" font-family="Times,serif" font-size="14.00" fill="#000000">
                7200
            </text>
        </g>
        <!-- lockOut1115927958&#45;&gt;amountOut1115927958 -->
        <g id="edge20" class="edge">
            <title>lockOut1115927958&#45;&gt;amountOut1115927958</title>
            <path fill="none" stroke="#000000" d="M753.1889,-450C763.8109,-450 773.926,-450 782.9248,-450"/>
            <polygon fill="#000000" stroke="#000000"
                     points="782.9391,-453.5001 792.9391,-450 782.9391,-446.5001 782.9391,-453.5001"/>
        </g>
        <!-- amountOut1570447828 -->
        <g id="node26" class="node">
            <title>amountOut1570447828</title>
            <polygon fill="none" stroke="#000000" points="847,-368 793,-368 793,-344 847,-344 847,-368"/>
            <polyline fill="none" stroke="#000000" points="796,-357.5 799,-354.5 "/>
            <polyline fill="none" stroke="#000000" points="796,-354.5 799,-357.5 "/>
            <polyline fill="none" stroke="#000000" points="796,-347 844,-347 "/>
            <text text-anchor="middle" x="820" y="-352.3" font-family="Times,serif" font-size="14.00" fill="#000000">
                816
            </text>
        </g>
        <!-- lockOut1570447828&#45;&gt;amountOut1570447828 -->
        <g id="edge24" class="edge">
            <title>lockOut1570447828&#45;&gt;amountOut1570447828</title>
            <path fill="none" stroke="#000000" d="M756.0894,-356C765.6175,-356 774.6845,-356 782.838,-356"/>
            <polygon fill="#000000" stroke="#000000"
                     points="782.9923,-359.5001 792.9923,-356 782.9923,-352.5001 782.9923,-359.5001"/>
        </g>
        <!-- _destDsEx1pS33vzYZg4MroyBV9hCw98j1gtHEhwiZ5tK7ech -->
        <g id="node25" class="node">
            <title>_destDsEx1pS33vzYZg4MroyBV9hCw98j1gtHEhwiZ5tK7ech</title>
            <ellipse fill="none" stroke="#000000" cx="965.2428" cy="-366" rx="81.4863" ry="18"/>
            <text text-anchor="middle" x="965.2428" y="-362.3" font-family="Times,serif" font-size="14.00"
                  fill="#000000">DsEx1pS...5tK7ech
            </text>
        </g>
        <!-- amountOut1115927958&#45;&gt;_destDsEx1pS33vzYZg4MroyBV9hCw98j1gtHEhwiZ5tK7ech -->
        <g id="edge18" class="edge">
            <title>amountOut1115927958&#45;&gt;_destDsEx1pS33vzYZg4MroyBV9hCw98j1gtHEhwiZ5tK7ech</title>
            <path fill="none" stroke="#000000"
                  d="M847.3191,-434.2002C869.8605,-421.1636 902.0976,-402.5195 927.1706,-388.0187"/>
            <polygon fill="#000000" stroke="#000000"
                     points="929.1485,-390.9181 936.0527,-382.8818 925.6439,-384.8585 929.1485,-390.9181"/>
        </g>
        <!-- _destDsEx1pS33vzYZg4MroyBV9hCw98j1gtHEhwiZ5tK7ech&#45;&gt;good -->
        <g id="edge19" class="edge">
            <title>_destDsEx1pS33vzYZg4MroyBV9hCw98j1gtHEhwiZ5tK7ech&#45;&gt;good</title>
            <path fill="none" stroke="#000000"
                  d="M1017.3046,-352.1638C1045.9328,-344.5554 1081.5084,-335.1006 1110.95,-327.2761"/>
            <polygon fill="#000000" stroke="#000000"
                     points="1111.915,-330.6412 1120.6805,-324.6901 1110.117,-323.876 1111.915,-330.6412"/>
            <text text-anchor="middle" x="1073.9856" y="-342.8" font-family="Times,serif" font-size="14.00"
                  fill="#000000">sell
            </text>
        </g>
        <!-- _dest3c8JyzfYQJbYJNbvHDfqMJhnUcM4sGxjcJvnehXRdnu1 -->
        <g id="node27" class="node">
            <title>_dest3c8JyzfYQJbYJNbvHDfqMJhnUcM4sGxjcJvnehXRdnu1</title>
            <ellipse fill="none" stroke="#000000" cx="965.2428" cy="-312" rx="79.0865" ry="18"/>
            <text text-anchor="middle" x="965.2428" y="-308.3" font-family="Times,serif" font-size="14.00"
                  fill="#000000">3c8Jyzf...hXRdnu1
            </text>
        </g>
        <!-- amountOut1570447828&#45;&gt;_dest3c8JyzfYQJbYJNbvHDfqMJhnUcM4sGxjcJvnehXRdnu1 -->
        <g id="edge22" class="edge">
            <title>amountOut1570447828&#45;&gt;_dest3c8JyzfYQJbYJNbvHDfqMJhnUcM4sGxjcJvnehXRdnu1</title>
            <path fill="none" stroke="#000000"
                  d="M847.3191,-347.7239C864.3446,-342.5662 886.9012,-335.7329 907.7244,-329.4247"/>
            <polygon fill="#000000" stroke="#000000"
                     points="908.9028,-332.7248 917.4585,-326.4758 906.8733,-326.0255 908.9028,-332.7248"/>
        </g>
        <!-- _3c8JyzfYQJbYJNbvHDfqMJhnUcM4sGxjcJvnehXRdnu1 -->
        <g id="node28" class="node">
            <title>_3c8JyzfYQJbYJNbvHDfqMJhnUcM4sGxjcJvnehXRdnu1</title>
            <ellipse fill="none" stroke="#000000" cx="98" cy="-113" rx="86.0347" ry="26.7407"/>
            <text text-anchor="middle" x="98" y="-116.8" font-family="Times,serif" font-size="14.00" fill="#000000">
                issuer
            </text>
            <text text-anchor="middle" x="98" y="-101.8" font-family="Times,serif" font-size="14.00" fill="#000000">
                3c8Jyzf...hXRdnu1
            </text>
        </g>
        <!-- _3c8JyzfYQJbYJNbvHDfqMJhnUcM4sGxjcJvnehXRdnu1&#45;&gt;good -->
        <g id="edge26" class="edge">
            <title>_3c8JyzfYQJbYJNbvHDfqMJhnUcM4sGxjcJvnehXRdnu1&#45;&gt;good</title>
            <path fill="none" stroke="#000000"
                  d="M164.3115,-95.6331C175.6208,-90.7837 186.7014,-84.6695 196,-77 215.228,-61.1407 203.2919,-41.2471 225,-29 272.9991,-1.9202 294.6489,-19.8789 349,-29 658.6297,-80.9614 1007.7391,-236.1467 1126.4017,-291.8315"/>
            <polygon fill="#000000" stroke="#000000"
                     points="1124.992,-295.0362 1135.5299,-296.1325 1127.9757,-288.704 1124.992,-295.0362"/>
            <text text-anchor="middle" x="632" y="-145.8" font-family="Times,serif" font-size="14.00" fill="#000000">
                buy
            </text>
        </g>
        <!-- _3c8JyzfYQJbYJNbvHDfqMJhnUcM4sGxjcJvnehXRdnu1&#45;&gt;unlock1971398345 -->
        <g id="edge25" class="edge">
            <title>_3c8JyzfYQJbYJNbvHDfqMJhnUcM4sGxjcJvnehXRdnu1&#45;&gt;unlock1971398345</title>
            <path fill="none" stroke="#000000"
                  d="M183.3764,-108.9345C197.798,-108.2477 212.5056,-107.5474 226.139,-106.8981"/>
            <polygon fill="#000000" stroke="#000000"
                     points="226.5104,-110.3845 236.3325,-106.4127 226.1774,-103.3924 226.5104,-110.3845"/>
        </g>
        <!-- _3c8JyzfYQJbYJNbvHDfqMJhnUcM4sGxjcJvnehXRdnu1&#45;&gt;_dest3c8JyzfYQJbYJNbvHDfqMJhnUcM4sGxjcJvnehXRdnu1 -->
        <g id="edge23" class="edge">
            <title>_3c8JyzfYQJbYJNbvHDfqMJhnUcM4sGxjcJvnehXRdnu1&#45;&gt;_dest3c8JyzfYQJbYJNbvHDfqMJhnUcM4sGxjcJvnehXRdnu1</title>
            <path fill="none" stroke="#000000"
                  d="M168.619,-90.1566C178.0394,-86.2203 187.4046,-81.8224 196,-77 210.3467,-68.9509 209.4654,-59.4125 225,-54 277.0428,-35.8676 307.7318,-17.4737 349,-54 368.8659,-71.5833 358.4515,-273.0645 378,-291 380.3139,-293.1229 726.819,-304.4143 886.4133,-309.5061"/>
            <polygon fill="#000000" stroke="#000000"
                     points="167.1814,-86.9622 159.2068,-93.9376 169.7908,-93.4577 167.1814,-86.9622"/>
            <text text-anchor="middle" x="470" y="-299.8" font-family="Times,serif" font-size="14.00" fill="#000000">the
                rest
            </text>
        </g>
    </g>
</svg>
